ISO-10303-21;
HEADER;
/* Generated by software containing ST-Developer
 * from STEP Tools, Inc. (www.steptools.com) 
 */

FILE_DESCRIPTION(
/* description */ (''),
/* implementation_level */ '2;1');

FILE_NAME(
/* name */ 'foot.step',
/* time_stamp */ '2026-07-28T10:22:12+09:00',
/* author */ (''),
/* organization */ (''),
/* preprocessor_version */ 'ST-DEVELOPER v20.1',
/* originating_system */ 'Autodesk Translation Framework v15.8.0.0',
/* authorisation */ '');

FILE_SCHEMA (('AUTOMOTIVE_DESIGN { 1 0 10303 214 3 1 1 }'));
ENDSEC;

DATA;
#10=MECHANICAL_DESIGN_GEOMETRIC_PRESENTATION_REPRESENTATION('',(#13),#1472);
#11=SHAPE_REPRESENTATION_RELATIONSHIP('SRR','None',#1479,#12);
#12=ADVANCED_BREP_SHAPE_REPRESENTATION('',(#14),#1471);
#13=STYLED_ITEM('',(#1488),#14);
#14=MANIFOLD_SOLID_BREP('foot_long',#884);
#15=FACE_BOUND('',#148,.T.);
#16=FACE_BOUND('',#151,.T.);
#17=SPHERICAL_SURFACE('',#961,2.);
#18=SPHERICAL_SURFACE('',#963,2.);
#19=CYLINDRICAL_SURFACE('',#906,3.);
#20=CYLINDRICAL_SURFACE('',#912,5.);
#21=CYLINDRICAL_SURFACE('',#917,0.8);
#22=CYLINDRICAL_SURFACE('',#923,0.8);
#23=CYLINDRICAL_SURFACE('',#931,5.);
#24=CYLINDRICAL_SURFACE('',#934,3.);
#25=CYLINDRICAL_SURFACE('',#952,2.);
#26=CYLINDRICAL_SURFACE('',#955,2.);
#27=CYLINDRICAL_SURFACE('',#958,2.);
#28=CYLINDRICAL_SURFACE('',#965,1.99999999999999);
#29=CYLINDRICAL_SURFACE('',#967,2.);
#30=CIRCLE('',#900,5.);
#31=CIRCLE('',#901,5.);
#32=CIRCLE('',#902,3.);
#33=CIRCLE('',#903,3.);
#34=CIRCLE('',#907,3.);
#35=CIRCLE('',#913,5.);
#36=CIRCLE('',#915,0.8);
#37=CIRCLE('',#916,0.8);
#38=CIRCLE('',#918,0.8);
#39=CIRCLE('',#919,0.8);
#40=CIRCLE('',#922,0.8);
#41=CIRCLE('',#924,0.8);
#42=CIRCLE('',#925,0.8);
#43=CIRCLE('',#926,0.8);
#44=CIRCLE('',#932,5.);
#45=CIRCLE('',#935,3.);
#46=CIRCLE('',#939,1.99999999999999);
#47=CIRCLE('',#940,2.);
#48=CIRCLE('',#953,2.);
#49=CIRCLE('',#954,2.);
#50=CIRCLE('',#956,2.);
#51=CIRCLE('',#957,2.);
#52=CIRCLE('',#959,2.);
#53=CIRCLE('',#960,2.);
#54=CIRCLE('',#962,2.);
#55=CIRCLE('',#964,2.);
#56=FACE_OUTER_BOUND('',#103,.T.);
#57=FACE_OUTER_BOUND('',#104,.T.);
#58=FACE_OUTER_BOUND('',#105,.T.);
#59=FACE_OUTER_BOUND('',#106,.T.);
#60=FACE_OUTER_BOUND('',#107,.T.);
#61=FACE_OUTER_BOUND('',#108,.T.);
#62=FACE_OUTER_BOUND('',#109,.T.);
#63=FACE_OUTER_BOUND('',#110,.T.);
#64=FACE_OUTER_BOUND('',#111,.T.);
#65=FACE_OUTER_BOUND('',#112,.T.);
#66=FACE_OUTER_BOUND('',#113,.T.);
#67=FACE_OUTER_BOUND('',#114,.T.);
#68=FACE_OUTER_BOUND('',#115,.T.);
#69=FACE_OUTER_BOUND('',#116,.T.);
#70=FACE_OUTER_BOUND('',#117,.T.);
#71=FACE_OUTER_BOUND('',#118,.T.);
#72=FACE_OUTER_BOUND('',#119,.T.);
#73=FACE_OUTER_BOUND('',#120,.T.);
#74=FACE_OUTER_BOUND('',#121,.T.);
#75=FACE_OUTER_BOUND('',#122,.T.);
#76=FACE_OUTER_BOUND('',#123,.T.);
#77=FACE_OUTER_BOUND('',#124,.T.);
#78=FACE_OUTER_BOUND('',#125,.T.);
#79=FACE_OUTER_BOUND('',#126,.T.);
#80=FACE_OUTER_BOUND('',#127,.T.);
#81=FACE_OUTER_BOUND('',#128,.T.);
#82=FACE_OUTER_BOUND('',#129,.T.);
#83=FACE_OUTER_BOUND('',#130,.T.);
#84=FACE_OUTER_BOUND('',#131,.T.);
#85=FACE_OUTER_BOUND('',#132,.T.);
#86=FACE_OUTER_BOUND('',#133,.T.);
#87=FACE_OUTER_BOUND('',#134,.T.);
#88=FACE_OUTER_BOUND('',#135,.T.);
#89=FACE_OUTER_BOUND('',#136,.T.);
#90=FACE_OUTER_BOUND('',#137,.T.);
#91=FACE_OUTER_BOUND('',#138,.T.);
#92=FACE_OUTER_BOUND('',#139,.T.);
#93=FACE_OUTER_BOUND('',#140,.T.);
#94=FACE_OUTER_BOUND('',#141,.T.);
#95=FACE_OUTER_BOUND('',#142,.T.);
#96=FACE_OUTER_BOUND('',#143,.T.);
#97=FACE_OUTER_BOUND('',#144,.T.);
#98=FACE_OUTER_BOUND('',#145,.T.);
#99=FACE_OUTER_BOUND('',#146,.T.);
#100=FACE_OUTER_BOUND('',#147,.T.);
#101=FACE_OUTER_BOUND('',#149,.T.);
#102=FACE_OUTER_BOUND('',#150,.T.);
#103=EDGE_LOOP('',(#553,#554,#555,#556));
#104=EDGE_LOOP('',(#557,#558,#559,#560,#561,#562,#563,#564,#565,#566,#567,
#568));
#105=EDGE_LOOP('',(#569,#570,#571,#572));
#106=EDGE_LOOP('',(#573,#574,#575,#576));
#107=EDGE_LOOP('',(#577,#578,#579,#580));
#108=EDGE_LOOP('',(#581,#582,#583,#584,#585,#586,#587));
#109=EDGE_LOOP('',(#588,#589,#590,#591));
#110=EDGE_LOOP('',(#592,#593,#594,#595,#596,#597,#598,#599,#600,#601));
#111=EDGE_LOOP('',(#602,#603,#604,#605,#606,#607,#608,#609,#610,#611));
#112=EDGE_LOOP('',(#612,#613,#614,#615));
#113=EDGE_LOOP('',(#616,#617,#618));
#114=EDGE_LOOP('',(#619,#620,#621,#622,#623,#624));
#115=EDGE_LOOP('',(#625,#626,#627,#628));
#116=EDGE_LOOP('',(#629,#630));
#117=EDGE_LOOP('',(#631,#632,#633,#634,#635,#636));
#118=EDGE_LOOP('',(#637,#638,#639,#640,#641,#642));
#119=EDGE_LOOP('',(#643,#644,#645,#646));
#120=EDGE_LOOP('',(#647,#648,#649,#650,#651,#652));
#121=EDGE_LOOP('',(#653,#654,#655,#656));
#122=EDGE_LOOP('',(#657,#658,#659,#660));
#123=EDGE_LOOP('',(#661,#662,#663,#664));
#124=EDGE_LOOP('',(#665,#666,#667,#668));
#125=EDGE_LOOP('',(#669,#670,#671,#672,#673,#674,#675,#676,#677,#678,#679,
#680,#681,#682));
#126=EDGE_LOOP('',(#683,#684,#685,#686,#687,#688,#689));
#127=EDGE_LOOP('',(#690,#691,#692,#693,#694,#695,#696,#697));
#128=EDGE_LOOP('',(#698,#699,#700,#701));
#129=EDGE_LOOP('',(#702,#703,#704,#705));
#130=EDGE_LOOP('',(#706,#707,#708,#709));
#131=EDGE_LOOP('',(#710,#711,#712,#713,#714));
#132=EDGE_LOOP('',(#715,#716,#717,#718,#719,#720));
#133=EDGE_LOOP('',(#721,#722,#723,#724,#725,#726));
#134=EDGE_LOOP('',(#727,#728,#729,#730));
#135=EDGE_LOOP('',(#731,#732,#733,#734,#735,#736));
#136=EDGE_LOOP('',(#737,#738,#739,#740));
#137=EDGE_LOOP('',(#741,#742,#743,#744,#745,#746,#747));
#138=EDGE_LOOP('',(#748,#749,#750,#751,#752));
#139=EDGE_LOOP('',(#753,#754,#755,#756,#757,#758));
#140=EDGE_LOOP('',(#759,#760,#761,#762));
#141=EDGE_LOOP('',(#763,#764,#765,#766,#767,#768));
#142=EDGE_LOOP('',(#769,#770,#771));
#143=EDGE_LOOP('',(#772,#773,#774));
#144=EDGE_LOOP('',(#775,#776,#777,#778));
#145=EDGE_LOOP('',(#779,#780,#781,#782));
#146=EDGE_LOOP('',(#783,#784,#785,#786));
#147=EDGE_LOOP('',(#787,#788,#789,#790,#791));
#148=EDGE_LOOP('',(#792));
#149=EDGE_LOOP('',(#793,#794,#795,#796));
#150=EDGE_LOOP('',(#797,#798,#799,#800,#801));
#151=EDGE_LOOP('',(#802));
#152=LINE('',#1222,#251);
#153=LINE('',#1224,#252);
#154=LINE('',#1226,#253);
#155=LINE('',#1227,#254);
#156=LINE('',#1231,#255);
#157=LINE('',#1233,#256);
#158=LINE('',#1235,#257);
#159=LINE('',#1239,#258);
#160=LINE('',#1242,#259);
#161=LINE('',#1244,#260);
#162=LINE('',#1248,#261);
#163=LINE('',#1252,#262);
#164=LINE('',#1254,#263);
#165=LINE('',#1255,#264);
#166=LINE('',#1258,#265);
#167=LINE('',#1260,#266);
#168=LINE('',#1261,#267);
#169=LINE('',#1264,#268);
#170=LINE('',#1268,#269);
#171=LINE('',#1270,#270);
#172=LINE('',#1272,#271);
#173=LINE('',#1273,#272);
#174=LINE('',#1276,#273);
#175=LINE('',#1277,#274);
#176=LINE('',#1280,#275);
#177=LINE('',#1282,#276);
#178=LINE('',#1284,#277);
#179=LINE('',#1286,#278);
#180=LINE('',#1288,#279);
#181=LINE('',#1290,#280);
#182=LINE('',#1292,#281);
#183=LINE('',#1293,#282);
#184=LINE('',#1296,#283);
#185=LINE('',#1298,#284);
#186=LINE('',#1300,#285);
#187=LINE('',#1302,#286);
#188=LINE('',#1304,#287);
#189=LINE('',#1306,#288);
#190=LINE('',#1307,#289);
#191=LINE('',#1310,#290);
#192=LINE('',#1317,#291);
#193=LINE('',#1322,#292);
#194=LINE('',#1327,#293);
#195=LINE('',#1329,#294);
#196=LINE('',#1331,#295);
#197=LINE('',#1332,#296);
#198=LINE('',#1337,#297);
#199=LINE('',#1342,#298);
#200=LINE('',#1347,#299);
#201=LINE('',#1348,#300);
#202=LINE('',#1350,#301);
#203=LINE('',#1351,#302);
#204=LINE('',#1354,#303);
#205=LINE('',#1356,#304);
#206=LINE('',#1357,#305);
#207=LINE('',#1360,#306);
#208=LINE('',#1361,#307);
#209=LINE('',#1363,#308);
#210=LINE('',#1364,#309);
#211=LINE('',#1367,#310);
#212=LINE('',#1368,#311);
#213=LINE('',#1373,#312);
#214=LINE('',#1374,#313);
#215=LINE('',#1378,#314);
#216=LINE('',#1381,#315);
#217=LINE('',#1383,#316);
#218=LINE('',#1385,#317);
#219=LINE('',#1386,#318);
#220=LINE('',#1388,#319);
#221=LINE('',#1390,#320);
#222=LINE('',#1391,#321);
#223=LINE('',#1394,#322);
#224=LINE('',#1395,#323);
#225=LINE('',#1400,#324);
#226=LINE('',#1404,#325);
#227=LINE('',#1405,#326);
#228=LINE('',#1408,#327);
#229=LINE('',#1409,#328);
#230=LINE('',#1411,#329);
#231=LINE('',#1414,#330);
#232=LINE('',#1415,#331);
#233=LINE('',#1418,#332);
#234=LINE('',#1420,#333);
#235=LINE('',#1421,#334);
#236=LINE('',#1424,#335);
#237=LINE('',#1426,#336);
#238=LINE('',#1428,#337);
#239=LINE('',#1429,#338);
#240=LINE('',#1431,#339);
#241=LINE('',#1433,#340);
#242=LINE('',#1436,#341);
#243=LINE('',#1437,#342);
#244=LINE('',#1439,#343);
#245=LINE('',#1441,#344);
#246=LINE('',#1445,#345);
#247=LINE('',#1451,#346);
#248=LINE('',#1461,#347);
#249=LINE('',#1463,#348);
#250=LINE('',#1467,#349);
#251=VECTOR('',#975,10.);
#252=VECTOR('',#976,10.);
#253=VECTOR('',#977,10.);
#254=VECTOR('',#978,10.);
#255=VECTOR('',#981,10.);
#256=VECTOR('',#982,10.);
#257=VECTOR('',#983,10.);
#258=VECTOR('',#986,10.);
#259=VECTOR('',#989,10.);
#260=VECTOR('',#990,10.);
#261=VECTOR('',#993,10.);
#262=VECTOR('',#998,10.);
#263=VECTOR('',#999,10.);
#264=VECTOR('',#1000,10.);
#265=VECTOR('',#1003,10.);
#266=VECTOR('',#1004,10.);
#267=VECTOR('',#1005,10.);
#268=VECTOR('',#1008,10.);
#269=VECTOR('',#1013,10.);
#270=VECTOR('',#1014,10.);
#271=VECTOR('',#1015,10.);
#272=VECTOR('',#1016,10.);
#273=VECTOR('',#1019,10.);
#274=VECTOR('',#1020,10.);
#275=VECTOR('',#1023,10.);
#276=VECTOR('',#1024,10.);
#277=VECTOR('',#1025,10.);
#278=VECTOR('',#1026,10.);
#279=VECTOR('',#1027,10.);
#280=VECTOR('',#1028,10.);
#281=VECTOR('',#1029,10.);
#282=VECTOR('',#1030,10.);
#283=VECTOR('',#1033,10.);
#284=VECTOR('',#1034,10.);
#285=VECTOR('',#1035,10.);
#286=VECTOR('',#1036,10.);
#287=VECTOR('',#1037,10.);
#288=VECTOR('',#1038,10.);
#289=VECTOR('',#1039,10.);
#290=VECTOR('',#1042,10.);
#291=VECTOR('',#1049,10.);
#292=VECTOR('',#1056,0.8);
#293=VECTOR('',#1061,10.);
#294=VECTOR('',#1062,10.);
#295=VECTOR('',#1063,10.);
#296=VECTOR('',#1064,10.);
#297=VECTOR('',#1069,10.);
#298=VECTOR('',#1074,0.8);
#299=VECTOR('',#1081,10.);
#300=VECTOR('',#1082,10.);
#301=VECTOR('',#1083,10.);
#302=VECTOR('',#1084,10.);
#303=VECTOR('',#1087,10.);
#304=VECTOR('',#1088,10.);
#305=VECTOR('',#1089,10.);
#306=VECTOR('',#1092,10.);
#307=VECTOR('',#1093,10.);
#308=VECTOR('',#1094,10.);
#309=VECTOR('',#1095,10.);
#310=VECTOR('',#1098,10.);
#311=VECTOR('',#1099,10.);
#312=VECTOR('',#1106,10.);
#313=VECTOR('',#1107,10.);
#314=VECTOR('',#1112,10.);
#315=VECTOR('',#1115,10.);
#316=VECTOR('',#1116,10.);
#317=VECTOR('',#1117,10.);
#318=VECTOR('',#1118,10.);
#319=VECTOR('',#1119,10.);
#320=VECTOR('',#1120,10.);
#321=VECTOR('',#1121,10.);
#322=VECTOR('',#1124,10.);
#323=VECTOR('',#1125,10.);
#324=VECTOR('',#1130,10.);
#325=VECTOR('',#1135,10.);
#326=VECTOR('',#1136,10.);
#327=VECTOR('',#1139,10.);
#328=VECTOR('',#1140,10.);
#329=VECTOR('',#1143,10.);
#330=VECTOR('',#1146,10.);
#331=VECTOR('',#1147,10.);
#332=VECTOR('',#1150,10.);
#333=VECTOR('',#1151,10.);
#334=VECTOR('',#1152,10.);
#335=VECTOR('',#1155,10.);
#336=VECTOR('',#1156,10.);
#337=VECTOR('',#1157,10.);
#338=VECTOR('',#1158,10.);
#339=VECTOR('',#1161,10.);
#340=VECTOR('',#1164,10.);
#341=VECTOR('',#1167,10.);
#342=VECTOR('',#1168,10.);
#343=VECTOR('',#1171,10.);
#344=VECTOR('',#1174,10.);
#345=VECTOR('',#1179,10.);
#346=VECTOR('',#1186,10.);
#347=VECTOR('',#1205,10.);
#348=VECTOR('',#1208,10.);
#349=VECTOR('',#1215,10.);
#350=VERTEX_POINT('',#1220);
#351=VERTEX_POINT('',#1221);
#352=VERTEX_POINT('',#1223);
#353=VERTEX_POINT('',#1225);
#354=VERTEX_POINT('',#1229);
#355=VERTEX_POINT('',#1230);
#356=VERTEX_POINT('',#1232);
#357=VERTEX_POINT('',#1234);
#358=VERTEX_POINT('',#1236);
#359=VERTEX_POINT('',#1238);
#360=VERTEX_POINT('',#1240);
#361=VERTEX_POINT('',#1243);
#362=VERTEX_POINT('',#1245);
#363=VERTEX_POINT('',#1247);
#364=VERTEX_POINT('',#1251);
#365=VERTEX_POINT('',#1253);
#366=VERTEX_POINT('',#1257);
#367=VERTEX_POINT('',#1259);
#368=VERTEX_POINT('',#1263);
#369=VERTEX_POINT('',#1267);
#370=VERTEX_POINT('',#1269);
#371=VERTEX_POINT('',#1271);
#372=VERTEX_POINT('',#1275);
#373=VERTEX_POINT('',#1279);
#374=VERTEX_POINT('',#1281);
#375=VERTEX_POINT('',#1283);
#376=VERTEX_POINT('',#1285);
#377=VERTEX_POINT('',#1287);
#378=VERTEX_POINT('',#1289);
#379=VERTEX_POINT('',#1291);
#380=VERTEX_POINT('',#1295);
#381=VERTEX_POINT('',#1297);
#382=VERTEX_POINT('',#1299);
#383=VERTEX_POINT('',#1301);
#384=VERTEX_POINT('',#1303);
#385=VERTEX_POINT('',#1305);
#386=VERTEX_POINT('',#1309);
#387=VERTEX_POINT('',#1313);
#388=VERTEX_POINT('',#1314);
#389=VERTEX_POINT('',#1316);
#390=VERTEX_POINT('',#1320);
#391=VERTEX_POINT('',#1325);
#392=VERTEX_POINT('',#1326);
#393=VERTEX_POINT('',#1328);
#394=VERTEX_POINT('',#1330);
#395=VERTEX_POINT('',#1334);
#396=VERTEX_POINT('',#1335);
#397=VERTEX_POINT('',#1339);
#398=VERTEX_POINT('',#1341);
#399=VERTEX_POINT('',#1346);
#400=VERTEX_POINT('',#1349);
#401=VERTEX_POINT('',#1353);
#402=VERTEX_POINT('',#1355);
#403=VERTEX_POINT('',#1359);
#404=VERTEX_POINT('',#1362);
#405=VERTEX_POINT('',#1366);
#406=VERTEX_POINT('',#1372);
#407=VERTEX_POINT('',#1376);
#408=VERTEX_POINT('',#1380);
#409=VERTEX_POINT('',#1382);
#410=VERTEX_POINT('',#1384);
#411=VERTEX_POINT('',#1387);
#412=VERTEX_POINT('',#1389);
#413=VERTEX_POINT('',#1393);
#414=VERTEX_POINT('',#1397);
#415=VERTEX_POINT('',#1399);
#416=VERTEX_POINT('',#1403);
#417=VERTEX_POINT('',#1407);
#418=VERTEX_POINT('',#1413);
#419=VERTEX_POINT('',#1417);
#420=VERTEX_POINT('',#1419);
#421=VERTEX_POINT('',#1423);
#422=VERTEX_POINT('',#1425);
#423=VERTEX_POINT('',#1427);
#424=VERTEX_POINT('',#1435);
#425=VERTEX_POINT('',#1443);
#426=VERTEX_POINT('',#1448);
#427=VERTEX_POINT('',#1450);
#428=EDGE_CURVE('',#350,#351,#152,.T.);
#429=EDGE_CURVE('',#350,#352,#153,.T.);
#430=EDGE_CURVE('',#353,#352,#154,.T.);
#431=EDGE_CURVE('',#351,#353,#155,.T.);
#432=EDGE_CURVE('',#354,#355,#156,.T.);
#433=EDGE_CURVE('',#356,#354,#157,.T.);
#434=EDGE_CURVE('',#357,#356,#158,.T.);
#435=EDGE_CURVE('',#358,#357,#30,.T.);
#436=EDGE_CURVE('',#359,#358,#159,.T.);
#437=EDGE_CURVE('',#360,#359,#31,.T.);
#438=EDGE_CURVE('',#352,#360,#160,.T.);
#439=EDGE_CURVE('',#361,#350,#161,.T.);
#440=EDGE_CURVE('',#362,#361,#32,.T.);
#441=EDGE_CURVE('',#363,#362,#162,.T.);
#442=EDGE_CURVE('',#355,#363,#33,.T.);
#443=EDGE_CURVE('',#364,#354,#163,.T.);
#444=EDGE_CURVE('',#365,#364,#164,.T.);
#445=EDGE_CURVE('',#356,#365,#165,.T.);
#446=EDGE_CURVE('',#366,#362,#166,.T.);
#447=EDGE_CURVE('',#367,#366,#167,.T.);
#448=EDGE_CURVE('',#363,#367,#168,.T.);
#449=EDGE_CURVE('',#361,#368,#169,.T.);
#450=EDGE_CURVE('',#366,#368,#34,.T.);
#451=EDGE_CURVE('',#351,#369,#170,.T.);
#452=EDGE_CURVE('',#370,#369,#171,.T.);
#453=EDGE_CURVE('',#371,#370,#172,.T.);
#454=EDGE_CURVE('',#371,#368,#173,.T.);
#455=EDGE_CURVE('',#372,#353,#174,.T.);
#456=EDGE_CURVE('',#369,#372,#175,.T.);
#457=EDGE_CURVE('',#365,#373,#176,.T.);
#458=EDGE_CURVE('',#374,#373,#177,.T.);
#459=EDGE_CURVE('',#375,#374,#178,.T.);
#460=EDGE_CURVE('',#376,#375,#179,.T.);
#461=EDGE_CURVE('',#377,#376,#180,.T.);
#462=EDGE_CURVE('',#378,#377,#181,.T.);
#463=EDGE_CURVE('',#378,#379,#182,.T.);
#464=EDGE_CURVE('',#357,#379,#183,.T.);
#465=EDGE_CURVE('',#380,#360,#184,.T.);
#466=EDGE_CURVE('',#381,#380,#185,.T.);
#467=EDGE_CURVE('',#382,#381,#186,.T.);
#468=EDGE_CURVE('',#383,#382,#187,.T.);
#469=EDGE_CURVE('',#384,#383,#188,.T.);
#470=EDGE_CURVE('',#385,#384,#189,.T.);
#471=EDGE_CURVE('',#372,#385,#190,.T.);
#472=EDGE_CURVE('',#359,#386,#191,.T.);
#473=EDGE_CURVE('',#386,#380,#35,.T.);
#474=EDGE_CURVE('',#387,#388,#36,.T.);
#475=EDGE_CURVE('',#389,#387,#192,.T.);
#476=EDGE_CURVE('',#388,#389,#37,.T.);
#477=EDGE_CURVE('',#390,#390,#38,.T.);
#478=EDGE_CURVE('',#390,#388,#193,.T.);
#479=EDGE_CURVE('',#389,#387,#39,.T.);
#480=EDGE_CURVE('',#391,#392,#194,.T.);
#481=EDGE_CURVE('',#393,#391,#195,.T.);
#482=EDGE_CURVE('',#394,#393,#196,.T.);
#483=EDGE_CURVE('',#392,#394,#197,.T.);
#484=EDGE_CURVE('',#395,#396,#40,.T.);
#485=EDGE_CURVE('',#396,#395,#198,.T.);
#486=EDGE_CURVE('',#397,#397,#41,.T.);
#487=EDGE_CURVE('',#397,#398,#199,.T.);
#488=EDGE_CURVE('',#398,#395,#42,.T.);
#489=EDGE_CURVE('',#396,#398,#43,.T.);
#490=EDGE_CURVE('',#399,#395,#200,.T.);
#491=EDGE_CURVE('',#399,#394,#201,.T.);
#492=EDGE_CURVE('',#400,#393,#202,.T.);
#493=EDGE_CURVE('',#396,#400,#203,.T.);
#494=EDGE_CURVE('',#401,#391,#204,.T.);
#495=EDGE_CURVE('',#402,#401,#205,.T.);
#496=EDGE_CURVE('',#393,#402,#206,.T.);
#497=EDGE_CURVE('',#387,#403,#207,.T.);
#498=EDGE_CURVE('',#391,#403,#208,.T.);
#499=EDGE_CURVE('',#404,#392,#209,.T.);
#500=EDGE_CURVE('',#404,#389,#210,.T.);
#501=EDGE_CURVE('',#405,#358,#211,.T.);
#502=EDGE_CURVE('',#405,#386,#212,.T.);
#503=EDGE_CURVE('',#379,#405,#44,.T.);
#504=EDGE_CURVE('',#364,#406,#213,.T.);
#505=EDGE_CURVE('',#373,#406,#214,.T.);
#506=EDGE_CURVE('',#407,#367,#45,.T.);
#507=EDGE_CURVE('',#407,#355,#215,.T.);
#508=EDGE_CURVE('',#408,#399,#216,.T.);
#509=EDGE_CURVE('',#409,#408,#217,.T.);
#510=EDGE_CURVE('',#410,#409,#218,.T.);
#511=EDGE_CURVE('',#410,#407,#219,.T.);
#512=EDGE_CURVE('',#411,#371,#220,.T.);
#513=EDGE_CURVE('',#412,#411,#221,.T.);
#514=EDGE_CURVE('',#404,#412,#222,.T.);
#515=EDGE_CURVE('',#410,#413,#223,.T.);
#516=EDGE_CURVE('',#406,#413,#224,.T.);
#517=EDGE_CURVE('',#378,#414,#46,.T.);
#518=EDGE_CURVE('',#414,#415,#225,.T.);
#519=EDGE_CURVE('',#415,#381,#47,.T.);
#520=EDGE_CURVE('',#411,#416,#226,.T.);
#521=EDGE_CURVE('',#416,#370,#227,.T.);
#522=EDGE_CURVE('',#413,#417,#228,.T.);
#523=EDGE_CURVE('',#417,#409,#229,.T.);
#524=EDGE_CURVE('',#413,#374,#230,.T.);
#525=EDGE_CURVE('',#417,#418,#231,.T.);
#526=EDGE_CURVE('',#418,#375,#232,.T.);
#527=EDGE_CURVE('',#408,#419,#233,.T.);
#528=EDGE_CURVE('',#419,#420,#234,.T.);
#529=EDGE_CURVE('',#418,#420,#235,.T.);
#530=EDGE_CURVE('',#421,#416,#236,.T.);
#531=EDGE_CURVE('',#422,#421,#237,.T.);
#532=EDGE_CURVE('',#422,#423,#238,.T.);
#533=EDGE_CURVE('',#423,#412,#239,.T.);
#534=EDGE_CURVE('',#370,#385,#240,.T.);
#535=EDGE_CURVE('',#403,#423,#241,.T.);
#536=EDGE_CURVE('',#424,#422,#242,.T.);
#537=EDGE_CURVE('',#403,#424,#243,.T.);
#538=EDGE_CURVE('',#419,#400,#244,.T.);
#539=EDGE_CURVE('',#384,#421,#245,.T.);
#540=EDGE_CURVE('',#376,#425,#48,.T.);
#541=EDGE_CURVE('',#425,#400,#246,.T.);
#542=EDGE_CURVE('',#402,#377,#49,.T.);
#543=EDGE_CURVE('',#401,#426,#50,.T.);
#544=EDGE_CURVE('',#426,#427,#247,.T.);
#545=EDGE_CURVE('',#427,#402,#51,.T.);
#546=EDGE_CURVE('',#424,#383,#52,.T.);
#547=EDGE_CURVE('',#382,#401,#53,.T.);
#548=EDGE_CURVE('',#382,#426,#54,.T.);
#549=EDGE_CURVE('',#427,#377,#55,.T.);
#550=EDGE_CURVE('',#427,#414,#248,.T.);
#551=EDGE_CURVE('',#426,#415,#249,.T.);
#552=EDGE_CURVE('',#420,#425,#250,.T.);
#553=ORIENTED_EDGE('',*,*,#428,.F.);
#554=ORIENTED_EDGE('',*,*,#429,.T.);
#555=ORIENTED_EDGE('',*,*,#430,.F.);
#556=ORIENTED_EDGE('',*,*,#431,.F.);
#557=ORIENTED_EDGE('',*,*,#432,.F.);
#558=ORIENTED_EDGE('',*,*,#433,.F.);
#559=ORIENTED_EDGE('',*,*,#434,.F.);
#560=ORIENTED_EDGE('',*,*,#435,.F.);
#561=ORIENTED_EDGE('',*,*,#436,.F.);
#562=ORIENTED_EDGE('',*,*,#437,.F.);
#563=ORIENTED_EDGE('',*,*,#438,.F.);
#564=ORIENTED_EDGE('',*,*,#429,.F.);
#565=ORIENTED_EDGE('',*,*,#439,.F.);
#566=ORIENTED_EDGE('',*,*,#440,.F.);
#567=ORIENTED_EDGE('',*,*,#441,.F.);
#568=ORIENTED_EDGE('',*,*,#442,.F.);
#569=ORIENTED_EDGE('',*,*,#443,.F.);
#570=ORIENTED_EDGE('',*,*,#444,.F.);
#571=ORIENTED_EDGE('',*,*,#445,.F.);
#572=ORIENTED_EDGE('',*,*,#433,.T.);
#573=ORIENTED_EDGE('',*,*,#441,.T.);
#574=ORIENTED_EDGE('',*,*,#446,.F.);
#575=ORIENTED_EDGE('',*,*,#447,.F.);
#576=ORIENTED_EDGE('',*,*,#448,.F.);
#577=ORIENTED_EDGE('',*,*,#440,.T.);
#578=ORIENTED_EDGE('',*,*,#449,.T.);
#579=ORIENTED_EDGE('',*,*,#450,.F.);
#580=ORIENTED_EDGE('',*,*,#446,.T.);
#581=ORIENTED_EDGE('',*,*,#439,.T.);
#582=ORIENTED_EDGE('',*,*,#428,.T.);
#583=ORIENTED_EDGE('',*,*,#451,.T.);
#584=ORIENTED_EDGE('',*,*,#452,.F.);
#585=ORIENTED_EDGE('',*,*,#453,.F.);
#586=ORIENTED_EDGE('',*,*,#454,.T.);
#587=ORIENTED_EDGE('',*,*,#449,.F.);
#588=ORIENTED_EDGE('',*,*,#431,.T.);
#589=ORIENTED_EDGE('',*,*,#455,.F.);
#590=ORIENTED_EDGE('',*,*,#456,.F.);
#591=ORIENTED_EDGE('',*,*,#451,.F.);
#592=ORIENTED_EDGE('',*,*,#434,.T.);
#593=ORIENTED_EDGE('',*,*,#445,.T.);
#594=ORIENTED_EDGE('',*,*,#457,.T.);
#595=ORIENTED_EDGE('',*,*,#458,.F.);
#596=ORIENTED_EDGE('',*,*,#459,.F.);
#597=ORIENTED_EDGE('',*,*,#460,.F.);
#598=ORIENTED_EDGE('',*,*,#461,.F.);
#599=ORIENTED_EDGE('',*,*,#462,.F.);
#600=ORIENTED_EDGE('',*,*,#463,.T.);
#601=ORIENTED_EDGE('',*,*,#464,.F.);
#602=ORIENTED_EDGE('',*,*,#430,.T.);
#603=ORIENTED_EDGE('',*,*,#438,.T.);
#604=ORIENTED_EDGE('',*,*,#465,.F.);
#605=ORIENTED_EDGE('',*,*,#466,.F.);
#606=ORIENTED_EDGE('',*,*,#467,.F.);
#607=ORIENTED_EDGE('',*,*,#468,.F.);
#608=ORIENTED_EDGE('',*,*,#469,.F.);
#609=ORIENTED_EDGE('',*,*,#470,.F.);
#610=ORIENTED_EDGE('',*,*,#471,.F.);
#611=ORIENTED_EDGE('',*,*,#455,.T.);
#612=ORIENTED_EDGE('',*,*,#437,.T.);
#613=ORIENTED_EDGE('',*,*,#472,.T.);
#614=ORIENTED_EDGE('',*,*,#473,.T.);
#615=ORIENTED_EDGE('',*,*,#465,.T.);
#616=ORIENTED_EDGE('',*,*,#474,.F.);
#617=ORIENTED_EDGE('',*,*,#475,.F.);
#618=ORIENTED_EDGE('',*,*,#476,.F.);
#619=ORIENTED_EDGE('',*,*,#477,.F.);
#620=ORIENTED_EDGE('',*,*,#478,.T.);
#621=ORIENTED_EDGE('',*,*,#476,.T.);
#622=ORIENTED_EDGE('',*,*,#479,.T.);
#623=ORIENTED_EDGE('',*,*,#474,.T.);
#624=ORIENTED_EDGE('',*,*,#478,.F.);
#625=ORIENTED_EDGE('',*,*,#480,.F.);
#626=ORIENTED_EDGE('',*,*,#481,.F.);
#627=ORIENTED_EDGE('',*,*,#482,.F.);
#628=ORIENTED_EDGE('',*,*,#483,.F.);
#629=ORIENTED_EDGE('',*,*,#484,.F.);
#630=ORIENTED_EDGE('',*,*,#485,.F.);
#631=ORIENTED_EDGE('',*,*,#486,.F.);
#632=ORIENTED_EDGE('',*,*,#487,.T.);
#633=ORIENTED_EDGE('',*,*,#488,.T.);
#634=ORIENTED_EDGE('',*,*,#484,.T.);
#635=ORIENTED_EDGE('',*,*,#489,.T.);
#636=ORIENTED_EDGE('',*,*,#487,.F.);
#637=ORIENTED_EDGE('',*,*,#490,.F.);
#638=ORIENTED_EDGE('',*,*,#491,.T.);
#639=ORIENTED_EDGE('',*,*,#482,.T.);
#640=ORIENTED_EDGE('',*,*,#492,.F.);
#641=ORIENTED_EDGE('',*,*,#493,.F.);
#642=ORIENTED_EDGE('',*,*,#485,.T.);
#643=ORIENTED_EDGE('',*,*,#481,.T.);
#644=ORIENTED_EDGE('',*,*,#494,.F.);
#645=ORIENTED_EDGE('',*,*,#495,.F.);
#646=ORIENTED_EDGE('',*,*,#496,.F.);
#647=ORIENTED_EDGE('',*,*,#497,.T.);
#648=ORIENTED_EDGE('',*,*,#498,.F.);
#649=ORIENTED_EDGE('',*,*,#480,.T.);
#650=ORIENTED_EDGE('',*,*,#499,.F.);
#651=ORIENTED_EDGE('',*,*,#500,.T.);
#652=ORIENTED_EDGE('',*,*,#475,.T.);
#653=ORIENTED_EDGE('',*,*,#436,.T.);
#654=ORIENTED_EDGE('',*,*,#501,.F.);
#655=ORIENTED_EDGE('',*,*,#502,.T.);
#656=ORIENTED_EDGE('',*,*,#472,.F.);
#657=ORIENTED_EDGE('',*,*,#435,.T.);
#658=ORIENTED_EDGE('',*,*,#464,.T.);
#659=ORIENTED_EDGE('',*,*,#503,.T.);
#660=ORIENTED_EDGE('',*,*,#501,.T.);
#661=ORIENTED_EDGE('',*,*,#444,.T.);
#662=ORIENTED_EDGE('',*,*,#504,.T.);
#663=ORIENTED_EDGE('',*,*,#505,.F.);
#664=ORIENTED_EDGE('',*,*,#457,.F.);
#665=ORIENTED_EDGE('',*,*,#442,.T.);
#666=ORIENTED_EDGE('',*,*,#448,.T.);
#667=ORIENTED_EDGE('',*,*,#506,.F.);
#668=ORIENTED_EDGE('',*,*,#507,.T.);
#669=ORIENTED_EDGE('',*,*,#491,.F.);
#670=ORIENTED_EDGE('',*,*,#508,.F.);
#671=ORIENTED_EDGE('',*,*,#509,.F.);
#672=ORIENTED_EDGE('',*,*,#510,.F.);
#673=ORIENTED_EDGE('',*,*,#511,.T.);
#674=ORIENTED_EDGE('',*,*,#506,.T.);
#675=ORIENTED_EDGE('',*,*,#447,.T.);
#676=ORIENTED_EDGE('',*,*,#450,.T.);
#677=ORIENTED_EDGE('',*,*,#454,.F.);
#678=ORIENTED_EDGE('',*,*,#512,.F.);
#679=ORIENTED_EDGE('',*,*,#513,.F.);
#680=ORIENTED_EDGE('',*,*,#514,.F.);
#681=ORIENTED_EDGE('',*,*,#499,.T.);
#682=ORIENTED_EDGE('',*,*,#483,.T.);
#683=ORIENTED_EDGE('',*,*,#432,.T.);
#684=ORIENTED_EDGE('',*,*,#507,.F.);
#685=ORIENTED_EDGE('',*,*,#511,.F.);
#686=ORIENTED_EDGE('',*,*,#515,.T.);
#687=ORIENTED_EDGE('',*,*,#516,.F.);
#688=ORIENTED_EDGE('',*,*,#504,.F.);
#689=ORIENTED_EDGE('',*,*,#443,.T.);
#690=ORIENTED_EDGE('',*,*,#473,.F.);
#691=ORIENTED_EDGE('',*,*,#502,.F.);
#692=ORIENTED_EDGE('',*,*,#503,.F.);
#693=ORIENTED_EDGE('',*,*,#463,.F.);
#694=ORIENTED_EDGE('',*,*,#517,.T.);
#695=ORIENTED_EDGE('',*,*,#518,.T.);
#696=ORIENTED_EDGE('',*,*,#519,.T.);
#697=ORIENTED_EDGE('',*,*,#466,.T.);
#698=ORIENTED_EDGE('',*,*,#520,.F.);
#699=ORIENTED_EDGE('',*,*,#512,.T.);
#700=ORIENTED_EDGE('',*,*,#453,.T.);
#701=ORIENTED_EDGE('',*,*,#521,.F.);
#702=ORIENTED_EDGE('',*,*,#522,.F.);
#703=ORIENTED_EDGE('',*,*,#515,.F.);
#704=ORIENTED_EDGE('',*,*,#510,.T.);
#705=ORIENTED_EDGE('',*,*,#523,.F.);
#706=ORIENTED_EDGE('',*,*,#505,.T.);
#707=ORIENTED_EDGE('',*,*,#516,.T.);
#708=ORIENTED_EDGE('',*,*,#524,.T.);
#709=ORIENTED_EDGE('',*,*,#458,.T.);
#710=ORIENTED_EDGE('',*,*,#522,.T.);
#711=ORIENTED_EDGE('',*,*,#525,.T.);
#712=ORIENTED_EDGE('',*,*,#526,.T.);
#713=ORIENTED_EDGE('',*,*,#459,.T.);
#714=ORIENTED_EDGE('',*,*,#524,.F.);
#715=ORIENTED_EDGE('',*,*,#523,.T.);
#716=ORIENTED_EDGE('',*,*,#509,.T.);
#717=ORIENTED_EDGE('',*,*,#527,.T.);
#718=ORIENTED_EDGE('',*,*,#528,.T.);
#719=ORIENTED_EDGE('',*,*,#529,.F.);
#720=ORIENTED_EDGE('',*,*,#525,.F.);
#721=ORIENTED_EDGE('',*,*,#520,.T.);
#722=ORIENTED_EDGE('',*,*,#530,.F.);
#723=ORIENTED_EDGE('',*,*,#531,.F.);
#724=ORIENTED_EDGE('',*,*,#532,.T.);
#725=ORIENTED_EDGE('',*,*,#533,.T.);
#726=ORIENTED_EDGE('',*,*,#513,.T.);
#727=ORIENTED_EDGE('',*,*,#456,.T.);
#728=ORIENTED_EDGE('',*,*,#471,.T.);
#729=ORIENTED_EDGE('',*,*,#534,.F.);
#730=ORIENTED_EDGE('',*,*,#452,.T.);
#731=ORIENTED_EDGE('',*,*,#533,.F.);
#732=ORIENTED_EDGE('',*,*,#535,.F.);
#733=ORIENTED_EDGE('',*,*,#497,.F.);
#734=ORIENTED_EDGE('',*,*,#479,.F.);
#735=ORIENTED_EDGE('',*,*,#500,.F.);
#736=ORIENTED_EDGE('',*,*,#514,.T.);
#737=ORIENTED_EDGE('',*,*,#535,.T.);
#738=ORIENTED_EDGE('',*,*,#532,.F.);
#739=ORIENTED_EDGE('',*,*,#536,.F.);
#740=ORIENTED_EDGE('',*,*,#537,.F.);
#741=ORIENTED_EDGE('',*,*,#489,.F.);
#742=ORIENTED_EDGE('',*,*,#493,.T.);
#743=ORIENTED_EDGE('',*,*,#538,.F.);
#744=ORIENTED_EDGE('',*,*,#527,.F.);
#745=ORIENTED_EDGE('',*,*,#508,.T.);
#746=ORIENTED_EDGE('',*,*,#490,.T.);
#747=ORIENTED_EDGE('',*,*,#488,.F.);
#748=ORIENTED_EDGE('',*,*,#530,.T.);
#749=ORIENTED_EDGE('',*,*,#521,.T.);
#750=ORIENTED_EDGE('',*,*,#534,.T.);
#751=ORIENTED_EDGE('',*,*,#470,.T.);
#752=ORIENTED_EDGE('',*,*,#539,.T.);
#753=ORIENTED_EDGE('',*,*,#540,.T.);
#754=ORIENTED_EDGE('',*,*,#541,.T.);
#755=ORIENTED_EDGE('',*,*,#492,.T.);
#756=ORIENTED_EDGE('',*,*,#496,.T.);
#757=ORIENTED_EDGE('',*,*,#542,.T.);
#758=ORIENTED_EDGE('',*,*,#461,.T.);
#759=ORIENTED_EDGE('',*,*,#543,.T.);
#760=ORIENTED_EDGE('',*,*,#544,.T.);
#761=ORIENTED_EDGE('',*,*,#545,.T.);
#762=ORIENTED_EDGE('',*,*,#495,.T.);
#763=ORIENTED_EDGE('',*,*,#546,.T.);
#764=ORIENTED_EDGE('',*,*,#468,.T.);
#765=ORIENTED_EDGE('',*,*,#547,.T.);
#766=ORIENTED_EDGE('',*,*,#494,.T.);
#767=ORIENTED_EDGE('',*,*,#498,.T.);
#768=ORIENTED_EDGE('',*,*,#537,.T.);
#769=ORIENTED_EDGE('',*,*,#547,.F.);
#770=ORIENTED_EDGE('',*,*,#548,.T.);
#771=ORIENTED_EDGE('',*,*,#543,.F.);
#772=ORIENTED_EDGE('',*,*,#545,.F.);
#773=ORIENTED_EDGE('',*,*,#549,.T.);
#774=ORIENTED_EDGE('',*,*,#542,.F.);
#775=ORIENTED_EDGE('',*,*,#549,.F.);
#776=ORIENTED_EDGE('',*,*,#550,.T.);
#777=ORIENTED_EDGE('',*,*,#517,.F.);
#778=ORIENTED_EDGE('',*,*,#462,.T.);
#779=ORIENTED_EDGE('',*,*,#544,.F.);
#780=ORIENTED_EDGE('',*,*,#551,.T.);
#781=ORIENTED_EDGE('',*,*,#518,.F.);
#782=ORIENTED_EDGE('',*,*,#550,.F.);
#783=ORIENTED_EDGE('',*,*,#548,.F.);
#784=ORIENTED_EDGE('',*,*,#467,.T.);
#785=ORIENTED_EDGE('',*,*,#519,.F.);
#786=ORIENTED_EDGE('',*,*,#551,.F.);
#787=ORIENTED_EDGE('',*,*,#546,.F.);
#788=ORIENTED_EDGE('',*,*,#536,.T.);
#789=ORIENTED_EDGE('',*,*,#531,.T.);
#790=ORIENTED_EDGE('',*,*,#539,.F.);
#791=ORIENTED_EDGE('',*,*,#469,.T.);
#792=ORIENTED_EDGE('',*,*,#477,.T.);
#793=ORIENTED_EDGE('',*,*,#538,.T.);
#794=ORIENTED_EDGE('',*,*,#541,.F.);
#795=ORIENTED_EDGE('',*,*,#552,.F.);
#796=ORIENTED_EDGE('',*,*,#528,.F.);
#797=ORIENTED_EDGE('',*,*,#540,.F.);
#798=ORIENTED_EDGE('',*,*,#460,.T.);
#799=ORIENTED_EDGE('',*,*,#526,.F.);
#800=ORIENTED_EDGE('',*,*,#529,.T.);
#801=ORIENTED_EDGE('',*,*,#552,.T.);
#802=ORIENTED_EDGE('',*,*,#486,.T.);
#803=PLANE('',#898);
#804=PLANE('',#899);
#805=PLANE('',#904);
#806=PLANE('',#905);
#807=PLANE('',#908);
#808=PLANE('',#909);
#809=PLANE('',#910);
#810=PLANE('',#911);
#811=PLANE('',#914);
#812=PLANE('',#920);
#813=PLANE('',#921);
#814=PLANE('',#927);
#815=PLANE('',#928);
#816=PLANE('',#929);
#817=PLANE('',#930);
#818=PLANE('',#933);
#819=PLANE('',#936);
#820=PLANE('',#937);
#821=PLANE('',#938);
#822=PLANE('',#941);
#823=PLANE('',#942);
#824=PLANE('',#943);
#825=PLANE('',#944);
#826=PLANE('',#945);
#827=PLANE('',#946);
#828=PLANE('',#947);
#829=PLANE('',#948);
#830=PLANE('',#949);
#831=PLANE('',#950);
#832=PLANE('',#951);
#833=PLANE('',#966);
#834=PLANE('',#968);
#835=PLANE('',#969);
#836=PLANE('',#970);
#837=ADVANCED_FACE('',(#56),#803,.T.);
#838=ADVANCED_FACE('',(#57),#804,.F.);
#839=ADVANCED_FACE('',(#58),#805,.T.);
#840=ADVANCED_FACE('',(#59),#806,.T.);
#841=ADVANCED_FACE('',(#60),#19,.F.);
#842=ADVANCED_FACE('',(#61),#807,.T.);
#843=ADVANCED_FACE('',(#62),#808,.F.);
#844=ADVANCED_FACE('',(#63),#809,.F.);
#845=ADVANCED_FACE('',(#64),#810,.F.);
#846=ADVANCED_FACE('',(#65),#20,.T.);
#847=ADVANCED_FACE('',(#66),#811,.F.);
#848=ADVANCED_FACE('',(#67),#21,.F.);
#849=ADVANCED_FACE('',(#68),#812,.F.);
#850=ADVANCED_FACE('',(#69),#813,.F.);
#851=ADVANCED_FACE('',(#70),#22,.F.);
#852=ADVANCED_FACE('',(#71),#814,.T.);
#853=ADVANCED_FACE('',(#72),#815,.F.);
#854=ADVANCED_FACE('',(#73),#816,.T.);
#855=ADVANCED_FACE('',(#74),#817,.F.);
#856=ADVANCED_FACE('',(#75),#23,.T.);
#857=ADVANCED_FACE('',(#76),#818,.F.);
#858=ADVANCED_FACE('',(#77),#24,.F.);
#859=ADVANCED_FACE('',(#78),#819,.F.);
#860=ADVANCED_FACE('',(#79),#820,.T.);
#861=ADVANCED_FACE('',(#80),#821,.T.);
#862=ADVANCED_FACE('',(#81),#822,.T.);
#863=ADVANCED_FACE('',(#82),#823,.T.);
#864=ADVANCED_FACE('',(#83),#824,.F.);
#865=ADVANCED_FACE('',(#84),#825,.F.);
#866=ADVANCED_FACE('',(#85),#826,.F.);
#867=ADVANCED_FACE('',(#86),#827,.F.);
#868=ADVANCED_FACE('',(#87),#828,.F.);
#869=ADVANCED_FACE('',(#88),#829,.T.);
#870=ADVANCED_FACE('',(#89),#830,.F.);
#871=ADVANCED_FACE('',(#90),#831,.T.);
#872=ADVANCED_FACE('',(#91),#832,.F.);
#873=ADVANCED_FACE('',(#92),#25,.T.);
#874=ADVANCED_FACE('',(#93),#26,.T.);
#875=ADVANCED_FACE('',(#94),#27,.T.);
#876=ADVANCED_FACE('',(#95),#17,.T.);
#877=ADVANCED_FACE('',(#96),#18,.T.);
#878=ADVANCED_FACE('',(#97),#28,.T.);
#879=ADVANCED_FACE('',(#98),#833,.F.);
#880=ADVANCED_FACE('',(#99),#29,.T.);
#881=ADVANCED_FACE('',(#100,#15),#834,.T.);
#882=ADVANCED_FACE('',(#101),#835,.F.);
#883=ADVANCED_FACE('',(#102,#16),#836,.T.);
#884=CLOSED_SHELL('',(#837,#838,#839,#840,#841,#842,#843,#844,#845,#846,
#847,#848,#849,#850,#851,#852,#853,#854,#855,#856,#857,#858,#859,#860,#861,
#862,#863,#864,#865,#866,#867,#868,#869,#870,#871,#872,#873,#874,#875,#876,
#877,#878,#879,#880,#881,#882,#883));
#885=DERIVED_UNIT_ELEMENT(#887,1.);
#886=DERIVED_UNIT_ELEMENT(#1474,-3.);
#887=(
MASS_UNIT()
NAMED_UNIT(*)
SI_UNIT(.KILO.,.GRAM.)
);
#888=DERIVED_UNIT((#885,#886));
#889=MEASURE_REPRESENTATION_ITEM('density measure',
POSITIVE_RATIO_MEASURE(7850.),#888);
#890=PROPERTY_DEFINITION_REPRESENTATION(#895,#892);
#891=PROPERTY_DEFINITION_REPRESENTATION(#896,#893);
#892=REPRESENTATION('material name',(#894),#1471);
#893=REPRESENTATION('density',(#889),#1471);
#894=DESCRIPTIVE_REPRESENTATION_ITEM('\X2\92FC\X0\','\X2\92FC\X0\');
#895=PROPERTY_DEFINITION('material property','material name',#1481);
#896=PROPERTY_DEFINITION('material property','density of part',#1481);
#897=AXIS2_PLACEMENT_3D('',#1218,#971,#972);
#898=AXIS2_PLACEMENT_3D('',#1219,#973,#974);
#899=AXIS2_PLACEMENT_3D('',#1228,#979,#980);
#900=AXIS2_PLACEMENT_3D('',#1237,#984,#985);
#901=AXIS2_PLACEMENT_3D('',#1241,#987,#988);
#902=AXIS2_PLACEMENT_3D('',#1246,#991,#992);
#903=AXIS2_PLACEMENT_3D('',#1249,#994,#995);
#904=AXIS2_PLACEMENT_3D('',#1250,#996,#997);
#905=AXIS2_PLACEMENT_3D('',#1256,#1001,#1002);
#906=AXIS2_PLACEMENT_3D('',#1262,#1006,#1007);
#907=AXIS2_PLACEMENT_3D('',#1265,#1009,#1010);
#908=AXIS2_PLACEMENT_3D('',#1266,#1011,#1012);
#909=AXIS2_PLACEMENT_3D('',#1274,#1017,#1018);
#910=AXIS2_PLACEMENT_3D('',#1278,#1021,#1022);
#911=AXIS2_PLACEMENT_3D('',#1294,#1031,#1032);
#912=AXIS2_PLACEMENT_3D('',#1308,#1040,#1041);
#913=AXIS2_PLACEMENT_3D('',#1311,#1043,#1044);
#914=AXIS2_PLACEMENT_3D('',#1312,#1045,#1046);
#915=AXIS2_PLACEMENT_3D('',#1315,#1047,#1048);
#916=AXIS2_PLACEMENT_3D('',#1318,#1050,#1051);
#917=AXIS2_PLACEMENT_3D('',#1319,#1052,#1053);
#918=AXIS2_PLACEMENT_3D('',#1321,#1054,#1055);
#919=AXIS2_PLACEMENT_3D('',#1323,#1057,#1058);
#920=AXIS2_PLACEMENT_3D('',#1324,#1059,#1060);
#921=AXIS2_PLACEMENT_3D('',#1333,#1065,#1066);
#922=AXIS2_PLACEMENT_3D('',#1336,#1067,#1068);
#923=AXIS2_PLACEMENT_3D('',#1338,#1070,#1071);
#924=AXIS2_PLACEMENT_3D('',#1340,#1072,#1073);
#925=AXIS2_PLACEMENT_3D('',#1343,#1075,#1076);
#926=AXIS2_PLACEMENT_3D('',#1344,#1077,#1078);
#927=AXIS2_PLACEMENT_3D('',#1345,#1079,#1080);
#928=AXIS2_PLACEMENT_3D('',#1352,#1085,#1086);
#929=AXIS2_PLACEMENT_3D('',#1358,#1090,#1091);
#930=AXIS2_PLACEMENT_3D('',#1365,#1096,#1097);
#931=AXIS2_PLACEMENT_3D('',#1369,#1100,#1101);
#932=AXIS2_PLACEMENT_3D('',#1370,#1102,#1103);
#933=AXIS2_PLACEMENT_3D('',#1371,#1104,#1105);
#934=AXIS2_PLACEMENT_3D('',#1375,#1108,#1109);
#935=AXIS2_PLACEMENT_3D('',#1377,#1110,#1111);
#936=AXIS2_PLACEMENT_3D('',#1379,#1113,#1114);
#937=AXIS2_PLACEMENT_3D('',#1392,#1122,#1123);
#938=AXIS2_PLACEMENT_3D('',#1396,#1126,#1127);
#939=AXIS2_PLACEMENT_3D('',#1398,#1128,#1129);
#940=AXIS2_PLACEMENT_3D('',#1401,#1131,#1132);
#941=AXIS2_PLACEMENT_3D('',#1402,#1133,#1134);
#942=AXIS2_PLACEMENT_3D('',#1406,#1137,#1138);
#943=AXIS2_PLACEMENT_3D('',#1410,#1141,#1142);
#944=AXIS2_PLACEMENT_3D('',#1412,#1144,#1145);
#945=AXIS2_PLACEMENT_3D('',#1416,#1148,#1149);
#946=AXIS2_PLACEMENT_3D('',#1422,#1153,#1154);
#947=AXIS2_PLACEMENT_3D('',#1430,#1159,#1160);
#948=AXIS2_PLACEMENT_3D('',#1432,#1162,#1163);
#949=AXIS2_PLACEMENT_3D('',#1434,#1165,#1166);
#950=AXIS2_PLACEMENT_3D('',#1438,#1169,#1170);
#951=AXIS2_PLACEMENT_3D('',#1440,#1172,#1173);
#952=AXIS2_PLACEMENT_3D('',#1442,#1175,#1176);
#953=AXIS2_PLACEMENT_3D('',#1444,#1177,#1178);
#954=AXIS2_PLACEMENT_3D('',#1446,#1180,#1181);
#955=AXIS2_PLACEMENT_3D('',#1447,#1182,#1183);
#956=AXIS2_PLACEMENT_3D('',#1449,#1184,#1185);
#957=AXIS2_PLACEMENT_3D('',#1452,#1187,#1188);
#958=AXIS2_PLACEMENT_3D('',#1453,#1189,#1190);
#959=AXIS2_PLACEMENT_3D('',#1454,#1191,#1192);
#960=AXIS2_PLACEMENT_3D('',#1455,#1193,#1194);
#961=AXIS2_PLACEMENT_3D('',#1456,#1195,#1196);
#962=AXIS2_PLACEMENT_3D('',#1457,#1197,#1198);
#963=AXIS2_PLACEMENT_3D('',#1458,#1199,#1200);
#964=AXIS2_PLACEMENT_3D('',#1459,#1201,#1202);
#965=AXIS2_PLACEMENT_3D('',#1460,#1203,#1204);
#966=AXIS2_PLACEMENT_3D('',#1462,#1206,#1207);
#967=AXIS2_PLACEMENT_3D('',#1464,#1209,#1210);
#968=AXIS2_PLACEMENT_3D('',#1465,#1211,#1212);
#969=AXIS2_PLACEMENT_3D('',#1466,#1213,#1214);
#970=AXIS2_PLACEMENT_3D('',#1468,#1216,#1217);
#971=DIRECTION('axis',(0.,0.,1.));
#972=DIRECTION('refdir',(1.,0.,0.));
#973=DIRECTION('center_axis',(0.,1.,0.));
#974=DIRECTION('ref_axis',(-6.16790560045303E-17,0.,-1.));
#975=DIRECTION('',(3.11217111085133E-16,0.,1.));
#976=DIRECTION('',(-1.,0.,6.16790560045303E-17));
#977=DIRECTION('',(0.,0.,-1.));
#978=DIRECTION('',(-1.,0.,0.));
#979=DIRECTION('center_axis',(-6.16790560045303E-17,0.,-1.));
#980=DIRECTION('ref_axis',(0.,-1.,0.));
#981=DIRECTION('',(0.,1.,0.));
#982=DIRECTION('',(-1.,0.,6.16790560045303E-17));
#983=DIRECTION('',(0.,-1.,0.));
#984=DIRECTION('center_axis',(-6.16790560045303E-17,0.,-1.));
#985=DIRECTION('ref_axis',(0.707106781186547,0.707106781186547,0.));
#986=DIRECTION('',(1.,0.,-6.16790560045303E-17));
#987=DIRECTION('center_axis',(-6.16790560045303E-17,0.,-1.));
#988=DIRECTION('ref_axis',(-0.707106781186547,0.707106781186547,0.));
#989=DIRECTION('',(0.,1.,0.));
#990=DIRECTION('',(0.,-1.,0.));
#991=DIRECTION('center_axis',(6.16790560045303E-17,0.,1.));
#992=DIRECTION('ref_axis',(-0.707106781186549,0.707106781186546,0.));
#993=DIRECTION('',(-1.,0.,6.16790560045303E-17));
#994=DIRECTION('center_axis',(6.16790560045303E-17,0.,1.));
#995=DIRECTION('ref_axis',(0.707106781186548,0.707106781186547,0.));
#996=DIRECTION('center_axis',(0.,1.,0.));
#997=DIRECTION('ref_axis',(-6.16790560045303E-17,0.,-1.));
#998=DIRECTION('',(-3.11217111085133E-16,0.,-1.));
#999=DIRECTION('',(-1.,0.,0.));
#1000=DIRECTION('',(0.,0.,1.));
#1001=DIRECTION('center_axis',(0.,-1.,0.));
#1002=DIRECTION('ref_axis',(3.11217111085133E-16,0.,1.));
#1003=DIRECTION('',(3.11217111085133E-16,0.,1.));
#1004=DIRECTION('',(-1.,0.,3.11217111085133E-16));
#1005=DIRECTION('',(-3.11217111085133E-16,0.,-1.));
#1006=DIRECTION('center_axis',(3.11217111085133E-16,0.,1.));
#1007=DIRECTION('ref_axis',(-0.707106781186549,0.707106781186546,0.));
#1008=DIRECTION('',(-3.11217111085133E-16,0.,-1.));
#1009=DIRECTION('center_axis',(0.,0.,1.));
#1010=DIRECTION('ref_axis',(-0.707106781186549,0.707106781186546,0.));
#1011=DIRECTION('center_axis',(1.,0.,-3.11217111085133E-16));
#1012=DIRECTION('ref_axis',(3.11217111085133E-16,0.,1.));
#1013=DIRECTION('',(0.,-1.,0.));
#1014=DIRECTION('',(3.11217111085133E-16,-2.22044604925031E-15,1.));
#1015=DIRECTION('',(3.11217111085133E-16,0.,1.));
#1016=DIRECTION('',(0.,1.,0.));
#1017=DIRECTION('center_axis',(0.,0.,-1.));
#1018=DIRECTION('ref_axis',(-1.,0.,0.));
#1019=DIRECTION('',(0.,1.,0.));
#1020=DIRECTION('',(-1.,0.,0.));
#1021=DIRECTION('center_axis',(-1.,0.,0.));
#1022=DIRECTION('ref_axis',(0.,0.,1.));
#1023=DIRECTION('',(0.,-1.,0.));
#1024=DIRECTION('',(0.,-2.22044604925031E-15,1.));
#1025=DIRECTION('',(0.,1.,0.));
#1026=DIRECTION('',(0.,1.94289029309402E-15,-1.));
#1027=DIRECTION('',(0.,1.,0.));
#1028=DIRECTION('',(0.,0.,1.));
#1029=DIRECTION('',(0.,1.,0.));
#1030=DIRECTION('',(0.,0.,-1.));
#1031=DIRECTION('center_axis',(1.,0.,0.));
#1032=DIRECTION('ref_axis',(0.,0.,-1.));
#1033=DIRECTION('',(0.,0.,1.));
#1034=DIRECTION('',(0.,1.,0.));
#1035=DIRECTION('',(0.,0.,-1.));
#1036=DIRECTION('',(0.,-1.,0.));
#1037=DIRECTION('',(0.,-1.94289029309402E-15,1.));
#1038=DIRECTION('',(0.,-1.,0.));
#1039=DIRECTION('',(0.,2.22044604925031E-15,-1.));
#1040=DIRECTION('center_axis',(0.,0.,1.));
#1041=DIRECTION('ref_axis',(-0.707106781186547,0.707106781186547,0.));
#1042=DIRECTION('',(0.,0.,-1.));
#1043=DIRECTION('center_axis',(0.,0.,1.));
#1044=DIRECTION('ref_axis',(-0.707106781186547,0.707106781186547,0.));
#1045=DIRECTION('center_axis',(0.,-1.,0.));
#1046=DIRECTION('ref_axis',(1.,0.,0.));
#1047=DIRECTION('center_axis',(0.,-1.,0.));
#1048=DIRECTION('ref_axis',(1.,3.46490288369268E-29,-3.46490288369265E-29));
#1049=DIRECTION('',(0.,0.,1.));
#1050=DIRECTION('center_axis',(0.,-1.,0.));
#1051=DIRECTION('ref_axis',(1.,3.46490288369268E-29,-3.46490288369265E-29));
#1052=DIRECTION('center_axis',(3.46490288369265E-29,-1.,-7.99360577730113E-15));
#1053=DIRECTION('ref_axis',(1.,3.46490288369268E-29,-3.46490288369265E-29));
#1054=DIRECTION('center_axis',(0.,-1.,-1.94289029309402E-15));
#1055=DIRECTION('ref_axis',(1.,3.46490288369268E-29,-3.46490288369265E-29));
#1056=DIRECTION('',(3.46490288369265E-29,-1.,-7.99360577730113E-15));
#1057=DIRECTION('center_axis',(0.,-1.,0.));
#1058=DIRECTION('ref_axis',(1.,3.46490288369268E-29,-3.46490288369265E-29));
#1059=DIRECTION('center_axis',(0.,-1.,0.));
#1060=DIRECTION('ref_axis',(0.,0.,-1.));
#1061=DIRECTION('',(0.,0.,-1.));
#1062=DIRECTION('',(-1.,0.,0.));
#1063=DIRECTION('',(0.,0.,1.));
#1064=DIRECTION('',(1.,-2.0185873448451E-15,0.));
#1065=DIRECTION('center_axis',(0.,-1.,0.));
#1066=DIRECTION('ref_axis',(1.,0.,0.));
#1067=DIRECTION('center_axis',(0.,-1.,0.));
#1068=DIRECTION('ref_axis',(1.,3.46490288369268E-29,-3.46490288369265E-29));
#1069=DIRECTION('',(0.,0.,-1.));
#1070=DIRECTION('center_axis',(3.46490288369265E-29,-1.,-7.99360577730113E-15));
#1071=DIRECTION('ref_axis',(1.,3.46490288369268E-29,-3.46490288369265E-29));
#1072=DIRECTION('center_axis',(0.,-1.,-1.94289029309402E-15));
#1073=DIRECTION('ref_axis',(1.,3.46490288369268E-29,-3.46490288369265E-29));
#1074=DIRECTION('',(3.46490288369265E-29,-1.,-7.99360577730113E-15));
#1075=DIRECTION('center_axis',(0.,-1.,0.));
#1076=DIRECTION('ref_axis',(1.,3.46490288369268E-29,-3.46490288369265E-29));
#1077=DIRECTION('center_axis',(0.,-1.,0.));
#1078=DIRECTION('ref_axis',(1.,3.46490288369268E-29,-3.46490288369265E-29));
#1079=DIRECTION('center_axis',(-1.,0.,0.));
#1080=DIRECTION('ref_axis',(0.,0.,-1.));
#1081=DIRECTION('',(0.,0.,1.));
#1082=DIRECTION('',(0.,-1.,0.));
#1083=DIRECTION('',(0.,-1.,0.));
#1084=DIRECTION('',(0.,0.,1.));
#1085=DIRECTION('center_axis',(0.,0.,-1.));
#1086=DIRECTION('ref_axis',(-1.,0.,0.));
#1087=DIRECTION('',(0.,1.,0.));
#1088=DIRECTION('',(-1.,0.,0.));
#1089=DIRECTION('',(0.,-1.,0.));
#1090=DIRECTION('center_axis',(1.,0.,0.));
#1091=DIRECTION('ref_axis',(0.,0.,1.));
#1092=DIRECTION('',(0.,0.,1.));
#1093=DIRECTION('',(0.,1.,0.));
#1094=DIRECTION('',(0.,-1.,0.));
#1095=DIRECTION('',(0.,0.,1.));
#1096=DIRECTION('center_axis',(0.,-1.,0.));
#1097=DIRECTION('ref_axis',(0.,0.,1.));
#1098=DIRECTION('',(0.,0.,1.));
#1099=DIRECTION('',(-1.,0.,0.));
#1100=DIRECTION('center_axis',(0.,0.,-1.));
#1101=DIRECTION('ref_axis',(0.707106781186547,0.707106781186547,0.));
#1102=DIRECTION('center_axis',(0.,0.,1.));
#1103=DIRECTION('ref_axis',(0.707106781186547,0.707106781186547,0.));
#1104=DIRECTION('center_axis',(0.,0.,-1.));
#1105=DIRECTION('ref_axis',(-1.,0.,0.));
#1106=DIRECTION('',(0.,-1.,0.));
#1107=DIRECTION('',(-1.,0.,0.));
#1108=DIRECTION('center_axis',(-3.11217111085133E-16,0.,-1.));
#1109=DIRECTION('ref_axis',(0.707106781186548,0.707106781186547,0.));
#1110=DIRECTION('center_axis',(0.,0.,1.));
#1111=DIRECTION('ref_axis',(0.707106781186548,0.707106781186547,0.));
#1112=DIRECTION('',(3.11217111085133E-16,0.,1.));
#1113=DIRECTION('center_axis',(0.,0.,-1.));
#1114=DIRECTION('ref_axis',(-1.,0.,0.));
#1115=DIRECTION('',(1.,0.,0.));
#1116=DIRECTION('',(0.,-1.,0.));
#1117=DIRECTION('',(-1.,0.,3.11217111085133E-16));
#1118=DIRECTION('',(0.,1.,0.));
#1119=DIRECTION('',(-1.,0.,3.11217111085133E-16));
#1120=DIRECTION('',(0.,1.,0.));
#1121=DIRECTION('',(1.,0.,0.));
#1122=DIRECTION('center_axis',(-1.,0.,3.11217111085133E-16));
#1123=DIRECTION('ref_axis',(-3.11217111085133E-16,0.,-1.));
#1124=DIRECTION('',(3.11217111085133E-16,0.,1.));
#1125=DIRECTION('',(-3.11217111085133E-16,2.22044604925031E-15,-1.));
#1126=DIRECTION('center_axis',(0.,0.,-1.));
#1127=DIRECTION('ref_axis',(-1.,0.,0.));
#1128=DIRECTION('center_axis',(0.,0.,-1.));
#1129=DIRECTION('ref_axis',(0.707106781186548,-0.707106781186548,0.));
#1130=DIRECTION('',(-1.,0.,0.));
#1131=DIRECTION('center_axis',(0.,0.,-1.));
#1132=DIRECTION('ref_axis',(-0.707106781186546,-0.707106781186549,0.));
#1133=DIRECTION('center_axis',(0.,1.,0.));
#1134=DIRECTION('ref_axis',(-3.11217111085133E-16,0.,-1.));
#1135=DIRECTION('',(0.,0.,1.));
#1136=DIRECTION('',(-1.,0.,0.));
#1137=DIRECTION('center_axis',(0.,1.,0.));
#1138=DIRECTION('ref_axis',(-3.11217111085133E-16,0.,-1.));
#1139=DIRECTION('',(-1.,0.,0.));
#1140=DIRECTION('',(0.,0.,-1.));
#1141=DIRECTION('center_axis',(0.,1.,2.22044604925031E-15));
#1142=DIRECTION('ref_axis',(0.,-2.22044604925031E-15,1.));
#1143=DIRECTION('',(1.,0.,0.));
#1144=DIRECTION('center_axis',(0.,0.,-1.));
#1145=DIRECTION('ref_axis',(0.,-1.,0.));
#1146=DIRECTION('',(0.,-1.,0.));
#1147=DIRECTION('',(1.,0.,0.));
#1148=DIRECTION('center_axis',(1.,0.,0.));
#1149=DIRECTION('ref_axis',(0.,0.,-1.));
#1150=DIRECTION('',(0.,0.,1.));
#1151=DIRECTION('',(0.,1.,0.));
#1152=DIRECTION('',(0.,-1.94289029309402E-15,1.));
#1153=DIRECTION('center_axis',(-1.,0.,0.));
#1154=DIRECTION('ref_axis',(0.,0.,1.));
#1155=DIRECTION('',(0.,1.,0.));
#1156=DIRECTION('',(0.,1.94289029309402E-15,-1.));
#1157=DIRECTION('',(0.,-1.,0.));
#1158=DIRECTION('',(0.,0.,-1.));
#1159=DIRECTION('center_axis',(0.,1.,2.22044604925031E-15));
#1160=DIRECTION('ref_axis',(0.,-2.22044604925031E-15,1.));
#1161=DIRECTION('',(-1.,0.,0.));
#1162=DIRECTION('center_axis',(0.,-1.,0.));
#1163=DIRECTION('ref_axis',(0.,0.,1.));
#1164=DIRECTION('',(1.,0.,0.));
#1165=DIRECTION('center_axis',(0.,0.,-1.));
#1166=DIRECTION('ref_axis',(-1.,0.,0.));
#1167=DIRECTION('',(1.,0.,0.));
#1168=DIRECTION('',(0.,1.,0.));
#1169=DIRECTION('center_axis',(0.,-1.,0.));
#1170=DIRECTION('ref_axis',(0.,0.,1.));
#1171=DIRECTION('',(1.,0.,0.));
#1172=DIRECTION('center_axis',(0.,0.,-1.));
#1173=DIRECTION('ref_axis',(0.,-1.,0.));
#1174=DIRECTION('',(1.,0.,0.));
#1175=DIRECTION('center_axis',(0.,1.,0.));
#1176=DIRECTION('ref_axis',(0.707106781186549,0.,0.707106781186546));
#1177=DIRECTION('center_axis',(0.,-1.,-1.94289029309402E-15));
#1178=DIRECTION('ref_axis',(0.707106781186549,0.,0.707106781186546));
#1179=DIRECTION('',(0.,-1.,0.));
#1180=DIRECTION('center_axis',(0.,1.,0.));
#1181=DIRECTION('ref_axis',(0.,0.,1.));
#1182=DIRECTION('center_axis',(1.,0.,0.));
#1183=DIRECTION('ref_axis',(0.,-0.707106781186548,0.707106781186548));
#1184=DIRECTION('center_axis',(1.,0.,0.));
#1185=DIRECTION('ref_axis',(0.,0.,1.));
#1186=DIRECTION('',(1.,0.,0.));
#1187=DIRECTION('center_axis',(-1.,0.,0.));
#1188=DIRECTION('ref_axis',(0.,-1.,0.));
#1189=DIRECTION('center_axis',(0.,-1.,0.));
#1190=DIRECTION('ref_axis',(-0.707106781186546,0.,0.707106781186549));
#1191=DIRECTION('center_axis',(0.,-1.,-1.94289029309402E-15));
#1192=DIRECTION('ref_axis',(-0.707106781186546,0.,0.707106781186549));
#1193=DIRECTION('center_axis',(0.,1.,0.));
#1194=DIRECTION('ref_axis',(-1.,0.,0.));
#1195=DIRECTION('center_axis',(-0.816496580927726,0.408248290463863,-0.408248290463863));
#1196=DIRECTION('ref_axis',(-0.577350269189626,-0.577350269189626,0.577350269189625));
#1197=DIRECTION('center_axis',(0.,0.,1.));
#1198=DIRECTION('ref_axis',(-0.707106781186546,-0.707106781186549,0.));
#1199=DIRECTION('center_axis',(-0.408248290463861,-0.816496580927726,-0.408248290463865));
#1200=DIRECTION('ref_axis',(0.577350269189624,-0.577350269189626,0.577350269189628));
#1201=DIRECTION('center_axis',(0.,0.,1.));
#1202=DIRECTION('ref_axis',(0.707106781186548,-0.707106781186548,0.));
#1203=DIRECTION('center_axis',(0.,0.,1.));
#1204=DIRECTION('ref_axis',(0.707106781186548,-0.707106781186548,0.));
#1205=DIRECTION('',(0.,0.,-1.));
#1206=DIRECTION('center_axis',(0.,1.,0.));
#1207=DIRECTION('ref_axis',(0.,0.,-1.));
#1208=DIRECTION('',(0.,0.,-1.));
#1209=DIRECTION('center_axis',(0.,0.,-1.));
#1210=DIRECTION('ref_axis',(-0.707106781186546,-0.707106781186549,0.));
#1211=DIRECTION('center_axis',(0.,1.,1.94289029309402E-15));
#1212=DIRECTION('ref_axis',(0.,1.94289029309402E-15,-1.));
#1213=DIRECTION('center_axis',(0.,0.,-1.));
#1214=DIRECTION('ref_axis',(-1.,0.,0.));
#1215=DIRECTION('',(1.,0.,0.));
#1216=DIRECTION('center_axis',(0.,1.,1.94289029309402E-15));
#1217=DIRECTION('ref_axis',(0.,-1.94289029309402E-15,1.));
#1218=CARTESIAN_POINT('',(0.,0.,0.));
#1219=CARTESIAN_POINT('Origin',(18.0000002682209,34.0000005066395,2.5));
#1220=CARTESIAN_POINT('',(2.,34.0000005066395,-1.));
#1221=CARTESIAN_POINT('',(2.,34.0000005066395,6.));
#1222=CARTESIAN_POINT('',(2.,34.0000005066395,4.25000000000001));
#1223=CARTESIAN_POINT('',(0.,34.0000005066395,-1.));
#1224=CARTESIAN_POINT('',(18.0000002682209,34.0000005066395,-1.));
#1225=CARTESIAN_POINT('',(0.,34.0000005066395,6.));
#1226=CARTESIAN_POINT('',(-8.88178419700125E-15,34.0000005066395,5.25));
#1227=CARTESIAN_POINT('',(16.7500001341104,34.0000005066395,6.));
#1228=CARTESIAN_POINT('Origin',(18.0000002682209,44.0000006556511,-1.));
#1229=CARTESIAN_POINT('',(30.5,34.0000005066395,-1.));
#1230=CARTESIAN_POINT('',(30.5,48.9219222692029,-1.));
#1231=CARTESIAN_POINT('',(30.5,35.210961462427,-1.));
#1232=CARTESIAN_POINT('',(32.5,34.0000005066395,-1.));
#1233=CARTESIAN_POINT('',(18.0000002682209,34.0000005066395,-1.));
#1234=CARTESIAN_POINT('',(32.5,49.,-1.));
#1235=CARTESIAN_POINT('',(32.5,34.2500003278255,-1.));
#1236=CARTESIAN_POINT('',(27.5,54.,-1.));
#1237=CARTESIAN_POINT('Origin',(27.5,49.,-1.));
#1238=CARTESIAN_POINT('',(4.99999999999999,54.0000008046627,-1.));
#1239=CARTESIAN_POINT('',(16.7500001341104,54.,-1.));
#1240=CARTESIAN_POINT('',(0.,49.,-1.));
#1241=CARTESIAN_POINT('Origin',(4.99999999999999,49.,-1.));
#1242=CARTESIAN_POINT('',(-8.88178419700125E-15,34.2500003278255,-1.));
#1243=CARTESIAN_POINT('',(2.,48.9219222692029,-1.));
#1244=CARTESIAN_POINT('',(2.,35.210961462427,-1.));
#1245=CARTESIAN_POINT('',(5.,51.9219222692029,-1.));
#1246=CARTESIAN_POINT('Origin',(5.,48.9219222692029,-0.999999999999996));
#1247=CARTESIAN_POINT('',(27.5,51.9219222692029,-1.));
#1248=CARTESIAN_POINT('',(17.1250001341104,51.9219222692029,-1.));
#1249=CARTESIAN_POINT('Origin',(27.5,48.9219222692029,-1.));
#1250=CARTESIAN_POINT('Origin',(18.0000002682209,34.0000005066395,2.5));
#1251=CARTESIAN_POINT('',(30.5,34.0000005066395,6.));
#1252=CARTESIAN_POINT('',(30.5,34.0000005066395,4.25));
#1253=CARTESIAN_POINT('',(32.5,34.0000005066395,6.));
#1254=CARTESIAN_POINT('',(16.7500001341104,34.0000005066395,6.));
#1255=CARTESIAN_POINT('',(32.5,34.0000005066395,5.25));
#1256=CARTESIAN_POINT('Origin',(16.25,51.9219222692029,6.));
#1257=CARTESIAN_POINT('',(5.,51.9219222692029,-1.99999999999999));
#1258=CARTESIAN_POINT('',(5.,51.9219222692029,6.00000000000001));
#1259=CARTESIAN_POINT('',(27.5,51.9219222692029,-2.));
#1260=CARTESIAN_POINT('',(16.25,51.9219222692029,-2.));
#1261=CARTESIAN_POINT('',(27.5,51.9219222692029,6.));
#1262=CARTESIAN_POINT('Origin',(5.,48.9219222692029,6.00000000000001));
#1263=CARTESIAN_POINT('',(2.,48.9219222692029,-1.99999999999999));
#1264=CARTESIAN_POINT('',(2.,48.9219222692029,6.00000000000001));
#1265=CARTESIAN_POINT('Origin',(5.,48.9219222692029,-2.));
#1266=CARTESIAN_POINT('Origin',(2.,26.4219222692029,6.00000000000001));
#1267=CARTESIAN_POINT('',(2.,23.9219222692029,6.));
#1268=CARTESIAN_POINT('',(2.,25.4609611346014,6.));
#1269=CARTESIAN_POINT('',(2.,23.9219222692029,2.));
#1270=CARTESIAN_POINT('',(2.,23.9219222692029,10.3390390561333));
#1271=CARTESIAN_POINT('',(2.,23.9219222692029,-1.99999999999999));
#1272=CARTESIAN_POINT('',(2.,23.9219222692029,6.00000000000001));
#1273=CARTESIAN_POINT('',(2.,26.4219222692029,-1.99999999999999));
#1274=CARTESIAN_POINT('Origin',(15.5,24.5,6.));
#1275=CARTESIAN_POINT('',(0.,23.9219222692029,6.));
#1276=CARTESIAN_POINT('',(-8.88178419700125E-15,24.5,6.));
#1277=CARTESIAN_POINT('',(7.99999999999999,23.9219222692029,6.));
#1278=CARTESIAN_POINT('Origin',(32.5,24.5,8.));
#1279=CARTESIAN_POINT('',(32.5,23.9219222692029,6.));
#1280=CARTESIAN_POINT('',(32.5,24.5,6.));
#1281=CARTESIAN_POINT('',(32.5,23.9219222692029,2.));
#1282=CARTESIAN_POINT('',(32.5,23.9219222692029,11.3390390561333));
#1283=CARTESIAN_POINT('',(32.5,21.0219222692029,2.));
#1284=CARTESIAN_POINT('',(32.5,22.9859610153921,2.));
#1285=CARTESIAN_POINT('',(32.5,21.0219222692029,12.));
#1286=CARTESIAN_POINT('',(32.5,21.0219222692029,5.));
#1287=CARTESIAN_POINT('',(32.5,1.99999952316284,12.));
#1288=CARTESIAN_POINT('',(32.5,24.5,12.));
#1289=CARTESIAN_POINT('',(32.5,1.99999952316284,-3.));
#1290=CARTESIAN_POINT('',(32.5,1.99999952316284,4.75));
#1291=CARTESIAN_POINT('',(32.5,49.,-3.));
#1292=CARTESIAN_POINT('',(32.5,44.,-3.));
#1293=CARTESIAN_POINT('',(32.5,49.,8.));
#1294=CARTESIAN_POINT('Origin',(-8.88178419700125E-15,24.5,8.));
#1295=CARTESIAN_POINT('',(-8.88178419700125E-15,49.,-3.));
#1296=CARTESIAN_POINT('',(-8.88178419700125E-15,49.,8.));
#1297=CARTESIAN_POINT('',(-8.88178419700125E-15,1.99999952316285,-3.));
#1298=CARTESIAN_POINT('',(-8.88178419700125E-15,23.9999998807907,-3.));
#1299=CARTESIAN_POINT('',(-8.88178419700125E-15,1.99999952316285,12.));
#1300=CARTESIAN_POINT('',(-8.88178419700125E-15,1.99999952316285,4.75));
#1301=CARTESIAN_POINT('',(0.,21.0219222692029,12.));
#1302=CARTESIAN_POINT('',(-8.88178419700125E-15,24.5,12.));
#1303=CARTESIAN_POINT('',(8.88178419700125E-15,21.0219222692029,2.));
#1304=CARTESIAN_POINT('',(0.,21.0219222692029,11.));
#1305=CARTESIAN_POINT('',(0.,23.9219222692029,2.));
#1306=CARTESIAN_POINT('',(-8.88178419700125E-15,23.9999998807907,2.));
#1307=CARTESIAN_POINT('',(-1.77635683940025E-14,23.9219222692029,11.3390390561333));
#1308=CARTESIAN_POINT('Origin',(4.99999999999999,49.,8.));
#1309=CARTESIAN_POINT('',(4.99999999999999,54.,-3.));
#1310=CARTESIAN_POINT('',(4.99999999999999,54.,8.));
#1311=CARTESIAN_POINT('Origin',(4.99999999999999,49.,-3.));
#1312=CARTESIAN_POINT('Origin',(1.49999999999999,12.937616740351,8.05984903265169));
#1313=CARTESIAN_POINT('',(1.99999999999999,12.937616740351,9.11969796099526));
#1314=CARTESIAN_POINT('',(1.49999999998256,12.937616740351,8.37807811227864));
#1315=CARTESIAN_POINT('Origin',(2.29999999998256,12.937616740351,8.37807811227864));
#1316=CARTESIAN_POINT('',(1.99999999999999,12.937616740351,7.63645826356202));
#1317=CARTESIAN_POINT('',(1.99999999999999,12.937616740351,8.05984903265169));
#1318=CARTESIAN_POINT('Origin',(2.29999999998256,12.937616740351,8.37807811227864));
#1319=CARTESIAN_POINT('Origin',(2.29999999998256,13.4219222692029,8.37807811227864));
#1320=CARTESIAN_POINT('',(1.49999999998256,21.0219222692029,8.3780781122787));
#1321=CARTESIAN_POINT('Origin',(2.29999999998256,21.0219222692029,8.3780781122787));
#1322=CARTESIAN_POINT('',(1.49999999998256,13.4219222692029,8.37807811227864));
#1323=CARTESIAN_POINT('Origin',(2.29999999998256,12.937616740351,8.37807811227864));
#1324=CARTESIAN_POINT('Origin',(27.2,3.72192226920285,14.6780781122665));
#1325=CARTESIAN_POINT('',(2.00000002980232,3.72192226920285,14.));
#1326=CARTESIAN_POINT('',(2.00000002980232,3.72192226920285,-2.00000002980232));
#1327=CARTESIAN_POINT('',(2.00000002980232,3.72192226920285,5.99999998509884));
#1328=CARTESIAN_POINT('',(30.5000004544854,3.72192226920285,14.));
#1329=CARTESIAN_POINT('',(22.4250001136214,3.72192226920285,14.));
#1330=CARTESIAN_POINT('',(30.5000004544854,3.72192226920285,-2.00000002980232));
#1331=CARTESIAN_POINT('',(30.5000004544854,3.72192226920285,5.99999998509884));
#1332=CARTESIAN_POINT('',(3.10000001490116,3.72192226920285,-2.00000002980232));
#1333=CARTESIAN_POINT('Origin',(31.,12.937616740351,8.03544926981218));
#1334=CARTESIAN_POINT('',(30.5,12.937616740351,7.68525778924103));
#1335=CARTESIAN_POINT('',(30.5,12.937616740351,9.07089843531623));
#1336=CARTESIAN_POINT('Origin',(30.1000000000174,12.937616740351,8.37807811227863));
#1337=CARTESIAN_POINT('',(30.5,12.937616740351,8.03544926981218));
#1338=CARTESIAN_POINT('Origin',(30.1000000000174,13.4219222692029,8.37807811227863));
#1339=CARTESIAN_POINT('',(29.3000000000174,21.0219222692028,8.37807811227869));
#1340=CARTESIAN_POINT('Origin',(30.1000000000174,21.0219222692028,8.37807811227869));
#1341=CARTESIAN_POINT('',(29.3000000000174,12.937616740351,8.37807811227863));
#1342=CARTESIAN_POINT('',(29.3000000000174,13.4219222692029,8.37807811227863));
#1343=CARTESIAN_POINT('Origin',(30.1000000000174,12.937616740351,8.37807811227863));
#1344=CARTESIAN_POINT('Origin',(30.1000000000174,12.937616740351,8.37807811227863));
#1345=CARTESIAN_POINT('Origin',(30.5,9.93761674035102,6.5));
#1346=CARTESIAN_POINT('',(30.5,12.937616740351,-2.));
#1347=CARTESIAN_POINT('',(30.5,12.937616740351,6.5));
#1348=CARTESIAN_POINT('',(30.5,6.93761674035102,-2.));
#1349=CARTESIAN_POINT('',(30.5,12.937616740351,14.));
#1350=CARTESIAN_POINT('',(30.5,24.5,14.));
#1351=CARTESIAN_POINT('',(30.5,12.937616740351,6.5));
#1352=CARTESIAN_POINT('Origin',(15.5,24.5,14.));
#1353=CARTESIAN_POINT('',(1.99999999999999,1.99999952316285,14.));
#1354=CARTESIAN_POINT('',(1.99999999999999,24.5,14.));
#1355=CARTESIAN_POINT('',(30.5,1.99999952316284,14.));
#1356=CARTESIAN_POINT('',(15.8750001769513,1.99999952316285,14.));
#1357=CARTESIAN_POINT('',(30.5,24.5,14.));
#1358=CARTESIAN_POINT('Origin',(1.99999999999999,9.93761674035102,6.));
#1359=CARTESIAN_POINT('',(1.99999999999999,12.937616740351,14.));
#1360=CARTESIAN_POINT('',(1.99999999999999,12.937616740351,6.));
#1361=CARTESIAN_POINT('',(1.99999999999999,24.5,14.));
#1362=CARTESIAN_POINT('',(1.99999999999999,12.937616740351,-2.));
#1363=CARTESIAN_POINT('',(1.99999999999999,6.93761674035102,-2.));
#1364=CARTESIAN_POINT('',(1.99999999999999,12.937616740351,6.));
#1365=CARTESIAN_POINT('Origin',(15.5,54.,8.));
#1366=CARTESIAN_POINT('',(27.5,54.,-3.));
#1367=CARTESIAN_POINT('',(27.5,54.,8.));
#1368=CARTESIAN_POINT('',(15.8750001769513,54.,-3.));
#1369=CARTESIAN_POINT('Origin',(27.5,49.,8.));
#1370=CARTESIAN_POINT('Origin',(27.5,49.,-3.));
#1371=CARTESIAN_POINT('Origin',(15.5,24.5,6.));
#1372=CARTESIAN_POINT('',(30.5,23.9219222692029,6.));
#1373=CARTESIAN_POINT('',(30.5,33.2109611346014,6.));
#1374=CARTESIAN_POINT('',(21.35,23.9219222692029,6.));
#1375=CARTESIAN_POINT('Origin',(27.5,48.9219222692029,6.));
#1376=CARTESIAN_POINT('',(30.5,48.9219222692029,-2.));
#1377=CARTESIAN_POINT('Origin',(27.5,48.9219222692029,-2.));
#1378=CARTESIAN_POINT('',(30.5,48.9219222692029,6.));
#1379=CARTESIAN_POINT('Origin',(16.2,22.7531367319789,-2.));
#1380=CARTESIAN_POINT('',(28.2,12.937616740351,-2.));
#1381=CARTESIAN_POINT('',(29.35,12.937616740351,-2.));
#1382=CARTESIAN_POINT('',(28.2,23.9219222692029,-2.));
#1383=CARTESIAN_POINT('',(28.2,22.7531367319789,-2.));
#1384=CARTESIAN_POINT('',(30.5,23.9219222692029,-2.));
#1385=CARTESIAN_POINT('',(16.25,23.9219222692029,-2.));
#1386=CARTESIAN_POINT('',(30.5,41.9219222692029,-2.));
#1387=CARTESIAN_POINT('',(4.2,23.9219222692029,-1.99999999999999));
#1388=CARTESIAN_POINT('',(16.25,23.9219222692029,-2.));
#1389=CARTESIAN_POINT('',(4.2,12.937616740351,-2.));
#1390=CARTESIAN_POINT('',(4.2,22.7531367319789,-2.));
#1391=CARTESIAN_POINT('',(16.25,12.937616740351,-2.));
#1392=CARTESIAN_POINT('Origin',(30.5,26.4219222692029,6.));
#1393=CARTESIAN_POINT('',(30.5,23.9219222692029,2.));
#1394=CARTESIAN_POINT('',(30.5,23.9219222692029,6.));
#1395=CARTESIAN_POINT('',(30.5,23.9219222692029,10.3390390561333));
#1396=CARTESIAN_POINT('Origin',(16.2500003539026,23.4999997615814,-3.));
#1397=CARTESIAN_POINT('',(30.5,-4.76837156426768E-7,-3.));
#1398=CARTESIAN_POINT('Origin',(30.5,1.99999952316284,-3.));
#1399=CARTESIAN_POINT('',(1.99999999999999,-4.76837156426768E-7,-3.));
#1400=CARTESIAN_POINT('',(33.,-4.76837156426768E-7,-3.));
#1401=CARTESIAN_POINT('Origin',(1.99999999999999,1.99999952316285,-3.));
#1402=CARTESIAN_POINT('Origin',(16.25,23.9219222692029,6.));
#1403=CARTESIAN_POINT('',(4.2,23.9219222692029,2.));
#1404=CARTESIAN_POINT('',(4.2,23.9219222692029,10.3390390561333));
#1405=CARTESIAN_POINT('',(0.499999999999998,23.9219222692029,2.));
#1406=CARTESIAN_POINT('Origin',(16.25,23.9219222692029,6.));
#1407=CARTESIAN_POINT('',(28.2,23.9219222692029,2.));
#1408=CARTESIAN_POINT('',(16.2500001769513,23.9219222692029,2.));
#1409=CARTESIAN_POINT('',(28.2,23.9219222692029,10.3390390561333));
#1410=CARTESIAN_POINT('Origin',(27.2,23.9219222692029,14.6780781122665));
#1411=CARTESIAN_POINT('',(32.,23.9219222692029,2.));
#1412=CARTESIAN_POINT('Origin',(16.2500003539026,23.4999997615814,2.));
#1413=CARTESIAN_POINT('',(28.2,21.0219222692029,2.));
#1414=CARTESIAN_POINT('',(28.2,23.1265682467801,2.));
#1415=CARTESIAN_POINT('',(24.1250001769513,21.0219222692029,2.));
#1416=CARTESIAN_POINT('Origin',(28.2,21.0219222692029,14.6780781122665));
#1417=CARTESIAN_POINT('',(28.2,12.937616740351,14.));
#1418=CARTESIAN_POINT('',(28.2,12.937616740351,6.83903905613327));
#1419=CARTESIAN_POINT('',(28.2,21.0219222692029,14.));
#1420=CARTESIAN_POINT('',(28.2,10.5109611346014,14.));
#1421=CARTESIAN_POINT('',(28.2,21.0219222692029,14.6780781122665));
#1422=CARTESIAN_POINT('Origin',(4.2,4.22192226920285,14.6780781122665));
#1423=CARTESIAN_POINT('',(4.2,21.0219222692029,2.));
#1424=CARTESIAN_POINT('',(4.2,23.1265682467801,2.));
#1425=CARTESIAN_POINT('',(4.2,21.0219222692029,14.));
#1426=CARTESIAN_POINT('',(4.2,21.0219222692029,14.6780781122665));
#1427=CARTESIAN_POINT('',(4.2,12.937616740351,14.));
#1428=CARTESIAN_POINT('',(4.2,2.11096113460142,14.));
#1429=CARTESIAN_POINT('',(4.2,12.937616740351,10.3390390561333));
#1430=CARTESIAN_POINT('Origin',(0.499999999999989,23.9219222692029,14.6780781122665));
#1431=CARTESIAN_POINT('',(0.499999999999998,23.9219222692029,2.));
#1432=CARTESIAN_POINT('Origin',(16.25,12.937616740351,6.));
#1433=CARTESIAN_POINT('',(15.875,12.937616740351,14.));
#1434=CARTESIAN_POINT('Origin',(15.5,24.5,14.));
#1435=CARTESIAN_POINT('',(1.99999999999999,21.0219222692029,14.));
#1436=CARTESIAN_POINT('',(0.499999999999998,21.0219222692029,14.));
#1437=CARTESIAN_POINT('',(1.99999999999999,24.5,14.));
#1438=CARTESIAN_POINT('Origin',(29.35,12.937616740351,6.5));
#1439=CARTESIAN_POINT('',(22.425,12.937616740351,14.));
#1440=CARTESIAN_POINT('Origin',(16.2500003539026,23.4999997615814,2.));
#1441=CARTESIAN_POINT('',(8.37500017695129,21.0219222692029,2.));
#1442=CARTESIAN_POINT('Origin',(30.5,24.5,12.));
#1443=CARTESIAN_POINT('',(30.5,21.0219222692029,14.));
#1444=CARTESIAN_POINT('Origin',(30.5,21.0219222692029,12.));
#1445=CARTESIAN_POINT('',(30.5,24.5,14.));
#1446=CARTESIAN_POINT('Origin',(30.5,1.99999952316284,12.));
#1447=CARTESIAN_POINT('Origin',(15.8750001769513,1.99999952316285,12.));
#1448=CARTESIAN_POINT('',(1.99999999999999,-4.76837156426768E-7,12.));
#1449=CARTESIAN_POINT('Origin',(1.99999999999999,1.99999952316285,12.));
#1450=CARTESIAN_POINT('',(30.5,-4.76837156426768E-7,12.));
#1451=CARTESIAN_POINT('',(15.8750001769513,-4.76837156426768E-7,12.));
#1452=CARTESIAN_POINT('Origin',(30.5,1.99999952316285,12.));
#1453=CARTESIAN_POINT('Origin',(1.99999999999999,24.5,12.));
#1454=CARTESIAN_POINT('Origin',(1.99999999999999,21.0219222692029,12.));
#1455=CARTESIAN_POINT('Origin',(1.99999999999999,1.99999952316285,12.));
#1456=CARTESIAN_POINT('Origin',(1.99999999999999,1.99999952316285,12.));
#1457=CARTESIAN_POINT('Origin',(1.99999999999999,1.99999952316285,12.));
#1458=CARTESIAN_POINT('Origin',(30.5,1.99999952316284,12.));
#1459=CARTESIAN_POINT('Origin',(30.5,1.99999952316284,12.));
#1460=CARTESIAN_POINT('Origin',(30.5,1.99999952316284,4.75));
#1461=CARTESIAN_POINT('',(30.5,-4.76837156426768E-7,-5.55111512312578E-16));
#1462=CARTESIAN_POINT('Origin',(16.2500003539026,-4.76837156426768E-7,1.5));
#1463=CARTESIAN_POINT('',(1.99999999999999,-4.76837156426768E-7,-5.55111512312578E-16));
#1464=CARTESIAN_POINT('Origin',(1.99999999999999,1.99999952316285,4.75));
#1465=CARTESIAN_POINT('Origin',(0.500000000000007,21.0219222692029,14.));
#1466=CARTESIAN_POINT('Origin',(15.5,24.5,14.));
#1467=CARTESIAN_POINT('',(16.25,21.0219222692029,14.));
#1468=CARTESIAN_POINT('Origin',(32.,21.0219222692029,2.));
#1469=UNCERTAINTY_MEASURE_WITH_UNIT(LENGTH_MEASURE(0.01),#1473,
'DISTANCE_ACCURACY_VALUE',
'Maximum model space distance between geometric entities at asserted c
onnectivities');
#1470=UNCERTAINTY_MEASURE_WITH_UNIT(LENGTH_MEASURE(0.01),#1473,
'DISTANCE_ACCURACY_VALUE',
'Maximum model space distance between geometric entities at asserted c
onnectivities');
#1471=(
GEOMETRIC_REPRESENTATION_CONTEXT(3)
GLOBAL_UNCERTAINTY_ASSIGNED_CONTEXT((#1469))
GLOBAL_UNIT_ASSIGNED_CONTEXT((#1473,#1475,#1476))
REPRESENTATION_CONTEXT('','3D')
);
#1472=(
GEOMETRIC_REPRESENTATION_CONTEXT(3)
GLOBAL_UNCERTAINTY_ASSIGNED_CONTEXT((#1470))
GLOBAL_UNIT_ASSIGNED_CONTEXT((#1473,#1475,#1476))
REPRESENTATION_CONTEXT('','3D')
);
#1473=(
LENGTH_UNIT()
NAMED_UNIT(*)
SI_UNIT(.MILLI.,.METRE.)
);
#1474=(
LENGTH_UNIT()
NAMED_UNIT(*)
SI_UNIT($,.METRE.)
);
#1475=(
NAMED_UNIT(*)
PLANE_ANGLE_UNIT()
SI_UNIT($,.RADIAN.)
);
#1476=(
NAMED_UNIT(*)
SI_UNIT($,.STERADIAN.)
SOLID_ANGLE_UNIT()
);
#1477=SHAPE_DEFINITION_REPRESENTATION(#1478,#1479);
#1478=PRODUCT_DEFINITION_SHAPE('',$,#1481);
#1479=SHAPE_REPRESENTATION('',(#897),#1471);
#1480=PRODUCT_DEFINITION_CONTEXT('part definition',#1485,'design');
#1481=PRODUCT_DEFINITION('foot_long','foot_long',#1482,#1480);
#1482=PRODUCT_DEFINITION_FORMATION('',$,#1487);
#1483=PRODUCT_RELATED_PRODUCT_CATEGORY('foot_long','foot_long',(#1487));
#1484=APPLICATION_PROTOCOL_DEFINITION('international standard',
'automotive_design',2009,#1485);
#1485=APPLICATION_CONTEXT(
'Core Data for Automotive Mechanical Design Process');
#1486=PRODUCT_CONTEXT('part definition',#1485,'mechanical');
#1487=PRODUCT('foot_long','foot_long',$,(#1486));
#1488=PRESENTATION_STYLE_ASSIGNMENT((#1489));
#1489=SURFACE_STYLE_USAGE(.BOTH.,#1490);
#1490=SURFACE_SIDE_STYLE('',(#1491));
#1491=SURFACE_STYLE_FILL_AREA(#1492);
#1492=FILL_AREA_STYLE('\X2\92FC\X0\ - \X2\30B530C630F3\X0\',(#1493));
#1493=FILL_AREA_STYLE_COLOUR('\X2\92FC\X0\ - \X2\30B530C630F3\X0\',#1494);
#1494=COLOUR_RGB('\X2\92FC\X0\ - \X2\30B530C630F3\X0\',0.627450980392157,
0.627450980392157,0.627450980392157);
ENDSEC;
END-ISO-10303-21;
