ISO-10303-21;
HEADER;
/* Generated by software containing ST-Developer
 * from STEP Tools, Inc. (www.steptools.com) 
 */

FILE_DESCRIPTION(
/* description */ (''),
/* implementation_level */ '2;1');

FILE_NAME(
/* name */ 'holder_NP-40.step',
/* time_stamp */ '2026-07-28T10:18:30+09:00',
/* author */ (''),
/* organization */ (''),
/* preprocessor_version */ 'ST-DEVELOPER v20.1',
/* originating_system */ 'Autodesk Translation Framework v15.8.0.0',
/* authorisation */ '');

FILE_SCHEMA (('AUTOMOTIVE_DESIGN { 1 0 10303 214 3 1 1 }'));
ENDSEC;

DATA;
#10=MECHANICAL_DESIGN_GEOMETRIC_PRESENTATION_REPRESENTATION('',(#17),#1804);
#11=ITEM_DEFINED_TRANSFORMATION($,$,#1088,#1182);
#12=(
REPRESENTATION_RELATIONSHIP($,$,#1815,#1814)
REPRESENTATION_RELATIONSHIP_WITH_TRANSFORMATION(#11)
SHAPE_REPRESENTATION_RELATIONSHIP()
);
#13=CONTEXT_DEPENDENT_SHAPE_REPRESENTATION(#12,#1813);
#14=NEXT_ASSEMBLY_USAGE_OCCURRENCE('\X2\30B330F330DD30FC30CD30F330C8\X0\2
:1','\X2\30B330F330DD30FC30CD30F330C8\X0\2:1',
'\X2\30B330F330DD30FC30CD30F330C8\X0\2:1',#1817,#1818,
'\X2\30B330F330DD30FC30CD30F330C8\X0\2:1');
#15=SHAPE_REPRESENTATION_RELATIONSHIP('SRR','None',#1815,#16);
#16=ADVANCED_BREP_SHAPE_REPRESENTATION('',(#18),#1803);
#17=STYLED_ITEM('',(#1829),#18);
#18=MANIFOLD_SOLID_BREP('holder',#1074);
#19=FACE_BOUND('',#120,.T.);
#20=FACE_BOUND('',#121,.T.);
#21=FACE_BOUND('',#122,.T.);
#22=FACE_BOUND('',#123,.T.);
#23=FACE_BOUND('',#135,.T.);
#24=FACE_BOUND('',#136,.T.);
#25=FACE_BOUND('',#137,.T.);
#26=FACE_BOUND('',#138,.T.);
#27=CYLINDRICAL_SURFACE('',#1104,2.);
#28=CYLINDRICAL_SURFACE('',#1106,2.);
#29=CYLINDRICAL_SURFACE('',#1109,2.);
#30=CYLINDRICAL_SURFACE('',#1116,2.);
#31=CYLINDRICAL_SURFACE('',#1135,4.);
#32=CYLINDRICAL_SURFACE('',#1137,1.6);
#33=CYLINDRICAL_SURFACE('',#1139,1.6);
#34=CYLINDRICAL_SURFACE('',#1142,3.);
#35=CYLINDRICAL_SURFACE('',#1145,3.);
#36=CYLINDRICAL_SURFACE('',#1147,3.);
#37=CYLINDRICAL_SURFACE('',#1160,3.);
#38=CYLINDRICAL_SURFACE('',#1165,2.);
#39=CYLINDRICAL_SURFACE('',#1167,2.);
#40=CYLINDRICAL_SURFACE('',#1169,2.);
#41=CYLINDRICAL_SURFACE('',#1171,2.);
#42=CYLINDRICAL_SURFACE('',#1173,2.);
#43=CYLINDRICAL_SURFACE('',#1174,2.);
#44=CYLINDRICAL_SURFACE('',#1176,1.6);
#45=CYLINDRICAL_SURFACE('',#1177,1.6);
#46=CYLINDRICAL_SURFACE('',#1181,4.);
#47=FACE_OUTER_BOUND('',#100,.T.);
#48=FACE_OUTER_BOUND('',#101,.T.);
#49=FACE_OUTER_BOUND('',#102,.T.);
#50=FACE_OUTER_BOUND('',#103,.T.);
#51=FACE_OUTER_BOUND('',#104,.T.);
#52=FACE_OUTER_BOUND('',#105,.T.);
#53=FACE_OUTER_BOUND('',#106,.T.);
#54=FACE_OUTER_BOUND('',#107,.T.);
#55=FACE_OUTER_BOUND('',#108,.T.);
#56=FACE_OUTER_BOUND('',#109,.T.);
#57=FACE_OUTER_BOUND('',#110,.T.);
#58=FACE_OUTER_BOUND('',#111,.T.);
#59=FACE_OUTER_BOUND('',#112,.T.);
#60=FACE_OUTER_BOUND('',#113,.T.);
#61=FACE_OUTER_BOUND('',#114,.T.);
#62=FACE_OUTER_BOUND('',#115,.T.);
#63=FACE_OUTER_BOUND('',#116,.T.);
#64=FACE_OUTER_BOUND('',#117,.T.);
#65=FACE_OUTER_BOUND('',#118,.T.);
#66=FACE_OUTER_BOUND('',#119,.T.);
#67=FACE_OUTER_BOUND('',#124,.T.);
#68=FACE_OUTER_BOUND('',#125,.T.);
#69=FACE_OUTER_BOUND('',#126,.T.);
#70=FACE_OUTER_BOUND('',#127,.T.);
#71=FACE_OUTER_BOUND('',#128,.T.);
#72=FACE_OUTER_BOUND('',#129,.T.);
#73=FACE_OUTER_BOUND('',#130,.T.);
#74=FACE_OUTER_BOUND('',#131,.T.);
#75=FACE_OUTER_BOUND('',#132,.T.);
#76=FACE_OUTER_BOUND('',#133,.T.);
#77=FACE_OUTER_BOUND('',#134,.T.);
#78=FACE_OUTER_BOUND('',#139,.T.);
#79=FACE_OUTER_BOUND('',#140,.T.);
#80=FACE_OUTER_BOUND('',#141,.T.);
#81=FACE_OUTER_BOUND('',#142,.T.);
#82=FACE_OUTER_BOUND('',#143,.T.);
#83=FACE_OUTER_BOUND('',#144,.T.);
#84=FACE_OUTER_BOUND('',#145,.T.);
#85=FACE_OUTER_BOUND('',#146,.T.);
#86=FACE_OUTER_BOUND('',#147,.T.);
#87=FACE_OUTER_BOUND('',#148,.T.);
#88=FACE_OUTER_BOUND('',#149,.T.);
#89=FACE_OUTER_BOUND('',#150,.T.);
#90=FACE_OUTER_BOUND('',#151,.T.);
#91=FACE_OUTER_BOUND('',#152,.T.);
#92=FACE_OUTER_BOUND('',#153,.T.);
#93=FACE_OUTER_BOUND('',#154,.T.);
#94=FACE_OUTER_BOUND('',#155,.T.);
#95=FACE_OUTER_BOUND('',#156,.T.);
#96=FACE_OUTER_BOUND('',#157,.T.);
#97=FACE_OUTER_BOUND('',#158,.T.);
#98=FACE_OUTER_BOUND('',#159,.T.);
#99=FACE_OUTER_BOUND('',#160,.T.);
#100=EDGE_LOOP('',(#682,#683,#684,#685,#686,#687,#688,#689,#690,#691,#692,
#693));
#101=EDGE_LOOP('',(#694,#695,#696,#697,#698,#699,#700,#701,#702,#703,#704,
#705,#706,#707,#708,#709,#710,#711,#712,#713));
#102=EDGE_LOOP('',(#714,#715,#716,#717));
#103=EDGE_LOOP('',(#718,#719,#720,#721));
#104=EDGE_LOOP('',(#722,#723,#724,#725));
#105=EDGE_LOOP('',(#726,#727,#728,#729));
#106=EDGE_LOOP('',(#730,#731,#732,#733));
#107=EDGE_LOOP('',(#734,#735,#736,#737));
#108=EDGE_LOOP('',(#738,#739,#740,#741));
#109=EDGE_LOOP('',(#742,#743,#744,#745));
#110=EDGE_LOOP('',(#746,#747,#748,#749));
#111=EDGE_LOOP('',(#750,#751,#752,#753,#754,#755,#756,#757,#758,#759,#760,
#761,#762,#763));
#112=EDGE_LOOP('',(#764,#765,#766,#767));
#113=EDGE_LOOP('',(#768,#769,#770,#771));
#114=EDGE_LOOP('',(#772,#773,#774,#775));
#115=EDGE_LOOP('',(#776,#777,#778,#779));
#116=EDGE_LOOP('',(#780,#781,#782,#783));
#117=EDGE_LOOP('',(#784,#785,#786,#787));
#118=EDGE_LOOP('',(#788,#789,#790,#791));
#119=EDGE_LOOP('',(#792,#793,#794,#795,#796,#797,#798,#799,#800,#801,#802,
#803,#804,#805,#806,#807,#808,#809,#810,#811,#812,#813,#814,#815,#816,#817,
#818,#819,#820,#821,#822,#823,#824,#825,#826,#827));
#120=EDGE_LOOP('',(#828));
#121=EDGE_LOOP('',(#829));
#122=EDGE_LOOP('',(#830));
#123=EDGE_LOOP('',(#831));
#124=EDGE_LOOP('',(#832,#833,#834,#835));
#125=EDGE_LOOP('',(#836,#837,#838,#839,#840,#841));
#126=EDGE_LOOP('',(#842,#843,#844,#845));
#127=EDGE_LOOP('',(#846,#847,#848,#849));
#128=EDGE_LOOP('',(#850,#851,#852,#853));
#129=EDGE_LOOP('',(#854,#855,#856,#857));
#130=EDGE_LOOP('',(#858,#859,#860,#861));
#131=EDGE_LOOP('',(#862,#863,#864,#865));
#132=EDGE_LOOP('',(#866,#867,#868,#869));
#133=EDGE_LOOP('',(#870,#871,#872,#873));
#134=EDGE_LOOP('',(#874,#875,#876,#877,#878,#879,#880,#881,#882,#883,#884,
#885,#886,#887,#888,#889,#890,#891,#892,#893,#894,#895));
#135=EDGE_LOOP('',(#896));
#136=EDGE_LOOP('',(#897));
#137=EDGE_LOOP('',(#898));
#138=EDGE_LOOP('',(#899));
#139=EDGE_LOOP('',(#900,#901,#902,#903));
#140=EDGE_LOOP('',(#904,#905,#906,#907));
#141=EDGE_LOOP('',(#908,#909,#910,#911));
#142=EDGE_LOOP('',(#912,#913,#914,#915));
#143=EDGE_LOOP('',(#916,#917,#918,#919));
#144=EDGE_LOOP('',(#920,#921,#922,#923));
#145=EDGE_LOOP('',(#924,#925,#926,#927));
#146=EDGE_LOOP('',(#928,#929,#930,#931));
#147=EDGE_LOOP('',(#932,#933,#934,#935));
#148=EDGE_LOOP('',(#936,#937,#938,#939));
#149=EDGE_LOOP('',(#940,#941,#942,#943));
#150=EDGE_LOOP('',(#944,#945,#946,#947));
#151=EDGE_LOOP('',(#948,#949,#950,#951));
#152=EDGE_LOOP('',(#952,#953,#954,#955));
#153=EDGE_LOOP('',(#956,#957,#958,#959));
#154=EDGE_LOOP('',(#960,#961,#962,#963));
#155=EDGE_LOOP('',(#964,#965,#966,#967));
#156=EDGE_LOOP('',(#968,#969,#970,#971));
#157=EDGE_LOOP('',(#972,#973,#974,#975));
#158=EDGE_LOOP('',(#976,#977,#978,#979));
#159=EDGE_LOOP('',(#980,#981,#982,#983));
#160=EDGE_LOOP('',(#984,#985,#986,#987));
#161=LINE('',#1495,#274);
#162=LINE('',#1499,#275);
#163=LINE('',#1501,#276);
#164=LINE('',#1503,#277);
#165=LINE('',#1507,#278);
#166=LINE('',#1511,#279);
#167=LINE('',#1513,#280);
#168=LINE('',#1514,#281);
#169=LINE('',#1520,#282);
#170=LINE('',#1522,#283);
#171=LINE('',#1524,#284);
#172=LINE('',#1528,#285);
#173=LINE('',#1532,#286);
#174=LINE('',#1534,#287);
#175=LINE('',#1536,#288);
#176=LINE('',#1540,#289);
#177=LINE('',#1544,#290);
#178=LINE('',#1546,#291);
#179=LINE('',#1548,#292);
#180=LINE('',#1550,#293);
#181=LINE('',#1552,#294);
#182=LINE('',#1555,#295);
#183=LINE('',#1557,#296);
#184=LINE('',#1558,#297);
#185=LINE('',#1560,#298);
#186=LINE('',#1562,#299);
#187=LINE('',#1564,#300);
#188=LINE('',#1566,#301);
#189=LINE('',#1568,#302);
#190=LINE('',#1570,#303);
#191=LINE('',#1573,#304);
#192=LINE('',#1575,#305);
#193=LINE('',#1576,#306);
#194=LINE('',#1579,#307);
#195=LINE('',#1583,#308);
#196=LINE('',#1587,#309);
#197=LINE('',#1589,#310);
#198=LINE('',#1591,#311);
#199=LINE('',#1593,#312);
#200=LINE('',#1595,#313);
#201=LINE('',#1597,#314);
#202=LINE('',#1599,#315);
#203=LINE('',#1601,#316);
#204=LINE('',#1603,#317);
#205=LINE('',#1604,#318);
#206=LINE('',#1607,#319);
#207=LINE('',#1609,#320);
#208=LINE('',#1610,#321);
#209=LINE('',#1613,#322);
#210=LINE('',#1614,#323);
#211=LINE('',#1616,#324);
#212=LINE('',#1618,#325);
#213=LINE('',#1620,#326);
#214=LINE('',#1623,#327);
#215=LINE('',#1625,#328);
#216=LINE('',#1626,#329);
#217=LINE('',#1629,#330);
#218=LINE('',#1630,#331);
#219=LINE('',#1633,#332);
#220=LINE('',#1634,#333);
#221=LINE('',#1636,#334);
#222=LINE('',#1637,#335);
#223=LINE('',#1639,#336);
#224=LINE('',#1643,#337);
#225=LINE('',#1647,#338);
#226=LINE('',#1651,#339);
#227=LINE('',#1655,#340);
#228=LINE('',#1659,#341);
#229=LINE('',#1663,#342);
#230=LINE('',#1667,#343);
#231=LINE('',#1671,#344);
#232=LINE('',#1675,#345);
#233=LINE('',#1678,#346);
#234=LINE('',#1688,#347);
#235=LINE('',#1689,#348);
#236=LINE('',#1692,#349);
#237=LINE('',#1693,#350);
#238=LINE('',#1697,#351);
#239=LINE('',#1701,#352);
#240=LINE('',#1703,#353);
#241=LINE('',#1706,#354);
#242=LINE('',#1709,#355);
#243=LINE('',#1712,#356);
#244=LINE('',#1713,#357);
#245=LINE('',#1718,#358);
#246=LINE('',#1721,#359);
#247=LINE('',#1724,#360);
#248=LINE('',#1725,#361);
#249=LINE('',#1728,#362);
#250=LINE('',#1732,#363);
#251=LINE('',#1736,#364);
#252=LINE('',#1740,#365);
#253=LINE('',#1744,#366);
#254=LINE('',#1748,#367);
#255=LINE('',#1752,#368);
#256=LINE('',#1754,#369);
#257=LINE('',#1760,#370);
#258=LINE('',#1762,#371);
#259=LINE('',#1764,#372);
#260=LINE('',#1767,#373);
#261=LINE('',#1769,#374);
#262=LINE('',#1770,#375);
#263=LINE('',#1772,#376);
#264=LINE('',#1774,#377);
#265=LINE('',#1776,#378);
#266=LINE('',#1778,#379);
#267=LINE('',#1780,#380);
#268=LINE('',#1782,#381);
#269=LINE('',#1783,#382);
#270=LINE('',#1785,#383);
#271=LINE('',#1790,#384);
#272=LINE('',#1792,#385);
#273=LINE('',#1794,#386);
#274=VECTOR('',#1191,10.);
#275=VECTOR('',#1194,10.);
#276=VECTOR('',#1195,10.);
#277=VECTOR('',#1196,10.);
#278=VECTOR('',#1199,10.);
#279=VECTOR('',#1202,10.);
#280=VECTOR('',#1203,10.);
#281=VECTOR('',#1204,10.);
#282=VECTOR('',#1209,10.);
#283=VECTOR('',#1210,10.);
#284=VECTOR('',#1211,10.);
#285=VECTOR('',#1214,10.);
#286=VECTOR('',#1217,10.);
#287=VECTOR('',#1218,10.);
#288=VECTOR('',#1219,10.);
#289=VECTOR('',#1222,10.);
#290=VECTOR('',#1225,10.);
#291=VECTOR('',#1226,10.);
#292=VECTOR('',#1227,10.);
#293=VECTOR('',#1228,10.);
#294=VECTOR('',#1229,10.);
#295=VECTOR('',#1232,10.);
#296=VECTOR('',#1235,10.);
#297=VECTOR('',#1236,10.);
#298=VECTOR('',#1239,10.);
#299=VECTOR('',#1242,10.);
#300=VECTOR('',#1245,10.);
#301=VECTOR('',#1248,10.);
#302=VECTOR('',#1251,10.);
#303=VECTOR('',#1254,10.);
#304=VECTOR('',#1257,10.);
#305=VECTOR('',#1258,10.);
#306=VECTOR('',#1259,10.);
#307=VECTOR('',#1262,10.);
#308=VECTOR('',#1267,10.);
#309=VECTOR('',#1270,10.);
#310=VECTOR('',#1271,10.);
#311=VECTOR('',#1272,10.);
#312=VECTOR('',#1273,10.);
#313=VECTOR('',#1274,10.);
#314=VECTOR('',#1275,10.);
#315=VECTOR('',#1276,10.);
#316=VECTOR('',#1277,10.);
#317=VECTOR('',#1278,10.);
#318=VECTOR('',#1279,10.);
#319=VECTOR('',#1282,10.);
#320=VECTOR('',#1283,10.);
#321=VECTOR('',#1284,10.);
#322=VECTOR('',#1287,10.);
#323=VECTOR('',#1288,10.);
#324=VECTOR('',#1291,10.);
#325=VECTOR('',#1294,10.);
#326=VECTOR('',#1297,10.);
#327=VECTOR('',#1300,10.);
#328=VECTOR('',#1301,10.);
#329=VECTOR('',#1302,10.);
#330=VECTOR('',#1305,10.);
#331=VECTOR('',#1306,10.);
#332=VECTOR('',#1309,10.);
#333=VECTOR('',#1310,10.);
#334=VECTOR('',#1311,10.);
#335=VECTOR('',#1312,10.);
#336=VECTOR('',#1313,10.);
#337=VECTOR('',#1316,10.);
#338=VECTOR('',#1319,10.);
#339=VECTOR('',#1322,10.);
#340=VECTOR('',#1325,10.);
#341=VECTOR('',#1328,10.);
#342=VECTOR('',#1331,10.);
#343=VECTOR('',#1334,10.);
#344=VECTOR('',#1337,10.);
#345=VECTOR('',#1340,10.);
#346=VECTOR('',#1343,10.);
#347=VECTOR('',#1354,10.);
#348=VECTOR('',#1355,10.);
#349=VECTOR('',#1358,10.);
#350=VECTOR('',#1359,10.);
#351=VECTOR('',#1364,1.6);
#352=VECTOR('',#1369,1.6);
#353=VECTOR('',#1372,10.);
#354=VECTOR('',#1375,10.);
#355=VECTOR('',#1378,10.);
#356=VECTOR('',#1381,10.);
#357=VECTOR('',#1382,10.);
#358=VECTOR('',#1389,10.);
#359=VECTOR('',#1392,10.);
#360=VECTOR('',#1395,10.);
#361=VECTOR('',#1396,10.);
#362=VECTOR('',#1399,10.);
#363=VECTOR('',#1402,10.);
#364=VECTOR('',#1405,10.);
#365=VECTOR('',#1408,10.);
#366=VECTOR('',#1411,10.);
#367=VECTOR('',#1414,10.);
#368=VECTOR('',#1417,10.);
#369=VECTOR('',#1420,10.);
#370=VECTOR('',#1427,10.);
#371=VECTOR('',#1430,10.);
#372=VECTOR('',#1433,10.);
#373=VECTOR('',#1438,10.);
#374=VECTOR('',#1441,10.);
#375=VECTOR('',#1442,10.);
#376=VECTOR('',#1445,10.);
#377=VECTOR('',#1448,10.);
#378=VECTOR('',#1451,10.);
#379=VECTOR('',#1454,10.);
#380=VECTOR('',#1457,10.);
#381=VECTOR('',#1460,10.);
#382=VECTOR('',#1461,10.);
#383=VECTOR('',#1464,10.);
#384=VECTOR('',#1473,1.6);
#385=VECTOR('',#1476,1.6);
#386=VECTOR('',#1479,10.);
#387=CIRCLE('',#1090,4.);
#388=CIRCLE('',#1091,4.);
#389=CIRCLE('',#1092,2.);
#390=CIRCLE('',#1093,2.);
#391=CIRCLE('',#1095,2.);
#392=CIRCLE('',#1096,2.);
#393=CIRCLE('',#1097,2.);
#394=CIRCLE('',#1098,4.);
#395=CIRCLE('',#1099,4.);
#396=CIRCLE('',#1100,2.);
#397=CIRCLE('',#1110,2.);
#398=CIRCLE('',#1112,2.);
#399=CIRCLE('',#1121,3.);
#400=CIRCLE('',#1122,3.);
#401=CIRCLE('',#1123,2.);
#402=CIRCLE('',#1124,2.);
#403=CIRCLE('',#1125,2.);
#404=CIRCLE('',#1126,2.);
#405=CIRCLE('',#1127,2.);
#406=CIRCLE('',#1128,2.);
#407=CIRCLE('',#1129,3.);
#408=CIRCLE('',#1130,3.);
#409=CIRCLE('',#1131,1.6);
#410=CIRCLE('',#1132,1.6);
#411=CIRCLE('',#1133,1.6);
#412=CIRCLE('',#1134,1.6);
#413=CIRCLE('',#1138,1.6);
#414=CIRCLE('',#1140,1.6);
#415=CIRCLE('',#1143,3.);
#416=CIRCLE('',#1146,3.);
#417=CIRCLE('',#1148,3.);
#418=CIRCLE('',#1151,2.);
#419=CIRCLE('',#1152,2.);
#420=CIRCLE('',#1153,2.);
#421=CIRCLE('',#1154,2.);
#422=CIRCLE('',#1155,2.);
#423=CIRCLE('',#1156,2.);
#424=CIRCLE('',#1157,3.);
#425=CIRCLE('',#1158,1.6);
#426=CIRCLE('',#1159,1.6);
#427=VERTEX_POINT('',#1491);
#428=VERTEX_POINT('',#1492);
#429=VERTEX_POINT('',#1494);
#430=VERTEX_POINT('',#1496);
#431=VERTEX_POINT('',#1498);
#432=VERTEX_POINT('',#1500);
#433=VERTEX_POINT('',#1502);
#434=VERTEX_POINT('',#1504);
#435=VERTEX_POINT('',#1506);
#436=VERTEX_POINT('',#1508);
#437=VERTEX_POINT('',#1510);
#438=VERTEX_POINT('',#1512);
#439=VERTEX_POINT('',#1516);
#440=VERTEX_POINT('',#1517);
#441=VERTEX_POINT('',#1519);
#442=VERTEX_POINT('',#1521);
#443=VERTEX_POINT('',#1523);
#444=VERTEX_POINT('',#1525);
#445=VERTEX_POINT('',#1527);
#446=VERTEX_POINT('',#1529);
#447=VERTEX_POINT('',#1531);
#448=VERTEX_POINT('',#1533);
#449=VERTEX_POINT('',#1535);
#450=VERTEX_POINT('',#1537);
#451=VERTEX_POINT('',#1539);
#452=VERTEX_POINT('',#1541);
#453=VERTEX_POINT('',#1543);
#454=VERTEX_POINT('',#1545);
#455=VERTEX_POINT('',#1547);
#456=VERTEX_POINT('',#1549);
#457=VERTEX_POINT('',#1551);
#458=VERTEX_POINT('',#1553);
#459=VERTEX_POINT('',#1572);
#460=VERTEX_POINT('',#1574);
#461=VERTEX_POINT('',#1578);
#462=VERTEX_POINT('',#1582);
#463=VERTEX_POINT('',#1584);
#464=VERTEX_POINT('',#1586);
#465=VERTEX_POINT('',#1588);
#466=VERTEX_POINT('',#1590);
#467=VERTEX_POINT('',#1592);
#468=VERTEX_POINT('',#1594);
#469=VERTEX_POINT('',#1596);
#470=VERTEX_POINT('',#1598);
#471=VERTEX_POINT('',#1600);
#472=VERTEX_POINT('',#1602);
#473=VERTEX_POINT('',#1606);
#474=VERTEX_POINT('',#1608);
#475=VERTEX_POINT('',#1612);
#476=VERTEX_POINT('',#1622);
#477=VERTEX_POINT('',#1624);
#478=VERTEX_POINT('',#1628);
#479=VERTEX_POINT('',#1632);
#480=VERTEX_POINT('',#1635);
#481=VERTEX_POINT('',#1638);
#482=VERTEX_POINT('',#1640);
#483=VERTEX_POINT('',#1642);
#484=VERTEX_POINT('',#1644);
#485=VERTEX_POINT('',#1646);
#486=VERTEX_POINT('',#1648);
#487=VERTEX_POINT('',#1650);
#488=VERTEX_POINT('',#1652);
#489=VERTEX_POINT('',#1654);
#490=VERTEX_POINT('',#1656);
#491=VERTEX_POINT('',#1658);
#492=VERTEX_POINT('',#1660);
#493=VERTEX_POINT('',#1662);
#494=VERTEX_POINT('',#1664);
#495=VERTEX_POINT('',#1666);
#496=VERTEX_POINT('',#1668);
#497=VERTEX_POINT('',#1670);
#498=VERTEX_POINT('',#1672);
#499=VERTEX_POINT('',#1674);
#500=VERTEX_POINT('',#1676);
#501=VERTEX_POINT('',#1679);
#502=VERTEX_POINT('',#1681);
#503=VERTEX_POINT('',#1683);
#504=VERTEX_POINT('',#1685);
#505=VERTEX_POINT('',#1691);
#506=VERTEX_POINT('',#1695);
#507=VERTEX_POINT('',#1699);
#508=VERTEX_POINT('',#1705);
#509=VERTEX_POINT('',#1707);
#510=VERTEX_POINT('',#1711);
#511=VERTEX_POINT('',#1717);
#512=VERTEX_POINT('',#1719);
#513=VERTEX_POINT('',#1723);
#514=VERTEX_POINT('',#1727);
#515=VERTEX_POINT('',#1729);
#516=VERTEX_POINT('',#1731);
#517=VERTEX_POINT('',#1733);
#518=VERTEX_POINT('',#1735);
#519=VERTEX_POINT('',#1737);
#520=VERTEX_POINT('',#1739);
#521=VERTEX_POINT('',#1741);
#522=VERTEX_POINT('',#1743);
#523=VERTEX_POINT('',#1745);
#524=VERTEX_POINT('',#1747);
#525=VERTEX_POINT('',#1749);
#526=VERTEX_POINT('',#1751);
#527=VERTEX_POINT('',#1755);
#528=VERTEX_POINT('',#1757);
#529=EDGE_CURVE('',#427,#428,#387,.T.);
#530=EDGE_CURVE('',#428,#429,#161,.T.);
#531=EDGE_CURVE('',#429,#430,#388,.T.);
#532=EDGE_CURVE('',#430,#431,#162,.T.);
#533=EDGE_CURVE('',#431,#432,#163,.T.);
#534=EDGE_CURVE('',#432,#433,#164,.T.);
#535=EDGE_CURVE('',#433,#434,#389,.T.);
#536=EDGE_CURVE('',#434,#435,#165,.T.);
#537=EDGE_CURVE('',#435,#436,#390,.T.);
#538=EDGE_CURVE('',#436,#437,#166,.T.);
#539=EDGE_CURVE('',#438,#437,#167,.T.);
#540=EDGE_CURVE('',#438,#427,#168,.T.);
#541=EDGE_CURVE('',#439,#440,#391,.T.);
#542=EDGE_CURVE('',#441,#439,#169,.T.);
#543=EDGE_CURVE('',#442,#441,#170,.T.);
#544=EDGE_CURVE('',#443,#442,#171,.T.);
#545=EDGE_CURVE('',#444,#443,#392,.T.);
#546=EDGE_CURVE('',#445,#444,#172,.T.);
#547=EDGE_CURVE('',#446,#445,#393,.T.);
#548=EDGE_CURVE('',#447,#446,#173,.T.);
#549=EDGE_CURVE('',#448,#447,#174,.T.);
#550=EDGE_CURVE('',#449,#448,#175,.T.);
#551=EDGE_CURVE('',#450,#449,#394,.T.);
#552=EDGE_CURVE('',#451,#450,#176,.T.);
#553=EDGE_CURVE('',#452,#451,#395,.T.);
#554=EDGE_CURVE('',#453,#452,#177,.T.);
#555=EDGE_CURVE('',#454,#453,#178,.T.);
#556=EDGE_CURVE('',#455,#454,#179,.T.);
#557=EDGE_CURVE('',#456,#455,#180,.T.);
#558=EDGE_CURVE('',#457,#456,#181,.T.);
#559=EDGE_CURVE('',#458,#457,#396,.T.);
#560=EDGE_CURVE('',#440,#458,#182,.T.);
#561=EDGE_CURVE('',#431,#448,#183,.T.);
#562=EDGE_CURVE('',#430,#449,#184,.T.);
#563=EDGE_CURVE('',#447,#432,#185,.T.);
#564=EDGE_CURVE('',#433,#446,#186,.T.);
#565=EDGE_CURVE('',#445,#434,#187,.T.);
#566=EDGE_CURVE('',#444,#435,#188,.T.);
#567=EDGE_CURVE('',#443,#436,#189,.T.);
#568=EDGE_CURVE('',#437,#442,#190,.T.);
#569=EDGE_CURVE('',#459,#439,#191,.T.);
#570=EDGE_CURVE('',#460,#459,#192,.T.);
#571=EDGE_CURVE('',#441,#460,#193,.T.);
#572=EDGE_CURVE('',#440,#461,#194,.T.);
#573=EDGE_CURVE('',#459,#461,#397,.T.);
#574=EDGE_CURVE('',#461,#462,#195,.T.);
#575=EDGE_CURVE('',#462,#463,#398,.T.);
#576=EDGE_CURVE('',#463,#464,#196,.T.);
#577=EDGE_CURVE('',#465,#464,#197,.T.);
#578=EDGE_CURVE('',#466,#465,#198,.T.);
#579=EDGE_CURVE('',#467,#466,#199,.T.);
#580=EDGE_CURVE('',#468,#467,#200,.T.);
#581=EDGE_CURVE('',#469,#468,#201,.T.);
#582=EDGE_CURVE('',#470,#469,#202,.T.);
#583=EDGE_CURVE('',#471,#470,#203,.T.);
#584=EDGE_CURVE('',#472,#471,#204,.T.);
#585=EDGE_CURVE('',#460,#472,#205,.T.);
#586=EDGE_CURVE('',#466,#473,#206,.T.);
#587=EDGE_CURVE('',#474,#473,#207,.T.);
#588=EDGE_CURVE('',#474,#467,#208,.T.);
#589=EDGE_CURVE('',#475,#465,#209,.T.);
#590=EDGE_CURVE('',#473,#475,#210,.T.);
#591=EDGE_CURVE('',#462,#458,#211,.T.);
#592=EDGE_CURVE('',#457,#463,#212,.T.);
#593=EDGE_CURVE('',#464,#456,#213,.T.);
#594=EDGE_CURVE('',#471,#476,#214,.T.);
#595=EDGE_CURVE('',#477,#476,#215,.T.);
#596=EDGE_CURVE('',#472,#477,#216,.T.);
#597=EDGE_CURVE('',#478,#470,#217,.T.);
#598=EDGE_CURVE('',#476,#478,#218,.T.);
#599=EDGE_CURVE('',#477,#479,#219,.T.);
#600=EDGE_CURVE('',#479,#469,#220,.T.);
#601=EDGE_CURVE('',#468,#480,#221,.T.);
#602=EDGE_CURVE('',#475,#480,#222,.T.);
#603=EDGE_CURVE('',#481,#455,#223,.T.);
#604=EDGE_CURVE('',#482,#481,#399,.T.);
#605=EDGE_CURVE('',#482,#483,#224,.T.);
#606=EDGE_CURVE('',#484,#483,#400,.T.);
#607=EDGE_CURVE('',#484,#485,#225,.T.);
#608=EDGE_CURVE('',#486,#485,#401,.T.);
#609=EDGE_CURVE('',#486,#487,#226,.T.);
#610=EDGE_CURVE('',#488,#487,#402,.T.);
#611=EDGE_CURVE('',#489,#488,#227,.T.);
#612=EDGE_CURVE('',#490,#489,#403,.T.);
#613=EDGE_CURVE('',#490,#491,#228,.T.);
#614=EDGE_CURVE('',#492,#491,#404,.T.);
#615=EDGE_CURVE('',#493,#492,#229,.T.);
#616=EDGE_CURVE('',#494,#493,#405,.T.);
#617=EDGE_CURVE('',#494,#495,#230,.T.);
#618=EDGE_CURVE('',#496,#495,#406,.T.);
#619=EDGE_CURVE('',#496,#497,#231,.T.);
#620=EDGE_CURVE('',#498,#497,#407,.T.);
#621=EDGE_CURVE('',#498,#499,#232,.T.);
#622=EDGE_CURVE('',#500,#499,#408,.T.);
#623=EDGE_CURVE('',#438,#500,#233,.T.);
#624=EDGE_CURVE('',#501,#501,#409,.T.);
#625=EDGE_CURVE('',#502,#502,#410,.T.);
#626=EDGE_CURVE('',#503,#503,#411,.T.);
#627=EDGE_CURVE('',#504,#504,#412,.T.);
#628=EDGE_CURVE('',#451,#428,#234,.T.);
#629=EDGE_CURVE('',#452,#427,#235,.T.);
#630=EDGE_CURVE('',#505,#500,#236,.T.);
#631=EDGE_CURVE('',#505,#453,#237,.T.);
#632=EDGE_CURVE('',#506,#506,#413,.T.);
#633=EDGE_CURVE('',#506,#504,#238,.T.);
#634=EDGE_CURVE('',#507,#507,#414,.T.);
#635=EDGE_CURVE('',#507,#503,#239,.T.);
#636=EDGE_CURVE('',#429,#450,#240,.T.);
#637=EDGE_CURVE('',#497,#508,#241,.T.);
#638=EDGE_CURVE('',#508,#509,#415,.T.);
#639=EDGE_CURVE('',#509,#498,#242,.T.);
#640=EDGE_CURVE('',#510,#509,#243,.T.);
#641=EDGE_CURVE('',#499,#510,#244,.T.);
#642=EDGE_CURVE('',#510,#505,#416,.T.);
#643=EDGE_CURVE('',#481,#511,#245,.T.);
#644=EDGE_CURVE('',#511,#512,#417,.T.);
#645=EDGE_CURVE('',#512,#482,#246,.T.);
#646=EDGE_CURVE('',#513,#512,#247,.T.);
#647=EDGE_CURVE('',#483,#513,#248,.T.);
#648=EDGE_CURVE('',#508,#514,#249,.T.);
#649=EDGE_CURVE('',#515,#514,#418,.T.);
#650=EDGE_CURVE('',#515,#516,#250,.T.);
#651=EDGE_CURVE('',#517,#516,#419,.T.);
#652=EDGE_CURVE('',#518,#517,#251,.T.);
#653=EDGE_CURVE('',#519,#518,#420,.T.);
#654=EDGE_CURVE('',#519,#520,#252,.T.);
#655=EDGE_CURVE('',#521,#520,#421,.T.);
#656=EDGE_CURVE('',#522,#521,#253,.T.);
#657=EDGE_CURVE('',#523,#522,#422,.T.);
#658=EDGE_CURVE('',#523,#524,#254,.T.);
#659=EDGE_CURVE('',#525,#524,#423,.T.);
#660=EDGE_CURVE('',#525,#526,#255,.T.);
#661=EDGE_CURVE('',#513,#526,#424,.T.);
#662=EDGE_CURVE('',#511,#454,#256,.T.);
#663=EDGE_CURVE('',#527,#527,#425,.T.);
#664=EDGE_CURVE('',#528,#528,#426,.T.);
#665=EDGE_CURVE('',#526,#484,#257,.T.);
#666=EDGE_CURVE('',#485,#525,#258,.T.);
#667=EDGE_CURVE('',#514,#496,#259,.T.);
#668=EDGE_CURVE('',#480,#474,#260,.T.);
#669=EDGE_CURVE('',#518,#492,#261,.T.);
#670=EDGE_CURVE('',#491,#519,#262,.T.);
#671=EDGE_CURVE('',#493,#517,#263,.T.);
#672=EDGE_CURVE('',#495,#515,#264,.T.);
#673=EDGE_CURVE('',#516,#494,#265,.T.);
#674=EDGE_CURVE('',#524,#486,#266,.T.);
#675=EDGE_CURVE('',#487,#523,#267,.T.);
#676=EDGE_CURVE('',#489,#521,#268,.T.);
#677=EDGE_CURVE('',#520,#490,#269,.T.);
#678=EDGE_CURVE('',#522,#488,#270,.T.);
#679=EDGE_CURVE('',#528,#502,#271,.T.);
#680=EDGE_CURVE('',#527,#501,#272,.T.);
#681=EDGE_CURVE('',#478,#479,#273,.T.);
#682=ORIENTED_EDGE('',*,*,#529,.T.);
#683=ORIENTED_EDGE('',*,*,#530,.T.);
#684=ORIENTED_EDGE('',*,*,#531,.T.);
#685=ORIENTED_EDGE('',*,*,#532,.T.);
#686=ORIENTED_EDGE('',*,*,#533,.T.);
#687=ORIENTED_EDGE('',*,*,#534,.T.);
#688=ORIENTED_EDGE('',*,*,#535,.T.);
#689=ORIENTED_EDGE('',*,*,#536,.T.);
#690=ORIENTED_EDGE('',*,*,#537,.T.);
#691=ORIENTED_EDGE('',*,*,#538,.T.);
#692=ORIENTED_EDGE('',*,*,#539,.F.);
#693=ORIENTED_EDGE('',*,*,#540,.T.);
#694=ORIENTED_EDGE('',*,*,#541,.F.);
#695=ORIENTED_EDGE('',*,*,#542,.F.);
#696=ORIENTED_EDGE('',*,*,#543,.F.);
#697=ORIENTED_EDGE('',*,*,#544,.F.);
#698=ORIENTED_EDGE('',*,*,#545,.F.);
#699=ORIENTED_EDGE('',*,*,#546,.F.);
#700=ORIENTED_EDGE('',*,*,#547,.F.);
#701=ORIENTED_EDGE('',*,*,#548,.F.);
#702=ORIENTED_EDGE('',*,*,#549,.F.);
#703=ORIENTED_EDGE('',*,*,#550,.F.);
#704=ORIENTED_EDGE('',*,*,#551,.F.);
#705=ORIENTED_EDGE('',*,*,#552,.F.);
#706=ORIENTED_EDGE('',*,*,#553,.F.);
#707=ORIENTED_EDGE('',*,*,#554,.F.);
#708=ORIENTED_EDGE('',*,*,#555,.F.);
#709=ORIENTED_EDGE('',*,*,#556,.F.);
#710=ORIENTED_EDGE('',*,*,#557,.F.);
#711=ORIENTED_EDGE('',*,*,#558,.F.);
#712=ORIENTED_EDGE('',*,*,#559,.F.);
#713=ORIENTED_EDGE('',*,*,#560,.F.);
#714=ORIENTED_EDGE('',*,*,#550,.T.);
#715=ORIENTED_EDGE('',*,*,#561,.F.);
#716=ORIENTED_EDGE('',*,*,#532,.F.);
#717=ORIENTED_EDGE('',*,*,#562,.T.);
#718=ORIENTED_EDGE('',*,*,#549,.T.);
#719=ORIENTED_EDGE('',*,*,#563,.T.);
#720=ORIENTED_EDGE('',*,*,#533,.F.);
#721=ORIENTED_EDGE('',*,*,#561,.T.);
#722=ORIENTED_EDGE('',*,*,#548,.T.);
#723=ORIENTED_EDGE('',*,*,#564,.F.);
#724=ORIENTED_EDGE('',*,*,#534,.F.);
#725=ORIENTED_EDGE('',*,*,#563,.F.);
#726=ORIENTED_EDGE('',*,*,#547,.T.);
#727=ORIENTED_EDGE('',*,*,#565,.T.);
#728=ORIENTED_EDGE('',*,*,#535,.F.);
#729=ORIENTED_EDGE('',*,*,#564,.T.);
#730=ORIENTED_EDGE('',*,*,#546,.T.);
#731=ORIENTED_EDGE('',*,*,#566,.T.);
#732=ORIENTED_EDGE('',*,*,#536,.F.);
#733=ORIENTED_EDGE('',*,*,#565,.F.);
#734=ORIENTED_EDGE('',*,*,#545,.T.);
#735=ORIENTED_EDGE('',*,*,#567,.T.);
#736=ORIENTED_EDGE('',*,*,#537,.F.);
#737=ORIENTED_EDGE('',*,*,#566,.F.);
#738=ORIENTED_EDGE('',*,*,#544,.T.);
#739=ORIENTED_EDGE('',*,*,#568,.F.);
#740=ORIENTED_EDGE('',*,*,#538,.F.);
#741=ORIENTED_EDGE('',*,*,#567,.F.);
#742=ORIENTED_EDGE('',*,*,#542,.T.);
#743=ORIENTED_EDGE('',*,*,#569,.F.);
#744=ORIENTED_EDGE('',*,*,#570,.F.);
#745=ORIENTED_EDGE('',*,*,#571,.F.);
#746=ORIENTED_EDGE('',*,*,#541,.T.);
#747=ORIENTED_EDGE('',*,*,#572,.T.);
#748=ORIENTED_EDGE('',*,*,#573,.F.);
#749=ORIENTED_EDGE('',*,*,#569,.T.);
#750=ORIENTED_EDGE('',*,*,#573,.T.);
#751=ORIENTED_EDGE('',*,*,#574,.T.);
#752=ORIENTED_EDGE('',*,*,#575,.T.);
#753=ORIENTED_EDGE('',*,*,#576,.T.);
#754=ORIENTED_EDGE('',*,*,#577,.F.);
#755=ORIENTED_EDGE('',*,*,#578,.F.);
#756=ORIENTED_EDGE('',*,*,#579,.F.);
#757=ORIENTED_EDGE('',*,*,#580,.F.);
#758=ORIENTED_EDGE('',*,*,#581,.F.);
#759=ORIENTED_EDGE('',*,*,#582,.F.);
#760=ORIENTED_EDGE('',*,*,#583,.F.);
#761=ORIENTED_EDGE('',*,*,#584,.F.);
#762=ORIENTED_EDGE('',*,*,#585,.F.);
#763=ORIENTED_EDGE('',*,*,#570,.T.);
#764=ORIENTED_EDGE('',*,*,#579,.T.);
#765=ORIENTED_EDGE('',*,*,#586,.T.);
#766=ORIENTED_EDGE('',*,*,#587,.F.);
#767=ORIENTED_EDGE('',*,*,#588,.T.);
#768=ORIENTED_EDGE('',*,*,#578,.T.);
#769=ORIENTED_EDGE('',*,*,#589,.F.);
#770=ORIENTED_EDGE('',*,*,#590,.F.);
#771=ORIENTED_EDGE('',*,*,#586,.F.);
#772=ORIENTED_EDGE('',*,*,#560,.T.);
#773=ORIENTED_EDGE('',*,*,#591,.F.);
#774=ORIENTED_EDGE('',*,*,#574,.F.);
#775=ORIENTED_EDGE('',*,*,#572,.F.);
#776=ORIENTED_EDGE('',*,*,#559,.T.);
#777=ORIENTED_EDGE('',*,*,#592,.T.);
#778=ORIENTED_EDGE('',*,*,#575,.F.);
#779=ORIENTED_EDGE('',*,*,#591,.T.);
#780=ORIENTED_EDGE('',*,*,#558,.T.);
#781=ORIENTED_EDGE('',*,*,#593,.F.);
#782=ORIENTED_EDGE('',*,*,#576,.F.);
#783=ORIENTED_EDGE('',*,*,#592,.F.);
#784=ORIENTED_EDGE('',*,*,#584,.T.);
#785=ORIENTED_EDGE('',*,*,#594,.T.);
#786=ORIENTED_EDGE('',*,*,#595,.F.);
#787=ORIENTED_EDGE('',*,*,#596,.F.);
#788=ORIENTED_EDGE('',*,*,#583,.T.);
#789=ORIENTED_EDGE('',*,*,#597,.F.);
#790=ORIENTED_EDGE('',*,*,#598,.F.);
#791=ORIENTED_EDGE('',*,*,#594,.F.);
#792=ORIENTED_EDGE('',*,*,#568,.T.);
#793=ORIENTED_EDGE('',*,*,#543,.T.);
#794=ORIENTED_EDGE('',*,*,#571,.T.);
#795=ORIENTED_EDGE('',*,*,#585,.T.);
#796=ORIENTED_EDGE('',*,*,#596,.T.);
#797=ORIENTED_EDGE('',*,*,#599,.T.);
#798=ORIENTED_EDGE('',*,*,#600,.T.);
#799=ORIENTED_EDGE('',*,*,#581,.T.);
#800=ORIENTED_EDGE('',*,*,#601,.T.);
#801=ORIENTED_EDGE('',*,*,#602,.F.);
#802=ORIENTED_EDGE('',*,*,#589,.T.);
#803=ORIENTED_EDGE('',*,*,#577,.T.);
#804=ORIENTED_EDGE('',*,*,#593,.T.);
#805=ORIENTED_EDGE('',*,*,#557,.T.);
#806=ORIENTED_EDGE('',*,*,#603,.F.);
#807=ORIENTED_EDGE('',*,*,#604,.F.);
#808=ORIENTED_EDGE('',*,*,#605,.T.);
#809=ORIENTED_EDGE('',*,*,#606,.F.);
#810=ORIENTED_EDGE('',*,*,#607,.T.);
#811=ORIENTED_EDGE('',*,*,#608,.F.);
#812=ORIENTED_EDGE('',*,*,#609,.T.);
#813=ORIENTED_EDGE('',*,*,#610,.F.);
#814=ORIENTED_EDGE('',*,*,#611,.F.);
#815=ORIENTED_EDGE('',*,*,#612,.F.);
#816=ORIENTED_EDGE('',*,*,#613,.T.);
#817=ORIENTED_EDGE('',*,*,#614,.F.);
#818=ORIENTED_EDGE('',*,*,#615,.F.);
#819=ORIENTED_EDGE('',*,*,#616,.F.);
#820=ORIENTED_EDGE('',*,*,#617,.T.);
#821=ORIENTED_EDGE('',*,*,#618,.F.);
#822=ORIENTED_EDGE('',*,*,#619,.T.);
#823=ORIENTED_EDGE('',*,*,#620,.F.);
#824=ORIENTED_EDGE('',*,*,#621,.T.);
#825=ORIENTED_EDGE('',*,*,#622,.F.);
#826=ORIENTED_EDGE('',*,*,#623,.F.);
#827=ORIENTED_EDGE('',*,*,#539,.T.);
#828=ORIENTED_EDGE('',*,*,#624,.T.);
#829=ORIENTED_EDGE('',*,*,#625,.T.);
#830=ORIENTED_EDGE('',*,*,#626,.T.);
#831=ORIENTED_EDGE('',*,*,#627,.T.);
#832=ORIENTED_EDGE('',*,*,#553,.T.);
#833=ORIENTED_EDGE('',*,*,#628,.T.);
#834=ORIENTED_EDGE('',*,*,#529,.F.);
#835=ORIENTED_EDGE('',*,*,#629,.F.);
#836=ORIENTED_EDGE('',*,*,#554,.T.);
#837=ORIENTED_EDGE('',*,*,#629,.T.);
#838=ORIENTED_EDGE('',*,*,#540,.F.);
#839=ORIENTED_EDGE('',*,*,#623,.T.);
#840=ORIENTED_EDGE('',*,*,#630,.F.);
#841=ORIENTED_EDGE('',*,*,#631,.T.);
#842=ORIENTED_EDGE('',*,*,#632,.F.);
#843=ORIENTED_EDGE('',*,*,#633,.T.);
#844=ORIENTED_EDGE('',*,*,#627,.F.);
#845=ORIENTED_EDGE('',*,*,#633,.F.);
#846=ORIENTED_EDGE('',*,*,#634,.F.);
#847=ORIENTED_EDGE('',*,*,#635,.T.);
#848=ORIENTED_EDGE('',*,*,#626,.F.);
#849=ORIENTED_EDGE('',*,*,#635,.F.);
#850=ORIENTED_EDGE('',*,*,#552,.T.);
#851=ORIENTED_EDGE('',*,*,#636,.F.);
#852=ORIENTED_EDGE('',*,*,#530,.F.);
#853=ORIENTED_EDGE('',*,*,#628,.F.);
#854=ORIENTED_EDGE('',*,*,#620,.T.);
#855=ORIENTED_EDGE('',*,*,#637,.T.);
#856=ORIENTED_EDGE('',*,*,#638,.T.);
#857=ORIENTED_EDGE('',*,*,#639,.T.);
#858=ORIENTED_EDGE('',*,*,#639,.F.);
#859=ORIENTED_EDGE('',*,*,#640,.F.);
#860=ORIENTED_EDGE('',*,*,#641,.F.);
#861=ORIENTED_EDGE('',*,*,#621,.F.);
#862=ORIENTED_EDGE('',*,*,#642,.T.);
#863=ORIENTED_EDGE('',*,*,#630,.T.);
#864=ORIENTED_EDGE('',*,*,#622,.T.);
#865=ORIENTED_EDGE('',*,*,#641,.T.);
#866=ORIENTED_EDGE('',*,*,#604,.T.);
#867=ORIENTED_EDGE('',*,*,#643,.T.);
#868=ORIENTED_EDGE('',*,*,#644,.T.);
#869=ORIENTED_EDGE('',*,*,#645,.T.);
#870=ORIENTED_EDGE('',*,*,#645,.F.);
#871=ORIENTED_EDGE('',*,*,#646,.F.);
#872=ORIENTED_EDGE('',*,*,#647,.F.);
#873=ORIENTED_EDGE('',*,*,#605,.F.);
#874=ORIENTED_EDGE('',*,*,#555,.T.);
#875=ORIENTED_EDGE('',*,*,#631,.F.);
#876=ORIENTED_EDGE('',*,*,#642,.F.);
#877=ORIENTED_EDGE('',*,*,#640,.T.);
#878=ORIENTED_EDGE('',*,*,#638,.F.);
#879=ORIENTED_EDGE('',*,*,#648,.T.);
#880=ORIENTED_EDGE('',*,*,#649,.F.);
#881=ORIENTED_EDGE('',*,*,#650,.T.);
#882=ORIENTED_EDGE('',*,*,#651,.F.);
#883=ORIENTED_EDGE('',*,*,#652,.F.);
#884=ORIENTED_EDGE('',*,*,#653,.F.);
#885=ORIENTED_EDGE('',*,*,#654,.T.);
#886=ORIENTED_EDGE('',*,*,#655,.F.);
#887=ORIENTED_EDGE('',*,*,#656,.F.);
#888=ORIENTED_EDGE('',*,*,#657,.F.);
#889=ORIENTED_EDGE('',*,*,#658,.T.);
#890=ORIENTED_EDGE('',*,*,#659,.F.);
#891=ORIENTED_EDGE('',*,*,#660,.T.);
#892=ORIENTED_EDGE('',*,*,#661,.F.);
#893=ORIENTED_EDGE('',*,*,#646,.T.);
#894=ORIENTED_EDGE('',*,*,#644,.F.);
#895=ORIENTED_EDGE('',*,*,#662,.T.);
#896=ORIENTED_EDGE('',*,*,#632,.T.);
#897=ORIENTED_EDGE('',*,*,#634,.T.);
#898=ORIENTED_EDGE('',*,*,#663,.T.);
#899=ORIENTED_EDGE('',*,*,#664,.T.);
#900=ORIENTED_EDGE('',*,*,#661,.T.);
#901=ORIENTED_EDGE('',*,*,#665,.T.);
#902=ORIENTED_EDGE('',*,*,#606,.T.);
#903=ORIENTED_EDGE('',*,*,#647,.T.);
#904=ORIENTED_EDGE('',*,*,#665,.F.);
#905=ORIENTED_EDGE('',*,*,#660,.F.);
#906=ORIENTED_EDGE('',*,*,#666,.F.);
#907=ORIENTED_EDGE('',*,*,#607,.F.);
#908=ORIENTED_EDGE('',*,*,#637,.F.);
#909=ORIENTED_EDGE('',*,*,#619,.F.);
#910=ORIENTED_EDGE('',*,*,#667,.F.);
#911=ORIENTED_EDGE('',*,*,#648,.F.);
#912=ORIENTED_EDGE('',*,*,#556,.T.);
#913=ORIENTED_EDGE('',*,*,#662,.F.);
#914=ORIENTED_EDGE('',*,*,#643,.F.);
#915=ORIENTED_EDGE('',*,*,#603,.T.);
#916=ORIENTED_EDGE('',*,*,#590,.T.);
#917=ORIENTED_EDGE('',*,*,#602,.T.);
#918=ORIENTED_EDGE('',*,*,#668,.T.);
#919=ORIENTED_EDGE('',*,*,#587,.T.);
#920=ORIENTED_EDGE('',*,*,#653,.T.);
#921=ORIENTED_EDGE('',*,*,#669,.T.);
#922=ORIENTED_EDGE('',*,*,#614,.T.);
#923=ORIENTED_EDGE('',*,*,#670,.T.);
#924=ORIENTED_EDGE('',*,*,#669,.F.);
#925=ORIENTED_EDGE('',*,*,#652,.T.);
#926=ORIENTED_EDGE('',*,*,#671,.F.);
#927=ORIENTED_EDGE('',*,*,#615,.T.);
#928=ORIENTED_EDGE('',*,*,#618,.T.);
#929=ORIENTED_EDGE('',*,*,#672,.T.);
#930=ORIENTED_EDGE('',*,*,#649,.T.);
#931=ORIENTED_EDGE('',*,*,#667,.T.);
#932=ORIENTED_EDGE('',*,*,#672,.F.);
#933=ORIENTED_EDGE('',*,*,#617,.F.);
#934=ORIENTED_EDGE('',*,*,#673,.F.);
#935=ORIENTED_EDGE('',*,*,#650,.F.);
#936=ORIENTED_EDGE('',*,*,#659,.T.);
#937=ORIENTED_EDGE('',*,*,#674,.T.);
#938=ORIENTED_EDGE('',*,*,#608,.T.);
#939=ORIENTED_EDGE('',*,*,#666,.T.);
#940=ORIENTED_EDGE('',*,*,#674,.F.);
#941=ORIENTED_EDGE('',*,*,#658,.F.);
#942=ORIENTED_EDGE('',*,*,#675,.F.);
#943=ORIENTED_EDGE('',*,*,#609,.F.);
#944=ORIENTED_EDGE('',*,*,#612,.T.);
#945=ORIENTED_EDGE('',*,*,#676,.T.);
#946=ORIENTED_EDGE('',*,*,#655,.T.);
#947=ORIENTED_EDGE('',*,*,#677,.T.);
#948=ORIENTED_EDGE('',*,*,#676,.F.);
#949=ORIENTED_EDGE('',*,*,#611,.T.);
#950=ORIENTED_EDGE('',*,*,#678,.F.);
#951=ORIENTED_EDGE('',*,*,#656,.T.);
#952=ORIENTED_EDGE('',*,*,#657,.T.);
#953=ORIENTED_EDGE('',*,*,#678,.T.);
#954=ORIENTED_EDGE('',*,*,#610,.T.);
#955=ORIENTED_EDGE('',*,*,#675,.T.);
#956=ORIENTED_EDGE('',*,*,#616,.T.);
#957=ORIENTED_EDGE('',*,*,#671,.T.);
#958=ORIENTED_EDGE('',*,*,#651,.T.);
#959=ORIENTED_EDGE('',*,*,#673,.T.);
#960=ORIENTED_EDGE('',*,*,#670,.F.);
#961=ORIENTED_EDGE('',*,*,#613,.F.);
#962=ORIENTED_EDGE('',*,*,#677,.F.);
#963=ORIENTED_EDGE('',*,*,#654,.F.);
#964=ORIENTED_EDGE('',*,*,#664,.F.);
#965=ORIENTED_EDGE('',*,*,#679,.T.);
#966=ORIENTED_EDGE('',*,*,#625,.F.);
#967=ORIENTED_EDGE('',*,*,#679,.F.);
#968=ORIENTED_EDGE('',*,*,#663,.F.);
#969=ORIENTED_EDGE('',*,*,#680,.T.);
#970=ORIENTED_EDGE('',*,*,#624,.F.);
#971=ORIENTED_EDGE('',*,*,#680,.F.);
#972=ORIENTED_EDGE('',*,*,#681,.T.);
#973=ORIENTED_EDGE('',*,*,#599,.F.);
#974=ORIENTED_EDGE('',*,*,#595,.T.);
#975=ORIENTED_EDGE('',*,*,#598,.T.);
#976=ORIENTED_EDGE('',*,*,#580,.T.);
#977=ORIENTED_EDGE('',*,*,#588,.F.);
#978=ORIENTED_EDGE('',*,*,#668,.F.);
#979=ORIENTED_EDGE('',*,*,#601,.F.);
#980=ORIENTED_EDGE('',*,*,#582,.T.);
#981=ORIENTED_EDGE('',*,*,#600,.F.);
#982=ORIENTED_EDGE('',*,*,#681,.F.);
#983=ORIENTED_EDGE('',*,*,#597,.T.);
#984=ORIENTED_EDGE('',*,*,#551,.T.);
#985=ORIENTED_EDGE('',*,*,#562,.F.);
#986=ORIENTED_EDGE('',*,*,#531,.F.);
#987=ORIENTED_EDGE('',*,*,#636,.T.);
#988=PLANE('',#1089);
#989=PLANE('',#1094);
#990=PLANE('',#1101);
#991=PLANE('',#1102);
#992=PLANE('',#1103);
#993=PLANE('',#1105);
#994=PLANE('',#1107);
#995=PLANE('',#1108);
#996=PLANE('',#1111);
#997=PLANE('',#1113);
#998=PLANE('',#1114);
#999=PLANE('',#1115);
#1000=PLANE('',#1117);
#1001=PLANE('',#1118);
#1002=PLANE('',#1119);
#1003=PLANE('',#1120);
#1004=PLANE('',#1136);
#1005=PLANE('',#1141);
#1006=PLANE('',#1144);
#1007=PLANE('',#1149);
#1008=PLANE('',#1150);
#1009=PLANE('',#1161);
#1010=PLANE('',#1162);
#1011=PLANE('',#1163);
#1012=PLANE('',#1164);
#1013=PLANE('',#1166);
#1014=PLANE('',#1168);
#1015=PLANE('',#1170);
#1016=PLANE('',#1172);
#1017=PLANE('',#1175);
#1018=PLANE('',#1178);
#1019=PLANE('',#1179);
#1020=PLANE('',#1180);
#1021=ADVANCED_FACE('',(#47),#988,.F.);
#1022=ADVANCED_FACE('',(#48),#989,.T.);
#1023=ADVANCED_FACE('',(#49),#990,.T.);
#1024=ADVANCED_FACE('',(#50),#991,.F.);
#1025=ADVANCED_FACE('',(#51),#992,.F.);
#1026=ADVANCED_FACE('',(#52),#27,.F.);
#1027=ADVANCED_FACE('',(#53),#993,.F.);
#1028=ADVANCED_FACE('',(#54),#28,.F.);
#1029=ADVANCED_FACE('',(#55),#994,.F.);
#1030=ADVANCED_FACE('',(#56),#995,.F.);
#1031=ADVANCED_FACE('',(#57),#29,.T.);
#1032=ADVANCED_FACE('',(#58),#996,.F.);
#1033=ADVANCED_FACE('',(#59),#997,.T.);
#1034=ADVANCED_FACE('',(#60),#998,.F.);
#1035=ADVANCED_FACE('',(#61),#999,.T.);
#1036=ADVANCED_FACE('',(#62),#30,.T.);
#1037=ADVANCED_FACE('',(#63),#1000,.F.);
#1038=ADVANCED_FACE('',(#64),#1001,.F.);
#1039=ADVANCED_FACE('',(#65),#1002,.T.);
#1040=ADVANCED_FACE('',(#66,#19,#20,#21,#22),#1003,.T.);
#1041=ADVANCED_FACE('',(#67),#31,.T.);
#1042=ADVANCED_FACE('',(#68),#1004,.T.);
#1043=ADVANCED_FACE('',(#69),#32,.F.);
#1044=ADVANCED_FACE('',(#70),#33,.F.);
#1045=ADVANCED_FACE('',(#71),#1005,.T.);
#1046=ADVANCED_FACE('',(#72),#34,.T.);
#1047=ADVANCED_FACE('',(#73),#1006,.F.);
#1048=ADVANCED_FACE('',(#74),#35,.T.);
#1049=ADVANCED_FACE('',(#75),#36,.T.);
#1050=ADVANCED_FACE('',(#76),#1007,.F.);
#1051=ADVANCED_FACE('',(#77,#23,#24,#25,#26),#1008,.T.);
#1052=ADVANCED_FACE('',(#78),#37,.T.);
#1053=ADVANCED_FACE('',(#79),#1009,.T.);
#1054=ADVANCED_FACE('',(#80),#1010,.T.);
#1055=ADVANCED_FACE('',(#81),#1011,.T.);
#1056=ADVANCED_FACE('',(#82),#1012,.T.);
#1057=ADVANCED_FACE('',(#83),#38,.F.);
#1058=ADVANCED_FACE('',(#84),#1013,.T.);
#1059=ADVANCED_FACE('',(#85),#39,.F.);
#1060=ADVANCED_FACE('',(#86),#1014,.F.);
#1061=ADVANCED_FACE('',(#87),#40,.F.);
#1062=ADVANCED_FACE('',(#88),#1015,.F.);
#1063=ADVANCED_FACE('',(#89),#41,.F.);
#1064=ADVANCED_FACE('',(#90),#1016,.T.);
#1065=ADVANCED_FACE('',(#91),#42,.T.);
#1066=ADVANCED_FACE('',(#92),#43,.T.);
#1067=ADVANCED_FACE('',(#93),#1017,.F.);
#1068=ADVANCED_FACE('',(#94),#44,.F.);
#1069=ADVANCED_FACE('',(#95),#45,.F.);
#1070=ADVANCED_FACE('',(#96),#1018,.T.);
#1071=ADVANCED_FACE('',(#97),#1019,.F.);
#1072=ADVANCED_FACE('',(#98),#1020,.F.);
#1073=ADVANCED_FACE('',(#99),#46,.T.);
#1074=CLOSED_SHELL('',(#1021,#1022,#1023,#1024,#1025,#1026,#1027,#1028,
#1029,#1030,#1031,#1032,#1033,#1034,#1035,#1036,#1037,#1038,#1039,#1040,
#1041,#1042,#1043,#1044,#1045,#1046,#1047,#1048,#1049,#1050,#1051,#1052,
#1053,#1054,#1055,#1056,#1057,#1058,#1059,#1060,#1061,#1062,#1063,#1064,
#1065,#1066,#1067,#1068,#1069,#1070,#1071,#1072,#1073));
#1075=DERIVED_UNIT_ELEMENT(#1077,1.);
#1076=DERIVED_UNIT_ELEMENT(#1806,-3.);
#1077=(
MASS_UNIT()
NAMED_UNIT(*)
SI_UNIT(.KILO.,.GRAM.)
);
#1078=DERIVED_UNIT((#1075,#1076));
#1079=MEASURE_REPRESENTATION_ITEM('density measure',
POSITIVE_RATIO_MEASURE(7850.),#1078);
#1080=PROPERTY_DEFINITION_REPRESENTATION(#1085,#1082);
#1081=PROPERTY_DEFINITION_REPRESENTATION(#1086,#1083);
#1082=REPRESENTATION('material name',(#1084),#1803);
#1083=REPRESENTATION('density',(#1079),#1803);
#1084=DESCRIPTIVE_REPRESENTATION_ITEM('\X2\92FC\X0\','\X2\92FC\X0\');
#1085=PROPERTY_DEFINITION('material property','material name',#1818);
#1086=PROPERTY_DEFINITION('material property','density of part',#1818);
#1087=AXIS2_PLACEMENT_3D('',#1488,#1183,#1184);
#1088=AXIS2_PLACEMENT_3D('',#1489,#1185,#1186);
#1089=AXIS2_PLACEMENT_3D('',#1490,#1187,#1188);
#1090=AXIS2_PLACEMENT_3D('',#1493,#1189,#1190);
#1091=AXIS2_PLACEMENT_3D('',#1497,#1192,#1193);
#1092=AXIS2_PLACEMENT_3D('',#1505,#1197,#1198);
#1093=AXIS2_PLACEMENT_3D('',#1509,#1200,#1201);
#1094=AXIS2_PLACEMENT_3D('',#1515,#1205,#1206);
#1095=AXIS2_PLACEMENT_3D('',#1518,#1207,#1208);
#1096=AXIS2_PLACEMENT_3D('',#1526,#1212,#1213);
#1097=AXIS2_PLACEMENT_3D('',#1530,#1215,#1216);
#1098=AXIS2_PLACEMENT_3D('',#1538,#1220,#1221);
#1099=AXIS2_PLACEMENT_3D('',#1542,#1223,#1224);
#1100=AXIS2_PLACEMENT_3D('',#1554,#1230,#1231);
#1101=AXIS2_PLACEMENT_3D('',#1556,#1233,#1234);
#1102=AXIS2_PLACEMENT_3D('',#1559,#1237,#1238);
#1103=AXIS2_PLACEMENT_3D('',#1561,#1240,#1241);
#1104=AXIS2_PLACEMENT_3D('',#1563,#1243,#1244);
#1105=AXIS2_PLACEMENT_3D('',#1565,#1246,#1247);
#1106=AXIS2_PLACEMENT_3D('',#1567,#1249,#1250);
#1107=AXIS2_PLACEMENT_3D('',#1569,#1252,#1253);
#1108=AXIS2_PLACEMENT_3D('',#1571,#1255,#1256);
#1109=AXIS2_PLACEMENT_3D('',#1577,#1260,#1261);
#1110=AXIS2_PLACEMENT_3D('',#1580,#1263,#1264);
#1111=AXIS2_PLACEMENT_3D('',#1581,#1265,#1266);
#1112=AXIS2_PLACEMENT_3D('',#1585,#1268,#1269);
#1113=AXIS2_PLACEMENT_3D('',#1605,#1280,#1281);
#1114=AXIS2_PLACEMENT_3D('',#1611,#1285,#1286);
#1115=AXIS2_PLACEMENT_3D('',#1615,#1289,#1290);
#1116=AXIS2_PLACEMENT_3D('',#1617,#1292,#1293);
#1117=AXIS2_PLACEMENT_3D('',#1619,#1295,#1296);
#1118=AXIS2_PLACEMENT_3D('',#1621,#1298,#1299);
#1119=AXIS2_PLACEMENT_3D('',#1627,#1303,#1304);
#1120=AXIS2_PLACEMENT_3D('',#1631,#1307,#1308);
#1121=AXIS2_PLACEMENT_3D('',#1641,#1314,#1315);
#1122=AXIS2_PLACEMENT_3D('',#1645,#1317,#1318);
#1123=AXIS2_PLACEMENT_3D('',#1649,#1320,#1321);
#1124=AXIS2_PLACEMENT_3D('',#1653,#1323,#1324);
#1125=AXIS2_PLACEMENT_3D('',#1657,#1326,#1327);
#1126=AXIS2_PLACEMENT_3D('',#1661,#1329,#1330);
#1127=AXIS2_PLACEMENT_3D('',#1665,#1332,#1333);
#1128=AXIS2_PLACEMENT_3D('',#1669,#1335,#1336);
#1129=AXIS2_PLACEMENT_3D('',#1673,#1338,#1339);
#1130=AXIS2_PLACEMENT_3D('',#1677,#1341,#1342);
#1131=AXIS2_PLACEMENT_3D('',#1680,#1344,#1345);
#1132=AXIS2_PLACEMENT_3D('',#1682,#1346,#1347);
#1133=AXIS2_PLACEMENT_3D('',#1684,#1348,#1349);
#1134=AXIS2_PLACEMENT_3D('',#1686,#1350,#1351);
#1135=AXIS2_PLACEMENT_3D('',#1687,#1352,#1353);
#1136=AXIS2_PLACEMENT_3D('',#1690,#1356,#1357);
#1137=AXIS2_PLACEMENT_3D('',#1694,#1360,#1361);
#1138=AXIS2_PLACEMENT_3D('',#1696,#1362,#1363);
#1139=AXIS2_PLACEMENT_3D('',#1698,#1365,#1366);
#1140=AXIS2_PLACEMENT_3D('',#1700,#1367,#1368);
#1141=AXIS2_PLACEMENT_3D('',#1702,#1370,#1371);
#1142=AXIS2_PLACEMENT_3D('',#1704,#1373,#1374);
#1143=AXIS2_PLACEMENT_3D('',#1708,#1376,#1377);
#1144=AXIS2_PLACEMENT_3D('',#1710,#1379,#1380);
#1145=AXIS2_PLACEMENT_3D('',#1714,#1383,#1384);
#1146=AXIS2_PLACEMENT_3D('',#1715,#1385,#1386);
#1147=AXIS2_PLACEMENT_3D('',#1716,#1387,#1388);
#1148=AXIS2_PLACEMENT_3D('',#1720,#1390,#1391);
#1149=AXIS2_PLACEMENT_3D('',#1722,#1393,#1394);
#1150=AXIS2_PLACEMENT_3D('',#1726,#1397,#1398);
#1151=AXIS2_PLACEMENT_3D('',#1730,#1400,#1401);
#1152=AXIS2_PLACEMENT_3D('',#1734,#1403,#1404);
#1153=AXIS2_PLACEMENT_3D('',#1738,#1406,#1407);
#1154=AXIS2_PLACEMENT_3D('',#1742,#1409,#1410);
#1155=AXIS2_PLACEMENT_3D('',#1746,#1412,#1413);
#1156=AXIS2_PLACEMENT_3D('',#1750,#1415,#1416);
#1157=AXIS2_PLACEMENT_3D('',#1753,#1418,#1419);
#1158=AXIS2_PLACEMENT_3D('',#1756,#1421,#1422);
#1159=AXIS2_PLACEMENT_3D('',#1758,#1423,#1424);
#1160=AXIS2_PLACEMENT_3D('',#1759,#1425,#1426);
#1161=AXIS2_PLACEMENT_3D('',#1761,#1428,#1429);
#1162=AXIS2_PLACEMENT_3D('',#1763,#1431,#1432);
#1163=AXIS2_PLACEMENT_3D('',#1765,#1434,#1435);
#1164=AXIS2_PLACEMENT_3D('',#1766,#1436,#1437);
#1165=AXIS2_PLACEMENT_3D('',#1768,#1439,#1440);
#1166=AXIS2_PLACEMENT_3D('',#1771,#1443,#1444);
#1167=AXIS2_PLACEMENT_3D('',#1773,#1446,#1447);
#1168=AXIS2_PLACEMENT_3D('',#1775,#1449,#1450);
#1169=AXIS2_PLACEMENT_3D('',#1777,#1452,#1453);
#1170=AXIS2_PLACEMENT_3D('',#1779,#1455,#1456);
#1171=AXIS2_PLACEMENT_3D('',#1781,#1458,#1459);
#1172=AXIS2_PLACEMENT_3D('',#1784,#1462,#1463);
#1173=AXIS2_PLACEMENT_3D('',#1786,#1465,#1466);
#1174=AXIS2_PLACEMENT_3D('',#1787,#1467,#1468);
#1175=AXIS2_PLACEMENT_3D('',#1788,#1469,#1470);
#1176=AXIS2_PLACEMENT_3D('',#1789,#1471,#1472);
#1177=AXIS2_PLACEMENT_3D('',#1791,#1474,#1475);
#1178=AXIS2_PLACEMENT_3D('',#1793,#1477,#1478);
#1179=AXIS2_PLACEMENT_3D('',#1795,#1480,#1481);
#1180=AXIS2_PLACEMENT_3D('',#1796,#1482,#1483);
#1181=AXIS2_PLACEMENT_3D('',#1797,#1484,#1485);
#1182=AXIS2_PLACEMENT_3D('',#1798,#1486,#1487);
#1183=DIRECTION('axis',(0.,0.,1.));
#1184=DIRECTION('refdir',(1.,0.,0.));
#1185=DIRECTION('axis',(0.,0.,1.));
#1186=DIRECTION('refdir',(1.,0.,0.));
#1187=DIRECTION('center_axis',(-1.0545542040107E-16,-5.63999679893792E-19,
-1.));
#1188=DIRECTION('ref_axis',(8.32667268468867E-17,-1.,5.63999679893786E-19));
#1189=DIRECTION('center_axis',(1.0545542040107E-16,5.63999679893792E-19,
1.));
#1190=DIRECTION('ref_axis',(-0.707106781186548,0.707106781186548,1.07852076885685E-31));
#1191=DIRECTION('',(2.12791542028346E-32,-1.,5.63999679893795E-19));
#1192=DIRECTION('center_axis',(1.0545542040107E-16,5.63999679893795E-19,
1.));
#1193=DIRECTION('ref_axis',(-0.707106781186043,-0.707106781187052,7.70371977754894E-32));
#1194=DIRECTION('',(1.,1.42560963034555E-12,-1.05455420401071E-16));
#1195=DIRECTION('',(-2.12791542028346E-32,1.,-5.63999679893795E-19));
#1196=DIRECTION('',(-1.,-2.15835682659815E-12,1.05455420401071E-16));
#1197=DIRECTION('center_axis',(-1.0545542040107E-16,-5.63999679893795E-19,
-1.));
#1198=DIRECTION('ref_axis',(-0.707106781185783,-0.707106781187312,6.16297582203915E-32));
#1199=DIRECTION('',(-2.12791542028346E-32,1.,-5.63999679893795E-19));
#1200=DIRECTION('center_axis',(-1.0545542040107E-16,-5.63999679893792E-19,
-1.));
#1201=DIRECTION('ref_axis',(-0.707106781186549,0.707106781186546,9.24446373305873E-32));
#1202=DIRECTION('',(1.,8.32667268468867E-17,-1.0545542040107E-16));
#1203=DIRECTION('',(4.84621161542709E-16,-1.,5.63999679893741E-19));
#1204=DIRECTION('',(-1.,-8.32667268468867E-17,1.0545542040107E-16));
#1205=DIRECTION('center_axis',(-1.23259516440783E-31,2.1570415377137E-32,
-1.));
#1206=DIRECTION('ref_axis',(-1.,1.1940765655201E-32,1.23259516440783E-31));
#1207=DIRECTION('center_axis',(1.23259516440783E-31,-2.1570415377137E-32,
1.));
#1208=DIRECTION('ref_axis',(-0.707106781186548,0.707106781186548,0.));
#1209=DIRECTION('',(-1.,-4.16333634234434E-17,1.23259516440783E-31));
#1210=DIRECTION('',(4.84621161542709E-16,-1.,-2.15704153771371E-32));
#1211=DIRECTION('',(1.,8.32667268468867E-17,-1.23259516440783E-31));
#1212=DIRECTION('center_axis',(-1.23259516440783E-31,2.1570415377137E-32,
-1.));
#1213=DIRECTION('ref_axis',(-0.707106781186549,0.707106781186546,0.));
#1214=DIRECTION('',(0.,1.,2.1570415377137E-32));
#1215=DIRECTION('center_axis',(-1.23259516440783E-31,2.1570415377137E-32,
-1.));
#1216=DIRECTION('ref_axis',(-0.707106781185783,-0.707106781187312,0.));
#1217=DIRECTION('',(-1.,-2.15835682659815E-12,1.23259516440737E-31));
#1218=DIRECTION('',(0.,1.,2.1570415377137E-32));
#1219=DIRECTION('',(1.,1.42560963034555E-12,-1.23259516440752E-31));
#1220=DIRECTION('center_axis',(1.23259516440783E-31,-2.1570415377137E-32,
1.));
#1221=DIRECTION('ref_axis',(-0.707106781186043,-0.707106781187052,0.));
#1222=DIRECTION('',(0.,-1.,-2.1570415377137E-32));
#1223=DIRECTION('center_axis',(1.23259516440783E-31,-2.1570415377137E-32,
1.));
#1224=DIRECTION('ref_axis',(-0.707106781186548,0.707106781186548,0.));
#1225=DIRECTION('',(-1.,-8.32667268468867E-17,1.23259516440783E-31));
#1226=DIRECTION('',(-8.32667268468867E-17,1.,2.1570415377137E-32));
#1227=DIRECTION('',(1.,1.42560963034555E-12,-1.23259516440752E-31));
#1228=DIRECTION('',(4.84621161542709E-16,-1.,-2.15704153771371E-32));
#1229=DIRECTION('',(1.,4.16333634234434E-17,-1.23259516440783E-31));
#1230=DIRECTION('center_axis',(1.23259516440783E-31,-2.1570415377137E-32,
1.));
#1231=DIRECTION('ref_axis',(-0.707106781186548,-0.707106781186548,0.));
#1232=DIRECTION('',(8.32667268468867E-17,-1.,-2.1570415377137E-32));
#1233=DIRECTION('center_axis',(1.42560963034555E-12,-1.,0.));
#1234=DIRECTION('ref_axis',(0.,0.,-1.));
#1235=DIRECTION('',(0.,0.,-1.));
#1236=DIRECTION('',(0.,0.,-1.));
#1237=DIRECTION('center_axis',(-1.,0.,0.));
#1238=DIRECTION('ref_axis',(0.,0.,1.));
#1239=DIRECTION('',(0.,0.,1.));
#1240=DIRECTION('center_axis',(2.15835682659815E-12,-1.,0.));
#1241=DIRECTION('ref_axis',(0.,0.,-1.));
#1242=DIRECTION('',(0.,0.,-1.));
#1243=DIRECTION('center_axis',(0.,0.,-1.));
#1244=DIRECTION('ref_axis',(-0.707106781185783,-0.707106781187312,0.));
#1245=DIRECTION('',(1.66533453693774E-16,2.08166817117209E-17,1.));
#1246=DIRECTION('center_axis',(-1.,0.,0.));
#1247=DIRECTION('ref_axis',(0.,0.,1.));
#1248=DIRECTION('',(1.66533453693774E-16,2.08166817117209E-17,1.));
#1249=DIRECTION('center_axis',(0.,0.,-1.));
#1250=DIRECTION('ref_axis',(-0.707106781186549,0.707106781186546,0.));
#1251=DIRECTION('',(0.,0.,1.));
#1252=DIRECTION('center_axis',(-8.32667268468867E-17,1.,0.));
#1253=DIRECTION('ref_axis',(0.,0.,1.));
#1254=DIRECTION('',(0.,0.,-1.));
#1255=DIRECTION('center_axis',(4.16333634234434E-17,-1.,2.12232119768361E-17));
#1256=DIRECTION('ref_axis',(9.27750903985535E-15,-2.12232119768357E-17,
-1.));
#1257=DIRECTION('',(1.76718739448878E-33,-2.12232119768361E-17,-1.));
#1258=DIRECTION('',(-1.,-4.16333634234436E-17,-9.27750903985535E-15));
#1259=DIRECTION('',(-1.0088204470599E-32,2.08166817117209E-17,1.));
#1260=DIRECTION('center_axis',(1.76718739448878E-33,-2.12232119768361E-17,
-1.));
#1261=DIRECTION('ref_axis',(-0.707106781186548,0.707106781186548,0.));
#1262=DIRECTION('',(-1.76718739448878E-33,2.12232119768361E-17,1.));
#1263=DIRECTION('center_axis',(1.23259516440783E-31,-2.1570415377137E-32,
1.));
#1264=DIRECTION('ref_axis',(-0.707106781186548,0.707106781186548,9.24446373305873E-32));
#1265=DIRECTION('center_axis',(-1.23259516440783E-31,2.1570415377137E-32,
-1.));
#1266=DIRECTION('ref_axis',(-1.,-8.32667268468867E-17,1.23259516440783E-31));
#1267=DIRECTION('',(4.16333634234434E-17,-1.,2.12232119768361E-17));
#1268=DIRECTION('center_axis',(1.23259516440783E-31,-2.1570415377137E-32,
1.));
#1269=DIRECTION('ref_axis',(-0.707106781186548,-0.707106781186548,6.16297582203916E-32));
#1270=DIRECTION('',(1.,4.16333634234434E-17,7.70989088908615E-16));
#1271=DIRECTION('',(4.84621161542709E-16,-1.,-2.15704153771371E-32));
#1272=DIRECTION('',(1.,-9.50252026047618E-13,-1.23259516440804E-31));
#1273=DIRECTION('',(-9.50252026047618E-13,-1.,-2.15704153770199E-32));
#1274=DIRECTION('',(-1.,9.50252026047618E-13,1.23259516440804E-31));
#1275=DIRECTION('',(4.84621161542709E-16,-1.,-2.15704153771371E-32));
#1276=DIRECTION('',(1.,4.84621161542709E-16,-1.23259516440783E-31));
#1277=DIRECTION('',(8.32667268468867E-17,-1.,-2.1570415377137E-32));
#1278=DIRECTION('',(-1.,-4.84621161542709E-16,1.23259516440783E-31));
#1279=DIRECTION('',(4.84621161542709E-16,-1.,-2.15704153771371E-32));
#1280=DIRECTION('center_axis',(-1.,9.50252026047618E-13,0.));
#1281=DIRECTION('ref_axis',(0.,0.,1.));
#1282=DIRECTION('',(0.,0.,1.));
#1283=DIRECTION('',(-9.50252026047618E-13,-1.,0.));
#1284=DIRECTION('',(0.,0.,-1.));
#1285=DIRECTION('center_axis',(9.50252026047618E-13,1.,0.));
#1286=DIRECTION('ref_axis',(-1.,9.50252026047618E-13,0.));
#1287=DIRECTION('',(0.,0.,-1.));
#1288=DIRECTION('',(1.,-9.50252026047618E-13,0.));
#1289=DIRECTION('center_axis',(-1.,-8.32667268468867E-17,0.));
#1290=DIRECTION('ref_axis',(0.,0.,1.));
#1291=DIRECTION('',(1.76718739448878E-33,-2.12232119768361E-17,-1.));
#1292=DIRECTION('center_axis',(1.76718739448878E-33,-2.12232119768361E-17,
-1.));
#1293=DIRECTION('ref_axis',(-0.707106781186548,-0.707106781186548,0.));
#1294=DIRECTION('',(-1.76718739448878E-33,2.12232119768361E-17,1.));
#1295=DIRECTION('center_axis',(-4.16333634234434E-17,1.,-2.12232119768361E-17));
#1296=DIRECTION('ref_axis',(7.70989088908615E-16,-2.1223211976836E-17,-1.));
#1297=DIRECTION('',(1.0088204470599E-32,-2.08166817117209E-17,-1.));
#1298=DIRECTION('center_axis',(4.84621161542709E-16,-1.,0.));
#1299=DIRECTION('ref_axis',(1.,4.84621161542709E-16,0.));
#1300=DIRECTION('',(0.,0.,1.));
#1301=DIRECTION('',(-1.,-8.32667268468867E-17,0.));
#1302=DIRECTION('',(0.,0.,1.));
#1303=DIRECTION('center_axis',(-1.,-8.32667268468867E-17,0.));
#1304=DIRECTION('ref_axis',(0.,0.,1.));
#1305=DIRECTION('',(0.,0.,-1.));
#1306=DIRECTION('',(4.84621161542709E-16,-1.,0.));
#1307=DIRECTION('center_axis',(-1.,-4.84621161542709E-16,0.));
#1308=DIRECTION('ref_axis',(4.84621161542709E-16,-1.,0.));
#1309=DIRECTION('',(4.84621161542709E-16,-1.,0.));
#1310=DIRECTION('',(0.,0.,-1.));
#1311=DIRECTION('',(0.,0.,1.));
#1312=DIRECTION('',(-4.84621161542709E-16,1.,4.23250006406817E-32));
#1313=DIRECTION('',(0.,0.,-1.));
#1314=DIRECTION('center_axis',(1.,4.84621161542709E-16,0.));
#1315=DIRECTION('ref_axis',(1.00904608678077E-12,-0.70710678118655,0.707106781186545));
#1316=DIRECTION('',(-4.84621161542709E-16,1.,0.));
#1317=DIRECTION('center_axis',(1.,4.84621161542709E-16,0.));
#1318=DIRECTION('ref_axis',(0.,0.70710678118655,0.707106781186545));
#1319=DIRECTION('',(2.73326179979853E-34,-5.63999679893807E-19,-1.));
#1320=DIRECTION('center_axis',(-1.,-4.84621161542709E-16,0.));
#1321=DIRECTION('ref_axis',(0.,-0.707106781186548,-0.707106781186548));
#1322=DIRECTION('',(-4.84621161542709E-16,1.,-5.63999679893765E-19));
#1323=DIRECTION('center_axis',(1.,4.84621161542709E-16,0.));
#1324=DIRECTION('ref_axis',(0.,0.707106781186548,0.707106781186548));
#1325=DIRECTION('',(0.,0.,1.));
#1326=DIRECTION('center_axis',(-1.,-4.84621161542709E-16,0.));
#1327=DIRECTION('ref_axis',(0.,-0.707106781186547,-0.707106781186548));
#1328=DIRECTION('',(-4.84621161542709E-16,1.,0.));
#1329=DIRECTION('center_axis',(-1.,-4.84621161542709E-16,0.));
#1330=DIRECTION('ref_axis',(0.,0.707106781186547,-0.707106781186548));
#1331=DIRECTION('',(0.,0.,-1.));
#1332=DIRECTION('center_axis',(1.,4.84621161542709E-16,0.));
#1333=DIRECTION('ref_axis',(0.,-0.707106781186547,0.707106781186548));
#1334=DIRECTION('',(-4.84621161542709E-16,1.,-5.63999679893765E-19));
#1335=DIRECTION('center_axis',(-1.,-4.84621161542709E-16,0.));
#1336=DIRECTION('ref_axis',(0.,0.707106781186548,-0.707106781186548));
#1337=DIRECTION('',(-2.73326179979853E-34,5.63999679893807E-19,1.));
#1338=DIRECTION('center_axis',(1.,4.84621161542709E-16,0.));
#1339=DIRECTION('ref_axis',(0.,-0.707106781186548,0.707106781186547));
#1340=DIRECTION('',(-4.84621161542709E-16,1.,0.));
#1341=DIRECTION('center_axis',(1.,4.84621161542709E-16,0.));
#1342=DIRECTION('ref_axis',(0.,0.707106781186548,0.707106781186547));
#1343=DIRECTION('',(1.0545542040107E-16,8.78092768505949E-33,1.));
#1344=DIRECTION('center_axis',(1.,4.84621161542709E-16,0.));
#1345=DIRECTION('ref_axis',(2.22044604925031E-16,5.54667823983524E-32,1.));
#1346=DIRECTION('center_axis',(1.,4.84621161542709E-16,0.));
#1347=DIRECTION('ref_axis',(2.22044604925031E-16,5.54667823983524E-32,1.));
#1348=DIRECTION('center_axis',(1.,4.84621161542709E-16,0.));
#1349=DIRECTION('ref_axis',(2.22044604925013E-16,2.25153229393982E-13,1.));
#1350=DIRECTION('center_axis',(1.,4.84621161542709E-16,0.));
#1351=DIRECTION('ref_axis',(2.22044604925013E-16,2.25153229393982E-13,1.));
#1352=DIRECTION('center_axis',(0.,0.,1.));
#1353=DIRECTION('ref_axis',(-0.707106781186548,0.707106781186548,0.));
#1354=DIRECTION('',(1.66533453693774E-16,2.08166817117209E-17,1.));
#1355=DIRECTION('',(1.66533453693774E-16,2.08166817117209E-17,1.));
#1356=DIRECTION('center_axis',(-8.32667268468867E-17,1.,0.));
#1357=DIRECTION('ref_axis',(0.,0.,1.));
#1358=DIRECTION('',(-1.,-8.32667268468867E-17,0.));
#1359=DIRECTION('',(-1.0545542040107E-16,5.47382212626882E-48,-1.));
#1360=DIRECTION('center_axis',(-1.,2.25069962667135E-13,2.22044604874337E-16));
#1361=DIRECTION('ref_axis',(2.22044604925013E-16,2.25153229393982E-13,1.));
#1362=DIRECTION('center_axis',(-1.,-8.32667268468867E-17,1.0545542040107E-16));
#1363=DIRECTION('ref_axis',(2.22044604925013E-16,2.25153229393982E-13,1.));
#1364=DIRECTION('',(-1.,2.25069962667135E-13,2.22044604874337E-16));
#1365=DIRECTION('center_axis',(-1.,2.25069962667135E-13,2.22044604874337E-16));
#1366=DIRECTION('ref_axis',(2.22044604925013E-16,2.25153229393982E-13,1.));
#1367=DIRECTION('center_axis',(-1.,-8.32667268468867E-17,1.0545542040107E-16));
#1368=DIRECTION('ref_axis',(2.22044604925013E-16,2.25153229393982E-13,1.));
#1369=DIRECTION('',(-1.,2.25069962667135E-13,2.22044604874337E-16));
#1370=DIRECTION('center_axis',(-1.,0.,0.));
#1371=DIRECTION('ref_axis',(0.,0.,1.));
#1372=DIRECTION('',(0.,0.,-1.));
#1373=DIRECTION('center_axis',(-1.,-8.32667268468867E-17,0.));
#1374=DIRECTION('ref_axis',(0.,-0.707106781186548,0.707106781186547));
#1375=DIRECTION('',(1.,8.32667268468867E-17,0.));
#1376=DIRECTION('center_axis',(-1.,-8.32667268468867E-17,1.0545542040107E-16));
#1377=DIRECTION('ref_axis',(0.,-0.707106781186548,0.707106781186547));
#1378=DIRECTION('',(-1.,-8.32667268468867E-17,0.));
#1379=DIRECTION('center_axis',(0.,0.,-1.));
#1380=DIRECTION('ref_axis',(-1.,-8.32667268468867E-17,0.));
#1381=DIRECTION('',(8.32667268468867E-17,-1.,0.));
#1382=DIRECTION('',(1.,8.32667268468867E-17,0.));
#1383=DIRECTION('center_axis',(1.,8.32667268468867E-17,0.));
#1384=DIRECTION('ref_axis',(0.,0.707106781186548,0.707106781186547));
#1385=DIRECTION('center_axis',(-1.,-8.32667268468867E-17,1.0545542040107E-16));
#1386=DIRECTION('ref_axis',(0.,0.707106781186548,0.707106781186547));
#1387=DIRECTION('center_axis',(-1.,-1.42560963034555E-12,0.));
#1388=DIRECTION('ref_axis',(1.00904608678077E-12,-0.70710678118655,0.707106781186545));
#1389=DIRECTION('',(1.,1.42560963034555E-12,0.));
#1390=DIRECTION('center_axis',(-1.,-8.32667268468867E-17,1.0545542040107E-16));
#1391=DIRECTION('ref_axis',(1.00904608678077E-12,-0.70710678118655,0.707106781186545));
#1392=DIRECTION('',(-1.,-1.42560963034555E-12,0.));
#1393=DIRECTION('center_axis',(0.,0.,-1.));
#1394=DIRECTION('ref_axis',(-1.,-8.32667268468867E-17,0.));
#1395=DIRECTION('',(8.32667268468867E-17,-1.,0.));
#1396=DIRECTION('',(1.,8.32667268468867E-17,0.));
#1397=DIRECTION('center_axis',(1.,8.32667268468867E-17,-1.0545542040107E-16));
#1398=DIRECTION('ref_axis',(-1.0545542040107E-16,-5.63999679893816E-19,
-1.));
#1399=DIRECTION('',(-1.0545542040107E-16,-5.63999679893816E-19,-1.));
#1400=DIRECTION('center_axis',(1.,8.32667268468867E-17,-1.0545542040107E-16));
#1401=DIRECTION('ref_axis',(0.,0.707106781186548,-0.707106781186548));
#1402=DIRECTION('',(8.32667268468867E-17,-1.,5.63999679893807E-19));
#1403=DIRECTION('center_axis',(-1.,-8.32667268468867E-17,1.0545542040107E-16));
#1404=DIRECTION('ref_axis',(0.,-0.707106781186547,0.707106781186548));
#1405=DIRECTION('',(1.0545542040107E-16,8.78092768505949E-33,1.));
#1406=DIRECTION('center_axis',(1.,8.32667268468867E-17,-1.0545542040107E-16));
#1407=DIRECTION('ref_axis',(0.,0.707106781186547,-0.707106781186548));
#1408=DIRECTION('',(8.32667268468867E-17,-1.,0.));
#1409=DIRECTION('center_axis',(1.,8.32667268468867E-17,-1.0545542040107E-16));
#1410=DIRECTION('ref_axis',(0.,-0.707106781186547,-0.707106781186548));
#1411=DIRECTION('',(-1.0545542040107E-16,-8.78092768505949E-33,-1.));
#1412=DIRECTION('center_axis',(-1.,-8.32667268468867E-17,1.0545542040107E-16));
#1413=DIRECTION('ref_axis',(0.,0.707106781186548,0.707106781186548));
#1414=DIRECTION('',(8.32667268468867E-17,-1.,5.63999679893807E-19));
#1415=DIRECTION('center_axis',(1.,8.32667268468867E-17,-1.0545542040107E-16));
#1416=DIRECTION('ref_axis',(0.,-0.707106781186548,-0.707106781186548));
#1417=DIRECTION('',(1.0545542040107E-16,5.63999679893816E-19,1.));
#1418=DIRECTION('center_axis',(-1.,-8.32667268468867E-17,1.0545542040107E-16));
#1419=DIRECTION('ref_axis',(0.,0.70710678118655,0.707106781186545));
#1420=DIRECTION('',(0.,0.,-1.));
#1421=DIRECTION('center_axis',(-1.,-8.32667268468867E-17,1.0545542040107E-16));
#1422=DIRECTION('ref_axis',(2.22044604925031E-16,5.54667823983524E-32,1.));
#1423=DIRECTION('center_axis',(-1.,-8.32667268468867E-17,1.0545542040107E-16));
#1424=DIRECTION('ref_axis',(2.22044604925031E-16,5.54667823983524E-32,1.));
#1425=DIRECTION('center_axis',(1.,8.32667268468867E-17,0.));
#1426=DIRECTION('ref_axis',(0.,0.70710678118655,0.707106781186545));
#1427=DIRECTION('',(-1.,-8.32667268468867E-17,0.));
#1428=DIRECTION('center_axis',(-8.32667268468867E-17,1.,-5.63999679893807E-19));
#1429=DIRECTION('ref_axis',(1.0545542040107E-16,5.63999679893816E-19,1.));
#1430=DIRECTION('',(1.,8.32667268468867E-17,-1.0545542040107E-16));
#1431=DIRECTION('center_axis',(8.32667268468867E-17,-1.,5.63999679893807E-19));
#1432=DIRECTION('ref_axis',(1.0545542040107E-16,5.63999679893816E-19,1.));
#1433=DIRECTION('',(-1.,-8.32667268468867E-17,1.0545542040107E-16));
#1434=DIRECTION('center_axis',(1.42560963034555E-12,-1.,0.));
#1435=DIRECTION('ref_axis',(0.,0.,-1.));
#1436=DIRECTION('center_axis',(0.,0.,1.));
#1437=DIRECTION('ref_axis',(1.,8.32667268468867E-17,0.));
#1438=DIRECTION('',(-1.,9.50252026047618E-13,0.));
#1439=DIRECTION('center_axis',(-1.,-3.79326200080262E-16,0.));
#1440=DIRECTION('ref_axis',(0.,0.707106781186547,-0.707106781186548));
#1441=DIRECTION('',(-1.,-3.79326200080262E-16,0.));
#1442=DIRECTION('',(1.,3.79326200080262E-16,0.));
#1443=DIRECTION('center_axis',(3.79326200080262E-16,-1.,0.));
#1444=DIRECTION('ref_axis',(0.,0.,-1.));
#1445=DIRECTION('',(1.,3.79326200080262E-16,-1.0545542040107E-16));
#1446=DIRECTION('center_axis',(1.,8.32667268468867E-17,-1.0545542040107E-16));
#1447=DIRECTION('ref_axis',(0.,0.707106781186548,-0.707106781186548));
#1448=DIRECTION('',(1.,8.32667268468867E-17,-1.0545542040107E-16));
#1449=DIRECTION('center_axis',(-1.0545542040107E-16,-5.63999679893816E-19,
-1.));
#1450=DIRECTION('ref_axis',(8.32667268468867E-17,-1.,5.63999679893807E-19));
#1451=DIRECTION('',(-1.,-3.79326200080262E-16,1.0545542040107E-16));
#1452=DIRECTION('center_axis',(-1.,-8.32667268468867E-17,1.0545542040107E-16));
#1453=DIRECTION('ref_axis',(0.,-0.707106781186548,-0.707106781186548));
#1454=DIRECTION('',(-1.,-8.32667268468867E-17,1.0545542040107E-16));
#1455=DIRECTION('center_axis',(-1.0545542040107E-16,-5.63999679893816E-19,
-1.));
#1456=DIRECTION('ref_axis',(-8.32667268468867E-17,1.,-5.63999679893807E-19));
#1457=DIRECTION('',(1.,3.79326200080262E-16,-1.0545542040107E-16));
#1458=DIRECTION('center_axis',(1.,3.79326200080262E-16,0.));
#1459=DIRECTION('ref_axis',(0.,-0.707106781186547,-0.707106781186548));
#1460=DIRECTION('',(1.,3.79326200080262E-16,0.));
#1461=DIRECTION('',(-1.,-3.79326200080262E-16,0.));
#1462=DIRECTION('center_axis',(-3.79326200080262E-16,1.,0.));
#1463=DIRECTION('ref_axis',(0.,0.,1.));
#1464=DIRECTION('',(-1.,-3.79326200080262E-16,1.0545542040107E-16));
#1465=DIRECTION('center_axis',(1.,3.79326200080262E-16,-1.0545542040107E-16));
#1466=DIRECTION('ref_axis',(0.,0.707106781186548,0.707106781186548));
#1467=DIRECTION('center_axis',(-1.,-3.79326200080262E-16,1.0545542040107E-16));
#1468=DIRECTION('ref_axis',(0.,-0.707106781186547,0.707106781186548));
#1469=DIRECTION('center_axis',(0.,0.,-1.));
#1470=DIRECTION('ref_axis',(-1.,-8.32667268468867E-17,0.));
#1471=DIRECTION('center_axis',(-1.,-8.32667268468867E-17,2.22044604925031E-16));
#1472=DIRECTION('ref_axis',(2.22044604925031E-16,5.54667823983524E-32,1.));
#1473=DIRECTION('',(-1.,-8.32667268468867E-17,2.22044604925031E-16));
#1474=DIRECTION('center_axis',(-1.,-8.32667268468867E-17,2.22044604925031E-16));
#1475=DIRECTION('ref_axis',(2.22044604925031E-16,5.54667823983524E-32,1.));
#1476=DIRECTION('',(-1.,-8.32667268468867E-17,2.22044604925031E-16));
#1477=DIRECTION('center_axis',(0.,0.,1.));
#1478=DIRECTION('ref_axis',(1.,8.32667268468867E-17,0.));
#1479=DIRECTION('',(1.,4.84621161542709E-16,0.));
#1480=DIRECTION('center_axis',(-9.50252026047618E-13,-1.,0.));
#1481=DIRECTION('ref_axis',(1.,-9.50252026047618E-13,0.));
#1482=DIRECTION('center_axis',(-4.84621161542709E-16,1.,0.));
#1483=DIRECTION('ref_axis',(-1.,-4.84621161542709E-16,0.));
#1484=DIRECTION('center_axis',(0.,0.,-1.));
#1485=DIRECTION('ref_axis',(-0.707106781186043,-0.707106781187052,0.));
#1486=DIRECTION('',(6.12323399573676E-17,1.,-2.1392210459065E-16));
#1487=DIRECTION('',(8.32667268468867E-17,2.22044604925031E-16,-1.));
#1488=CARTESIAN_POINT('',(0.,0.,0.));
#1489=CARTESIAN_POINT('',(0.,0.,0.));
#1490=CARTESIAN_POINT('Origin',(-38.5506221184075,31.2660994558602,29.));
#1491=CARTESIAN_POINT('',(-39.6960000000029,30.4995638419849,29.));
#1492=CARTESIAN_POINT('',(-43.6960000000029,26.4995638419849,29.));
#1493=CARTESIAN_POINT('Origin',(-39.6960000000029,26.4995638419849,29.));
#1494=CARTESIAN_POINT('',(-43.6960000000029,-26.0519999999954,29.));
#1495=CARTESIAN_POINT('',(-43.6960000000029,6.06609919881399,29.));
#1496=CARTESIAN_POINT('',(-39.6959999999972,-30.0519999999885,29.));
#1497=CARTESIAN_POINT('Origin',(-39.6960000000029,-26.0519999999954,29.));
#1498=CARTESIAN_POINT('',(-34.9999999999904,-30.0519999999979,29.));
#1499=CARTESIAN_POINT('',(-37.4756220755353,-30.0519999999922,29.));
#1500=CARTESIAN_POINT('',(-35.0000000000003,-28.4519999999949,29.));
#1501=CARTESIAN_POINT('',(-35.0000000000003,-7.33390080118571,29.));
#1502=CARTESIAN_POINT('',(-40.0959999999986,-28.4520000000059,29.));
#1503=CARTESIAN_POINT('',(-36.2506220773835,-28.4519999999976,29.));
#1504=CARTESIAN_POINT('',(-42.0960000000029,-26.4520000000059,29.));
#1505=CARTESIAN_POINT('Origin',(-40.0960000000029,-26.4520000000059,29.));
#1506=CARTESIAN_POINT('',(-42.0960000000029,26.500000000013,29.));
#1507=CARTESIAN_POINT('',(-42.0960000000029,-6.53390080118561,29.));
#1508=CARTESIAN_POINT('',(-40.0960000000029,28.500000000013,29.));
#1509=CARTESIAN_POINT('Origin',(-40.0960000000029,26.500000000013,29.));
#1510=CARTESIAN_POINT('',(-32.0999999999972,28.500000000013,29.));
#1511=CARTESIAN_POINT('',(-37.1753110592052,28.500000000013,29.));
#1512=CARTESIAN_POINT('',(-32.0999999999972,30.4995638419849,29.));
#1513=CARTESIAN_POINT('',(-32.0999999999971,21.9330497279361,29.));
#1514=CARTESIAN_POINT('',(-36.5751295006731,30.4995638419849,29.));
#1515=CARTESIAN_POINT('Origin',(-32.15,8.08469610702467E-12,-9.1));
#1516=CARTESIAN_POINT('',(-37.4000000000048,27.6980000000169,-9.09999999999998));
#1517=CARTESIAN_POINT('',(-39.4000000000048,25.6980000000169,-9.1));
#1518=CARTESIAN_POINT('Origin',(-37.4000000000048,25.6980000000169,-9.1));
#1519=CARTESIAN_POINT('',(-32.0999999999971,27.6980000000169,-9.09999999999993));
#1520=CARTESIAN_POINT('',(-33.9000000000012,27.6980000000169,-9.1));
#1521=CARTESIAN_POINT('',(-32.0999999999971,28.500000000013,-9.1));
#1522=CARTESIAN_POINT('',(-32.0999999999971,6.30000000001009,-9.1));
#1523=CARTESIAN_POINT('',(-40.0960000000029,28.500000000013,-9.1));
#1524=CARTESIAN_POINT('',(-33.9750000000014,28.500000000013,-9.1));
#1525=CARTESIAN_POINT('',(-42.0960000000029,26.500000000013,-9.1));
#1526=CARTESIAN_POINT('Origin',(-40.0960000000029,26.500000000013,-9.1));
#1527=CARTESIAN_POINT('',(-42.0960000000029,-26.4520000000059,-9.1));
#1528=CARTESIAN_POINT('',(-42.0960000000029,-6.29999999999021,-9.1));
#1529=CARTESIAN_POINT('',(-40.0959999999986,-28.4520000000059,-9.1));
#1530=CARTESIAN_POINT('Origin',(-40.0960000000029,-26.4520000000059,-9.1));
#1531=CARTESIAN_POINT('',(-34.9999999999863,-28.4520000000003,-9.1));
#1532=CARTESIAN_POINT('',(-32.5749999999522,-28.4519999999897,-9.1));
#1533=CARTESIAN_POINT('',(-34.9999999999904,-30.0519999999979,-9.1));
#1534=CARTESIAN_POINT('',(-35.0000000000003,-7.09999999999031,-9.1));
#1535=CARTESIAN_POINT('',(-39.6959999999972,-30.0519999999885,-9.1));
#1536=CARTESIAN_POINT('',(-33.7999999981043,-30.051999999987,-9.1));
#1537=CARTESIAN_POINT('',(-43.6959999999993,-26.0519999999954,-9.1));
#1538=CARTESIAN_POINT('Origin',(-39.6960000000029,-26.0519999999954,-9.1));
#1539=CARTESIAN_POINT('',(-43.6960000000742,26.4995638419849,-9.1));
#1540=CARTESIAN_POINT('',(-43.6960000000029,6.30000000000939,-9.1));
#1541=CARTESIAN_POINT('',(-39.6960000000029,30.4995638419849,-9.1));
#1542=CARTESIAN_POINT('Origin',(-39.6960000000029,26.4995638419849,-9.1));
#1543=CARTESIAN_POINT('',(-30.0999999999971,30.4995638419849,-9.1));
#1544=CARTESIAN_POINT('',(-33.3748184414694,30.4995638419849,-9.1));
#1545=CARTESIAN_POINT('',(-30.0999999999844,-30.0519999999888,-9.1));
#1546=CARTESIAN_POINT('',(-30.0999999999971,0.0124693951006077,-9.1));
#1547=CARTESIAN_POINT('',(-32.0999999912216,-30.0519999999891,-9.1));
#1548=CARTESIAN_POINT('',(-33.7999999981043,-30.0519999999912,-9.1));
#1549=CARTESIAN_POINT('',(-32.0999999912314,-27.3020000000007,-9.09999999999999));
#1550=CARTESIAN_POINT('',(-32.0999999999971,6.30000000001009,-9.1));
#1551=CARTESIAN_POINT('',(-37.4000000000048,-27.3020000000007,-9.1));
#1552=CARTESIAN_POINT('',(-33.9499999978091,-27.3020000000007,-9.1));
#1553=CARTESIAN_POINT('',(-39.4000000000048,-25.3020000000007,-9.1));
#1554=CARTESIAN_POINT('Origin',(-37.4000000000048,-25.3020000000007,-9.1));
#1555=CARTESIAN_POINT('',(-39.4000000000048,-6.29999999999631,-9.1));
#1556=CARTESIAN_POINT('Origin',(-35.4499999962513,-30.0519999999893,-0.799999999999996));
#1557=CARTESIAN_POINT('',(-34.9999999999904,-30.0519999999979,8.9));
#1558=CARTESIAN_POINT('',(-39.6959999999972,-30.0519999999885,8.9));
#1559=CARTESIAN_POINT('Origin',(-35.0000000000003,-14.1999999999887,0.));
#1560=CARTESIAN_POINT('',(-35.0000000000003,-28.4519999999949,2.22044604925031E-15));
#1561=CARTESIAN_POINT('Origin',(-32.9999999999658,-28.4519999999906,4.44089209850063E-15));
#1562=CARTESIAN_POINT('',(-40.0959999999986,-28.4520000000059,2.22044604925031E-15));
#1563=CARTESIAN_POINT('Origin',(-40.0960000000029,-26.4520000000059,2.22044604925031E-15));
#1564=CARTESIAN_POINT('',(-42.0960000000029,-26.4520000000059,27.));
#1565=CARTESIAN_POINT('Origin',(-42.0960000000029,-12.5999999999885,0.));
#1566=CARTESIAN_POINT('',(-42.0960000000029,26.500000000013,27.));
#1567=CARTESIAN_POINT('Origin',(-40.0960000000029,26.500000000013,17.));
#1568=CARTESIAN_POINT('',(-40.0960000000029,28.500000000013,17.));
#1569=CARTESIAN_POINT('Origin',(-35.8000000000029,28.500000000013,34.));
#1570=CARTESIAN_POINT('',(-32.0999999999972,28.500000000013,8.9));
#1571=CARTESIAN_POINT('Origin',(-35.6500000000025,27.6980000000169,-10.3));
#1572=CARTESIAN_POINT('',(-37.4000000000048,27.6980000000169,-7.49999999999998));
#1573=CARTESIAN_POINT('',(-37.4000000000048,27.6980000000169,-5.14999999999998));
#1574=CARTESIAN_POINT('',(-32.0999999999971,27.6980000000169,-7.49999999999993));
#1575=CARTESIAN_POINT('',(-35.6500000000025,27.6980000000169,-7.49999999999996));
#1576=CARTESIAN_POINT('',(-32.0999999999972,27.6980000000169,-4.74999999999997));
#1577=CARTESIAN_POINT('Origin',(-37.4000000000048,25.6980000000169,-5.14999999999998));
#1578=CARTESIAN_POINT('',(-39.4000000000025,25.6980000000169,-7.5));
#1579=CARTESIAN_POINT('',(-39.4000000000048,25.6980000000169,-5.14999999999998));
#1580=CARTESIAN_POINT('Origin',(-37.4000000000048,25.6980000000169,-7.5));
#1581=CARTESIAN_POINT('Origin',(-32.15,8.08422773168616E-12,-7.5));
#1582=CARTESIAN_POINT('',(-39.4000000000025,-25.3020000000007,-7.5));
#1583=CARTESIAN_POINT('',(-39.4000000000025,23.9480000000169,-7.5));
#1584=CARTESIAN_POINT('',(-37.4000000000048,-27.3020000000007,-7.5));
#1585=CARTESIAN_POINT('Origin',(-37.4000000000048,-25.3020000000007,-7.5));
#1586=CARTESIAN_POINT('',(-32.0999999912314,-27.3020000000007,-7.49999999999999));
#1587=CARTESIAN_POINT('',(-35.7499999956181,-27.3020000000007,-7.5));
#1588=CARTESIAN_POINT('',(-32.0999999999971,-20.8019999999891,-7.49999999999999));
#1589=CARTESIAN_POINT('',(-32.0999999999971,6.30000000001009,-7.5));
#1590=CARTESIAN_POINT('',(-37.0999999912411,-20.8019999999844,-7.5));
#1591=CARTESIAN_POINT('',(-33.3749999956304,-20.8019999999879,-7.5));
#1592=CARTESIAN_POINT('',(-37.0999999912402,-19.8019999999988,-7.5));
#1593=CARTESIAN_POINT('',(-37.099999991231,-10.1509999999858,-7.5));
#1594=CARTESIAN_POINT('',(-32.0999999912402,-19.8019999999891,-7.5));
#1595=CARTESIAN_POINT('',(-33.3749999956295,-19.8019999999879,-7.5));
#1596=CARTESIAN_POINT('',(-32.0999999999948,20.1980000000145,-7.5));
#1597=CARTESIAN_POINT('',(-32.0999999999971,6.30000000001009,-7.5));
#1598=CARTESIAN_POINT('',(-37.0999999999948,20.1980000000169,-7.5));
#1599=CARTESIAN_POINT('',(-32.6249999999974,20.1980000000145,-7.5));
#1600=CARTESIAN_POINT('',(-37.0999999999948,21.1980000000145,-7.49999999999998));
#1601=CARTESIAN_POINT('',(-37.0999999999948,10.3490000000113,-7.5));
#1602=CARTESIAN_POINT('',(-32.0999999999971,21.1980000000145,-7.49999999999993));
#1603=CARTESIAN_POINT('',(-32.6249999999974,21.1980000000145,-7.5));
#1604=CARTESIAN_POINT('',(-32.0999999999971,6.30000000001009,-7.5));
#1605=CARTESIAN_POINT('Origin',(-37.0999999912406,-20.3019999999843,13.9));
#1606=CARTESIAN_POINT('',(-37.0999999912411,-20.8019999999843,27.));
#1607=CARTESIAN_POINT('',(-37.0999999912411,-20.8019999999843,18.9));
#1608=CARTESIAN_POINT('',(-37.0999999912402,-19.8019999999843,27.));
#1609=CARTESIAN_POINT('',(-37.0999999912406,-20.3019999999843,27.));
#1610=CARTESIAN_POINT('',(-37.0999999912402,-19.8019999999843,13.9));
#1611=CARTESIAN_POINT('Origin',(-34.5999999912411,-20.8019999999867,13.9));
#1612=CARTESIAN_POINT('',(-32.0999999912411,-20.8019999999891,27.));
#1613=CARTESIAN_POINT('',(-32.0999999999971,-20.8019999999891,6.95));
#1614=CARTESIAN_POINT('',(-34.5999999912411,-20.8019999999867,27.));
#1615=CARTESIAN_POINT('Origin',(-39.4000000000048,-12.6000000000007,0.));
#1616=CARTESIAN_POINT('',(-39.4000000000048,-25.3020000000007,-5.15));
#1617=CARTESIAN_POINT('Origin',(-37.4000000000048,-25.3020000000007,-5.15));
#1618=CARTESIAN_POINT('',(-37.4000000000048,-27.3020000000007,-5.15));
#1619=CARTESIAN_POINT('Origin',(-35.7499999956181,-27.3020000000007,-10.3));
#1620=CARTESIAN_POINT('',(-32.0999999999971,-27.3020000000007,-4.75));
#1621=CARTESIAN_POINT('Origin',(-33.0999999999948,21.1980000000145,17.3039765489071));
#1622=CARTESIAN_POINT('',(-37.0999999999948,21.1980000000145,26.9999530978142));
#1623=CARTESIAN_POINT('',(-37.0999999999948,21.1980000000145,25.7079530978142));
#1624=CARTESIAN_POINT('',(-32.0999999999948,21.1980000000145,26.9999530978142));
#1625=CARTESIAN_POINT('',(-34.0999999999948,21.1980000000145,26.9999530978142));
#1626=CARTESIAN_POINT('',(-32.0999999999971,21.1980000000145,8.65198827445354));
#1627=CARTESIAN_POINT('Origin',(-37.0999999999948,20.6980000000145,17.3039765489071));
#1628=CARTESIAN_POINT('',(-37.0999999999948,20.1980000000145,26.9999530978142));
#1629=CARTESIAN_POINT('',(-37.0999999999948,20.1980000000145,8.9));
#1630=CARTESIAN_POINT('',(-37.0999999999948,20.6980000000145,26.9999530978142));
#1631=CARTESIAN_POINT('Origin',(-32.0999999999971,12.6000000000121,0.));
#1632=CARTESIAN_POINT('',(-32.0999999999948,20.1980000000145,26.9999530978142));
#1633=CARTESIAN_POINT('',(-32.0999999999971,16.6490000000133,26.9999530978142));
#1634=CARTESIAN_POINT('',(-32.0999999999948,20.1980000000145,10.5));
#1635=CARTESIAN_POINT('',(-32.0999999912402,-19.8019999999891,27.));
#1636=CARTESIAN_POINT('',(-32.0999999999971,-19.8019999999891,6.95));
#1637=CARTESIAN_POINT('',(-32.0999999999971,6.57903781010736,27.));
#1638=CARTESIAN_POINT('',(-32.0999999999844,-30.0519999999938,38.5));
#1639=CARTESIAN_POINT('',(-32.0999999999844,-30.0519999999938,-0.4));
#1640=CARTESIAN_POINT('',(-32.0999999999971,-27.0519999999888,41.5));
#1641=CARTESIAN_POINT('Origin',(-32.0999999999406,-27.0519999999888,38.5));
#1642=CARTESIAN_POINT('',(-32.0999999999971,-22.5524590030857,41.5));
#1643=CARTESIAN_POINT('',(-32.0999999999971,6.3000000000077,41.5));
#1644=CARTESIAN_POINT('',(-32.0999999999971,-19.5524590030857,38.5));
#1645=CARTESIAN_POINT('Origin',(-32.0999999999971,-22.5524590030857,38.5));
#1646=CARTESIAN_POINT('',(-32.0999999999971,-19.5524590030857,29.));
#1647=CARTESIAN_POINT('',(-32.0999999999971,-19.5524590030857,18.5));
#1648=CARTESIAN_POINT('',(-32.0999999999971,-17.5524590030857,27.));
#1649=CARTESIAN_POINT('Origin',(-32.0999999999971,-17.5524590030857,29.));
#1650=CARTESIAN_POINT('',(-32.0999999999971,-6.55245900308568,27.));
#1651=CARTESIAN_POINT('',(-32.0999999999971,0.27377049846321,27.));
#1652=CARTESIAN_POINT('',(-32.0999999999971,-4.55245900308568,25.));
#1653=CARTESIAN_POINT('Origin',(-32.0999999999971,-6.55245900308568,25.));
#1654=CARTESIAN_POINT('',(-32.0999999999971,-4.55245900308568,19.));
#1655=CARTESIAN_POINT('',(-32.0999999999971,-4.55245900308568,13.5));
#1656=CARTESIAN_POINT('',(-32.0999999999971,-2.55245900308568,17.));
#1657=CARTESIAN_POINT('Origin',(-32.0999999999971,-2.55245900308568,19.));
#1658=CARTESIAN_POINT('',(-32.0999999999971,2.99961024349092,17.));
#1659=CARTESIAN_POINT('',(-32.0999999999971,6.57903781010736,17.));
#1660=CARTESIAN_POINT('',(-32.0999999999971,4.99961024349092,19.));
#1661=CARTESIAN_POINT('Origin',(-32.0999999999971,2.99961024349092,19.));
#1662=CARTESIAN_POINT('',(-32.0999999999971,4.99961024349092,25.));
#1663=CARTESIAN_POINT('',(-32.0999999999971,4.99961024349092,13.5));
#1664=CARTESIAN_POINT('',(-32.0999999999971,6.99961024349092,27.));
#1665=CARTESIAN_POINT('Origin',(-32.0999999999971,6.99961024349092,25.));
#1666=CARTESIAN_POINT('',(-32.0999999999971,17.9996102434909,27.));
#1667=CARTESIAN_POINT('',(-32.0999999999971,12.5498051217515,27.));
#1668=CARTESIAN_POINT('',(-32.0999999999971,19.9996102434909,29.));
#1669=CARTESIAN_POINT('Origin',(-32.0999999999971,17.9996102434909,29.));
#1670=CARTESIAN_POINT('',(-32.0999999999971,19.9996102434909,38.5));
#1671=CARTESIAN_POINT('',(-32.0999999999971,19.9996102434909,18.5));
#1672=CARTESIAN_POINT('',(-32.0999999999971,22.9996102434909,41.5));
#1673=CARTESIAN_POINT('Origin',(-32.0999999999971,22.9996102434909,38.5));
#1674=CARTESIAN_POINT('',(-32.0999999999971,27.4995638419849,41.5));
#1675=CARTESIAN_POINT('',(-32.0999999999971,6.3000000000077,41.5));
#1676=CARTESIAN_POINT('',(-32.0999999999972,30.4995638419849,38.5));
#1677=CARTESIAN_POINT('Origin',(-32.0999999999971,27.4995638419849,38.5));
#1678=CARTESIAN_POINT('',(-32.0999999999972,30.4995638419849,27.125));
#1679=CARTESIAN_POINT('',(-32.0999999999971,-24.9702224984302,36.4007330181172));
#1680=CARTESIAN_POINT('Origin',(-32.0999999999971,-24.9702224984302,38.0007330181172));
#1681=CARTESIAN_POINT('',(-32.0999999999971,25.2297773108422,36.4003527928599));
#1682=CARTESIAN_POINT('Origin',(-32.0999999999971,25.2297773108422,38.0003527928599));
#1683=CARTESIAN_POINT('',(-32.1000000000056,-24.9702224984291,16.8738294832759));
#1684=CARTESIAN_POINT('Origin',(-32.1000000000056,-24.9702224984288,18.4738294832759));
#1685=CARTESIAN_POINT('',(-32.0999999999943,25.2297773108435,16.8738294832759));
#1686=CARTESIAN_POINT('Origin',(-32.0999999999943,25.2297773108438,18.4738294832759));
#1687=CARTESIAN_POINT('Origin',(-39.6960000000029,26.4995638419849,8.625));
#1688=CARTESIAN_POINT('',(-43.6960000000029,26.4995638419849,27.));
#1689=CARTESIAN_POINT('',(-39.6960000000029,30.4995638419849,27.));
#1690=CARTESIAN_POINT('Origin',(-34.5996368829387,30.4995638419849,17.25));
#1691=CARTESIAN_POINT('',(-30.0999999999971,30.4995638419849,38.5));
#1692=CARTESIAN_POINT('',(-31.7748184414687,30.4995638419849,38.5));
#1693=CARTESIAN_POINT('',(-30.0999999999971,30.4995638419849,28.375));
#1694=CARTESIAN_POINT('Origin',(-29.0999999999972,25.2297773108431,18.4738294832759));
#1695=CARTESIAN_POINT('',(-30.0999999999915,25.229777310843,16.8738294832759));
#1696=CARTESIAN_POINT('Origin',(-30.0999999999915,25.2297773108434,18.4738294832759));
#1697=CARTESIAN_POINT('',(-29.0999999999972,25.2297773108428,16.8738294832759));
#1698=CARTESIAN_POINT('Origin',(-29.0999999999972,-24.9702224984294,18.4738294832759));
#1699=CARTESIAN_POINT('',(-30.1000000000028,-24.9702224984296,16.8738294832759));
#1700=CARTESIAN_POINT('Origin',(-30.1000000000028,-24.9702224984292,18.4738294832759));
#1701=CARTESIAN_POINT('',(-29.0999999999972,-24.9702224984298,16.8738294832759));
#1702=CARTESIAN_POINT('Origin',(-43.6960000000029,12.6000000000107,0.));
#1703=CARTESIAN_POINT('',(-43.6960000000029,-26.0519999999954,-0.399999999999998));
#1704=CARTESIAN_POINT('Origin',(-30.0249999999979,22.9996102434909,38.5));
#1705=CARTESIAN_POINT('',(-30.0999999999971,19.9996102434909,38.5));
#1706=CARTESIAN_POINT('',(-30.0249999999979,19.9996102434909,38.5));
#1707=CARTESIAN_POINT('',(-30.0999999999971,22.9996102434909,41.5));
#1708=CARTESIAN_POINT('Origin',(-30.0999999999971,22.9996102434909,38.5));
#1709=CARTESIAN_POINT('',(-30.0249999999979,22.9996102434909,41.5));
#1710=CARTESIAN_POINT('Origin',(-28.9499999999986,3.30602732689922E-12,
41.5));
#1711=CARTESIAN_POINT('',(-30.0999999999971,27.4995638419849,41.5));
#1712=CARTESIAN_POINT('',(-30.0999999999971,0.0124693950982182,41.5));
#1713=CARTESIAN_POINT('',(-31.7748184414687,27.4995638419849,41.5));
#1714=CARTESIAN_POINT('Origin',(-31.7748184414687,27.4995638419849,38.5));
#1715=CARTESIAN_POINT('Origin',(-30.0999999999971,27.4995638419849,38.5));
#1716=CARTESIAN_POINT('Origin',(-32.1999999981078,-27.0519999999889,38.5));
#1717=CARTESIAN_POINT('',(-30.0999999999844,-30.0519999999888,38.5));
#1718=CARTESIAN_POINT('',(-32.1999999981035,-30.0519999999889,38.5));
#1719=CARTESIAN_POINT('',(-30.0999999999971,-27.0519999999859,41.5));
#1720=CARTESIAN_POINT('Origin',(-30.0999999999585,-27.0519999999859,38.5));
#1721=CARTESIAN_POINT('',(-32.1999999981078,-27.0519999999889,41.5));
#1722=CARTESIAN_POINT('Origin',(-28.9499999999986,3.30602732689922E-12,
41.5));
#1723=CARTESIAN_POINT('',(-30.0999999999971,-22.5524590030857,41.5));
#1724=CARTESIAN_POINT('',(-30.0999999999971,0.0124693950982182,41.5));
#1725=CARTESIAN_POINT('',(-30.0249999999963,-22.5524590030857,41.5));
#1726=CARTESIAN_POINT('Origin',(-30.0999999999971,0.0249387901931305,39.5));
#1727=CARTESIAN_POINT('',(-30.0999999999971,19.9996102434909,29.));
#1728=CARTESIAN_POINT('',(-30.0999999999971,19.9996102434909,38.25));
#1729=CARTESIAN_POINT('',(-30.0999999999971,17.9996102434909,27.));
#1730=CARTESIAN_POINT('Origin',(-30.0999999999971,17.9996102434909,29.));
#1731=CARTESIAN_POINT('',(-30.0999999999971,6.99961024349092,27.));
#1732=CARTESIAN_POINT('',(-30.0999999999971,6.26227451684203,27.));
#1733=CARTESIAN_POINT('',(-30.0999999999971,4.99961024349092,25.));
#1734=CARTESIAN_POINT('Origin',(-30.0999999999971,6.99961024349092,25.));
#1735=CARTESIAN_POINT('',(-30.0999999999971,4.99961024349092,19.));
#1736=CARTESIAN_POINT('',(-30.0999999999971,4.99961024349092,33.25));
#1737=CARTESIAN_POINT('',(-30.0999999999971,2.99961024349092,17.));
#1738=CARTESIAN_POINT('Origin',(-30.0999999999971,2.99961024349092,19.));
#1739=CARTESIAN_POINT('',(-30.0999999999971,-2.55245900308568,17.));
#1740=CARTESIAN_POINT('',(-30.0999999999971,0.291507205197875,17.));
#1741=CARTESIAN_POINT('',(-30.0999999999971,-4.55245900308568,19.));
#1742=CARTESIAN_POINT('Origin',(-30.0999999999971,-2.55245900308568,19.));
#1743=CARTESIAN_POINT('',(-30.0999999999971,-4.55245900308568,25.));
#1744=CARTESIAN_POINT('',(-30.0999999999971,-4.55245900308568,33.25));
#1745=CARTESIAN_POINT('',(-30.0999999999971,-6.55245900308568,27.));
#1746=CARTESIAN_POINT('Origin',(-30.0999999999971,-6.55245900308568,25.));
#1747=CARTESIAN_POINT('',(-30.0999999999971,-17.5524590030857,27.));
#1748=CARTESIAN_POINT('',(-30.0999999999971,-6.01376010644628,27.));
#1749=CARTESIAN_POINT('',(-30.0999999999971,-19.5524590030857,29.));
#1750=CARTESIAN_POINT('Origin',(-30.0999999999971,-17.5524590030857,29.));
#1751=CARTESIAN_POINT('',(-30.0999999999971,-19.5524590030857,38.5));
#1752=CARTESIAN_POINT('',(-30.0999999999971,-19.5524590030857,38.25));
#1753=CARTESIAN_POINT('Origin',(-30.0999999999971,-22.5524590030857,38.5));
#1754=CARTESIAN_POINT('',(-30.0999999999844,-30.0519999999888,8.9));
#1755=CARTESIAN_POINT('',(-30.0999999999971,-24.9702224984302,36.4007330181172));
#1756=CARTESIAN_POINT('Origin',(-30.0999999999971,-24.9702224984302,38.0007330181172));
#1757=CARTESIAN_POINT('',(-30.0999999999971,25.2297773108422,36.4003527928599));
#1758=CARTESIAN_POINT('Origin',(-30.0999999999971,25.2297773108422,38.0003527928599));
#1759=CARTESIAN_POINT('Origin',(-30.0249999999963,-22.5524590030857,38.5));
#1760=CARTESIAN_POINT('',(-30.0249999999963,-19.5524590030857,38.5));
#1761=CARTESIAN_POINT('Origin',(-31.0999999999939,-19.5524590030857,37.));
#1762=CARTESIAN_POINT('',(-31.0999999999939,-19.5524590030857,29.));
#1763=CARTESIAN_POINT('Origin',(-31.0999999999971,19.9996102434909,37.));
#1764=CARTESIAN_POINT('',(-31.0999999999971,19.9996102434909,29.));
#1765=CARTESIAN_POINT('Origin',(-35.4499999962513,-30.0519999999936,-0.799999999999996));
#1766=CARTESIAN_POINT('Origin',(-34.5999999912406,-20.3019999999867,27.));
#1767=CARTESIAN_POINT('',(-34.5999999912402,-19.8019999999867,27.));
#1768=CARTESIAN_POINT('Origin',(-31.5999999999971,2.99961024349092,19.));
#1769=CARTESIAN_POINT('',(-31.5999999999971,4.99961024349092,19.));
#1770=CARTESIAN_POINT('',(-31.5999999999971,2.99961024349092,17.));
#1771=CARTESIAN_POINT('Origin',(-31.5999999999971,4.99961024349092,37.));
#1772=CARTESIAN_POINT('',(-31.3499999999971,4.99961024349092,25.));
#1773=CARTESIAN_POINT('Origin',(-31.0999999999971,17.9996102434909,29.));
#1774=CARTESIAN_POINT('',(-31.0999999999971,17.9996102434909,27.));
#1775=CARTESIAN_POINT('Origin',(-31.0999999999971,12.4996102434909,27.));
#1776=CARTESIAN_POINT('',(-31.3499999999971,6.99961024349092,27.));
#1777=CARTESIAN_POINT('Origin',(-31.0999999999939,-17.5524590030857,29.));
#1778=CARTESIAN_POINT('',(-31.0999999999939,-17.5524590030857,27.));
#1779=CARTESIAN_POINT('Origin',(-31.0999999999939,-12.0524590030857,27.));
#1780=CARTESIAN_POINT('',(-31.3499999999955,-6.55245900308568,27.));
#1781=CARTESIAN_POINT('Origin',(-31.5999999999971,-2.55245900308568,19.));
#1782=CARTESIAN_POINT('',(-31.5999999999971,-4.55245900308568,19.));
#1783=CARTESIAN_POINT('',(-31.5999999999971,-2.55245900308568,17.));
#1784=CARTESIAN_POINT('Origin',(-31.5999999999971,-4.55245900308568,37.));
#1785=CARTESIAN_POINT('',(-31.3499999999955,-4.55245900308568,25.));
#1786=CARTESIAN_POINT('Origin',(-31.3499999999955,-6.55245900308568,25.));
#1787=CARTESIAN_POINT('Origin',(-31.3499999999971,6.99961024349092,25.));
#1788=CARTESIAN_POINT('Origin',(-31.5999999999971,0.55807562020262,17.));
#1789=CARTESIAN_POINT('Origin',(-31.0999999999971,25.2297773108422,38.0003527928599));
#1790=CARTESIAN_POINT('',(-31.0999999999971,25.2297773108422,36.4003527928599));
#1791=CARTESIAN_POINT('Origin',(-31.0999999999971,-24.9702224984302,38.0007330181172));
#1792=CARTESIAN_POINT('',(-31.0999999999971,-24.9702224984302,36.4007330181172));
#1793=CARTESIAN_POINT('Origin',(-33.0999999999948,20.6980000000145,26.9999530978142));
#1794=CARTESIAN_POINT('',(-33.0999999999948,20.1980000000145,26.9999530978142));
#1795=CARTESIAN_POINT('Origin',(-34.5999999912402,-19.8019999999867,13.9));
#1796=CARTESIAN_POINT('Origin',(-33.0999999999948,20.1980000000145,17.3039765489071));
#1797=CARTESIAN_POINT('Origin',(-39.6960000000029,-26.0519999999954,-0.399999999999998));
#1798=CARTESIAN_POINT('',(0.0297778741017285,-44.0003526587494,-43.5999999999974));
#1799=UNCERTAINTY_MEASURE_WITH_UNIT(LENGTH_MEASURE(0.01),#1805,
'DISTANCE_ACCURACY_VALUE',
'Maximum model space distance between geometric entities at asserted c
onnectivities');
#1800=UNCERTAINTY_MEASURE_WITH_UNIT(LENGTH_MEASURE(0.01),#1805,
'DISTANCE_ACCURACY_VALUE',
'Maximum model space distance between geometric entities at asserted c
onnectivities');
#1801=UNCERTAINTY_MEASURE_WITH_UNIT(LENGTH_MEASURE(0.01),#1805,
'DISTANCE_ACCURACY_VALUE',
'Maximum model space distance between geometric entities at asserted c
onnectivities');
#1802=(
GEOMETRIC_REPRESENTATION_CONTEXT(3)
GLOBAL_UNCERTAINTY_ASSIGNED_CONTEXT((#1799))
GLOBAL_UNIT_ASSIGNED_CONTEXT((#1805,#1807,#1808))
REPRESENTATION_CONTEXT('','3D')
);
#1803=(
GEOMETRIC_REPRESENTATION_CONTEXT(3)
GLOBAL_UNCERTAINTY_ASSIGNED_CONTEXT((#1800))
GLOBAL_UNIT_ASSIGNED_CONTEXT((#1805,#1807,#1808))
REPRESENTATION_CONTEXT('','3D')
);
#1804=(
GEOMETRIC_REPRESENTATION_CONTEXT(3)
GLOBAL_UNCERTAINTY_ASSIGNED_CONTEXT((#1801))
GLOBAL_UNIT_ASSIGNED_CONTEXT((#1805,#1807,#1808))
REPRESENTATION_CONTEXT('','3D')
);
#1805=(
LENGTH_UNIT()
NAMED_UNIT(*)
SI_UNIT(.MILLI.,.METRE.)
);
#1806=(
LENGTH_UNIT()
NAMED_UNIT(*)
SI_UNIT($,.METRE.)
);
#1807=(
NAMED_UNIT(*)
PLANE_ANGLE_UNIT()
SI_UNIT($,.RADIAN.)
);
#1808=(
NAMED_UNIT(*)
SI_UNIT($,.STERADIAN.)
SOLID_ANGLE_UNIT()
);
#1809=SHAPE_DEFINITION_REPRESENTATION(#1811,#1814);
#1810=SHAPE_DEFINITION_REPRESENTATION(#1812,#1815);
#1811=PRODUCT_DEFINITION_SHAPE('',$,#1817);
#1812=PRODUCT_DEFINITION_SHAPE('',$,#1818);
#1813=PRODUCT_DEFINITION_SHAPE($,$,#14);
#1814=SHAPE_REPRESENTATION('',(#1087,#1182),#1802);
#1815=SHAPE_REPRESENTATION('',(#1088),#1803);
#1816=PRODUCT_DEFINITION_CONTEXT('part definition',#1824,'design');
#1817=PRODUCT_DEFINITION('holder_NP-40_3','holder_NP-40_3',#1819,#1816);
#1818=PRODUCT_DEFINITION('Component2','\X2\30B330F330DD30FC30CD30F330C8\X0\2',
#1820,#1816);
#1819=PRODUCT_DEFINITION_FORMATION('',$,#1826);
#1820=PRODUCT_DEFINITION_FORMATION('',$,#1827);
#1821=PRODUCT_RELATED_PRODUCT_CATEGORY('holder_NP-40_3',
'holder_NP-40_3',(#1826));
#1822=PRODUCT_RELATED_PRODUCT_CATEGORY('\X2\30B330F330DD30FC30CD30F330C8\X0\2',
'\X2\30B330F330DD30FC30CD30F330C8\X0\2',(#1827));
#1823=APPLICATION_PROTOCOL_DEFINITION('international standard',
'automotive_design',2009,#1824);
#1824=APPLICATION_CONTEXT(
'Core Data for Automotive Mechanical Design Process');
#1825=PRODUCT_CONTEXT('part definition',#1824,'mechanical');
#1826=PRODUCT('holder_NP-40_3','holder_NP-40_3',$,(#1825));
#1827=PRODUCT('Component2','\X2\30B330F330DD30FC30CD30F330C8\X0\2',$,(#1825));
#1828=PRESENTATION_STYLE_ASSIGNMENT((#1830));
#1829=PRESENTATION_STYLE_ASSIGNMENT((#1831));
#1830=SURFACE_STYLE_USAGE(.BOTH.,#1832);
#1831=SURFACE_STYLE_USAGE(.BOTH.,#1833);
#1832=SURFACE_SIDE_STYLE('',(#1834));
#1833=SURFACE_SIDE_STYLE('',(#1835));
#1834=SURFACE_STYLE_FILL_AREA(#1836);
#1835=SURFACE_STYLE_FILL_AREA(#1837);
#1836=FILL_AREA_STYLE('\X2\92FC\X0\ - \X2\30B530C630F3\X0\',(#1838));
#1837=FILL_AREA_STYLE('Opaque(160,160,160)',(#1839));
#1838=FILL_AREA_STYLE_COLOUR('\X2\92FC\X0\ - \X2\30B530C630F3\X0\',#1840);
#1839=FILL_AREA_STYLE_COLOUR('Opaque(160,160,160)',#1841);
#1840=COLOUR_RGB('\X2\92FC\X0\ - \X2\30B530C630F3\X0\',0.627450980392157,
0.627450980392157,0.627450980392157);
#1841=COLOUR_RGB('Opaque(160,160,160)',0.627450980392157,0.627450980392157,
0.627450980392157);
ENDSEC;
END-ISO-10303-21;
