ISO-10303-21;
HEADER;
/* Generated by software containing ST-Developer
 * from STEP Tools, Inc. (www.steptools.com) 
 */

FILE_DESCRIPTION(
/* description */ (''),
/* implementation_level */ '2;1');

FILE_NAME(
/* name */ 'Joint-R.step',
/* time_stamp */ '2026-07-28T10:26:54+09:00',
/* author */ (''),
/* organization */ (''),
/* preprocessor_version */ 'ST-DEVELOPER v20.1',
/* originating_system */ 'Autodesk Translation Framework v15.8.0.0',
/* authorisation */ '');

FILE_SCHEMA (('AUTOMOTIVE_DESIGN { 1 0 10303 214 3 1 1 }'));
ENDSEC;

DATA;
#10=MECHANICAL_DESIGN_GEOMETRIC_PRESENTATION_REPRESENTATION('',(#13),#1808);
#11=SHAPE_REPRESENTATION_RELATIONSHIP('SRR','None',#1815,#12);
#12=ADVANCED_BREP_SHAPE_REPRESENTATION('',(#14),#1807);
#13=STYLED_ITEM('',(#1824),#14);
#14=MANIFOLD_SOLID_BREP('Joint-R',#1086);
#15=ELLIPSE('',#1137,2.12132034355967,1.50000000000002);
#16=ELLIPSE('',#1141,1.50552258368937,1.50000000000002);
#17=ELLIPSE('',#1143,2.12132034355965,1.50000000000002);
#18=B_SPLINE_CURVE_WITH_KNOTS('',3,(#1566,#1567,#1568,#1569,#1570,#1571),
 .UNSPECIFIED.,.F.,.F.,(4,2,4),(0.272279310643259,0.287468568917502,0.325288009587104),
 .UNSPECIFIED.);
#19=CYLINDRICAL_SURFACE('',#1113,1.);
#20=CYLINDRICAL_SURFACE('',#1140,1.50000000000002);
#21=CYLINDRICAL_SURFACE('',#1145,1.50000000000002);
#22=CYLINDRICAL_SURFACE('',#1149,3.);
#23=CYLINDRICAL_SURFACE('',#1150,1.25);
#24=CYLINDRICAL_SURFACE('',#1168,3.);
#25=CYLINDRICAL_SURFACE('',#1170,1.5);
#26=CYLINDRICAL_SURFACE('',#1174,2.25);
#27=CYLINDRICAL_SURFACE('',#1178,3.);
#28=CYLINDRICAL_SURFACE('',#1180,3.625);
#29=CYLINDRICAL_SURFACE('',#1181,1.25);
#30=CYLINDRICAL_SURFACE('',#1182,1.25);
#31=CYLINDRICAL_SURFACE('',#1183,1.5);
#32=CYLINDRICAL_SURFACE('',#1187,3.);
#33=CYLINDRICAL_SURFACE('',#1188,3.625);
#34=CYLINDRICAL_SURFACE('',#1189,1.25);
#35=CYLINDRICAL_SURFACE('',#1190,1.25);
#36=CYLINDRICAL_SURFACE('',#1191,1.25);
#37=FACE_BOUND('',#144,.T.);
#38=FACE_BOUND('',#145,.T.);
#39=FACE_BOUND('',#146,.T.);
#40=FACE_BOUND('',#147,.T.);
#41=FACE_BOUND('',#157,.T.);
#42=FACE_BOUND('',#158,.T.);
#43=FACE_BOUND('',#159,.T.);
#44=FACE_BOUND('',#160,.T.);
#45=FACE_BOUND('',#178,.T.);
#46=FACE_BOUND('',#179,.T.);
#47=FACE_BOUND('',#180,.T.);
#48=FACE_BOUND('',#181,.T.);
#49=FACE_BOUND('',#183,.T.);
#50=FACE_BOUND('',#184,.T.);
#51=FACE_BOUND('',#185,.T.);
#52=FACE_BOUND('',#186,.T.);
#53=CIRCLE('',#1102,3.);
#54=CIRCLE('',#1103,3.);
#55=CIRCLE('',#1104,1.25);
#56=CIRCLE('',#1105,1.25);
#57=CIRCLE('',#1106,3.625);
#58=CIRCLE('',#1107,1.25);
#59=CIRCLE('',#1114,1.);
#60=CIRCLE('',#1115,1.);
#61=CIRCLE('',#1119,3.);
#62=CIRCLE('',#1120,3.);
#63=CIRCLE('',#1121,1.25);
#64=CIRCLE('',#1122,1.25);
#65=CIRCLE('',#1123,3.625);
#66=CIRCLE('',#1124,1.25);
#67=CIRCLE('',#1126,2.25);
#68=CIRCLE('',#1130,2.25);
#69=CIRCLE('',#1131,3.);
#70=CIRCLE('',#1132,1.50000000000002);
#71=CIRCLE('',#1134,1.50000000000002);
#72=CIRCLE('',#1135,1.5);
#73=CIRCLE('',#1146,1.50000000000002);
#74=CIRCLE('',#1152,3.);
#75=CIRCLE('',#1153,3.);
#76=CIRCLE('',#1154,1.5);
#77=CIRCLE('',#1155,1.5);
#78=CIRCLE('',#1156,1.25);
#79=CIRCLE('',#1157,3.62500000000001);
#80=CIRCLE('',#1158,1.25);
#81=CIRCLE('',#1159,1.25);
#82=CIRCLE('',#1161,1.5);
#83=CIRCLE('',#1162,3.);
#84=CIRCLE('',#1163,2.25);
#85=CIRCLE('',#1164,1.25);
#86=CIRCLE('',#1165,3.625);
#87=CIRCLE('',#1166,1.25);
#88=CIRCLE('',#1167,1.25);
#89=FACE_OUTER_BOUND('',#142,.T.);
#90=FACE_OUTER_BOUND('',#143,.T.);
#91=FACE_OUTER_BOUND('',#148,.T.);
#92=FACE_OUTER_BOUND('',#149,.T.);
#93=FACE_OUTER_BOUND('',#150,.T.);
#94=FACE_OUTER_BOUND('',#151,.T.);
#95=FACE_OUTER_BOUND('',#152,.T.);
#96=FACE_OUTER_BOUND('',#153,.T.);
#97=FACE_OUTER_BOUND('',#154,.T.);
#98=FACE_OUTER_BOUND('',#155,.T.);
#99=FACE_OUTER_BOUND('',#156,.T.);
#100=FACE_OUTER_BOUND('',#161,.T.);
#101=FACE_OUTER_BOUND('',#162,.T.);
#102=FACE_OUTER_BOUND('',#163,.T.);
#103=FACE_OUTER_BOUND('',#164,.T.);
#104=FACE_OUTER_BOUND('',#165,.T.);
#105=FACE_OUTER_BOUND('',#166,.T.);
#106=FACE_OUTER_BOUND('',#167,.T.);
#107=FACE_OUTER_BOUND('',#168,.T.);
#108=FACE_OUTER_BOUND('',#169,.T.);
#109=FACE_OUTER_BOUND('',#170,.T.);
#110=FACE_OUTER_BOUND('',#171,.T.);
#111=FACE_OUTER_BOUND('',#172,.T.);
#112=FACE_OUTER_BOUND('',#173,.T.);
#113=FACE_OUTER_BOUND('',#174,.T.);
#114=FACE_OUTER_BOUND('',#175,.T.);
#115=FACE_OUTER_BOUND('',#176,.T.);
#116=FACE_OUTER_BOUND('',#177,.T.);
#117=FACE_OUTER_BOUND('',#182,.T.);
#118=FACE_OUTER_BOUND('',#187,.T.);
#119=FACE_OUTER_BOUND('',#188,.T.);
#120=FACE_OUTER_BOUND('',#189,.T.);
#121=FACE_OUTER_BOUND('',#190,.T.);
#122=FACE_OUTER_BOUND('',#191,.T.);
#123=FACE_OUTER_BOUND('',#192,.T.);
#124=FACE_OUTER_BOUND('',#193,.T.);
#125=FACE_OUTER_BOUND('',#194,.T.);
#126=FACE_OUTER_BOUND('',#195,.T.);
#127=FACE_OUTER_BOUND('',#196,.T.);
#128=FACE_OUTER_BOUND('',#197,.T.);
#129=FACE_OUTER_BOUND('',#198,.T.);
#130=FACE_OUTER_BOUND('',#199,.T.);
#131=FACE_OUTER_BOUND('',#200,.T.);
#132=FACE_OUTER_BOUND('',#201,.T.);
#133=FACE_OUTER_BOUND('',#202,.T.);
#134=FACE_OUTER_BOUND('',#203,.T.);
#135=FACE_OUTER_BOUND('',#204,.T.);
#136=FACE_OUTER_BOUND('',#205,.T.);
#137=FACE_OUTER_BOUND('',#206,.T.);
#138=FACE_OUTER_BOUND('',#207,.T.);
#139=FACE_OUTER_BOUND('',#208,.T.);
#140=FACE_OUTER_BOUND('',#209,.T.);
#141=FACE_OUTER_BOUND('',#210,.T.);
#142=EDGE_LOOP('',(#692,#693,#694,#695));
#143=EDGE_LOOP('',(#696,#697,#698,#699,#700,#701,#702,#703,#704,#705,#706,
#707,#708));
#144=EDGE_LOOP('',(#709));
#145=EDGE_LOOP('',(#710));
#146=EDGE_LOOP('',(#711));
#147=EDGE_LOOP('',(#712));
#148=EDGE_LOOP('',(#713,#714,#715,#716));
#149=EDGE_LOOP('',(#717,#718,#719,#720));
#150=EDGE_LOOP('',(#721,#722,#723,#724,#725,#726));
#151=EDGE_LOOP('',(#727,#728,#729,#730,#731));
#152=EDGE_LOOP('',(#732,#733,#734,#735,#736,#737));
#153=EDGE_LOOP('',(#738,#739,#740,#741,#742));
#154=EDGE_LOOP('',(#743,#744,#745,#746,#747,#748));
#155=EDGE_LOOP('',(#749,#750,#751,#752));
#156=EDGE_LOOP('',(#753,#754,#755,#756,#757,#758,#759,#760,#761,#762,#763,
#764,#765,#766,#767,#768,#769,#770));
#157=EDGE_LOOP('',(#771));
#158=EDGE_LOOP('',(#772));
#159=EDGE_LOOP('',(#773));
#160=EDGE_LOOP('',(#774));
#161=EDGE_LOOP('',(#775,#776,#777));
#162=EDGE_LOOP('',(#778,#779,#780,#781,#782,#783));
#163=EDGE_LOOP('',(#784,#785,#786,#787,#788,#789,#790,#791));
#164=EDGE_LOOP('',(#792,#793,#794,#795,#796,#797,#798,#799,#800));
#165=EDGE_LOOP('',(#801,#802,#803,#804,#805,#806,#807));
#166=EDGE_LOOP('',(#808,#809,#810,#811,#812));
#167=EDGE_LOOP('',(#813,#814,#815,#816,#817,#818,#819,#820,#821,#822,#823,
#824,#825,#826));
#168=EDGE_LOOP('',(#827,#828,#829,#830));
#169=EDGE_LOOP('',(#831,#832,#833,#834,#835));
#170=EDGE_LOOP('',(#836,#837,#838,#839));
#171=EDGE_LOOP('',(#840,#841,#842,#843));
#172=EDGE_LOOP('',(#844,#845,#846,#847,#848));
#173=EDGE_LOOP('',(#849,#850,#851,#852));
#174=EDGE_LOOP('',(#853,#854,#855,#856));
#175=EDGE_LOOP('',(#857,#858,#859,#860));
#176=EDGE_LOOP('',(#861,#862,#863,#864));
#177=EDGE_LOOP('',(#865,#866,#867,#868,#869,#870,#871,#872));
#178=EDGE_LOOP('',(#873));
#179=EDGE_LOOP('',(#874));
#180=EDGE_LOOP('',(#875));
#181=EDGE_LOOP('',(#876));
#182=EDGE_LOOP('',(#877,#878,#879,#880,#881,#882,#883,#884,#885,#886));
#183=EDGE_LOOP('',(#887));
#184=EDGE_LOOP('',(#888));
#185=EDGE_LOOP('',(#889));
#186=EDGE_LOOP('',(#890));
#187=EDGE_LOOP('',(#891,#892,#893,#894));
#188=EDGE_LOOP('',(#895,#896,#897,#898));
#189=EDGE_LOOP('',(#899,#900,#901,#902));
#190=EDGE_LOOP('',(#903,#904,#905,#906,#907,#908));
#191=EDGE_LOOP('',(#909,#910,#911,#912));
#192=EDGE_LOOP('',(#913,#914,#915,#916,#917,#918));
#193=EDGE_LOOP('',(#919,#920,#921,#922,#923,#924,#925,#926));
#194=EDGE_LOOP('',(#927,#928,#929,#930,#931));
#195=EDGE_LOOP('',(#932,#933,#934,#935));
#196=EDGE_LOOP('',(#936,#937,#938,#939));
#197=EDGE_LOOP('',(#940,#941,#942,#943));
#198=EDGE_LOOP('',(#944,#945,#946,#947,#948,#949));
#199=EDGE_LOOP('',(#950,#951,#952,#953));
#200=EDGE_LOOP('',(#954,#955,#956,#957));
#201=EDGE_LOOP('',(#958,#959,#960,#961));
#202=EDGE_LOOP('',(#962,#963,#964,#965));
#203=EDGE_LOOP('',(#966,#967,#968,#969));
#204=EDGE_LOOP('',(#970,#971,#972,#973));
#205=EDGE_LOOP('',(#974,#975,#976,#977));
#206=EDGE_LOOP('',(#978,#979,#980,#981));
#207=EDGE_LOOP('',(#982,#983,#984,#985));
#208=EDGE_LOOP('',(#986,#987,#988,#989));
#209=EDGE_LOOP('',(#990,#991,#992,#993));
#210=EDGE_LOOP('',(#994,#995,#996,#997));
#211=LINE('',#1495,#324);
#212=LINE('',#1497,#325);
#213=LINE('',#1499,#326);
#214=LINE('',#1500,#327);
#215=LINE('',#1503,#328);
#216=LINE('',#1505,#329);
#217=LINE('',#1509,#330);
#218=LINE('',#1513,#331);
#219=LINE('',#1515,#332);
#220=LINE('',#1517,#333);
#221=LINE('',#1519,#334);
#222=LINE('',#1521,#335);
#223=LINE('',#1523,#336);
#224=LINE('',#1524,#337);
#225=LINE('',#1535,#338);
#226=LINE('',#1536,#339);
#227=LINE('',#1540,#340);
#228=LINE('',#1542,#341);
#229=LINE('',#1544,#342);
#230=LINE('',#1545,#343);
#231=LINE('',#1548,#344);
#232=LINE('',#1549,#345);
#233=LINE('',#1550,#346);
#234=LINE('',#1553,#347);
#235=LINE('',#1555,#348);
#236=LINE('',#1556,#349);
#237=LINE('',#1559,#350);
#238=LINE('',#1561,#351);
#239=LINE('',#1562,#352);
#240=LINE('',#1573,#353);
#241=LINE('',#1577,#354);
#242=LINE('',#1581,#355);
#243=LINE('',#1583,#356);
#244=LINE('',#1585,#357);
#245=LINE('',#1587,#358);
#246=LINE('',#1588,#359);
#247=LINE('',#1591,#360);
#248=LINE('',#1593,#361);
#249=LINE('',#1594,#362);
#250=LINE('',#1597,#363);
#251=LINE('',#1598,#364);
#252=LINE('',#1599,#365);
#253=LINE('',#1601,#366);
#254=LINE('',#1603,#367);
#255=LINE('',#1605,#368);
#256=LINE('',#1609,#369);
#257=LINE('',#1612,#370);
#258=LINE('',#1624,#371);
#259=LINE('',#1627,#372);
#260=LINE('',#1629,#373);
#261=LINE('',#1631,#374);
#262=LINE('',#1632,#375);
#263=LINE('',#1635,#376);
#264=LINE('',#1637,#377);
#265=LINE('',#1639,#378);
#266=LINE('',#1640,#379);
#267=LINE('',#1645,#380);
#268=LINE('',#1647,#381);
#269=LINE('',#1649,#382);
#270=LINE('',#1653,#383);
#271=LINE('',#1655,#384);
#272=LINE('',#1661,#385);
#273=LINE('',#1663,#386);
#274=LINE('',#1666,#387);
#275=LINE('',#1672,#388);
#276=LINE('',#1674,#389);
#277=LINE('',#1676,#390);
#278=LINE('',#1677,#391);
#279=LINE('',#1679,#392);
#280=LINE('',#1681,#393);
#281=LINE('',#1683,#394);
#282=LINE('',#1684,#395);
#283=LINE('',#1686,#396);
#284=LINE('',#1688,#397);
#285=LINE('',#1689,#398);
#286=LINE('',#1690,#399);
#287=LINE('',#1691,#400);
#288=LINE('',#1693,#401);
#289=LINE('',#1700,#402);
#290=LINE('',#1701,#403);
#291=LINE('',#1703,#404);
#292=LINE('',#1707,#405);
#293=LINE('',#1710,#406);
#294=LINE('',#1712,#407);
#295=LINE('',#1717,#408);
#296=LINE('',#1721,#409);
#297=LINE('',#1725,#410);
#298=LINE('',#1737,#411);
#299=LINE('',#1739,#412);
#300=LINE('',#1743,#413);
#301=LINE('',#1747,#414);
#302=LINE('',#1749,#415);
#303=LINE('',#1751,#416);
#304=LINE('',#1762,#417);
#305=LINE('',#1763,#418);
#306=LINE('',#1765,#419);
#307=LINE('',#1767,#420);
#308=LINE('',#1769,#421);
#309=LINE('',#1771,#422);
#310=LINE('',#1774,#423);
#311=LINE('',#1775,#424);
#312=LINE('',#1778,#425);
#313=LINE('',#1779,#426);
#314=LINE('',#1782,#427);
#315=LINE('',#1785,#428);
#316=LINE('',#1787,#429);
#317=LINE('',#1789,#430);
#318=LINE('',#1792,#431);
#319=LINE('',#1795,#432);
#320=LINE('',#1798,#433);
#321=LINE('',#1800,#434);
#322=LINE('',#1802,#435);
#323=LINE('',#1804,#436);
#324=VECTOR('',#1196,10.);
#325=VECTOR('',#1197,10.);
#326=VECTOR('',#1198,10.);
#327=VECTOR('',#1199,10.);
#328=VECTOR('',#1202,10.);
#329=VECTOR('',#1203,10.);
#330=VECTOR('',#1206,10.);
#331=VECTOR('',#1209,10.);
#332=VECTOR('',#1210,10.);
#333=VECTOR('',#1211,10.);
#334=VECTOR('',#1212,10.);
#335=VECTOR('',#1213,10.);
#336=VECTOR('',#1214,10.);
#337=VECTOR('',#1215,10.);
#338=VECTOR('',#1226,10.);
#339=VECTOR('',#1227,10.);
#340=VECTOR('',#1230,10.);
#341=VECTOR('',#1231,10.);
#342=VECTOR('',#1232,10.);
#343=VECTOR('',#1233,10.);
#344=VECTOR('',#1236,10.);
#345=VECTOR('',#1237,10.);
#346=VECTOR('',#1238,10.);
#347=VECTOR('',#1241,10.);
#348=VECTOR('',#1242,10.);
#349=VECTOR('',#1243,10.);
#350=VECTOR('',#1246,10.);
#351=VECTOR('',#1247,10.);
#352=VECTOR('',#1248,10.);
#353=VECTOR('',#1251,10.);
#354=VECTOR('',#1254,10.);
#355=VECTOR('',#1259,10.);
#356=VECTOR('',#1260,10.);
#357=VECTOR('',#1261,10.);
#358=VECTOR('',#1262,10.);
#359=VECTOR('',#1263,10.);
#360=VECTOR('',#1266,10.);
#361=VECTOR('',#1267,10.);
#362=VECTOR('',#1268,10.);
#363=VECTOR('',#1271,10.);
#364=VECTOR('',#1272,10.);
#365=VECTOR('',#1273,10.);
#366=VECTOR('',#1274,10.);
#367=VECTOR('',#1275,10.);
#368=VECTOR('',#1276,10.);
#369=VECTOR('',#1279,10.);
#370=VECTOR('',#1282,10.);
#371=VECTOR('',#1295,10.);
#372=VECTOR('',#1298,10.);
#373=VECTOR('',#1299,10.);
#374=VECTOR('',#1300,10.);
#375=VECTOR('',#1301,10.);
#376=VECTOR('',#1304,10.);
#377=VECTOR('',#1305,10.);
#378=VECTOR('',#1306,10.);
#379=VECTOR('',#1307,10.);
#380=VECTOR('',#1312,10.);
#381=VECTOR('',#1313,10.);
#382=VECTOR('',#1314,10.);
#383=VECTOR('',#1317,10.);
#384=VECTOR('',#1318,10.);
#385=VECTOR('',#1325,10.);
#386=VECTOR('',#1326,10.);
#387=VECTOR('',#1329,10.);
#388=VECTOR('',#1334,10.);
#389=VECTOR('',#1335,10.);
#390=VECTOR('',#1336,10.);
#391=VECTOR('',#1337,10.);
#392=VECTOR('',#1340,10.);
#393=VECTOR('',#1341,10.);
#394=VECTOR('',#1342,10.);
#395=VECTOR('',#1343,10.);
#396=VECTOR('',#1344,10.);
#397=VECTOR('',#1345,10.);
#398=VECTOR('',#1346,10.);
#399=VECTOR('',#1347,10.);
#400=VECTOR('',#1348,10.);
#401=VECTOR('',#1351,10.);
#402=VECTOR('',#1360,10.);
#403=VECTOR('',#1361,10.);
#404=VECTOR('',#1364,10.);
#405=VECTOR('',#1371,10.);
#406=VECTOR('',#1376,10.);
#407=VECTOR('',#1379,1.25);
#408=VECTOR('',#1384,10.);
#409=VECTOR('',#1387,10.);
#410=VECTOR('',#1390,10.);
#411=VECTOR('',#1403,10.);
#412=VECTOR('',#1404,10.);
#413=VECTOR('',#1407,10.);
#414=VECTOR('',#1410,10.);
#415=VECTOR('',#1411,10.);
#416=VECTOR('',#1412,10.);
#417=VECTOR('',#1425,10.);
#418=VECTOR('',#1426,10.);
#419=VECTOR('',#1429,10.);
#420=VECTOR('',#1432,10.);
#421=VECTOR('',#1435,10.);
#422=VECTOR('',#1438,10.);
#423=VECTOR('',#1443,10.);
#424=VECTOR('',#1444,10.);
#425=VECTOR('',#1449,10.);
#426=VECTOR('',#1450,10.);
#427=VECTOR('',#1455,10.);
#428=VECTOR('',#1460,3.625);
#429=VECTOR('',#1463,1.25);
#430=VECTOR('',#1466,1.25);
#431=VECTOR('',#1471,10.);
#432=VECTOR('',#1476,10.);
#433=VECTOR('',#1481,3.625);
#434=VECTOR('',#1484,1.25);
#435=VECTOR('',#1487,1.25);
#436=VECTOR('',#1490,1.25);
#437=VERTEX_POINT('',#1493);
#438=VERTEX_POINT('',#1494);
#439=VERTEX_POINT('',#1496);
#440=VERTEX_POINT('',#1498);
#441=VERTEX_POINT('',#1502);
#442=VERTEX_POINT('',#1504);
#443=VERTEX_POINT('',#1506);
#444=VERTEX_POINT('',#1508);
#445=VERTEX_POINT('',#1510);
#446=VERTEX_POINT('',#1512);
#447=VERTEX_POINT('',#1514);
#448=VERTEX_POINT('',#1516);
#449=VERTEX_POINT('',#1518);
#450=VERTEX_POINT('',#1520);
#451=VERTEX_POINT('',#1522);
#452=VERTEX_POINT('',#1525);
#453=VERTEX_POINT('',#1527);
#454=VERTEX_POINT('',#1529);
#455=VERTEX_POINT('',#1531);
#456=VERTEX_POINT('',#1534);
#457=VERTEX_POINT('',#1538);
#458=VERTEX_POINT('',#1539);
#459=VERTEX_POINT('',#1541);
#460=VERTEX_POINT('',#1543);
#461=VERTEX_POINT('',#1547);
#462=VERTEX_POINT('',#1552);
#463=VERTEX_POINT('',#1554);
#464=VERTEX_POINT('',#1558);
#465=VERTEX_POINT('',#1560);
#466=VERTEX_POINT('',#1564);
#467=VERTEX_POINT('',#1565);
#468=VERTEX_POINT('',#1572);
#469=VERTEX_POINT('',#1574);
#470=VERTEX_POINT('',#1576);
#471=VERTEX_POINT('',#1580);
#472=VERTEX_POINT('',#1582);
#473=VERTEX_POINT('',#1584);
#474=VERTEX_POINT('',#1586);
#475=VERTEX_POINT('',#1590);
#476=VERTEX_POINT('',#1592);
#477=VERTEX_POINT('',#1596);
#478=VERTEX_POINT('',#1600);
#479=VERTEX_POINT('',#1602);
#480=VERTEX_POINT('',#1604);
#481=VERTEX_POINT('',#1606);
#482=VERTEX_POINT('',#1608);
#483=VERTEX_POINT('',#1610);
#484=VERTEX_POINT('',#1613);
#485=VERTEX_POINT('',#1615);
#486=VERTEX_POINT('',#1617);
#487=VERTEX_POINT('',#1619);
#488=VERTEX_POINT('',#1622);
#489=VERTEX_POINT('',#1626);
#490=VERTEX_POINT('',#1628);
#491=VERTEX_POINT('',#1630);
#492=VERTEX_POINT('',#1634);
#493=VERTEX_POINT('',#1636);
#494=VERTEX_POINT('',#1638);
#495=VERTEX_POINT('',#1642);
#496=VERTEX_POINT('',#1644);
#497=VERTEX_POINT('',#1646);
#498=VERTEX_POINT('',#1648);
#499=VERTEX_POINT('',#1650);
#500=VERTEX_POINT('',#1652);
#501=VERTEX_POINT('',#1654);
#502=VERTEX_POINT('',#1658);
#503=VERTEX_POINT('',#1660);
#504=VERTEX_POINT('',#1662);
#505=VERTEX_POINT('',#1664);
#506=VERTEX_POINT('',#1668);
#507=VERTEX_POINT('',#1669);
#508=VERTEX_POINT('',#1671);
#509=VERTEX_POINT('',#1673);
#510=VERTEX_POINT('',#1675);
#511=VERTEX_POINT('',#1680);
#512=VERTEX_POINT('',#1682);
#513=VERTEX_POINT('',#1685);
#514=VERTEX_POINT('',#1687);
#515=VERTEX_POINT('',#1697);
#516=VERTEX_POINT('',#1698);
#517=VERTEX_POINT('',#1714);
#518=VERTEX_POINT('',#1716);
#519=VERTEX_POINT('',#1718);
#520=VERTEX_POINT('',#1720);
#521=VERTEX_POINT('',#1722);
#522=VERTEX_POINT('',#1724);
#523=VERTEX_POINT('',#1727);
#524=VERTEX_POINT('',#1729);
#525=VERTEX_POINT('',#1731);
#526=VERTEX_POINT('',#1733);
#527=VERTEX_POINT('',#1736);
#528=VERTEX_POINT('',#1738);
#529=VERTEX_POINT('',#1740);
#530=VERTEX_POINT('',#1742);
#531=VERTEX_POINT('',#1744);
#532=VERTEX_POINT('',#1746);
#533=VERTEX_POINT('',#1748);
#534=VERTEX_POINT('',#1750);
#535=VERTEX_POINT('',#1753);
#536=VERTEX_POINT('',#1755);
#537=VERTEX_POINT('',#1757);
#538=VERTEX_POINT('',#1759);
#539=EDGE_CURVE('',#437,#438,#211,.T.);
#540=EDGE_CURVE('',#438,#439,#212,.T.);
#541=EDGE_CURVE('',#439,#440,#213,.T.);
#542=EDGE_CURVE('',#440,#437,#214,.T.);
#543=EDGE_CURVE('',#441,#437,#215,.T.);
#544=EDGE_CURVE('',#441,#442,#216,.T.);
#545=EDGE_CURVE('',#442,#443,#53,.T.);
#546=EDGE_CURVE('',#443,#444,#217,.T.);
#547=EDGE_CURVE('',#445,#444,#54,.T.);
#548=EDGE_CURVE('',#446,#445,#218,.T.);
#549=EDGE_CURVE('',#446,#447,#219,.T.);
#550=EDGE_CURVE('',#448,#447,#220,.T.);
#551=EDGE_CURVE('',#448,#449,#221,.T.);
#552=EDGE_CURVE('',#449,#450,#222,.T.);
#553=EDGE_CURVE('',#451,#450,#223,.T.);
#554=EDGE_CURVE('',#438,#451,#224,.T.);
#555=EDGE_CURVE('',#452,#452,#55,.T.);
#556=EDGE_CURVE('',#453,#453,#56,.T.);
#557=EDGE_CURVE('',#454,#454,#57,.T.);
#558=EDGE_CURVE('',#455,#455,#58,.T.);
#559=EDGE_CURVE('',#440,#456,#225,.T.);
#560=EDGE_CURVE('',#441,#456,#226,.T.);
#561=EDGE_CURVE('',#457,#458,#227,.T.);
#562=EDGE_CURVE('',#458,#459,#228,.T.);
#563=EDGE_CURVE('',#460,#459,#229,.T.);
#564=EDGE_CURVE('',#457,#460,#230,.T.);
#565=EDGE_CURVE('',#451,#461,#231,.T.);
#566=EDGE_CURVE('',#461,#460,#232,.T.);
#567=EDGE_CURVE('',#459,#439,#233,.T.);
#568=EDGE_CURVE('',#462,#461,#234,.T.);
#569=EDGE_CURVE('',#462,#463,#235,.T.);
#570=EDGE_CURVE('',#457,#463,#236,.T.);
#571=EDGE_CURVE('',#450,#464,#237,.T.);
#572=EDGE_CURVE('',#464,#465,#238,.T.);
#573=EDGE_CURVE('',#465,#462,#239,.T.);
#574=EDGE_CURVE('',#466,#467,#18,.F.);
#575=EDGE_CURVE('',#466,#468,#240,.T.);
#576=EDGE_CURVE('',#469,#468,#59,.T.);
#577=EDGE_CURVE('',#469,#470,#241,.T.);
#578=EDGE_CURVE('',#467,#470,#60,.F.);
#579=EDGE_CURVE('',#466,#471,#242,.T.);
#580=EDGE_CURVE('',#471,#472,#243,.T.);
#581=EDGE_CURVE('',#472,#473,#244,.T.);
#582=EDGE_CURVE('',#473,#474,#245,.T.);
#583=EDGE_CURVE('',#474,#468,#246,.T.);
#584=EDGE_CURVE('',#475,#469,#247,.T.);
#585=EDGE_CURVE('',#475,#476,#248,.T.);
#586=EDGE_CURVE('',#476,#470,#249,.T.);
#587=EDGE_CURVE('',#477,#458,#250,.T.);
#588=EDGE_CURVE('',#465,#477,#251,.T.);
#589=EDGE_CURVE('',#475,#464,#252,.T.);
#590=EDGE_CURVE('',#478,#474,#253,.T.);
#591=EDGE_CURVE('',#479,#478,#254,.T.);
#592=EDGE_CURVE('',#480,#479,#255,.T.);
#593=EDGE_CURVE('',#481,#480,#61,.T.);
#594=EDGE_CURVE('',#482,#481,#256,.T.);
#595=EDGE_CURVE('',#483,#482,#62,.T.);
#596=EDGE_CURVE('',#456,#483,#257,.T.);
#597=EDGE_CURVE('',#484,#484,#63,.T.);
#598=EDGE_CURVE('',#485,#485,#64,.T.);
#599=EDGE_CURVE('',#486,#486,#65,.T.);
#600=EDGE_CURVE('',#487,#487,#66,.T.);
#601=EDGE_CURVE('',#488,#471,#67,.T.);
#602=EDGE_CURVE('',#472,#488,#258,.T.);
#603=EDGE_CURVE('',#488,#489,#259,.T.);
#604=EDGE_CURVE('',#490,#489,#260,.T.);
#605=EDGE_CURVE('',#491,#490,#261,.T.);
#606=EDGE_CURVE('',#473,#491,#262,.T.);
#607=EDGE_CURVE('',#449,#492,#263,.T.);
#608=EDGE_CURVE('',#493,#492,#264,.T.);
#609=EDGE_CURVE('',#493,#494,#265,.T.);
#610=EDGE_CURVE('',#494,#476,#266,.T.);
#611=EDGE_CURVE('',#495,#489,#68,.T.);
#612=EDGE_CURVE('',#496,#495,#267,.T.);
#613=EDGE_CURVE('',#497,#496,#268,.T.);
#614=EDGE_CURVE('',#498,#497,#269,.T.);
#615=EDGE_CURVE('',#499,#498,#69,.T.);
#616=EDGE_CURVE('',#500,#499,#270,.T.);
#617=EDGE_CURVE('',#501,#500,#271,.T.);
#618=EDGE_CURVE('',#501,#490,#70,.T.);
#619=EDGE_CURVE('',#448,#502,#71,.T.);
#620=EDGE_CURVE('',#503,#502,#272,.T.);
#621=EDGE_CURVE('',#504,#503,#273,.T.);
#622=EDGE_CURVE('',#505,#504,#72,.T.);
#623=EDGE_CURVE('',#492,#505,#274,.T.);
#624=EDGE_CURVE('',#506,#507,#15,.T.);
#625=EDGE_CURVE('',#507,#508,#275,.T.);
#626=EDGE_CURVE('',#508,#509,#276,.T.);
#627=EDGE_CURVE('',#509,#510,#277,.T.);
#628=EDGE_CURVE('',#510,#506,#278,.T.);
#629=EDGE_CURVE('',#500,#508,#279,.T.);
#630=EDGE_CURVE('',#511,#499,#280,.T.);
#631=EDGE_CURVE('',#512,#511,#281,.T.);
#632=EDGE_CURVE('',#504,#512,#282,.T.);
#633=EDGE_CURVE('',#503,#513,#283,.T.);
#634=EDGE_CURVE('',#514,#513,#284,.T.);
#635=EDGE_CURVE('',#446,#514,#285,.T.);
#636=EDGE_CURVE('',#480,#445,#286,.T.);
#637=EDGE_CURVE('',#479,#509,#287,.T.);
#638=EDGE_CURVE('',#507,#501,#288,.T.);
#639=EDGE_CURVE('',#506,#491,#16,.T.);
#640=EDGE_CURVE('',#515,#516,#17,.T.);
#641=EDGE_CURVE('',#516,#514,#289,.T.);
#642=EDGE_CURVE('',#513,#515,#290,.T.);
#643=EDGE_CURVE('',#515,#502,#291,.T.);
#644=EDGE_CURVE('',#447,#516,#73,.T.);
#645=EDGE_CURVE('',#510,#478,#292,.T.);
#646=EDGE_CURVE('',#444,#481,#293,.T.);
#647=EDGE_CURVE('',#487,#455,#294,.T.);
#648=EDGE_CURVE('',#511,#517,#74,.T.);
#649=EDGE_CURVE('',#517,#518,#295,.T.);
#650=EDGE_CURVE('',#518,#519,#75,.T.);
#651=EDGE_CURVE('',#519,#520,#296,.T.);
#652=EDGE_CURVE('',#520,#521,#76,.T.);
#653=EDGE_CURVE('',#521,#522,#297,.T.);
#654=EDGE_CURVE('',#522,#512,#77,.T.);
#655=EDGE_CURVE('',#523,#523,#78,.T.);
#656=EDGE_CURVE('',#524,#524,#79,.T.);
#657=EDGE_CURVE('',#525,#525,#80,.T.);
#658=EDGE_CURVE('',#526,#526,#81,.T.);
#659=EDGE_CURVE('',#494,#527,#298,.T.);
#660=EDGE_CURVE('',#528,#493,#299,.T.);
#661=EDGE_CURVE('',#529,#528,#82,.T.);
#662=EDGE_CURVE('',#530,#529,#300,.T.);
#663=EDGE_CURVE('',#531,#530,#83,.T.);
#664=EDGE_CURVE('',#532,#531,#301,.T.);
#665=EDGE_CURVE('',#533,#532,#302,.T.);
#666=EDGE_CURVE('',#534,#533,#303,.T.);
#667=EDGE_CURVE('',#527,#534,#84,.T.);
#668=EDGE_CURVE('',#535,#535,#85,.T.);
#669=EDGE_CURVE('',#536,#536,#86,.T.);
#670=EDGE_CURVE('',#537,#537,#87,.T.);
#671=EDGE_CURVE('',#538,#538,#88,.T.);
#672=EDGE_CURVE('',#530,#519,#304,.T.);
#673=EDGE_CURVE('',#518,#531,#305,.T.);
#674=EDGE_CURVE('',#520,#529,#306,.T.);
#675=EDGE_CURVE('',#528,#521,#307,.T.);
#676=EDGE_CURVE('',#505,#522,#308,.T.);
#677=EDGE_CURVE('',#443,#482,#309,.T.);
#678=EDGE_CURVE('',#467,#527,#310,.T.);
#679=EDGE_CURVE('',#534,#495,#311,.T.);
#680=EDGE_CURVE('',#496,#533,#312,.T.);
#681=EDGE_CURVE('',#497,#532,#313,.T.);
#682=EDGE_CURVE('',#498,#517,#314,.T.);
#683=EDGE_CURVE('',#536,#524,#315,.T.);
#684=EDGE_CURVE('',#535,#526,#316,.T.);
#685=EDGE_CURVE('',#538,#525,#317,.T.);
#686=EDGE_CURVE('',#477,#463,#318,.T.);
#687=EDGE_CURVE('',#442,#483,#319,.T.);
#688=EDGE_CURVE('',#486,#454,#320,.T.);
#689=EDGE_CURVE('',#484,#452,#321,.T.);
#690=EDGE_CURVE('',#485,#453,#322,.T.);
#691=EDGE_CURVE('',#523,#537,#323,.T.);
#692=ORIENTED_EDGE('',*,*,#539,.T.);
#693=ORIENTED_EDGE('',*,*,#540,.T.);
#694=ORIENTED_EDGE('',*,*,#541,.T.);
#695=ORIENTED_EDGE('',*,*,#542,.T.);
#696=ORIENTED_EDGE('',*,*,#539,.F.);
#697=ORIENTED_EDGE('',*,*,#543,.F.);
#698=ORIENTED_EDGE('',*,*,#544,.T.);
#699=ORIENTED_EDGE('',*,*,#545,.T.);
#700=ORIENTED_EDGE('',*,*,#546,.T.);
#701=ORIENTED_EDGE('',*,*,#547,.F.);
#702=ORIENTED_EDGE('',*,*,#548,.F.);
#703=ORIENTED_EDGE('',*,*,#549,.T.);
#704=ORIENTED_EDGE('',*,*,#550,.F.);
#705=ORIENTED_EDGE('',*,*,#551,.T.);
#706=ORIENTED_EDGE('',*,*,#552,.T.);
#707=ORIENTED_EDGE('',*,*,#553,.F.);
#708=ORIENTED_EDGE('',*,*,#554,.F.);
#709=ORIENTED_EDGE('',*,*,#555,.T.);
#710=ORIENTED_EDGE('',*,*,#556,.T.);
#711=ORIENTED_EDGE('',*,*,#557,.T.);
#712=ORIENTED_EDGE('',*,*,#558,.T.);
#713=ORIENTED_EDGE('',*,*,#542,.F.);
#714=ORIENTED_EDGE('',*,*,#559,.T.);
#715=ORIENTED_EDGE('',*,*,#560,.F.);
#716=ORIENTED_EDGE('',*,*,#543,.T.);
#717=ORIENTED_EDGE('',*,*,#561,.T.);
#718=ORIENTED_EDGE('',*,*,#562,.T.);
#719=ORIENTED_EDGE('',*,*,#563,.F.);
#720=ORIENTED_EDGE('',*,*,#564,.F.);
#721=ORIENTED_EDGE('',*,*,#540,.F.);
#722=ORIENTED_EDGE('',*,*,#554,.T.);
#723=ORIENTED_EDGE('',*,*,#565,.T.);
#724=ORIENTED_EDGE('',*,*,#566,.T.);
#725=ORIENTED_EDGE('',*,*,#563,.T.);
#726=ORIENTED_EDGE('',*,*,#567,.T.);
#727=ORIENTED_EDGE('',*,*,#568,.F.);
#728=ORIENTED_EDGE('',*,*,#569,.T.);
#729=ORIENTED_EDGE('',*,*,#570,.F.);
#730=ORIENTED_EDGE('',*,*,#564,.T.);
#731=ORIENTED_EDGE('',*,*,#566,.F.);
#732=ORIENTED_EDGE('',*,*,#553,.T.);
#733=ORIENTED_EDGE('',*,*,#571,.T.);
#734=ORIENTED_EDGE('',*,*,#572,.T.);
#735=ORIENTED_EDGE('',*,*,#573,.T.);
#736=ORIENTED_EDGE('',*,*,#568,.T.);
#737=ORIENTED_EDGE('',*,*,#565,.F.);
#738=ORIENTED_EDGE('',*,*,#574,.F.);
#739=ORIENTED_EDGE('',*,*,#575,.T.);
#740=ORIENTED_EDGE('',*,*,#576,.F.);
#741=ORIENTED_EDGE('',*,*,#577,.T.);
#742=ORIENTED_EDGE('',*,*,#578,.F.);
#743=ORIENTED_EDGE('',*,*,#575,.F.);
#744=ORIENTED_EDGE('',*,*,#579,.T.);
#745=ORIENTED_EDGE('',*,*,#580,.T.);
#746=ORIENTED_EDGE('',*,*,#581,.T.);
#747=ORIENTED_EDGE('',*,*,#582,.T.);
#748=ORIENTED_EDGE('',*,*,#583,.T.);
#749=ORIENTED_EDGE('',*,*,#577,.F.);
#750=ORIENTED_EDGE('',*,*,#584,.F.);
#751=ORIENTED_EDGE('',*,*,#585,.T.);
#752=ORIENTED_EDGE('',*,*,#586,.T.);
#753=ORIENTED_EDGE('',*,*,#541,.F.);
#754=ORIENTED_EDGE('',*,*,#567,.F.);
#755=ORIENTED_EDGE('',*,*,#562,.F.);
#756=ORIENTED_EDGE('',*,*,#587,.F.);
#757=ORIENTED_EDGE('',*,*,#588,.F.);
#758=ORIENTED_EDGE('',*,*,#572,.F.);
#759=ORIENTED_EDGE('',*,*,#589,.F.);
#760=ORIENTED_EDGE('',*,*,#584,.T.);
#761=ORIENTED_EDGE('',*,*,#576,.T.);
#762=ORIENTED_EDGE('',*,*,#583,.F.);
#763=ORIENTED_EDGE('',*,*,#590,.F.);
#764=ORIENTED_EDGE('',*,*,#591,.F.);
#765=ORIENTED_EDGE('',*,*,#592,.F.);
#766=ORIENTED_EDGE('',*,*,#593,.F.);
#767=ORIENTED_EDGE('',*,*,#594,.F.);
#768=ORIENTED_EDGE('',*,*,#595,.F.);
#769=ORIENTED_EDGE('',*,*,#596,.F.);
#770=ORIENTED_EDGE('',*,*,#559,.F.);
#771=ORIENTED_EDGE('',*,*,#597,.F.);
#772=ORIENTED_EDGE('',*,*,#598,.F.);
#773=ORIENTED_EDGE('',*,*,#599,.F.);
#774=ORIENTED_EDGE('',*,*,#600,.F.);
#775=ORIENTED_EDGE('',*,*,#601,.F.);
#776=ORIENTED_EDGE('',*,*,#602,.F.);
#777=ORIENTED_EDGE('',*,*,#580,.F.);
#778=ORIENTED_EDGE('',*,*,#602,.T.);
#779=ORIENTED_EDGE('',*,*,#603,.T.);
#780=ORIENTED_EDGE('',*,*,#604,.F.);
#781=ORIENTED_EDGE('',*,*,#605,.F.);
#782=ORIENTED_EDGE('',*,*,#606,.F.);
#783=ORIENTED_EDGE('',*,*,#581,.F.);
#784=ORIENTED_EDGE('',*,*,#589,.T.);
#785=ORIENTED_EDGE('',*,*,#571,.F.);
#786=ORIENTED_EDGE('',*,*,#552,.F.);
#787=ORIENTED_EDGE('',*,*,#607,.T.);
#788=ORIENTED_EDGE('',*,*,#608,.F.);
#789=ORIENTED_EDGE('',*,*,#609,.T.);
#790=ORIENTED_EDGE('',*,*,#610,.T.);
#791=ORIENTED_EDGE('',*,*,#585,.F.);
#792=ORIENTED_EDGE('',*,*,#604,.T.);
#793=ORIENTED_EDGE('',*,*,#611,.F.);
#794=ORIENTED_EDGE('',*,*,#612,.F.);
#795=ORIENTED_EDGE('',*,*,#613,.F.);
#796=ORIENTED_EDGE('',*,*,#614,.F.);
#797=ORIENTED_EDGE('',*,*,#615,.F.);
#798=ORIENTED_EDGE('',*,*,#616,.F.);
#799=ORIENTED_EDGE('',*,*,#617,.F.);
#800=ORIENTED_EDGE('',*,*,#618,.T.);
#801=ORIENTED_EDGE('',*,*,#607,.F.);
#802=ORIENTED_EDGE('',*,*,#551,.F.);
#803=ORIENTED_EDGE('',*,*,#619,.T.);
#804=ORIENTED_EDGE('',*,*,#620,.F.);
#805=ORIENTED_EDGE('',*,*,#621,.F.);
#806=ORIENTED_EDGE('',*,*,#622,.F.);
#807=ORIENTED_EDGE('',*,*,#623,.F.);
#808=ORIENTED_EDGE('',*,*,#624,.T.);
#809=ORIENTED_EDGE('',*,*,#625,.T.);
#810=ORIENTED_EDGE('',*,*,#626,.T.);
#811=ORIENTED_EDGE('',*,*,#627,.T.);
#812=ORIENTED_EDGE('',*,*,#628,.T.);
#813=ORIENTED_EDGE('',*,*,#626,.F.);
#814=ORIENTED_EDGE('',*,*,#629,.F.);
#815=ORIENTED_EDGE('',*,*,#616,.T.);
#816=ORIENTED_EDGE('',*,*,#630,.F.);
#817=ORIENTED_EDGE('',*,*,#631,.F.);
#818=ORIENTED_EDGE('',*,*,#632,.F.);
#819=ORIENTED_EDGE('',*,*,#621,.T.);
#820=ORIENTED_EDGE('',*,*,#633,.T.);
#821=ORIENTED_EDGE('',*,*,#634,.F.);
#822=ORIENTED_EDGE('',*,*,#635,.F.);
#823=ORIENTED_EDGE('',*,*,#548,.T.);
#824=ORIENTED_EDGE('',*,*,#636,.F.);
#825=ORIENTED_EDGE('',*,*,#592,.T.);
#826=ORIENTED_EDGE('',*,*,#637,.T.);
#827=ORIENTED_EDGE('',*,*,#625,.F.);
#828=ORIENTED_EDGE('',*,*,#638,.T.);
#829=ORIENTED_EDGE('',*,*,#617,.T.);
#830=ORIENTED_EDGE('',*,*,#629,.T.);
#831=ORIENTED_EDGE('',*,*,#624,.F.);
#832=ORIENTED_EDGE('',*,*,#639,.T.);
#833=ORIENTED_EDGE('',*,*,#605,.T.);
#834=ORIENTED_EDGE('',*,*,#618,.F.);
#835=ORIENTED_EDGE('',*,*,#638,.F.);
#836=ORIENTED_EDGE('',*,*,#640,.T.);
#837=ORIENTED_EDGE('',*,*,#641,.T.);
#838=ORIENTED_EDGE('',*,*,#634,.T.);
#839=ORIENTED_EDGE('',*,*,#642,.T.);
#840=ORIENTED_EDGE('',*,*,#642,.F.);
#841=ORIENTED_EDGE('',*,*,#633,.F.);
#842=ORIENTED_EDGE('',*,*,#620,.T.);
#843=ORIENTED_EDGE('',*,*,#643,.F.);
#844=ORIENTED_EDGE('',*,*,#640,.F.);
#845=ORIENTED_EDGE('',*,*,#643,.T.);
#846=ORIENTED_EDGE('',*,*,#619,.F.);
#847=ORIENTED_EDGE('',*,*,#550,.T.);
#848=ORIENTED_EDGE('',*,*,#644,.T.);
#849=ORIENTED_EDGE('',*,*,#627,.F.);
#850=ORIENTED_EDGE('',*,*,#637,.F.);
#851=ORIENTED_EDGE('',*,*,#591,.T.);
#852=ORIENTED_EDGE('',*,*,#645,.F.);
#853=ORIENTED_EDGE('',*,*,#641,.F.);
#854=ORIENTED_EDGE('',*,*,#644,.F.);
#855=ORIENTED_EDGE('',*,*,#549,.F.);
#856=ORIENTED_EDGE('',*,*,#635,.T.);
#857=ORIENTED_EDGE('',*,*,#547,.T.);
#858=ORIENTED_EDGE('',*,*,#646,.T.);
#859=ORIENTED_EDGE('',*,*,#593,.T.);
#860=ORIENTED_EDGE('',*,*,#636,.T.);
#861=ORIENTED_EDGE('',*,*,#600,.T.);
#862=ORIENTED_EDGE('',*,*,#647,.T.);
#863=ORIENTED_EDGE('',*,*,#558,.F.);
#864=ORIENTED_EDGE('',*,*,#647,.F.);
#865=ORIENTED_EDGE('',*,*,#648,.T.);
#866=ORIENTED_EDGE('',*,*,#649,.T.);
#867=ORIENTED_EDGE('',*,*,#650,.T.);
#868=ORIENTED_EDGE('',*,*,#651,.T.);
#869=ORIENTED_EDGE('',*,*,#652,.T.);
#870=ORIENTED_EDGE('',*,*,#653,.T.);
#871=ORIENTED_EDGE('',*,*,#654,.T.);
#872=ORIENTED_EDGE('',*,*,#631,.T.);
#873=ORIENTED_EDGE('',*,*,#655,.T.);
#874=ORIENTED_EDGE('',*,*,#656,.T.);
#875=ORIENTED_EDGE('',*,*,#657,.T.);
#876=ORIENTED_EDGE('',*,*,#658,.T.);
#877=ORIENTED_EDGE('',*,*,#659,.F.);
#878=ORIENTED_EDGE('',*,*,#609,.F.);
#879=ORIENTED_EDGE('',*,*,#660,.F.);
#880=ORIENTED_EDGE('',*,*,#661,.F.);
#881=ORIENTED_EDGE('',*,*,#662,.F.);
#882=ORIENTED_EDGE('',*,*,#663,.F.);
#883=ORIENTED_EDGE('',*,*,#664,.F.);
#884=ORIENTED_EDGE('',*,*,#665,.F.);
#885=ORIENTED_EDGE('',*,*,#666,.F.);
#886=ORIENTED_EDGE('',*,*,#667,.F.);
#887=ORIENTED_EDGE('',*,*,#668,.F.);
#888=ORIENTED_EDGE('',*,*,#669,.F.);
#889=ORIENTED_EDGE('',*,*,#670,.F.);
#890=ORIENTED_EDGE('',*,*,#671,.F.);
#891=ORIENTED_EDGE('',*,*,#663,.T.);
#892=ORIENTED_EDGE('',*,*,#672,.T.);
#893=ORIENTED_EDGE('',*,*,#650,.F.);
#894=ORIENTED_EDGE('',*,*,#673,.T.);
#895=ORIENTED_EDGE('',*,*,#662,.T.);
#896=ORIENTED_EDGE('',*,*,#674,.F.);
#897=ORIENTED_EDGE('',*,*,#651,.F.);
#898=ORIENTED_EDGE('',*,*,#672,.F.);
#899=ORIENTED_EDGE('',*,*,#661,.T.);
#900=ORIENTED_EDGE('',*,*,#675,.T.);
#901=ORIENTED_EDGE('',*,*,#652,.F.);
#902=ORIENTED_EDGE('',*,*,#674,.T.);
#903=ORIENTED_EDGE('',*,*,#660,.T.);
#904=ORIENTED_EDGE('',*,*,#608,.T.);
#905=ORIENTED_EDGE('',*,*,#623,.T.);
#906=ORIENTED_EDGE('',*,*,#676,.T.);
#907=ORIENTED_EDGE('',*,*,#653,.F.);
#908=ORIENTED_EDGE('',*,*,#675,.F.);
#909=ORIENTED_EDGE('',*,*,#646,.F.);
#910=ORIENTED_EDGE('',*,*,#546,.F.);
#911=ORIENTED_EDGE('',*,*,#677,.T.);
#912=ORIENTED_EDGE('',*,*,#594,.T.);
#913=ORIENTED_EDGE('',*,*,#628,.F.);
#914=ORIENTED_EDGE('',*,*,#645,.T.);
#915=ORIENTED_EDGE('',*,*,#590,.T.);
#916=ORIENTED_EDGE('',*,*,#582,.F.);
#917=ORIENTED_EDGE('',*,*,#606,.T.);
#918=ORIENTED_EDGE('',*,*,#639,.F.);
#919=ORIENTED_EDGE('',*,*,#611,.T.);
#920=ORIENTED_EDGE('',*,*,#603,.F.);
#921=ORIENTED_EDGE('',*,*,#601,.T.);
#922=ORIENTED_EDGE('',*,*,#579,.F.);
#923=ORIENTED_EDGE('',*,*,#574,.T.);
#924=ORIENTED_EDGE('',*,*,#678,.T.);
#925=ORIENTED_EDGE('',*,*,#667,.T.);
#926=ORIENTED_EDGE('',*,*,#679,.T.);
#927=ORIENTED_EDGE('',*,*,#610,.F.);
#928=ORIENTED_EDGE('',*,*,#659,.T.);
#929=ORIENTED_EDGE('',*,*,#678,.F.);
#930=ORIENTED_EDGE('',*,*,#578,.T.);
#931=ORIENTED_EDGE('',*,*,#586,.F.);
#932=ORIENTED_EDGE('',*,*,#613,.T.);
#933=ORIENTED_EDGE('',*,*,#680,.T.);
#934=ORIENTED_EDGE('',*,*,#665,.T.);
#935=ORIENTED_EDGE('',*,*,#681,.F.);
#936=ORIENTED_EDGE('',*,*,#612,.T.);
#937=ORIENTED_EDGE('',*,*,#679,.F.);
#938=ORIENTED_EDGE('',*,*,#666,.T.);
#939=ORIENTED_EDGE('',*,*,#680,.F.);
#940=ORIENTED_EDGE('',*,*,#615,.T.);
#941=ORIENTED_EDGE('',*,*,#682,.T.);
#942=ORIENTED_EDGE('',*,*,#648,.F.);
#943=ORIENTED_EDGE('',*,*,#630,.T.);
#944=ORIENTED_EDGE('',*,*,#664,.T.);
#945=ORIENTED_EDGE('',*,*,#673,.F.);
#946=ORIENTED_EDGE('',*,*,#649,.F.);
#947=ORIENTED_EDGE('',*,*,#682,.F.);
#948=ORIENTED_EDGE('',*,*,#614,.T.);
#949=ORIENTED_EDGE('',*,*,#681,.T.);
#950=ORIENTED_EDGE('',*,*,#669,.T.);
#951=ORIENTED_EDGE('',*,*,#683,.T.);
#952=ORIENTED_EDGE('',*,*,#656,.F.);
#953=ORIENTED_EDGE('',*,*,#683,.F.);
#954=ORIENTED_EDGE('',*,*,#668,.T.);
#955=ORIENTED_EDGE('',*,*,#684,.T.);
#956=ORIENTED_EDGE('',*,*,#658,.F.);
#957=ORIENTED_EDGE('',*,*,#684,.F.);
#958=ORIENTED_EDGE('',*,*,#671,.T.);
#959=ORIENTED_EDGE('',*,*,#685,.T.);
#960=ORIENTED_EDGE('',*,*,#657,.F.);
#961=ORIENTED_EDGE('',*,*,#685,.F.);
#962=ORIENTED_EDGE('',*,*,#622,.T.);
#963=ORIENTED_EDGE('',*,*,#632,.T.);
#964=ORIENTED_EDGE('',*,*,#654,.F.);
#965=ORIENTED_EDGE('',*,*,#676,.F.);
#966=ORIENTED_EDGE('',*,*,#570,.T.);
#967=ORIENTED_EDGE('',*,*,#686,.F.);
#968=ORIENTED_EDGE('',*,*,#587,.T.);
#969=ORIENTED_EDGE('',*,*,#561,.F.);
#970=ORIENTED_EDGE('',*,*,#588,.T.);
#971=ORIENTED_EDGE('',*,*,#686,.T.);
#972=ORIENTED_EDGE('',*,*,#569,.F.);
#973=ORIENTED_EDGE('',*,*,#573,.F.);
#974=ORIENTED_EDGE('',*,*,#596,.T.);
#975=ORIENTED_EDGE('',*,*,#687,.F.);
#976=ORIENTED_EDGE('',*,*,#544,.F.);
#977=ORIENTED_EDGE('',*,*,#560,.T.);
#978=ORIENTED_EDGE('',*,*,#595,.T.);
#979=ORIENTED_EDGE('',*,*,#677,.F.);
#980=ORIENTED_EDGE('',*,*,#545,.F.);
#981=ORIENTED_EDGE('',*,*,#687,.T.);
#982=ORIENTED_EDGE('',*,*,#599,.T.);
#983=ORIENTED_EDGE('',*,*,#688,.T.);
#984=ORIENTED_EDGE('',*,*,#557,.F.);
#985=ORIENTED_EDGE('',*,*,#688,.F.);
#986=ORIENTED_EDGE('',*,*,#597,.T.);
#987=ORIENTED_EDGE('',*,*,#689,.T.);
#988=ORIENTED_EDGE('',*,*,#555,.F.);
#989=ORIENTED_EDGE('',*,*,#689,.F.);
#990=ORIENTED_EDGE('',*,*,#598,.T.);
#991=ORIENTED_EDGE('',*,*,#690,.T.);
#992=ORIENTED_EDGE('',*,*,#556,.F.);
#993=ORIENTED_EDGE('',*,*,#690,.F.);
#994=ORIENTED_EDGE('',*,*,#655,.F.);
#995=ORIENTED_EDGE('',*,*,#691,.T.);
#996=ORIENTED_EDGE('',*,*,#670,.T.);
#997=ORIENTED_EDGE('',*,*,#691,.F.);
#998=PLANE('',#1100);
#999=PLANE('',#1101);
#1000=PLANE('',#1108);
#1001=PLANE('',#1109);
#1002=PLANE('',#1110);
#1003=PLANE('',#1111);
#1004=PLANE('',#1112);
#1005=PLANE('',#1116);
#1006=PLANE('',#1117);
#1007=PLANE('',#1118);
#1008=PLANE('',#1125);
#1009=PLANE('',#1127);
#1010=PLANE('',#1128);
#1011=PLANE('',#1129);
#1012=PLANE('',#1133);
#1013=PLANE('',#1136);
#1014=PLANE('',#1138);
#1015=PLANE('',#1139);
#1016=PLANE('',#1142);
#1017=PLANE('',#1144);
#1018=PLANE('',#1147);
#1019=PLANE('',#1148);
#1020=PLANE('',#1151);
#1021=PLANE('',#1160);
#1022=PLANE('',#1169);
#1023=PLANE('',#1171);
#1024=PLANE('',#1172);
#1025=PLANE('',#1173);
#1026=PLANE('',#1175);
#1027=PLANE('',#1176);
#1028=PLANE('',#1177);
#1029=PLANE('',#1179);
#1030=PLANE('',#1184);
#1031=PLANE('',#1185);
#1032=PLANE('',#1186);
#1033=ADVANCED_FACE('',(#89),#998,.T.);
#1034=ADVANCED_FACE('',(#90,#37,#38,#39,#40),#999,.T.);
#1035=ADVANCED_FACE('',(#91),#1000,.T.);
#1036=ADVANCED_FACE('',(#92),#1001,.T.);
#1037=ADVANCED_FACE('',(#93),#1002,.T.);
#1038=ADVANCED_FACE('',(#94),#1003,.T.);
#1039=ADVANCED_FACE('',(#95),#1004,.T.);
#1040=ADVANCED_FACE('',(#96),#19,.F.);
#1041=ADVANCED_FACE('',(#97),#1005,.F.);
#1042=ADVANCED_FACE('',(#98),#1006,.F.);
#1043=ADVANCED_FACE('',(#99,#41,#42,#43,#44),#1007,.T.);
#1044=ADVANCED_FACE('',(#100),#1008,.T.);
#1045=ADVANCED_FACE('',(#101),#1009,.T.);
#1046=ADVANCED_FACE('',(#102),#1010,.F.);
#1047=ADVANCED_FACE('',(#103),#1011,.F.);
#1048=ADVANCED_FACE('',(#104),#1012,.F.);
#1049=ADVANCED_FACE('',(#105),#1013,.T.);
#1050=ADVANCED_FACE('',(#106),#1014,.T.);
#1051=ADVANCED_FACE('',(#107),#1015,.F.);
#1052=ADVANCED_FACE('',(#108),#20,.F.);
#1053=ADVANCED_FACE('',(#109),#1016,.T.);
#1054=ADVANCED_FACE('',(#110),#1017,.F.);
#1055=ADVANCED_FACE('',(#111),#21,.F.);
#1056=ADVANCED_FACE('',(#112),#1018,.T.);
#1057=ADVANCED_FACE('',(#113),#1019,.T.);
#1058=ADVANCED_FACE('',(#114),#22,.T.);
#1059=ADVANCED_FACE('',(#115),#23,.F.);
#1060=ADVANCED_FACE('',(#116,#45,#46,#47,#48),#1020,.F.);
#1061=ADVANCED_FACE('',(#117,#49,#50,#51,#52),#1021,.T.);
#1062=ADVANCED_FACE('',(#118),#24,.T.);
#1063=ADVANCED_FACE('',(#119),#1022,.F.);
#1064=ADVANCED_FACE('',(#120),#25,.T.);
#1065=ADVANCED_FACE('',(#121),#1023,.T.);
#1066=ADVANCED_FACE('',(#122),#1024,.T.);
#1067=ADVANCED_FACE('',(#123),#1025,.F.);
#1068=ADVANCED_FACE('',(#124),#26,.F.);
#1069=ADVANCED_FACE('',(#125),#1026,.F.);
#1070=ADVANCED_FACE('',(#126),#1027,.F.);
#1071=ADVANCED_FACE('',(#127),#1028,.F.);
#1072=ADVANCED_FACE('',(#128),#27,.T.);
#1073=ADVANCED_FACE('',(#129),#1029,.F.);
#1074=ADVANCED_FACE('',(#130),#28,.F.);
#1075=ADVANCED_FACE('',(#131),#29,.F.);
#1076=ADVANCED_FACE('',(#132),#30,.F.);
#1077=ADVANCED_FACE('',(#133),#31,.T.);
#1078=ADVANCED_FACE('',(#134),#1030,.F.);
#1079=ADVANCED_FACE('',(#135),#1031,.F.);
#1080=ADVANCED_FACE('',(#136),#1032,.F.);
#1081=ADVANCED_FACE('',(#137),#32,.T.);
#1082=ADVANCED_FACE('',(#138),#33,.F.);
#1083=ADVANCED_FACE('',(#139),#34,.F.);
#1084=ADVANCED_FACE('',(#140),#35,.F.);
#1085=ADVANCED_FACE('',(#141),#36,.F.);
#1086=CLOSED_SHELL('',(#1033,#1034,#1035,#1036,#1037,#1038,#1039,#1040,
#1041,#1042,#1043,#1044,#1045,#1046,#1047,#1048,#1049,#1050,#1051,#1052,
#1053,#1054,#1055,#1056,#1057,#1058,#1059,#1060,#1061,#1062,#1063,#1064,
#1065,#1066,#1067,#1068,#1069,#1070,#1071,#1072,#1073,#1074,#1075,#1076,
#1077,#1078,#1079,#1080,#1081,#1082,#1083,#1084,#1085));
#1087=DERIVED_UNIT_ELEMENT(#1089,1.);
#1088=DERIVED_UNIT_ELEMENT(#1810,-3.);
#1089=(
MASS_UNIT()
NAMED_UNIT(*)
SI_UNIT(.KILO.,.GRAM.)
);
#1090=DERIVED_UNIT((#1087,#1088));
#1091=MEASURE_REPRESENTATION_ITEM('density measure',
POSITIVE_RATIO_MEASURE(7850.),#1090);
#1092=PROPERTY_DEFINITION_REPRESENTATION(#1097,#1094);
#1093=PROPERTY_DEFINITION_REPRESENTATION(#1098,#1095);
#1094=REPRESENTATION('material name',(#1096),#1807);
#1095=REPRESENTATION('density',(#1091),#1807);
#1096=DESCRIPTIVE_REPRESENTATION_ITEM('\X2\92FC\X0\','\X2\92FC\X0\');
#1097=PROPERTY_DEFINITION('material property','material name',#1817);
#1098=PROPERTY_DEFINITION('material property','density of part',#1817);
#1099=AXIS2_PLACEMENT_3D('',#1491,#1192,#1193);
#1100=AXIS2_PLACEMENT_3D('',#1492,#1194,#1195);
#1101=AXIS2_PLACEMENT_3D('',#1501,#1200,#1201);
#1102=AXIS2_PLACEMENT_3D('',#1507,#1204,#1205);
#1103=AXIS2_PLACEMENT_3D('',#1511,#1207,#1208);
#1104=AXIS2_PLACEMENT_3D('',#1526,#1216,#1217);
#1105=AXIS2_PLACEMENT_3D('',#1528,#1218,#1219);
#1106=AXIS2_PLACEMENT_3D('',#1530,#1220,#1221);
#1107=AXIS2_PLACEMENT_3D('',#1532,#1222,#1223);
#1108=AXIS2_PLACEMENT_3D('',#1533,#1224,#1225);
#1109=AXIS2_PLACEMENT_3D('',#1537,#1228,#1229);
#1110=AXIS2_PLACEMENT_3D('',#1546,#1234,#1235);
#1111=AXIS2_PLACEMENT_3D('',#1551,#1239,#1240);
#1112=AXIS2_PLACEMENT_3D('',#1557,#1244,#1245);
#1113=AXIS2_PLACEMENT_3D('',#1563,#1249,#1250);
#1114=AXIS2_PLACEMENT_3D('',#1575,#1252,#1253);
#1115=AXIS2_PLACEMENT_3D('',#1578,#1255,#1256);
#1116=AXIS2_PLACEMENT_3D('',#1579,#1257,#1258);
#1117=AXIS2_PLACEMENT_3D('',#1589,#1264,#1265);
#1118=AXIS2_PLACEMENT_3D('',#1595,#1269,#1270);
#1119=AXIS2_PLACEMENT_3D('',#1607,#1277,#1278);
#1120=AXIS2_PLACEMENT_3D('',#1611,#1280,#1281);
#1121=AXIS2_PLACEMENT_3D('',#1614,#1283,#1284);
#1122=AXIS2_PLACEMENT_3D('',#1616,#1285,#1286);
#1123=AXIS2_PLACEMENT_3D('',#1618,#1287,#1288);
#1124=AXIS2_PLACEMENT_3D('',#1620,#1289,#1290);
#1125=AXIS2_PLACEMENT_3D('',#1621,#1291,#1292);
#1126=AXIS2_PLACEMENT_3D('',#1623,#1293,#1294);
#1127=AXIS2_PLACEMENT_3D('',#1625,#1296,#1297);
#1128=AXIS2_PLACEMENT_3D('',#1633,#1302,#1303);
#1129=AXIS2_PLACEMENT_3D('',#1641,#1308,#1309);
#1130=AXIS2_PLACEMENT_3D('',#1643,#1310,#1311);
#1131=AXIS2_PLACEMENT_3D('',#1651,#1315,#1316);
#1132=AXIS2_PLACEMENT_3D('',#1656,#1319,#1320);
#1133=AXIS2_PLACEMENT_3D('',#1657,#1321,#1322);
#1134=AXIS2_PLACEMENT_3D('',#1659,#1323,#1324);
#1135=AXIS2_PLACEMENT_3D('',#1665,#1327,#1328);
#1136=AXIS2_PLACEMENT_3D('',#1667,#1330,#1331);
#1137=AXIS2_PLACEMENT_3D('',#1670,#1332,#1333);
#1138=AXIS2_PLACEMENT_3D('',#1678,#1338,#1339);
#1139=AXIS2_PLACEMENT_3D('',#1692,#1349,#1350);
#1140=AXIS2_PLACEMENT_3D('',#1694,#1352,#1353);
#1141=AXIS2_PLACEMENT_3D('',#1695,#1354,#1355);
#1142=AXIS2_PLACEMENT_3D('',#1696,#1356,#1357);
#1143=AXIS2_PLACEMENT_3D('',#1699,#1358,#1359);
#1144=AXIS2_PLACEMENT_3D('',#1702,#1362,#1363);
#1145=AXIS2_PLACEMENT_3D('',#1704,#1365,#1366);
#1146=AXIS2_PLACEMENT_3D('',#1705,#1367,#1368);
#1147=AXIS2_PLACEMENT_3D('',#1706,#1369,#1370);
#1148=AXIS2_PLACEMENT_3D('',#1708,#1372,#1373);
#1149=AXIS2_PLACEMENT_3D('',#1709,#1374,#1375);
#1150=AXIS2_PLACEMENT_3D('',#1711,#1377,#1378);
#1151=AXIS2_PLACEMENT_3D('',#1713,#1380,#1381);
#1152=AXIS2_PLACEMENT_3D('',#1715,#1382,#1383);
#1153=AXIS2_PLACEMENT_3D('',#1719,#1385,#1386);
#1154=AXIS2_PLACEMENT_3D('',#1723,#1388,#1389);
#1155=AXIS2_PLACEMENT_3D('',#1726,#1391,#1392);
#1156=AXIS2_PLACEMENT_3D('',#1728,#1393,#1394);
#1157=AXIS2_PLACEMENT_3D('',#1730,#1395,#1396);
#1158=AXIS2_PLACEMENT_3D('',#1732,#1397,#1398);
#1159=AXIS2_PLACEMENT_3D('',#1734,#1399,#1400);
#1160=AXIS2_PLACEMENT_3D('',#1735,#1401,#1402);
#1161=AXIS2_PLACEMENT_3D('',#1741,#1405,#1406);
#1162=AXIS2_PLACEMENT_3D('',#1745,#1408,#1409);
#1163=AXIS2_PLACEMENT_3D('',#1752,#1413,#1414);
#1164=AXIS2_PLACEMENT_3D('',#1754,#1415,#1416);
#1165=AXIS2_PLACEMENT_3D('',#1756,#1417,#1418);
#1166=AXIS2_PLACEMENT_3D('',#1758,#1419,#1420);
#1167=AXIS2_PLACEMENT_3D('',#1760,#1421,#1422);
#1168=AXIS2_PLACEMENT_3D('',#1761,#1423,#1424);
#1169=AXIS2_PLACEMENT_3D('',#1764,#1427,#1428);
#1170=AXIS2_PLACEMENT_3D('',#1766,#1430,#1431);
#1171=AXIS2_PLACEMENT_3D('',#1768,#1433,#1434);
#1172=AXIS2_PLACEMENT_3D('',#1770,#1436,#1437);
#1173=AXIS2_PLACEMENT_3D('',#1772,#1439,#1440);
#1174=AXIS2_PLACEMENT_3D('',#1773,#1441,#1442);
#1175=AXIS2_PLACEMENT_3D('',#1776,#1445,#1446);
#1176=AXIS2_PLACEMENT_3D('',#1777,#1447,#1448);
#1177=AXIS2_PLACEMENT_3D('',#1780,#1451,#1452);
#1178=AXIS2_PLACEMENT_3D('',#1781,#1453,#1454);
#1179=AXIS2_PLACEMENT_3D('',#1783,#1456,#1457);
#1180=AXIS2_PLACEMENT_3D('',#1784,#1458,#1459);
#1181=AXIS2_PLACEMENT_3D('',#1786,#1461,#1462);
#1182=AXIS2_PLACEMENT_3D('',#1788,#1464,#1465);
#1183=AXIS2_PLACEMENT_3D('',#1790,#1467,#1468);
#1184=AXIS2_PLACEMENT_3D('',#1791,#1469,#1470);
#1185=AXIS2_PLACEMENT_3D('',#1793,#1472,#1473);
#1186=AXIS2_PLACEMENT_3D('',#1794,#1474,#1475);
#1187=AXIS2_PLACEMENT_3D('',#1796,#1477,#1478);
#1188=AXIS2_PLACEMENT_3D('',#1797,#1479,#1480);
#1189=AXIS2_PLACEMENT_3D('',#1799,#1482,#1483);
#1190=AXIS2_PLACEMENT_3D('',#1801,#1485,#1486);
#1191=AXIS2_PLACEMENT_3D('',#1803,#1488,#1489);
#1192=DIRECTION('axis',(0.,0.,1.));
#1193=DIRECTION('refdir',(1.,0.,0.));
#1194=DIRECTION('center_axis',(-0.496138938356835,3.33972148499765E-62,
-0.868243142124459));
#1195=DIRECTION('ref_axis',(-0.868243142124459,0.,0.496138938356835));
#1196=DIRECTION('',(-0.868243142124459,-6.88531090959604E-17,0.496138938356835));
#1197=DIRECTION('',(0.,1.,3.84652791708307E-62));
#1198=DIRECTION('',(0.868243142124459,6.88531090959604E-17,-0.496138938356835));
#1199=DIRECTION('',(0.,-1.,-3.84652791708307E-62));
#1200=DIRECTION('center_axis',(2.69023637124688E-32,-1.,-1.38777878075838E-16));
#1201=DIRECTION('ref_axis',(-9.66231184065823E-15,-1.38777878075838E-16,
1.));
#1202=DIRECTION('',(-1.,0.,0.));
#1203=DIRECTION('',(3.87703920617199E-16,-2.02018823571976E-32,-1.));
#1204=DIRECTION('center_axis',(-5.21064690938321E-17,-1.,0.));
#1205=DIRECTION('ref_axis',(-0.707106781186548,0.,-0.707106781186547));
#1206=DIRECTION('',(1.,-5.21064690938321E-17,0.));
#1207=DIRECTION('center_axis',(5.21064690938319E-17,1.,2.35922392732846E-16));
#1208=DIRECTION('ref_axis',(0.707106781186549,0.,-0.707106781186546));
#1209=DIRECTION('',(3.87703920617199E-16,2.35922392732846E-16,-1.));
#1210=DIRECTION('',(-1.,5.21064690938319E-17,0.));
#1211=DIRECTION('',(-4.28960645980763E-11,2.35922392735081E-16,-1.));
#1212=DIRECTION('',(-1.,-2.69023637124688E-32,0.));
#1213=DIRECTION('',(0.,0.,-1.));
#1214=DIRECTION('',(1.,-5.21064690938319E-17,0.));
#1215=DIRECTION('',(0.,-1.38777878075838E-16,1.));
#1216=DIRECTION('center_axis',(5.21064690938319E-17,1.,2.35922392732846E-16));
#1217=DIRECTION('ref_axis',(5.21064690938319E-17,2.22044604925031E-16,-1.));
#1218=DIRECTION('center_axis',(5.21064690938319E-17,1.,2.35922392732846E-16));
#1219=DIRECTION('ref_axis',(5.21064690938319E-17,2.22044604925031E-16,-1.));
#1220=DIRECTION('center_axis',(5.21064690938319E-17,1.,2.35922392732846E-16));
#1221=DIRECTION('ref_axis',(5.21064690938319E-17,2.22044604925031E-16,-1.));
#1222=DIRECTION('center_axis',(5.21064690938319E-17,1.,2.35922392732846E-16));
#1223=DIRECTION('ref_axis',(1.,5.2106469093832E-17,-5.2106469093832E-17));
#1224=DIRECTION('center_axis',(3.87703920617199E-16,3.84652791708307E-62,
-1.));
#1225=DIRECTION('ref_axis',(-1.,-1.98426052073946E-46,-3.87703920617199E-16));
#1226=DIRECTION('',(1.,5.21064690938318E-17,3.87703920617199E-16));
#1227=DIRECTION('',(0.,1.,0.));
#1228=DIRECTION('center_axis',(0.,0.,-1.));
#1229=DIRECTION('ref_axis',(0.,-1.,0.));
#1230=DIRECTION('',(0.,-1.,0.));
#1231=DIRECTION('',(-1.,0.,0.));
#1232=DIRECTION('',(0.,-1.,0.));
#1233=DIRECTION('',(-1.,0.,0.));
#1234=DIRECTION('center_axis',(-1.,0.,0.));
#1235=DIRECTION('ref_axis',(0.,0.,1.));
#1236=DIRECTION('',(0.,1.,2.35922392732846E-16));
#1237=DIRECTION('',(0.,2.35922392732844E-16,-1.));
#1238=DIRECTION('',(0.,2.22383573880107E-16,-1.));
#1239=DIRECTION('center_axis',(5.21064690938314E-17,1.,2.35922392732844E-16));
#1240=DIRECTION('ref_axis',(-1.,5.21064690938314E-17,-1.35880370914528E-46));
#1241=DIRECTION('',(-1.,0.,0.));
#1242=DIRECTION('',(1.22930828654767E-32,2.35922392732844E-16,-1.));
#1243=DIRECTION('',(0.996331782897782,-7.21042490810135E-17,0.0855744026431181));
#1244=DIRECTION('center_axis',(-1.22930828654769E-32,-2.35922392732846E-16,
1.));
#1245=DIRECTION('ref_axis',(5.2106469093832E-17,1.,2.35922392732846E-16));
#1246=DIRECTION('',(0.0855744026431181,0.996331782897782,2.35056978177027E-16));
#1247=DIRECTION('',(-1.,5.21064690938314E-17,-1.34108642093586E-46));
#1248=DIRECTION('',(5.21064690938314E-17,1.,2.35922392732846E-16));
#1249=DIRECTION('center_axis',(0.,1.,1.38777878075838E-16));
#1250=DIRECTION('ref_axis',(0.707106781186554,0.,0.707106781186541));
#1251=DIRECTION('',(0.,-1.,-1.38777878075838E-16));
#1252=DIRECTION('center_axis',(-2.69023637124688E-32,1.,1.38777878075838E-16));
#1253=DIRECTION('ref_axis',(0.707106781186554,0.,0.707106781186541));
#1254=DIRECTION('',(0.,1.,1.38777878075838E-16));
#1255=DIRECTION('center_axis',(0.,1.,0.));
#1256=DIRECTION('ref_axis',(0.707106781186554,0.,0.707106781186541));
#1257=DIRECTION('center_axis',(1.,0.,0.));
#1258=DIRECTION('ref_axis',(0.,0.,-1.));
#1259=DIRECTION('',(0.,0.,-1.));
#1260=DIRECTION('',(0.,1.,1.38777878075838E-16));
#1261=DIRECTION('',(0.,2.35922392732844E-16,-1.));
#1262=DIRECTION('',(0.,-1.,-2.26520001618267E-16));
#1263=DIRECTION('',(-1.22930828654767E-32,-2.35922392732844E-16,1.));
#1264=DIRECTION('center_axis',(-1.93851960308599E-16,-1.38777878075838E-16,
1.));
#1265=DIRECTION('ref_axis',(-1.68268724926524E-32,1.,1.38777878075838E-16));
#1266=DIRECTION('',(1.,0.,1.93851960308599E-16));
#1267=DIRECTION('',(0.0855744026431181,0.996331782897782,-9.50414936640558E-15));
#1268=DIRECTION('',(1.,0.,0.));
#1269=DIRECTION('center_axis',(-2.69023637124688E-32,1.,1.38777878075838E-16));
#1270=DIRECTION('ref_axis',(1.12678767005931E-13,-1.38777878075838E-16,
1.));
#1271=DIRECTION('',(-0.996331782897782,0.,-0.0855744026431181));
#1272=DIRECTION('',(-8.71397232272064E-16,2.22383573880107E-16,-1.));
#1273=DIRECTION('',(0.,0.,-1.));
#1274=DIRECTION('',(-0.996331782897782,0.,0.0855744026431182));
#1275=DIRECTION('',(-1.,9.2223445540838E-29,-6.64733811927421E-13));
#1276=DIRECTION('',(-3.87703920617199E-16,3.57553914089994E-44,1.));
#1277=DIRECTION('center_axis',(-9.2223445540838E-29,-1.,-1.01957882312477E-56));
#1278=DIRECTION('ref_axis',(0.707106781186549,0.,-0.707106781186546));
#1279=DIRECTION('',(1.,5.21064690938319E-17,0.));
#1280=DIRECTION('center_axis',(5.21064690938319E-17,-1.,-2.22383573880107E-16));
#1281=DIRECTION('ref_axis',(-0.707106781186548,0.,-0.707106781186547));
#1282=DIRECTION('',(3.87703920617199E-16,2.22383573880107E-16,-1.));
#1283=DIRECTION('center_axis',(-5.21064690938319E-17,1.,2.22383573880107E-16));
#1284=DIRECTION('ref_axis',(5.21064690938319E-17,2.22044604925031E-16,-1.));
#1285=DIRECTION('center_axis',(-5.21064690938319E-17,1.,2.22383573880107E-16));
#1286=DIRECTION('ref_axis',(5.21064690938319E-17,2.22044604925031E-16,-1.));
#1287=DIRECTION('center_axis',(-5.21064690938319E-17,1.,2.22383573880107E-16));
#1288=DIRECTION('ref_axis',(-5.21064690938319E-17,2.22044604925031E-16,
-1.));
#1289=DIRECTION('center_axis',(-5.21064690938319E-17,1.,2.22383573880107E-16));
#1290=DIRECTION('ref_axis',(5.21064690938319E-17,2.22044604925031E-16,-1.));
#1291=DIRECTION('center_axis',(0.,-1.38777878075838E-16,1.));
#1292=DIRECTION('ref_axis',(0.,1.,1.38777878075838E-16));
#1293=DIRECTION('center_axis',(1.93851960308599E-16,1.38777878075838E-16,
-1.));
#1294=DIRECTION('ref_axis',(1.,0.,0.));
#1295=DIRECTION('',(1.,-5.21064690938314E-17,-7.23122521486614E-33));
#1296=DIRECTION('center_axis',(5.21064690938314E-17,1.,2.35922392732844E-16));
#1297=DIRECTION('ref_axis',(-1.,5.21064690938314E-17,-1.35880370914528E-46));
#1298=DIRECTION('',(0.,0.,1.));
#1299=DIRECTION('',(-1.,5.21064690938314E-17,-1.93851960308599E-16));
#1300=DIRECTION('',(-6.64733811927421E-13,-2.3592239273281E-16,1.));
#1301=DIRECTION('',(0.996331782897782,-3.17264134245169E-17,-0.0855744026431181));
#1302=DIRECTION('center_axis',(0.996331782897782,-0.0855744026431181,0.));
#1303=DIRECTION('ref_axis',(0.,0.,-1.));
#1304=DIRECTION('',(-0.0855744026431181,-0.996331782897782,-1.54857576394676E-16));
#1305=DIRECTION('',(0.,0.,-1.));
#1306=DIRECTION('',(0.0855744026431183,0.996331782897782,0.));
#1307=DIRECTION('',(0.,0.,-1.));
#1308=DIRECTION('center_axis',(-1.93851960308599E-16,-1.38777878075838E-16,
1.));
#1309=DIRECTION('ref_axis',(-1.68268724926524E-32,1.,1.38777878075838E-16));
#1310=DIRECTION('center_axis',(1.93851960308599E-16,1.38777878075838E-16,
-1.));
#1311=DIRECTION('ref_axis',(1.,0.,0.));
#1312=DIRECTION('',(1.,0.,1.93851960308599E-16));
#1313=DIRECTION('',(0.0855744026431181,-0.996331782897782,-1.21680044985465E-16));
#1314=DIRECTION('',(-1.,0.,-1.93851960308599E-16));
#1315=DIRECTION('center_axis',(-1.93851960308599E-16,-1.38777878075838E-16,
1.));
#1316=DIRECTION('ref_axis',(0.707106781186548,0.707106781186548,0.));
#1317=DIRECTION('',(-5.3804727424938E-32,1.,1.38777878075838E-16));
#1318=DIRECTION('',(1.,0.,1.93851960308599E-16));
#1319=DIRECTION('center_axis',(1.93851960308599E-16,1.38777878075838E-16,
-1.));
#1320=DIRECTION('ref_axis',(0.707106781186547,-0.707106781186547,4.68934280993548E-13));
#1321=DIRECTION('center_axis',(-1.93851960308599E-16,-1.38777878075838E-16,
1.));
#1322=DIRECTION('ref_axis',(-1.68268724926524E-32,1.,1.38777878075838E-16));
#1323=DIRECTION('center_axis',(1.93851960308599E-16,1.38777878075838E-16,
-1.));
#1324=DIRECTION('ref_axis',(0.707106781186539,0.707106781186556,-3.03341863017697E-11));
#1325=DIRECTION('',(-1.,0.,-1.93851960308599E-16));
#1326=DIRECTION('',(-5.3804727424938E-32,1.,1.38777878075838E-16));
#1327=DIRECTION('center_axis',(-1.93851960308599E-16,-1.38777878075838E-16,
1.));
#1328=DIRECTION('ref_axis',(0.707106781186547,-0.707106781186547,0.));
#1329=DIRECTION('',(1.,0.,1.93851960308599E-16));
#1330=DIRECTION('center_axis',(4.70037786097863E-13,0.707106781186548,-0.707106781186548));
#1331=DIRECTION('ref_axis',(-1.,0.,-6.64733811927421E-13));
#1332=DIRECTION('center_axis',(-4.70037786097863E-13,-0.707106781186548,
0.707106781186548));
#1333=DIRECTION('ref_axis',(4.70046429818449E-13,-0.707106781186548,-0.707106781186547));
#1334=DIRECTION('',(1.,-9.2223445540838E-29,6.64733811927421E-13));
#1335=DIRECTION('',(2.74148071361032E-16,-0.707106781186548,-0.707106781186548));
#1336=DIRECTION('',(-1.,9.2223445540838E-29,-6.64733811927421E-13));
#1337=DIRECTION('',(-0.992703639337943,0.0852627833386769,0.085262783338017));
#1338=DIRECTION('center_axis',(1.,1.98426052073946E-46,3.87703920617199E-16));
#1339=DIRECTION('ref_axis',(3.87703920617199E-16,3.84652791708307E-62,-1.));
#1340=DIRECTION('',(3.87703920617199E-16,1.38777878075838E-16,-1.));
#1341=DIRECTION('',(3.87703920617199E-16,0.,-1.));
#1342=DIRECTION('',(0.,1.,0.));
#1343=DIRECTION('',(-3.87703920617199E-16,0.,1.));
#1344=DIRECTION('',(0.,0.,-1.));
#1345=DIRECTION('',(-2.7414807136103E-16,-0.707106781186554,0.707106781186541));
#1346=DIRECTION('',(1.98426052073946E-46,-1.,0.));
#1347=DIRECTION('',(1.98426052073946E-46,-1.,0.));
#1348=DIRECTION('',(4.07508698598738E-53,1.,-6.13040425034422E-41));
#1349=DIRECTION('center_axis',(2.69023637124688E-32,-1.,-1.38777878075838E-16));
#1350=DIRECTION('ref_axis',(6.64733811927421E-13,1.38777878075838E-16,-1.));
#1351=DIRECTION('',(-6.64733811927421E-13,-1.38777878075838E-16,1.));
#1352=DIRECTION('center_axis',(6.64733811927421E-13,2.3592239273281E-16,
-1.));
#1353=DIRECTION('ref_axis',(0.707106781186547,-0.707106781186547,4.68934280993548E-13));
#1354=DIRECTION('center_axis',(-0.0855744026431181,0.,-0.996331782897782));
#1355=DIRECTION('ref_axis',(0.996331782897782,-9.21792071282394E-17,-0.0855744026431181));
#1356=DIRECTION('center_axis',(1.90228438114025E-32,-0.707106781186541,
-0.707106781186554));
#1357=DIRECTION('ref_axis',(-1.,0.,-2.69023637129903E-32));
#1358=DIRECTION('center_axis',(-1.90228438114025E-32,0.707106781186541,
0.707106781186554));
#1359=DIRECTION('ref_axis',(-6.06641856903176E-11,0.707106781186554,-0.707106781186541));
#1360=DIRECTION('',(1.,2.69023637129908E-32,0.));
#1361=DIRECTION('',(-1.,-2.69023637129908E-32,0.));
#1362=DIRECTION('center_axis',(-2.69023637129908E-32,1.,1.3877787807853E-16));
#1363=DIRECTION('ref_axis',(-4.28960645980763E-11,1.3877787807853E-16,-1.));
#1364=DIRECTION('',(0.,0.,1.));
#1365=DIRECTION('center_axis',(4.28960645980763E-11,-2.35922392735081E-16,
1.));
#1366=DIRECTION('ref_axis',(0.707106781186539,0.707106781186556,-3.03341863017697E-11));
#1367=DIRECTION('center_axis',(0.,0.,-1.));
#1368=DIRECTION('ref_axis',(0.707106781186539,0.707106781186556,-3.03341863017697E-11));
#1369=DIRECTION('center_axis',(6.64733811927421E-13,-6.13040425034422E-41,
-1.));
#1370=DIRECTION('ref_axis',(1.,-9.2223445540838E-29,6.64733811927421E-13));
#1371=DIRECTION('',(0.,-1.,0.));
#1372=DIRECTION('center_axis',(0.,0.,-1.));
#1373=DIRECTION('ref_axis',(-1.,0.,0.));
#1374=DIRECTION('center_axis',(-1.98426052073946E-46,1.,0.));
#1375=DIRECTION('ref_axis',(0.707106781186549,0.,-0.707106781186546));
#1376=DIRECTION('',(-1.98426052073946E-46,1.,0.));
#1377=DIRECTION('center_axis',(5.2106469093832E-17,-1.,-2.22044604925031E-16));
#1378=DIRECTION('ref_axis',(5.21064690938319E-17,2.22044604925031E-16,-1.));
#1379=DIRECTION('',(5.2106469093832E-17,-1.,-2.22044604925031E-16));
#1380=DIRECTION('center_axis',(3.04874262771119E-16,-3.10521978681303E-15,
-1.));
#1381=DIRECTION('ref_axis',(-8.24387394710643E-15,1.,-3.10521978681304E-15));
#1382=DIRECTION('center_axis',(-3.04874262771119E-16,3.10521978681303E-15,
1.));
#1383=DIRECTION('ref_axis',(0.707106781186548,0.707106781186548,0.));
#1384=DIRECTION('',(-1.,0.,-3.04874262771119E-16));
#1385=DIRECTION('center_axis',(-3.04874262771119E-16,3.10521978681303E-15,
1.));
#1386=DIRECTION('ref_axis',(-0.707106781186548,0.707106781186548,0.));
#1387=DIRECTION('',(0.,-1.,0.));
#1388=DIRECTION('center_axis',(0.,0.,1.));
#1389=DIRECTION('ref_axis',(-0.707106781186543,-0.707106781186552,0.));
#1390=DIRECTION('',(1.,1.98426052073946E-46,1.93851960308599E-16));
#1391=DIRECTION('center_axis',(-1.93851960308599E-16,-1.38777878075838E-16,
1.));
#1392=DIRECTION('ref_axis',(0.707106781186547,-0.707106781186547,0.));
#1393=DIRECTION('center_axis',(3.04874262771119E-16,-3.10521978681303E-15,
-1.));
#1394=DIRECTION('ref_axis',(0.,1.,0.));
#1395=DIRECTION('center_axis',(3.04874262771119E-16,-3.10521978681303E-15,
-1.));
#1396=DIRECTION('ref_axis',(1.,0.,0.));
#1397=DIRECTION('center_axis',(3.04874262771119E-16,-3.10521978681303E-15,
-1.));
#1398=DIRECTION('ref_axis',(1.,0.,0.));
#1399=DIRECTION('center_axis',(3.04874262771119E-16,-3.10521978681303E-15,
-1.));
#1400=DIRECTION('ref_axis',(1.,0.,0.));
#1401=DIRECTION('center_axis',(3.04874262771119E-16,1.8668164502253E-32,
-1.));
#1402=DIRECTION('ref_axis',(6.12323399573678E-17,-1.,0.));
#1403=DIRECTION('',(1.,0.,0.));
#1404=DIRECTION('',(1.,0.,3.04874262771119E-16));
#1405=DIRECTION('center_axis',(-3.04874262771119E-16,-1.8668164502253E-32,
1.));
#1406=DIRECTION('ref_axis',(-0.707106781186543,-0.707106781186552,0.));
#1407=DIRECTION('',(1.02831886321098E-46,-1.,-1.8668164502253E-32));
#1408=DIRECTION('center_axis',(-3.04874262771119E-16,-1.8668164502253E-32,
1.));
#1409=DIRECTION('ref_axis',(-0.707106781186548,0.707106781186548,0.));
#1410=DIRECTION('',(-1.,0.,-3.04874262771119E-16));
#1411=DIRECTION('',(-0.0855744026431181,0.996331782897782,0.));
#1412=DIRECTION('',(-1.,8.10164892314696E-16,-3.04874262771119E-16));
#1413=DIRECTION('center_axis',(0.,0.,1.));
#1414=DIRECTION('ref_axis',(1.,0.,0.));
#1415=DIRECTION('center_axis',(3.04874262771119E-16,1.8668164502253E-32,
-1.));
#1416=DIRECTION('ref_axis',(1.,0.,0.));
#1417=DIRECTION('center_axis',(3.04874262771119E-16,1.8668164502253E-32,
-1.));
#1418=DIRECTION('ref_axis',(1.,0.,0.));
#1419=DIRECTION('center_axis',(3.04874262771119E-16,1.8668164502253E-32,
-1.));
#1420=DIRECTION('ref_axis',(0.,1.,0.));
#1421=DIRECTION('center_axis',(3.04874262771119E-16,1.8668164502253E-32,
-1.));
#1422=DIRECTION('ref_axis',(1.,0.,0.));
#1423=DIRECTION('center_axis',(1.93851960308599E-16,0.,-1.));
#1424=DIRECTION('ref_axis',(-0.707106781186548,0.707106781186548,0.));
#1425=DIRECTION('',(0.,0.,1.));
#1426=DIRECTION('',(1.93851960308599E-16,0.,-1.));
#1427=DIRECTION('center_axis',(1.,9.92130260369731E-47,1.93851960308599E-16));
#1428=DIRECTION('ref_axis',(-1.93851960308599E-16,-1.38777878075838E-16,
1.));
#1429=DIRECTION('',(1.93851960308599E-16,0.,-1.));
#1430=DIRECTION('center_axis',(1.93851960308599E-16,0.,-1.));
#1431=DIRECTION('ref_axis',(-0.707106781186543,-0.707106781186552,0.));
#1432=DIRECTION('',(0.,0.,1.));
#1433=DIRECTION('center_axis',(0.,-1.,0.));
#1434=DIRECTION('ref_axis',(0.,0.,-1.));
#1435=DIRECTION('',(0.,0.,1.));
#1436=DIRECTION('center_axis',(0.,0.,-1.));
#1437=DIRECTION('ref_axis',(-1.,0.,0.));
#1438=DIRECTION('',(0.,1.,0.));
#1439=DIRECTION('center_axis',(0.0855744026431181,0.,0.996331782897782));
#1440=DIRECTION('ref_axis',(0.996331782897782,0.,-0.0855744026431181));
#1441=DIRECTION('center_axis',(0.,0.,1.));
#1442=DIRECTION('ref_axis',(1.,0.,0.));
#1443=DIRECTION('',(0.,0.,1.));
#1444=DIRECTION('',(0.,0.,-1.));
#1445=DIRECTION('center_axis',(0.,-1.,0.));
#1446=DIRECTION('ref_axis',(0.,0.,-1.));
#1447=DIRECTION('center_axis',(0.996331782897782,0.0855744026431181,0.));
#1448=DIRECTION('ref_axis',(0.,0.,-1.));
#1449=DIRECTION('',(0.,0.,1.));
#1450=DIRECTION('',(0.,0.,1.));
#1451=DIRECTION('center_axis',(0.,1.,0.));
#1452=DIRECTION('ref_axis',(0.,0.,1.));
#1453=DIRECTION('center_axis',(-3.87703920617199E-16,0.,1.));
#1454=DIRECTION('ref_axis',(0.707106781186548,0.707106781186548,0.));
#1455=DIRECTION('',(-3.87703920617199E-16,0.,1.));
#1456=DIRECTION('center_axis',(0.,-1.,0.));
#1457=DIRECTION('ref_axis',(0.,0.,-1.));
#1458=DIRECTION('center_axis',(0.,0.,1.));
#1459=DIRECTION('ref_axis',(1.,0.,0.));
#1460=DIRECTION('',(0.,0.,1.));
#1461=DIRECTION('center_axis',(0.,0.,1.));
#1462=DIRECTION('ref_axis',(1.,0.,0.));
#1463=DIRECTION('',(0.,0.,1.));
#1464=DIRECTION('center_axis',(0.,0.,1.));
#1465=DIRECTION('ref_axis',(1.,0.,0.));
#1466=DIRECTION('',(0.,0.,1.));
#1467=DIRECTION('center_axis',(-3.87703920617199E-16,0.,1.));
#1468=DIRECTION('ref_axis',(0.707106781186547,-0.707106781186547,0.));
#1469=DIRECTION('center_axis',(-0.0855744026431181,0.,0.996331782897782));
#1470=DIRECTION('ref_axis',(0.996331782897782,0.,0.0855744026431181));
#1471=DIRECTION('',(0.,1.,-3.07736892879893E-31));
#1472=DIRECTION('center_axis',(-1.,0.,0.));
#1473=DIRECTION('ref_axis',(0.,0.,1.));
#1474=DIRECTION('center_axis',(1.,1.98426052073946E-46,3.87703920617199E-16));
#1475=DIRECTION('ref_axis',(3.87703920617199E-16,3.84652791708307E-62,-1.));
#1476=DIRECTION('',(-1.98426052073946E-46,1.,0.));
#1477=DIRECTION('center_axis',(-1.98426052073946E-46,1.,0.));
#1478=DIRECTION('ref_axis',(-0.707106781186548,0.,-0.707106781186547));
#1479=DIRECTION('center_axis',(-5.2106469093832E-17,-1.,-2.22044604925031E-16));
#1480=DIRECTION('ref_axis',(-5.21064690938319E-17,2.22044604925031E-16,
-1.));
#1481=DIRECTION('',(-5.2106469093832E-17,-1.,-2.22044604925031E-16));
#1482=DIRECTION('center_axis',(5.2106469093832E-17,-1.,-2.22044604925031E-16));
#1483=DIRECTION('ref_axis',(5.21064690938319E-17,2.22044604925031E-16,-1.));
#1484=DIRECTION('',(5.2106469093832E-17,-1.,-2.22044604925031E-16));
#1485=DIRECTION('center_axis',(5.2106469093832E-17,-1.,-2.22044604925031E-16));
#1486=DIRECTION('ref_axis',(5.21064690938319E-17,2.22044604925031E-16,-1.));
#1487=DIRECTION('',(5.2106469093832E-17,-1.,-2.22044604925031E-16));
#1488=DIRECTION('center_axis',(0.,0.,-1.));
#1489=DIRECTION('ref_axis',(0.,1.,0.));
#1490=DIRECTION('',(0.,0.,-1.));
#1491=CARTESIAN_POINT('',(0.,0.,0.));
#1492=CARTESIAN_POINT('Origin',(80.8497060611242,84.1500003814696,16.5098315180514));
#1493=CARTESIAN_POINT('',(82.5997060611242,82.4000003814696,15.5098315180514));
#1494=CARTESIAN_POINT('',(79.0997060611242,82.4000003814696,17.5098315180514));
#1495=CARTESIAN_POINT('',(80.3260256382616,82.4000003814696,16.809077473973));
#1496=CARTESIAN_POINT('',(79.0997060611242,84.4000003814696,17.5098315180514));
#1497=CARTESIAN_POINT('',(79.0997060611242,84.1500003814696,17.5098315180514));
#1498=CARTESIAN_POINT('',(82.5997060611242,84.4000003814696,15.5098315180515));
#1499=CARTESIAN_POINT('',(80.4805653247074,84.4000000003186,16.7207690817182));
#1500=CARTESIAN_POINT('',(82.5997060611242,84.1500003814696,15.5098315180515));
#1501=CARTESIAN_POINT('Origin',(87.3690175343615,82.4000003814696,30.349999988079));
#1502=CARTESIAN_POINT('',(83.5997060611242,82.4000003814696,15.5098315180515));
#1503=CARTESIAN_POINT('',(81.0997060611242,82.4000003814696,15.5098315180514));
#1504=CARTESIAN_POINT('',(83.5997060611242,82.4000003814696,13.6000003725291));
#1505=CARTESIAN_POINT('',(83.5997060611242,82.4000003814696,17.3612058390684));
#1506=CARTESIAN_POINT('',(86.5997060611242,82.4000003814696,10.6000003725291));
#1507=CARTESIAN_POINT('Origin',(86.5997060611242,82.4000003814696,13.6000003725291));
#1508=CARTESIAN_POINT('',(96.6999989122998,82.4000003814696,10.6000003725291));
#1509=CARTESIAN_POINT('',(93.0999989719016,82.4000003814696,10.6000003725291));
#1510=CARTESIAN_POINT('',(99.6999989122999,82.4000003814696,13.6000003725291));
#1511=CARTESIAN_POINT('Origin',(96.6999989122998,82.4000003814696,13.6000003725291));
#1512=CARTESIAN_POINT('',(99.6999989122999,82.4000003814696,20.7149995395541));
#1513=CARTESIAN_POINT('',(99.6999989122999,82.4000003814696,18.6500000860472));
#1514=CARTESIAN_POINT('',(97.1999989119316,82.4000003814696,20.7149995395541));
#1515=CARTESIAN_POINT('',(93.1249991770342,82.4000003814696,20.7149995395541));
#1516=CARTESIAN_POINT('',(97.1999989123427,82.4000003814696,30.299999988079));
#1517=CARTESIAN_POINT('',(97.1999989119202,82.4000003814696,20.4499999938674));
#1518=CARTESIAN_POINT('',(87.6361968037945,82.4000003814696,30.299999988079));
#1519=CARTESIAN_POINT('',(87.3690175343615,82.4000003814696,30.299999988079));
#1520=CARTESIAN_POINT('',(87.6361968037945,82.4000003814696,27.0000003874347));
#1521=CARTESIAN_POINT('',(87.6361968037945,82.4000003814696,30.299999988079));
#1522=CARTESIAN_POINT('',(79.0997060611242,82.4000003814696,27.0000003874347));
#1523=CARTESIAN_POINT('',(86.6249999125592,82.4000003814696,27.0000003874347));
#1524=CARTESIAN_POINT('',(79.0997060611242,82.4000003814696,27.6395088280373));
#1525=CARTESIAN_POINT('',(82.6999999998593,82.4000003814696,19.55));
#1526=CARTESIAN_POINT('Origin',(82.6999999998593,82.4000003814696,18.3));
#1527=CARTESIAN_POINT('',(95.6999999998593,82.4000003814696,19.55));
#1528=CARTESIAN_POINT('Origin',(95.6999999998593,82.4000003814696,18.3));
#1529=CARTESIAN_POINT('',(89.1999999998593,82.4000003814696,21.925));
#1530=CARTESIAN_POINT('Origin',(89.1999999998593,82.4000003814696,18.3));
#1531=CARTESIAN_POINT('',(89.1999999998593,82.4000003814696,26.05));
#1532=CARTESIAN_POINT('Origin',(89.1999999998593,82.4000003814696,24.8));
#1533=CARTESIAN_POINT('Origin',(82.5997060611242,84.1500003814696,15.5098315180515));
#1534=CARTESIAN_POINT('',(83.5997060611242,84.4000003814696,15.5098315180515));
#1535=CARTESIAN_POINT('',(86.0482162667918,84.4000003814696,15.5098315180515));
#1536=CARTESIAN_POINT('',(83.5997060611242,84.9000003814696,15.5098315180515));
#1537=CARTESIAN_POINT('Origin',(81.0997060611242,85.9000003814696,21.0073373290014));
#1538=CARTESIAN_POINT('',(81.0997060611242,85.9000003814696,21.0073373290014));
#1539=CARTESIAN_POINT('',(81.0997060611242,84.4000003814696,21.0073373290014));
#1540=CARTESIAN_POINT('',(81.0997060611242,84.5250003814696,21.0073373290014));
#1541=CARTESIAN_POINT('',(79.0997060611242,84.4000003814696,21.0073373290014));
#1542=CARTESIAN_POINT('',(81.0997060611242,84.4000003814696,21.0073373290014));
#1543=CARTESIAN_POINT('',(79.0997060611242,85.9000003814696,21.0073373290014));
#1544=CARTESIAN_POINT('',(79.0997060611242,84.5250003814696,21.0073373290014));
#1545=CARTESIAN_POINT('',(81.0997060611242,85.9000003814696,21.0073373290014));
#1546=CARTESIAN_POINT('Origin',(79.0997060611242,84.1500003814696,18.2975413061015));
#1547=CARTESIAN_POINT('',(79.0997060611242,85.9000003814696,27.0000003874347));
#1548=CARTESIAN_POINT('',(79.0997060611242,83.550000617653,27.0000003874347));
#1549=CARTESIAN_POINT('',(79.0997060611242,85.9000003814696,21.5311329070058));
#1550=CARTESIAN_POINT('',(79.0997060611242,84.4000003814696,22.1968278895908));
#1551=CARTESIAN_POINT('Origin',(88.9999994561711,85.9000003814696,24.7647245079101));
#1552=CARTESIAN_POINT('',(86.9499999998593,85.9000003814696,27.0000003874347));
#1553=CARTESIAN_POINT('',(81.0997060611242,85.9000003814696,27.0000003874347));
#1554=CARTESIAN_POINT('',(86.9499999998593,85.9000003814696,21.509815938725));
#1555=CARTESIAN_POINT('',(86.9499999998593,85.9000003814696,24.8837002989859));
#1556=CARTESIAN_POINT('',(88.2205544382308,85.9000003814696,21.6189431782204));
#1557=CARTESIAN_POINT('Origin',(86.1499998252592,81.4000003814696,27.0000003874347));
#1558=CARTESIAN_POINT('',(87.8079757314811,84.4000003814696,27.0000003874347));
#1559=CARTESIAN_POINT('',(87.5881248610398,81.8403049240327,27.0000003874347));
#1560=CARTESIAN_POINT('',(86.9499999998593,84.4000003814696,27.0000003874347));
#1561=CARTESIAN_POINT('',(87.6624994018571,84.4000003814696,27.0000003874347));
#1562=CARTESIAN_POINT('',(86.9499999998593,83.2750003814696,27.0000003874347));
#1563=CARTESIAN_POINT('Origin',(90.4499999998593,84.9119585706017,28.299999988079));
#1564=CARTESIAN_POINT('',(91.4499999998593,84.7550055682414,28.299999988079));
#1565=CARTESIAN_POINT('',(91.300000000051,84.7500000003186,28.8267826754123));
#1566=CARTESIAN_POINT('Ctrl Pts',(91.3000000000503,84.7500000003186,28.8267826754134));
#1567=CARTESIAN_POINT('Ctrl Pts',(91.3280652610813,84.7500000003186,28.781497451629));
#1568=CARTESIAN_POINT('Ctrl Pts',(91.3527301633637,84.7505233123114,28.7335480498927));
#1569=CARTESIAN_POINT('Ctrl Pts',(91.4247089831625,84.7528712326421,28.5604459305065));
#1570=CARTESIAN_POINT('Ctrl Pts',(91.4499999998593,84.7550055682414,28.426064790311));
#1571=CARTESIAN_POINT('Ctrl Pts',(91.4499999998593,84.7550055682414,28.299999988079));
#1572=CARTESIAN_POINT('',(91.4499999998598,84.4000003814696,28.299999988079));
#1573=CARTESIAN_POINT('',(91.4499999998593,84.9119585706017,28.299999988079));
#1574=CARTESIAN_POINT('',(90.4499999998593,84.4000000003186,29.299999988079));
#1575=CARTESIAN_POINT('Origin',(90.4499999998593,84.4000000003186,28.299999988079));
#1576=CARTESIAN_POINT('',(90.4499999998593,84.7500000003186,29.2999996462464));
#1577=CARTESIAN_POINT('',(90.4499999998593,84.9119585706017,29.299999988079));
#1578=CARTESIAN_POINT('Origin',(90.4499999998593,84.7500000003186,28.299999988079));
#1579=CARTESIAN_POINT('Origin',(91.4499999998593,86.4000003814696,21.172281323269));
#1580=CARTESIAN_POINT('',(91.4500014007091,84.7550056618401,26.999999988079));
#1581=CARTESIAN_POINT('',(91.4499999998593,84.7550055682414,30.299999988079));
#1582=CARTESIAN_POINT('',(91.4500014007091,85.9000003814696,26.999999988079));
#1583=CARTESIAN_POINT('',(91.4499999998593,85.4000001908941,26.999999988079));
#1584=CARTESIAN_POINT('',(91.4499999998593,85.9000003814696,21.3380370110384));
#1585=CARTESIAN_POINT('',(91.4499999998593,85.9000003814696,22.9685029155896));
#1586=CARTESIAN_POINT('',(91.4499999998593,84.4000003814696,21.3380370110384));
#1587=CARTESIAN_POINT('',(91.4499999998593,85.6500003814696,21.3380370110384));
#1588=CARTESIAN_POINT('',(91.4499999998598,84.4000003814696,24.6779577888271));
#1589=CARTESIAN_POINT('Origin',(96.8353526431742,83.4239167597338,29.299999988079));
#1590=CARTESIAN_POINT('',(87.8079756987442,84.4000000003186,29.2999996462464));
#1591=CARTESIAN_POINT('',(92.3071866159786,84.4000000003186,29.299999988079));
#1592=CARTESIAN_POINT('',(87.8380370110894,84.7500000003186,29.299999988079));
#1593=CARTESIAN_POINT('',(87.5713525416394,81.6450269626871,29.2999996462464));
#1594=CARTESIAN_POINT('',(88.6581499143973,84.7500000003186,29.2999996462464));
#1595=CARTESIAN_POINT('Origin',(87.7790205887829,84.4000000003186,30.3499996462464));
#1596=CARTESIAN_POINT('',(86.9499999998593,84.4000003814696,21.509815938725));
#1597=CARTESIAN_POINT('',(86.9286063991985,84.4000003814696,21.5079784538345));
#1598=CARTESIAN_POINT('',(86.9499999998593,84.4000003814696,22.3598129229109));
#1599=CARTESIAN_POINT('',(87.8079756987443,84.4000000003186,30.2999996462464));
#1600=CARTESIAN_POINT('',(98.6999989123056,84.4000003814696,20.715338491584));
#1601=CARTESIAN_POINT('',(97.4712710539536,84.4000003814696,20.8208732685472));
#1602=CARTESIAN_POINT('',(99.6999989122999,84.4000003814696,20.7153384915846));
#1603=CARTESIAN_POINT('',(100.199998912306,84.4000003814696,20.715338491585));
#1604=CARTESIAN_POINT('',(99.6999989122999,84.4000003814696,13.6000003725291));
#1605=CARTESIAN_POINT('',(99.6999989122999,84.4000003814696,17.9288348128957));
#1606=CARTESIAN_POINT('',(96.6999989122998,84.4000003814696,10.6000003725291));
#1607=CARTESIAN_POINT('Origin',(96.6999989122998,84.4000003814696,13.6000003725291));
#1608=CARTESIAN_POINT('',(86.5997060611242,84.4000003814696,10.6000003725291));
#1609=CARTESIAN_POINT('',(92.0483626923796,84.4000003814696,10.6000003725291));
#1610=CARTESIAN_POINT('',(83.5997060611242,84.4000003814696,13.6000003725291));
#1611=CARTESIAN_POINT('Origin',(86.5997060611242,84.4000003814696,13.6000003725291));
#1612=CARTESIAN_POINT('',(83.5997060611242,84.4000003814696,23.0230572745296));
#1613=CARTESIAN_POINT('',(82.6999999998593,84.4000003814696,19.55));
#1614=CARTESIAN_POINT('Origin',(82.6999999998593,84.4000003814696,18.3));
#1615=CARTESIAN_POINT('',(95.6999999998593,84.4000003814696,19.55));
#1616=CARTESIAN_POINT('Origin',(95.6999999998593,84.4000003814696,18.3));
#1617=CARTESIAN_POINT('',(89.1999999998593,84.4000003814696,21.925));
#1618=CARTESIAN_POINT('Origin',(89.1999999998593,84.4000003814696,18.3));
#1619=CARTESIAN_POINT('',(89.1999999998593,84.4000003814696,26.05));
#1620=CARTESIAN_POINT('Origin',(89.1999999998593,84.4000003814696,24.8));
#1621=CARTESIAN_POINT('Origin',(93.3000014007091,84.4000000003186,26.999999988079));
#1622=CARTESIAN_POINT('',(93.2627788562984,85.9000003814696,26.999999988079));
#1623=CARTESIAN_POINT('Origin',(91.300000000051,87.0000000003186,26.999999988079));
#1624=CARTESIAN_POINT('',(91.1500004284401,85.9000003814696,26.999999988079));
#1625=CARTESIAN_POINT('Origin',(88.9999994561711,85.9000003814696,24.7647245079101));
#1626=CARTESIAN_POINT('',(93.2627788562984,85.9000003814696,30.299999988079));
#1627=CARTESIAN_POINT('',(93.2627788562984,85.9000003814696,30.299999988079));
#1628=CARTESIAN_POINT('',(97.1999989122992,85.9000003814696,30.299999988079));
#1629=CARTESIAN_POINT('',(92.9176760496727,85.9000003814696,30.299999988079));
#1630=CARTESIAN_POINT('',(97.1999989123054,85.9000003814696,20.8441726873489));
#1631=CARTESIAN_POINT('',(97.1999989123027,85.9000003814696,25.0323622479964));
#1632=CARTESIAN_POINT('',(93.0985253657875,85.9000003814696,21.1964460512268));
#1633=CARTESIAN_POINT('Origin',(87.3208732685981,78.7287289462243,28.8999996185302));
#1634=CARTESIAN_POINT('',(87.1981605156661,77.3000001191824,30.299999988079));
#1635=CARTESIAN_POINT('',(87.5558674556233,81.4647360943643,30.299999988079));
#1636=CARTESIAN_POINT('',(87.1981605156661,77.3000001191824,31.7999996185302));
#1637=CARTESIAN_POINT('',(87.1981605156661,77.3000001191824,30.0999998033046));
#1638=CARTESIAN_POINT('',(87.8380370110894,84.7500000003186,31.7999996185302));
#1639=CARTESIAN_POINT('',(87.3208732685982,78.7287289462243,31.7999996185302));
#1640=CARTESIAN_POINT('',(87.8380370110894,84.7500000003186,29.0999998033046));
#1641=CARTESIAN_POINT('Origin',(96.8353526431742,83.4239167597338,30.299999988079));
#1642=CARTESIAN_POINT('',(91.300000000051,89.2500000003186,30.2999996185302));
#1643=CARTESIAN_POINT('Origin',(91.300000000051,87.0000000003186,30.299999988079));
#1644=CARTESIAN_POINT('',(88.0098159387759,89.2500000003186,30.299999988079));
#1645=CARTESIAN_POINT('',(94.0676763216126,89.2500000003186,30.299999988079));
#1646=CARTESIAN_POINT('',(87.490184653114,95.3000003427363,30.299999988079));
#1647=CARTESIAN_POINT('',(88.3003153633661,85.8677524976425,30.299999988079));
#1648=CARTESIAN_POINT('',(96.6999989122998,95.3000003427363,30.299999988079));
#1649=CARTESIAN_POINT('',(88.9756887049466,95.3000003427363,30.299999988079));
#1650=CARTESIAN_POINT('',(99.6999989122999,92.3000003427363,30.299999988079));
#1651=CARTESIAN_POINT('Origin',(96.6999989122998,92.3000003427363,30.299999988079));
#1652=CARTESIAN_POINT('',(99.6999989122999,87.4000003814696,30.299999988079));
#1653=CARTESIAN_POINT('',(99.6999989122999,84.4619590168866,30.299999988079));
#1654=CARTESIAN_POINT('',(98.6999989122999,87.4000003814696,30.2999999880783));
#1655=CARTESIAN_POINT('',(98.0176757777384,87.4000003814696,30.299999988079));
#1656=CARTESIAN_POINT('Origin',(97.1999989122992,87.4000003814696,30.2999999880793));
#1657=CARTESIAN_POINT('Origin',(96.8353526431742,83.4239167597338,30.299999988079));
#1658=CARTESIAN_POINT('',(98.6999989122999,80.9000003814696,30.2999999881036));
#1659=CARTESIAN_POINT('Origin',(97.1999989123427,80.9000003814696,30.2999999880634));
#1660=CARTESIAN_POINT('',(99.6999989122999,80.9000003814696,30.2999999880607));
#1661=CARTESIAN_POINT('',(98.0176757775333,80.9000003814696,30.299999988079));
#1662=CARTESIAN_POINT('',(99.6999989122999,78.8000001191824,30.299999988079));
#1663=CARTESIAN_POINT('',(99.6999989122999,84.4619590168866,30.299999988079));
#1664=CARTESIAN_POINT('',(98.1999989122998,77.3000001191824,30.299999988079));
#1665=CARTESIAN_POINT('Origin',(98.1999989122998,78.8000001191824,30.299999988079));
#1666=CARTESIAN_POINT('',(88.653111618258,77.3000001191824,30.299999988079));
#1667=CARTESIAN_POINT('Origin',(99.6999989123054,87.1500003814696,20.9653384915846));
#1668=CARTESIAN_POINT('',(98.6167210207078,86.907153074929,20.7224911850433));
#1669=CARTESIAN_POINT('',(98.6999989123052,87.4000003814696,21.215338491584));
#1670=CARTESIAN_POINT('Origin',(97.1999989123052,87.4000003814696,21.215338491583));
#1671=CARTESIAN_POINT('',(99.6999989122999,87.4000003814696,21.2153384915846));
#1672=CARTESIAN_POINT('',(99.6999989123052,87.4000003814696,21.2153384915846));
#1673=CARTESIAN_POINT('',(99.6999989122999,86.9000003814696,20.7153384915846));
#1674=CARTESIAN_POINT('',(99.6999989122999,86.9961660636688,20.8115041737838));
#1675=CARTESIAN_POINT('',(98.6999989123056,86.9000003814696,20.715338491584));
#1676=CARTESIAN_POINT('',(99.6999989123056,86.9000003814696,20.7153384915846));
#1677=CARTESIAN_POINT('',(98.582831508303,86.9100638269794,20.7254019370937));
#1678=CARTESIAN_POINT('Origin',(99.6999989122999,85.5000012740394,22.0000003278116));
#1679=CARTESIAN_POINT('',(99.6999989122999,87.4000003814696,25.4584621947527));
#1680=CARTESIAN_POINT('',(99.6999989122999,92.3000003427363,33.799999988079));
#1681=CARTESIAN_POINT('',(99.6999989122999,92.3000003427363,25.7000001579453));
#1682=CARTESIAN_POINT('',(99.6999989122999,78.8000001191824,33.799999988079));
#1683=CARTESIAN_POINT('',(99.6999989122999,78.3000001191824,33.799999988079));
#1684=CARTESIAN_POINT('',(99.6999989122999,78.8000001191824,25.7000001579453));
#1685=CARTESIAN_POINT('',(99.6999989122999,80.9000003814696,21.2149995395541));
#1686=CARTESIAN_POINT('',(99.6999989122999,80.9000003814696,20.8149995395541));
#1687=CARTESIAN_POINT('',(99.6999989122999,81.4000003814696,20.7149995395541));
#1688=CARTESIAN_POINT('',(99.6999989122999,81.9787504075477,20.1362495134761));
#1689=CARTESIAN_POINT('',(99.6999989122999,83.5250002814407,20.7149995395541));
#1690=CARTESIAN_POINT('',(99.6999989122999,84.4500008277545,13.6000003725291));
#1691=CARTESIAN_POINT('',(99.6999989122999,86.4579480643724,20.7153384915846));
#1692=CARTESIAN_POINT('Origin',(99.1999989123025,87.4000003814696,25.2999999880787));
#1693=CARTESIAN_POINT('',(98.6999989123025,87.4000003814696,25.2999999880783));
#1694=CARTESIAN_POINT('Origin',(97.1999989123027,87.4000003814696,25.0323622479964));
#1695=CARTESIAN_POINT('Origin',(97.1999989123054,87.4000003814696,20.8441726873489));
#1696=CARTESIAN_POINT('Origin',(99.1749986330507,81.1500003814696,20.9649995395541));
#1697=CARTESIAN_POINT('',(98.6999989122999,80.9000003814696,21.2149995395541));
#1698=CARTESIAN_POINT('',(98.6142124743047,81.4000003814696,20.7149995396378));
#1699=CARTESIAN_POINT('Origin',(97.199998911953,80.9000003814696,21.2149995395542));
#1700=CARTESIAN_POINT('',(99.1749986330507,81.4000003814696,20.7149995395541));
#1701=CARTESIAN_POINT('',(99.1749986330507,80.9000003814696,21.2149995395541));
#1702=CARTESIAN_POINT('Origin',(99.1999989118924,80.9000003814696,19.7999999880822));
#1703=CARTESIAN_POINT('',(98.6999989122999,80.9000003814696,29.2999999881036));
#1704=CARTESIAN_POINT('Origin',(97.1999989119202,80.9000003814696,20.4499999938674));
#1705=CARTESIAN_POINT('Origin',(97.1999989119316,80.9000003814696,20.7149995396378));
#1706=CARTESIAN_POINT('Origin',(100.199998912306,87.7000008687376,20.715338491585));
#1707=CARTESIAN_POINT('',(98.6999989123056,86.1500003814696,20.715338491584));
#1708=CARTESIAN_POINT('Origin',(99.1499983542091,81.549999288842,20.7149995395541));
#1709=CARTESIAN_POINT('Origin',(96.6999989122998,84.4500008277545,13.6000003725291));
#1710=CARTESIAN_POINT('',(96.6999989122998,84.4500008277545,10.6000003725291));
#1711=CARTESIAN_POINT('Origin',(89.1999999998593,81.4000003814696,24.8));
#1712=CARTESIAN_POINT('',(89.1999999998593,81.4000003814696,26.05));
#1713=CARTESIAN_POINT('Origin',(87.6000000000845,89.1000000002942,33.7999996185302));
#1714=CARTESIAN_POINT('',(96.6999989122998,95.3000003427363,33.7999996185302));
#1715=CARTESIAN_POINT('Origin',(96.6999989122998,92.3000003427363,33.7999996185302));
#1716=CARTESIAN_POINT('',(81.3000000000929,95.3000003427363,33.7999996185302));
#1717=CARTESIAN_POINT('',(84.3580123834017,95.3000003427363,33.7999996185302));
#1718=CARTESIAN_POINT('',(78.3000000000929,92.3000003427363,33.7999996185302));
#1719=CARTESIAN_POINT('Origin',(81.3000000000929,92.3000003427363,33.7999996185302));
#1720=CARTESIAN_POINT('',(78.3000000000929,78.8000001191824,33.799999988079));
#1721=CARTESIAN_POINT('',(78.3000000000929,94.3000003427266,33.7999996185302));
#1722=CARTESIAN_POINT('',(79.8000000000929,77.3000001191824,33.799999988079));
#1723=CARTESIAN_POINT('Origin',(79.8000000000929,78.8000001191824,33.799999988079));
#1724=CARTESIAN_POINT('',(98.1999989122998,77.3000001192092,33.799999988079));
#1725=CARTESIAN_POINT('',(82.5992946350786,77.3000001191824,33.799999988079));
#1726=CARTESIAN_POINT('Origin',(98.1999989122998,78.8000001191824,33.799999988079));
#1727=CARTESIAN_POINT('',(84.8000000000846,79.2500000002942,33.7999996185302));
#1728=CARTESIAN_POINT('Origin',(84.8000000000846,80.5000000002942,33.7999996185302));
#1729=CARTESIAN_POINT('',(81.175000000051,87.0000000003186,33.7999996185302));
#1730=CARTESIAN_POINT('Origin',(84.800000000051,87.0000000003186,33.7999996185302));
#1731=CARTESIAN_POINT('',(83.550000000051,93.5000000003187,33.7999996185302));
#1732=CARTESIAN_POINT('Origin',(84.800000000051,93.5000000003187,33.7999996185302));
#1733=CARTESIAN_POINT('',(90.050000000051,87.0000000003186,33.7999996185302));
#1734=CARTESIAN_POINT('Origin',(91.300000000051,87.0000000003186,33.7999996185302));
#1735=CARTESIAN_POINT('Origin',(92.5961144731312,86.7032735277186,31.7999996185302));
#1736=CARTESIAN_POINT('',(91.300000000051,84.7500000003186,31.7999996185302));
#1737=CARTESIAN_POINT('',(87.8595093770502,84.7500000003186,31.7999996185302));
#1738=CARTESIAN_POINT('',(79.8000000000929,77.3000001191824,31.799999988079));
#1739=CARTESIAN_POINT('',(86.5334925332364,77.3000001191824,31.7999996185302));
#1740=CARTESIAN_POINT('',(78.3000000000423,78.8000001191824,31.799999988079));
#1741=CARTESIAN_POINT('Origin',(79.8000000000929,78.8000001191824,31.7999996185302));
#1742=CARTESIAN_POINT('',(78.3000000000929,92.3000003427363,31.799999988079));
#1743=CARTESIAN_POINT('',(78.3000000000929,89.1016371141064,31.7999996185302));
#1744=CARTESIAN_POINT('',(81.3000000000929,95.3000003427363,31.799999988079));
#1745=CARTESIAN_POINT('Origin',(81.3000000000929,92.3000003427363,31.7999996185302));
#1746=CARTESIAN_POINT('',(87.490184653114,95.3000003427363,31.7999996185302));
#1747=CARTESIAN_POINT('',(86.8560696199251,95.3000003427363,31.7999996185302));
#1748=CARTESIAN_POINT('',(88.009815938776,89.2500000003186,31.7999996185302));
#1749=CARTESIAN_POINT('',(88.0232272671392,89.0938536260946,31.7999996185302));
#1750=CARTESIAN_POINT('',(91.300000000051,89.2500000003186,31.7999996185302));
#1751=CARTESIAN_POINT('',(88.8598129229619,89.2500000003186,31.7999996185302));
#1752=CARTESIAN_POINT('Origin',(91.300000000051,87.0000000003186,31.799999988079));
#1753=CARTESIAN_POINT('',(90.050000000051,87.0000000003186,31.7999996185302));
#1754=CARTESIAN_POINT('Origin',(91.300000000051,87.0000000003186,31.7999996185302));
#1755=CARTESIAN_POINT('',(81.175000000051,87.0000000003186,31.7999996185302));
#1756=CARTESIAN_POINT('Origin',(84.800000000051,87.0000000003186,31.7999996185302));
#1757=CARTESIAN_POINT('',(84.8000000000846,79.2500000002942,31.7999996185302));
#1758=CARTESIAN_POINT('Origin',(84.8000000000846,80.5000000002942,31.7999996185302));
#1759=CARTESIAN_POINT('',(83.550000000051,93.5000000003187,31.7999996185302));
#1760=CARTESIAN_POINT('Origin',(84.800000000051,93.5000000003187,31.7999996185302));
#1761=CARTESIAN_POINT('Origin',(81.3000000000929,92.3000003427363,29.399999988079));
#1762=CARTESIAN_POINT('',(78.3000000000929,92.3000003427363,32.7999996185302));
#1763=CARTESIAN_POINT('',(81.3000000000929,95.3000003427363,29.399999988079));
#1764=CARTESIAN_POINT('Origin',(78.3000000000929,91.5000007004942,29.399999988079));
#1765=CARTESIAN_POINT('',(78.3000000000929,78.8000001191824,29.399999988079));
#1766=CARTESIAN_POINT('Origin',(79.8000000000929,78.8000001191824,29.399999988079));
#1767=CARTESIAN_POINT('',(79.8000000000929,77.3000001191824,30.399999988079));
#1768=CARTESIAN_POINT('Origin',(80.4708705933417,77.3000001191824,29.399999988079));
#1769=CARTESIAN_POINT('',(98.1999989122998,77.3000001192092,31.899999988079));
#1770=CARTESIAN_POINT('Origin',(94.5999989122999,83.4000003814696,10.6000003725291));
#1771=CARTESIAN_POINT('',(86.5997060611242,84.9000003814696,10.6000003725291));
#1772=CARTESIAN_POINT('Origin',(97.4712710539536,86.4000003814696,20.8208732685471));
#1773=CARTESIAN_POINT('Origin',(91.300000000051,87.0000000003186,30.049999988079));
#1774=CARTESIAN_POINT('',(91.300000000051,84.7500000003186,28.8999996185302));
#1775=CARTESIAN_POINT('',(91.300000000051,89.2500000003186,28.8999996185302));
#1776=CARTESIAN_POINT('Origin',(87.67228132332,84.7500000003186,28.8999996185302));
#1777=CARTESIAN_POINT('Origin',(88.0294508198463,89.0213936009794,28.8999996185302));
#1778=CARTESIAN_POINT('',(88.0098159387759,89.2500000003186,29.8499996185302));
#1779=CARTESIAN_POINT('',(87.490184653114,95.3000003427363,30.0999998033046));
#1780=CARTESIAN_POINT('Origin',(91.300000000051,89.2500000003186,28.8999996185302));
#1781=CARTESIAN_POINT('Origin',(96.6999989122998,92.3000003427363,25.7000001579453));
#1782=CARTESIAN_POINT('',(96.6999989122998,95.3000003427363,25.7000001579453));
#1783=CARTESIAN_POINT('Origin',(81.116024766719,95.3000003427363,29.399999988079));
#1784=CARTESIAN_POINT('Origin',(84.800000000051,87.0000000003186,33.8999996185302));
#1785=CARTESIAN_POINT('',(81.175000000051,87.0000000003186,33.8999996185302));
#1786=CARTESIAN_POINT('Origin',(91.300000000051,87.0000000003186,33.8999996185303));
#1787=CARTESIAN_POINT('',(90.050000000051,87.0000000003186,33.8999996185303));
#1788=CARTESIAN_POINT('Origin',(84.800000000051,93.5000000003187,33.8999996185302));
#1789=CARTESIAN_POINT('',(83.550000000051,93.5000000003187,33.8999996185302));
#1790=CARTESIAN_POINT('Origin',(98.1999989122998,78.8000001191824,25.7000001579453));
#1791=CARTESIAN_POINT('Origin',(87.1786063991985,86.4000003814696,21.5294508197953));
#1792=CARTESIAN_POINT('',(86.9499999998593,86.4000003814696,21.509815938725));
#1793=CARTESIAN_POINT('Origin',(86.9499999998593,86.4000003814696,24.8));
#1794=CARTESIAN_POINT('Origin',(83.5997060611242,83.7500012479838,19.950000075979));
#1795=CARTESIAN_POINT('',(83.5997060611242,83.5750008147267,13.6000003725291));
#1796=CARTESIAN_POINT('Origin',(86.5997060611242,83.5750008147267,13.6000003725291));
#1797=CARTESIAN_POINT('Origin',(89.1999999998593,83.9000003814696,18.3));
#1798=CARTESIAN_POINT('',(89.1999999998593,83.9000003814696,21.925));
#1799=CARTESIAN_POINT('Origin',(82.6999999998593,81.4000003814696,18.3));
#1800=CARTESIAN_POINT('',(82.6999999998593,81.4000003814696,19.55));
#1801=CARTESIAN_POINT('Origin',(95.6999999998593,83.9000003814696,18.3));
#1802=CARTESIAN_POINT('',(95.6999999998593,83.9000003814696,19.55));
#1803=CARTESIAN_POINT('Origin',(84.8000000000846,80.5000000002942,29.3999996185302));
#1804=CARTESIAN_POINT('',(84.8000000000846,79.2500000002942,29.3999996185302));
#1805=UNCERTAINTY_MEASURE_WITH_UNIT(LENGTH_MEASURE(0.01),#1809,
'DISTANCE_ACCURACY_VALUE',
'Maximum model space distance between geometric entities at asserted c
onnectivities');
#1806=UNCERTAINTY_MEASURE_WITH_UNIT(LENGTH_MEASURE(0.01),#1809,
'DISTANCE_ACCURACY_VALUE',
'Maximum model space distance between geometric entities at asserted c
onnectivities');
#1807=(
GEOMETRIC_REPRESENTATION_CONTEXT(3)
GLOBAL_UNCERTAINTY_ASSIGNED_CONTEXT((#1805))
GLOBAL_UNIT_ASSIGNED_CONTEXT((#1809,#1811,#1812))
REPRESENTATION_CONTEXT('','3D')
);
#1808=(
GEOMETRIC_REPRESENTATION_CONTEXT(3)
GLOBAL_UNCERTAINTY_ASSIGNED_CONTEXT((#1806))
GLOBAL_UNIT_ASSIGNED_CONTEXT((#1809,#1811,#1812))
REPRESENTATION_CONTEXT('','3D')
);
#1809=(
LENGTH_UNIT()
NAMED_UNIT(*)
SI_UNIT(.MILLI.,.METRE.)
);
#1810=(
LENGTH_UNIT()
NAMED_UNIT(*)
SI_UNIT($,.METRE.)
);
#1811=(
NAMED_UNIT(*)
PLANE_ANGLE_UNIT()
SI_UNIT($,.RADIAN.)
);
#1812=(
NAMED_UNIT(*)
SI_UNIT($,.STERADIAN.)
SOLID_ANGLE_UNIT()
);
#1813=SHAPE_DEFINITION_REPRESENTATION(#1814,#1815);
#1814=PRODUCT_DEFINITION_SHAPE('',$,#1817);
#1815=SHAPE_REPRESENTATION('',(#1099),#1807);
#1816=PRODUCT_DEFINITION_CONTEXT('part definition',#1821,'design');
#1817=PRODUCT_DEFINITION('Joint-R','Joint-R',#1818,#1816);
#1818=PRODUCT_DEFINITION_FORMATION('',$,#1823);
#1819=PRODUCT_RELATED_PRODUCT_CATEGORY('Joint-R','Joint-R',(#1823));
#1820=APPLICATION_PROTOCOL_DEFINITION('international standard',
'automotive_design',2009,#1821);
#1821=APPLICATION_CONTEXT(
'Core Data for Automotive Mechanical Design Process');
#1822=PRODUCT_CONTEXT('part definition',#1821,'mechanical');
#1823=PRODUCT('Joint-R','Joint-R',$,(#1822));
#1824=PRESENTATION_STYLE_ASSIGNMENT((#1825));
#1825=SURFACE_STYLE_USAGE(.BOTH.,#1826);
#1826=SURFACE_SIDE_STYLE('',(#1827));
#1827=SURFACE_STYLE_FILL_AREA(#1828);
#1828=FILL_AREA_STYLE('\X2\92FC\X0\ - \X2\30B530C630F3\X0\',(#1829));
#1829=FILL_AREA_STYLE_COLOUR('\X2\92FC\X0\ - \X2\30B530C630F3\X0\',#1830);
#1830=COLOUR_RGB('\X2\92FC\X0\ - \X2\30B530C630F3\X0\',0.627450980392157,
0.627450980392157,0.627450980392157);
ENDSEC;
END-ISO-10303-21;
