ISO-10303-21;
HEADER;
/* Generated by software containing ST-Developer
 * from STEP Tools, Inc. (www.steptools.com) 
 */

FILE_DESCRIPTION(
/* description */ (''),
/* implementation_level */ '2;1');

FILE_NAME(
/* name */ 'Joint-L.step',
/* time_stamp */ '2026-07-28T10:26:00+09:00',
/* author */ (''),
/* organization */ (''),
/* preprocessor_version */ 'ST-DEVELOPER v20.1',
/* originating_system */ 'Autodesk Translation Framework v15.8.0.0',
/* authorisation */ '');

FILE_SCHEMA (('AUTOMOTIVE_DESIGN { 1 0 10303 214 3 1 1 }'));
ENDSEC;

DATA;
#10=MECHANICAL_DESIGN_GEOMETRIC_PRESENTATION_REPRESENTATION('',(#13),#1808);
#11=SHAPE_REPRESENTATION_RELATIONSHIP('SRR','None',#1815,#12);
#12=ADVANCED_BREP_SHAPE_REPRESENTATION('',(#14),#1807);
#13=STYLED_ITEM('',(#1824),#14);
#14=MANIFOLD_SOLID_BREP('Joint-L',#1086);
#15=ELLIPSE('',#1137,2.12132034355967,1.50000000000002);
#16=ELLIPSE('',#1141,1.50552258368937,1.50000000000002);
#17=ELLIPSE('',#1143,2.12132034355965,1.50000000000002);
#18=B_SPLINE_CURVE_WITH_KNOTS('',3,(#1568,#1569,#1570,#1571,#1572,#1573),
 .UNSPECIFIED.,.F.,.F.,(4,2,4),(0.272279310643259,0.287468568917502,0.325288009587104),
 .UNSPECIFIED.);
#19=CYLINDRICAL_SURFACE('',#1113,1.);
#20=CYLINDRICAL_SURFACE('',#1140,1.50000000000002);
#21=CYLINDRICAL_SURFACE('',#1145,1.50000000000002);
#22=CYLINDRICAL_SURFACE('',#1149,3.);
#23=CYLINDRICAL_SURFACE('',#1150,1.25);
#24=CYLINDRICAL_SURFACE('',#1168,3.);
#25=CYLINDRICAL_SURFACE('',#1170,1.5);
#26=CYLINDRICAL_SURFACE('',#1174,2.25);
#27=CYLINDRICAL_SURFACE('',#1178,3.);
#28=CYLINDRICAL_SURFACE('',#1180,3.625);
#29=CYLINDRICAL_SURFACE('',#1181,1.25);
#30=CYLINDRICAL_SURFACE('',#1182,1.25);
#31=CYLINDRICAL_SURFACE('',#1183,1.5);
#32=CYLINDRICAL_SURFACE('',#1187,3.);
#33=CYLINDRICAL_SURFACE('',#1188,3.625);
#34=CYLINDRICAL_SURFACE('',#1189,1.25);
#35=CYLINDRICAL_SURFACE('',#1190,1.25);
#36=CYLINDRICAL_SURFACE('',#1191,1.25);
#37=FACE_BOUND('',#144,.T.);
#38=FACE_BOUND('',#145,.T.);
#39=FACE_BOUND('',#146,.T.);
#40=FACE_BOUND('',#147,.T.);
#41=FACE_BOUND('',#158,.T.);
#42=FACE_BOUND('',#159,.T.);
#43=FACE_BOUND('',#160,.T.);
#44=FACE_BOUND('',#161,.T.);
#45=FACE_BOUND('',#178,.T.);
#46=FACE_BOUND('',#179,.T.);
#47=FACE_BOUND('',#180,.T.);
#48=FACE_BOUND('',#181,.T.);
#49=FACE_BOUND('',#183,.T.);
#50=FACE_BOUND('',#184,.T.);
#51=FACE_BOUND('',#185,.T.);
#52=FACE_BOUND('',#186,.T.);
#53=CIRCLE('',#1102,3.);
#54=CIRCLE('',#1103,3.);
#55=CIRCLE('',#1104,1.);
#56=CIRCLE('',#1105,1.25);
#57=CIRCLE('',#1106,3.625);
#58=CIRCLE('',#1107,1.25);
#59=CIRCLE('',#1108,1.25);
#60=CIRCLE('',#1114,1.);
#61=CIRCLE('',#1118,2.25);
#62=CIRCLE('',#1121,3.);
#63=CIRCLE('',#1122,3.);
#64=CIRCLE('',#1123,1.25);
#65=CIRCLE('',#1124,3.625);
#66=CIRCLE('',#1125,1.25);
#67=CIRCLE('',#1126,1.25);
#68=CIRCLE('',#1130,1.50000000000002);
#69=CIRCLE('',#1131,3.);
#70=CIRCLE('',#1132,2.25);
#71=CIRCLE('',#1134,1.5);
#72=CIRCLE('',#1135,1.50000000000002);
#73=CIRCLE('',#1146,1.50000000000002);
#74=CIRCLE('',#1152,3.);
#75=CIRCLE('',#1153,1.5);
#76=CIRCLE('',#1154,1.5);
#77=CIRCLE('',#1155,3.);
#78=CIRCLE('',#1156,1.25);
#79=CIRCLE('',#1157,3.62500000000001);
#80=CIRCLE('',#1158,1.25);
#81=CIRCLE('',#1159,1.25);
#82=CIRCLE('',#1161,2.25);
#83=CIRCLE('',#1162,3.);
#84=CIRCLE('',#1163,1.5);
#85=CIRCLE('',#1164,1.25);
#86=CIRCLE('',#1165,3.625);
#87=CIRCLE('',#1166,1.25);
#88=CIRCLE('',#1167,1.25);
#89=FACE_OUTER_BOUND('',#142,.T.);
#90=FACE_OUTER_BOUND('',#143,.T.);
#91=FACE_OUTER_BOUND('',#148,.T.);
#92=FACE_OUTER_BOUND('',#149,.T.);
#93=FACE_OUTER_BOUND('',#150,.T.);
#94=FACE_OUTER_BOUND('',#151,.T.);
#95=FACE_OUTER_BOUND('',#152,.T.);
#96=FACE_OUTER_BOUND('',#153,.T.);
#97=FACE_OUTER_BOUND('',#154,.T.);
#98=FACE_OUTER_BOUND('',#155,.T.);
#99=FACE_OUTER_BOUND('',#156,.T.);
#100=FACE_OUTER_BOUND('',#157,.T.);
#101=FACE_OUTER_BOUND('',#162,.T.);
#102=FACE_OUTER_BOUND('',#163,.T.);
#103=FACE_OUTER_BOUND('',#164,.T.);
#104=FACE_OUTER_BOUND('',#165,.T.);
#105=FACE_OUTER_BOUND('',#166,.T.);
#106=FACE_OUTER_BOUND('',#167,.T.);
#107=FACE_OUTER_BOUND('',#168,.T.);
#108=FACE_OUTER_BOUND('',#169,.T.);
#109=FACE_OUTER_BOUND('',#170,.T.);
#110=FACE_OUTER_BOUND('',#171,.T.);
#111=FACE_OUTER_BOUND('',#172,.T.);
#112=FACE_OUTER_BOUND('',#173,.T.);
#113=FACE_OUTER_BOUND('',#174,.T.);
#114=FACE_OUTER_BOUND('',#175,.T.);
#115=FACE_OUTER_BOUND('',#176,.T.);
#116=FACE_OUTER_BOUND('',#177,.T.);
#117=FACE_OUTER_BOUND('',#182,.T.);
#118=FACE_OUTER_BOUND('',#187,.T.);
#119=FACE_OUTER_BOUND('',#188,.T.);
#120=FACE_OUTER_BOUND('',#189,.T.);
#121=FACE_OUTER_BOUND('',#190,.T.);
#122=FACE_OUTER_BOUND('',#191,.T.);
#123=FACE_OUTER_BOUND('',#192,.T.);
#124=FACE_OUTER_BOUND('',#193,.T.);
#125=FACE_OUTER_BOUND('',#194,.T.);
#126=FACE_OUTER_BOUND('',#195,.T.);
#127=FACE_OUTER_BOUND('',#196,.T.);
#128=FACE_OUTER_BOUND('',#197,.T.);
#129=FACE_OUTER_BOUND('',#198,.T.);
#130=FACE_OUTER_BOUND('',#199,.T.);
#131=FACE_OUTER_BOUND('',#200,.T.);
#132=FACE_OUTER_BOUND('',#201,.T.);
#133=FACE_OUTER_BOUND('',#202,.T.);
#134=FACE_OUTER_BOUND('',#203,.T.);
#135=FACE_OUTER_BOUND('',#204,.T.);
#136=FACE_OUTER_BOUND('',#205,.T.);
#137=FACE_OUTER_BOUND('',#206,.T.);
#138=FACE_OUTER_BOUND('',#207,.T.);
#139=FACE_OUTER_BOUND('',#208,.T.);
#140=FACE_OUTER_BOUND('',#209,.T.);
#141=FACE_OUTER_BOUND('',#210,.T.);
#142=EDGE_LOOP('',(#692,#693,#694,#695));
#143=EDGE_LOOP('',(#696,#697,#698,#699,#700,#701,#702,#703,#704,#705,#706,
#707,#708,#709,#710,#711,#712,#713));
#144=EDGE_LOOP('',(#714));
#145=EDGE_LOOP('',(#715));
#146=EDGE_LOOP('',(#716));
#147=EDGE_LOOP('',(#717));
#148=EDGE_LOOP('',(#718,#719,#720,#721));
#149=EDGE_LOOP('',(#722,#723,#724,#725));
#150=EDGE_LOOP('',(#726,#727,#728,#729,#730,#731));
#151=EDGE_LOOP('',(#732,#733,#734,#735,#736));
#152=EDGE_LOOP('',(#737,#738,#739,#740,#741));
#153=EDGE_LOOP('',(#742,#743,#744,#745,#746,#747));
#154=EDGE_LOOP('',(#748,#749,#750,#751));
#155=EDGE_LOOP('',(#752,#753,#754));
#156=EDGE_LOOP('',(#755,#756,#757,#758,#759,#760));
#157=EDGE_LOOP('',(#761,#762,#763,#764,#765,#766,#767,#768,#769,#770,#771,
#772,#773));
#158=EDGE_LOOP('',(#774));
#159=EDGE_LOOP('',(#775));
#160=EDGE_LOOP('',(#776));
#161=EDGE_LOOP('',(#777));
#162=EDGE_LOOP('',(#778,#779,#780,#781,#782,#783));
#163=EDGE_LOOP('',(#784,#785,#786,#787,#788,#789,#790,#791));
#164=EDGE_LOOP('',(#792,#793,#794,#795,#796,#797,#798,#799,#800));
#165=EDGE_LOOP('',(#801,#802,#803,#804,#805,#806,#807));
#166=EDGE_LOOP('',(#808,#809,#810,#811,#812));
#167=EDGE_LOOP('',(#813,#814,#815,#816,#817,#818,#819,#820,#821,#822,#823,
#824,#825,#826));
#168=EDGE_LOOP('',(#827,#828,#829,#830));
#169=EDGE_LOOP('',(#831,#832,#833,#834,#835));
#170=EDGE_LOOP('',(#836,#837,#838,#839));
#171=EDGE_LOOP('',(#840,#841,#842,#843));
#172=EDGE_LOOP('',(#844,#845,#846,#847,#848));
#173=EDGE_LOOP('',(#849,#850,#851,#852));
#174=EDGE_LOOP('',(#853,#854,#855,#856));
#175=EDGE_LOOP('',(#857,#858,#859,#860));
#176=EDGE_LOOP('',(#861,#862,#863,#864));
#177=EDGE_LOOP('',(#865,#866,#867,#868,#869,#870,#871,#872));
#178=EDGE_LOOP('',(#873));
#179=EDGE_LOOP('',(#874));
#180=EDGE_LOOP('',(#875));
#181=EDGE_LOOP('',(#876));
#182=EDGE_LOOP('',(#877,#878,#879,#880,#881,#882,#883,#884,#885,#886));
#183=EDGE_LOOP('',(#887));
#184=EDGE_LOOP('',(#888));
#185=EDGE_LOOP('',(#889));
#186=EDGE_LOOP('',(#890));
#187=EDGE_LOOP('',(#891,#892,#893,#894));
#188=EDGE_LOOP('',(#895,#896,#897,#898));
#189=EDGE_LOOP('',(#899,#900,#901,#902));
#190=EDGE_LOOP('',(#903,#904,#905,#906,#907,#908));
#191=EDGE_LOOP('',(#909,#910,#911,#912));
#192=EDGE_LOOP('',(#913,#914,#915,#916,#917,#918));
#193=EDGE_LOOP('',(#919,#920,#921,#922,#923,#924,#925,#926));
#194=EDGE_LOOP('',(#927,#928,#929,#930,#931));
#195=EDGE_LOOP('',(#932,#933,#934,#935));
#196=EDGE_LOOP('',(#936,#937,#938,#939));
#197=EDGE_LOOP('',(#940,#941,#942,#943));
#198=EDGE_LOOP('',(#944,#945,#946,#947,#948,#949));
#199=EDGE_LOOP('',(#950,#951,#952,#953));
#200=EDGE_LOOP('',(#954,#955,#956,#957));
#201=EDGE_LOOP('',(#958,#959,#960,#961));
#202=EDGE_LOOP('',(#962,#963,#964,#965));
#203=EDGE_LOOP('',(#966,#967,#968,#969));
#204=EDGE_LOOP('',(#970,#971,#972,#973));
#205=EDGE_LOOP('',(#974,#975,#976,#977));
#206=EDGE_LOOP('',(#978,#979,#980,#981));
#207=EDGE_LOOP('',(#982,#983,#984,#985));
#208=EDGE_LOOP('',(#986,#987,#988,#989));
#209=EDGE_LOOP('',(#990,#991,#992,#993));
#210=EDGE_LOOP('',(#994,#995,#996,#997));
#211=LINE('',#1495,#324);
#212=LINE('',#1497,#325);
#213=LINE('',#1499,#326);
#214=LINE('',#1500,#327);
#215=LINE('',#1503,#328);
#216=LINE('',#1505,#329);
#217=LINE('',#1509,#330);
#218=LINE('',#1513,#331);
#219=LINE('',#1515,#332);
#220=LINE('',#1517,#333);
#221=LINE('',#1519,#334);
#222=LINE('',#1523,#335);
#223=LINE('',#1525,#336);
#224=LINE('',#1527,#337);
#225=LINE('',#1529,#338);
#226=LINE('',#1531,#339);
#227=LINE('',#1533,#340);
#228=LINE('',#1534,#341);
#229=LINE('',#1545,#342);
#230=LINE('',#1546,#343);
#231=LINE('',#1549,#344);
#232=LINE('',#1551,#345);
#233=LINE('',#1552,#346);
#234=LINE('',#1555,#347);
#235=LINE('',#1557,#348);
#236=LINE('',#1558,#349);
#237=LINE('',#1561,#350);
#238=LINE('',#1563,#351);
#239=LINE('',#1564,#352);
#240=LINE('',#1576,#353);
#241=LINE('',#1577,#354);
#242=LINE('',#1580,#355);
#243=LINE('',#1582,#356);
#244=LINE('',#1584,#357);
#245=LINE('',#1585,#358);
#246=LINE('',#1588,#359);
#247=LINE('',#1589,#360);
#248=LINE('',#1593,#361);
#249=LINE('',#1596,#362);
#250=LINE('',#1598,#363);
#251=LINE('',#1600,#364);
#252=LINE('',#1601,#365);
#253=LINE('',#1604,#366);
#254=LINE('',#1606,#367);
#255=LINE('',#1608,#368);
#256=LINE('',#1610,#369);
#257=LINE('',#1612,#370);
#258=LINE('',#1614,#371);
#259=LINE('',#1618,#372);
#260=LINE('',#1621,#373);
#261=LINE('',#1631,#374);
#262=LINE('',#1632,#375);
#263=LINE('',#1635,#376);
#264=LINE('',#1637,#377);
#265=LINE('',#1639,#378);
#266=LINE('',#1640,#379);
#267=LINE('',#1645,#380);
#268=LINE('',#1647,#381);
#269=LINE('',#1651,#382);
#270=LINE('',#1653,#383);
#271=LINE('',#1655,#384);
#272=LINE('',#1659,#385);
#273=LINE('',#1663,#386);
#274=LINE('',#1665,#387);
#275=LINE('',#1672,#388);
#276=LINE('',#1674,#389);
#277=LINE('',#1676,#390);
#278=LINE('',#1677,#391);
#279=LINE('',#1679,#392);
#280=LINE('',#1680,#393);
#281=LINE('',#1682,#394);
#282=LINE('',#1684,#395);
#283=LINE('',#1685,#396);
#284=LINE('',#1687,#397);
#285=LINE('',#1689,#398);
#286=LINE('',#1690,#399);
#287=LINE('',#1691,#400);
#288=LINE('',#1693,#401);
#289=LINE('',#1700,#402);
#290=LINE('',#1701,#403);
#291=LINE('',#1703,#404);
#292=LINE('',#1707,#405);
#293=LINE('',#1710,#406);
#294=LINE('',#1712,#407);
#295=LINE('',#1719,#408);
#296=LINE('',#1723,#409);
#297=LINE('',#1726,#410);
#298=LINE('',#1737,#411);
#299=LINE('',#1741,#412);
#300=LINE('',#1743,#413);
#301=LINE('',#1745,#414);
#302=LINE('',#1749,#415);
#303=LINE('',#1752,#416);
#304=LINE('',#1762,#417);
#305=LINE('',#1763,#418);
#306=LINE('',#1765,#419);
#307=LINE('',#1767,#420);
#308=LINE('',#1769,#421);
#309=LINE('',#1771,#422);
#310=LINE('',#1774,#423);
#311=LINE('',#1775,#424);
#312=LINE('',#1778,#425);
#313=LINE('',#1779,#426);
#314=LINE('',#1782,#427);
#315=LINE('',#1785,#428);
#316=LINE('',#1787,#429);
#317=LINE('',#1789,#430);
#318=LINE('',#1792,#431);
#319=LINE('',#1795,#432);
#320=LINE('',#1798,#433);
#321=LINE('',#1800,#434);
#322=LINE('',#1802,#435);
#323=LINE('',#1804,#436);
#324=VECTOR('',#1196,10.);
#325=VECTOR('',#1197,10.);
#326=VECTOR('',#1198,10.);
#327=VECTOR('',#1199,10.);
#328=VECTOR('',#1202,10.);
#329=VECTOR('',#1203,10.);
#330=VECTOR('',#1206,10.);
#331=VECTOR('',#1209,10.);
#332=VECTOR('',#1210,10.);
#333=VECTOR('',#1211,10.);
#334=VECTOR('',#1212,10.);
#335=VECTOR('',#1215,10.);
#336=VECTOR('',#1216,10.);
#337=VECTOR('',#1217,10.);
#338=VECTOR('',#1218,10.);
#339=VECTOR('',#1219,10.);
#340=VECTOR('',#1220,10.);
#341=VECTOR('',#1221,10.);
#342=VECTOR('',#1232,10.);
#343=VECTOR('',#1233,10.);
#344=VECTOR('',#1236,10.);
#345=VECTOR('',#1237,10.);
#346=VECTOR('',#1238,10.);
#347=VECTOR('',#1241,10.);
#348=VECTOR('',#1242,10.);
#349=VECTOR('',#1243,10.);
#350=VECTOR('',#1246,10.);
#351=VECTOR('',#1247,10.);
#352=VECTOR('',#1248,10.);
#353=VECTOR('',#1253,10.);
#354=VECTOR('',#1254,10.);
#355=VECTOR('',#1257,10.);
#356=VECTOR('',#1258,10.);
#357=VECTOR('',#1259,10.);
#358=VECTOR('',#1260,10.);
#359=VECTOR('',#1263,10.);
#360=VECTOR('',#1264,10.);
#361=VECTOR('',#1269,10.);
#362=VECTOR('',#1272,10.);
#363=VECTOR('',#1273,10.);
#364=VECTOR('',#1274,10.);
#365=VECTOR('',#1275,10.);
#366=VECTOR('',#1278,10.);
#367=VECTOR('',#1279,10.);
#368=VECTOR('',#1280,10.);
#369=VECTOR('',#1281,10.);
#370=VECTOR('',#1282,10.);
#371=VECTOR('',#1283,10.);
#372=VECTOR('',#1286,10.);
#373=VECTOR('',#1289,10.);
#374=VECTOR('',#1300,10.);
#375=VECTOR('',#1301,10.);
#376=VECTOR('',#1304,10.);
#377=VECTOR('',#1305,10.);
#378=VECTOR('',#1306,10.);
#379=VECTOR('',#1307,10.);
#380=VECTOR('',#1312,10.);
#381=VECTOR('',#1313,10.);
#382=VECTOR('',#1316,10.);
#383=VECTOR('',#1317,10.);
#384=VECTOR('',#1318,10.);
#385=VECTOR('',#1323,10.);
#386=VECTOR('',#1326,10.);
#387=VECTOR('',#1327,10.);
#388=VECTOR('',#1334,10.);
#389=VECTOR('',#1335,10.);
#390=VECTOR('',#1336,10.);
#391=VECTOR('',#1337,10.);
#392=VECTOR('',#1340,10.);
#393=VECTOR('',#1341,10.);
#394=VECTOR('',#1342,10.);
#395=VECTOR('',#1343,10.);
#396=VECTOR('',#1344,10.);
#397=VECTOR('',#1345,10.);
#398=VECTOR('',#1346,10.);
#399=VECTOR('',#1347,10.);
#400=VECTOR('',#1348,10.);
#401=VECTOR('',#1351,10.);
#402=VECTOR('',#1360,10.);
#403=VECTOR('',#1361,10.);
#404=VECTOR('',#1364,10.);
#405=VECTOR('',#1371,10.);
#406=VECTOR('',#1376,10.);
#407=VECTOR('',#1379,1.25);
#408=VECTOR('',#1386,10.);
#409=VECTOR('',#1389,10.);
#410=VECTOR('',#1392,10.);
#411=VECTOR('',#1403,10.);
#412=VECTOR('',#1406,10.);
#413=VECTOR('',#1407,10.);
#414=VECTOR('',#1408,10.);
#415=VECTOR('',#1411,10.);
#416=VECTOR('',#1414,10.);
#417=VECTOR('',#1425,10.);
#418=VECTOR('',#1426,10.);
#419=VECTOR('',#1429,10.);
#420=VECTOR('',#1432,10.);
#421=VECTOR('',#1435,10.);
#422=VECTOR('',#1438,10.);
#423=VECTOR('',#1443,10.);
#424=VECTOR('',#1444,10.);
#425=VECTOR('',#1449,10.);
#426=VECTOR('',#1450,10.);
#427=VECTOR('',#1455,10.);
#428=VECTOR('',#1460,3.625);
#429=VECTOR('',#1463,1.25);
#430=VECTOR('',#1466,1.25);
#431=VECTOR('',#1471,10.);
#432=VECTOR('',#1476,10.);
#433=VECTOR('',#1481,3.625);
#434=VECTOR('',#1484,1.25);
#435=VECTOR('',#1487,1.25);
#436=VECTOR('',#1490,1.25);
#437=VERTEX_POINT('',#1493);
#438=VERTEX_POINT('',#1494);
#439=VERTEX_POINT('',#1496);
#440=VERTEX_POINT('',#1498);
#441=VERTEX_POINT('',#1502);
#442=VERTEX_POINT('',#1504);
#443=VERTEX_POINT('',#1506);
#444=VERTEX_POINT('',#1508);
#445=VERTEX_POINT('',#1510);
#446=VERTEX_POINT('',#1512);
#447=VERTEX_POINT('',#1514);
#448=VERTEX_POINT('',#1516);
#449=VERTEX_POINT('',#1518);
#450=VERTEX_POINT('',#1520);
#451=VERTEX_POINT('',#1522);
#452=VERTEX_POINT('',#1524);
#453=VERTEX_POINT('',#1526);
#454=VERTEX_POINT('',#1528);
#455=VERTEX_POINT('',#1530);
#456=VERTEX_POINT('',#1532);
#457=VERTEX_POINT('',#1535);
#458=VERTEX_POINT('',#1537);
#459=VERTEX_POINT('',#1539);
#460=VERTEX_POINT('',#1541);
#461=VERTEX_POINT('',#1544);
#462=VERTEX_POINT('',#1548);
#463=VERTEX_POINT('',#1550);
#464=VERTEX_POINT('',#1554);
#465=VERTEX_POINT('',#1556);
#466=VERTEX_POINT('',#1560);
#467=VERTEX_POINT('',#1562);
#468=VERTEX_POINT('',#1566);
#469=VERTEX_POINT('',#1567);
#470=VERTEX_POINT('',#1574);
#471=VERTEX_POINT('',#1579);
#472=VERTEX_POINT('',#1581);
#473=VERTEX_POINT('',#1583);
#474=VERTEX_POINT('',#1587);
#475=VERTEX_POINT('',#1591);
#476=VERTEX_POINT('',#1595);
#477=VERTEX_POINT('',#1597);
#478=VERTEX_POINT('',#1599);
#479=VERTEX_POINT('',#1603);
#480=VERTEX_POINT('',#1605);
#481=VERTEX_POINT('',#1607);
#482=VERTEX_POINT('',#1609);
#483=VERTEX_POINT('',#1611);
#484=VERTEX_POINT('',#1613);
#485=VERTEX_POINT('',#1615);
#486=VERTEX_POINT('',#1617);
#487=VERTEX_POINT('',#1619);
#488=VERTEX_POINT('',#1622);
#489=VERTEX_POINT('',#1624);
#490=VERTEX_POINT('',#1626);
#491=VERTEX_POINT('',#1628);
#492=VERTEX_POINT('',#1634);
#493=VERTEX_POINT('',#1636);
#494=VERTEX_POINT('',#1638);
#495=VERTEX_POINT('',#1642);
#496=VERTEX_POINT('',#1644);
#497=VERTEX_POINT('',#1646);
#498=VERTEX_POINT('',#1648);
#499=VERTEX_POINT('',#1650);
#500=VERTEX_POINT('',#1652);
#501=VERTEX_POINT('',#1654);
#502=VERTEX_POINT('',#1658);
#503=VERTEX_POINT('',#1660);
#504=VERTEX_POINT('',#1662);
#505=VERTEX_POINT('',#1664);
#506=VERTEX_POINT('',#1668);
#507=VERTEX_POINT('',#1669);
#508=VERTEX_POINT('',#1671);
#509=VERTEX_POINT('',#1673);
#510=VERTEX_POINT('',#1675);
#511=VERTEX_POINT('',#1681);
#512=VERTEX_POINT('',#1683);
#513=VERTEX_POINT('',#1686);
#514=VERTEX_POINT('',#1688);
#515=VERTEX_POINT('',#1697);
#516=VERTEX_POINT('',#1698);
#517=VERTEX_POINT('',#1714);
#518=VERTEX_POINT('',#1716);
#519=VERTEX_POINT('',#1718);
#520=VERTEX_POINT('',#1720);
#521=VERTEX_POINT('',#1722);
#522=VERTEX_POINT('',#1724);
#523=VERTEX_POINT('',#1727);
#524=VERTEX_POINT('',#1729);
#525=VERTEX_POINT('',#1731);
#526=VERTEX_POINT('',#1733);
#527=VERTEX_POINT('',#1736);
#528=VERTEX_POINT('',#1738);
#529=VERTEX_POINT('',#1740);
#530=VERTEX_POINT('',#1742);
#531=VERTEX_POINT('',#1744);
#532=VERTEX_POINT('',#1746);
#533=VERTEX_POINT('',#1748);
#534=VERTEX_POINT('',#1750);
#535=VERTEX_POINT('',#1753);
#536=VERTEX_POINT('',#1755);
#537=VERTEX_POINT('',#1757);
#538=VERTEX_POINT('',#1759);
#539=EDGE_CURVE('',#437,#438,#211,.T.);
#540=EDGE_CURVE('',#438,#439,#212,.T.);
#541=EDGE_CURVE('',#439,#440,#213,.T.);
#542=EDGE_CURVE('',#440,#437,#214,.T.);
#543=EDGE_CURVE('',#437,#441,#215,.T.);
#544=EDGE_CURVE('',#441,#442,#216,.T.);
#545=EDGE_CURVE('',#442,#443,#53,.T.);
#546=EDGE_CURVE('',#443,#444,#217,.T.);
#547=EDGE_CURVE('',#444,#445,#54,.T.);
#548=EDGE_CURVE('',#445,#446,#218,.T.);
#549=EDGE_CURVE('',#446,#447,#219,.T.);
#550=EDGE_CURVE('',#447,#448,#220,.T.);
#551=EDGE_CURVE('',#448,#449,#221,.T.);
#552=EDGE_CURVE('',#450,#449,#55,.T.);
#553=EDGE_CURVE('',#451,#450,#222,.T.);
#554=EDGE_CURVE('',#451,#452,#223,.T.);
#555=EDGE_CURVE('',#452,#453,#224,.T.);
#556=EDGE_CURVE('',#453,#454,#225,.T.);
#557=EDGE_CURVE('',#454,#455,#226,.T.);
#558=EDGE_CURVE('',#455,#456,#227,.T.);
#559=EDGE_CURVE('',#438,#456,#228,.T.);
#560=EDGE_CURVE('',#457,#457,#56,.T.);
#561=EDGE_CURVE('',#458,#458,#57,.T.);
#562=EDGE_CURVE('',#459,#459,#58,.T.);
#563=EDGE_CURVE('',#460,#460,#59,.T.);
#564=EDGE_CURVE('',#440,#461,#229,.T.);
#565=EDGE_CURVE('',#461,#441,#230,.T.);
#566=EDGE_CURVE('',#462,#455,#231,.T.);
#567=EDGE_CURVE('',#462,#463,#232,.T.);
#568=EDGE_CURVE('',#456,#463,#233,.T.);
#569=EDGE_CURVE('',#463,#464,#234,.T.);
#570=EDGE_CURVE('',#464,#465,#235,.T.);
#571=EDGE_CURVE('',#465,#439,#236,.T.);
#572=EDGE_CURVE('',#462,#466,#237,.T.);
#573=EDGE_CURVE('',#467,#466,#238,.T.);
#574=EDGE_CURVE('',#467,#464,#239,.T.);
#575=EDGE_CURVE('',#468,#469,#18,.F.);
#576=EDGE_CURVE('',#469,#470,#60,.F.);
#577=EDGE_CURVE('',#450,#470,#240,.T.);
#578=EDGE_CURVE('',#468,#449,#241,.T.);
#579=EDGE_CURVE('',#471,#448,#242,.T.);
#580=EDGE_CURVE('',#472,#471,#243,.T.);
#581=EDGE_CURVE('',#473,#472,#244,.T.);
#582=EDGE_CURVE('',#468,#473,#245,.T.);
#583=EDGE_CURVE('',#474,#470,#246,.T.);
#584=EDGE_CURVE('',#451,#474,#247,.T.);
#585=EDGE_CURVE('',#475,#473,#61,.T.);
#586=EDGE_CURVE('',#472,#475,#248,.T.);
#587=EDGE_CURVE('',#471,#476,#249,.T.);
#588=EDGE_CURVE('',#476,#477,#250,.T.);
#589=EDGE_CURVE('',#477,#478,#251,.T.);
#590=EDGE_CURVE('',#475,#478,#252,.T.);
#591=EDGE_CURVE('',#465,#479,#253,.T.);
#592=EDGE_CURVE('',#480,#479,#254,.T.);
#593=EDGE_CURVE('',#481,#480,#255,.T.);
#594=EDGE_CURVE('',#481,#482,#256,.T.);
#595=EDGE_CURVE('',#483,#482,#257,.T.);
#596=EDGE_CURVE('',#483,#484,#258,.T.);
#597=EDGE_CURVE('',#484,#485,#62,.T.);
#598=EDGE_CURVE('',#486,#485,#259,.T.);
#599=EDGE_CURVE('',#487,#486,#63,.T.);
#600=EDGE_CURVE('',#461,#487,#260,.T.);
#601=EDGE_CURVE('',#488,#488,#64,.T.);
#602=EDGE_CURVE('',#489,#489,#65,.T.);
#603=EDGE_CURVE('',#490,#490,#66,.T.);
#604=EDGE_CURVE('',#491,#491,#67,.T.);
#605=EDGE_CURVE('',#453,#467,#261,.T.);
#606=EDGE_CURVE('',#479,#452,#262,.T.);
#607=EDGE_CURVE('',#492,#474,#263,.T.);
#608=EDGE_CURVE('',#493,#492,#264,.T.);
#609=EDGE_CURVE('',#493,#494,#265,.T.);
#610=EDGE_CURVE('',#480,#494,#266,.T.);
#611=EDGE_CURVE('',#495,#477,#68,.T.);
#612=EDGE_CURVE('',#495,#496,#267,.T.);
#613=EDGE_CURVE('',#496,#497,#268,.T.);
#614=EDGE_CURVE('',#497,#498,#69,.T.);
#615=EDGE_CURVE('',#498,#499,#269,.T.);
#616=EDGE_CURVE('',#499,#500,#270,.T.);
#617=EDGE_CURVE('',#500,#501,#271,.T.);
#618=EDGE_CURVE('',#501,#478,#70,.T.);
#619=EDGE_CURVE('',#494,#502,#272,.T.);
#620=EDGE_CURVE('',#502,#503,#71,.T.);
#621=EDGE_CURVE('',#503,#504,#273,.T.);
#622=EDGE_CURVE('',#504,#505,#274,.T.);
#623=EDGE_CURVE('',#481,#505,#72,.T.);
#624=EDGE_CURVE('',#506,#507,#15,.T.);
#625=EDGE_CURVE('',#508,#506,#275,.T.);
#626=EDGE_CURVE('',#509,#508,#276,.T.);
#627=EDGE_CURVE('',#510,#509,#277,.T.);
#628=EDGE_CURVE('',#507,#510,#278,.T.);
#629=EDGE_CURVE('',#446,#509,#279,.T.);
#630=EDGE_CURVE('',#445,#484,#280,.T.);
#631=EDGE_CURVE('',#483,#511,#281,.T.);
#632=EDGE_CURVE('',#511,#512,#282,.T.);
#633=EDGE_CURVE('',#504,#512,#283,.T.);
#634=EDGE_CURVE('',#503,#513,#284,.T.);
#635=EDGE_CURVE('',#513,#514,#285,.T.);
#636=EDGE_CURVE('',#514,#497,#286,.T.);
#637=EDGE_CURVE('',#496,#510,#287,.T.);
#638=EDGE_CURVE('',#507,#495,#288,.T.);
#639=EDGE_CURVE('',#506,#476,#16,.T.);
#640=EDGE_CURVE('',#515,#516,#17,.T.);
#641=EDGE_CURVE('',#512,#515,#289,.T.);
#642=EDGE_CURVE('',#516,#511,#290,.T.);
#643=EDGE_CURVE('',#515,#505,#291,.T.);
#644=EDGE_CURVE('',#482,#516,#73,.T.);
#645=EDGE_CURVE('',#508,#447,#292,.T.);
#646=EDGE_CURVE('',#485,#444,#293,.T.);
#647=EDGE_CURVE('',#457,#488,#294,.T.);
#648=EDGE_CURVE('',#514,#517,#74,.T.);
#649=EDGE_CURVE('',#518,#513,#75,.T.);
#650=EDGE_CURVE('',#519,#518,#295,.T.);
#651=EDGE_CURVE('',#520,#519,#76,.T.);
#652=EDGE_CURVE('',#521,#520,#296,.T.);
#653=EDGE_CURVE('',#522,#521,#77,.T.);
#654=EDGE_CURVE('',#517,#522,#297,.T.);
#655=EDGE_CURVE('',#523,#523,#78,.T.);
#656=EDGE_CURVE('',#524,#524,#79,.T.);
#657=EDGE_CURVE('',#525,#525,#80,.T.);
#658=EDGE_CURVE('',#526,#526,#81,.T.);
#659=EDGE_CURVE('',#492,#527,#298,.T.);
#660=EDGE_CURVE('',#527,#528,#82,.T.);
#661=EDGE_CURVE('',#528,#529,#299,.T.);
#662=EDGE_CURVE('',#529,#530,#300,.T.);
#663=EDGE_CURVE('',#530,#531,#301,.T.);
#664=EDGE_CURVE('',#531,#532,#83,.T.);
#665=EDGE_CURVE('',#532,#533,#302,.T.);
#666=EDGE_CURVE('',#533,#534,#84,.T.);
#667=EDGE_CURVE('',#534,#493,#303,.T.);
#668=EDGE_CURVE('',#535,#535,#85,.T.);
#669=EDGE_CURVE('',#536,#536,#86,.T.);
#670=EDGE_CURVE('',#537,#537,#87,.T.);
#671=EDGE_CURVE('',#538,#538,#88,.T.);
#672=EDGE_CURVE('',#522,#531,#304,.T.);
#673=EDGE_CURVE('',#532,#521,#305,.T.);
#674=EDGE_CURVE('',#520,#533,#306,.T.);
#675=EDGE_CURVE('',#534,#519,#307,.T.);
#676=EDGE_CURVE('',#502,#518,#308,.T.);
#677=EDGE_CURVE('',#486,#443,#309,.T.);
#678=EDGE_CURVE('',#528,#501,#310,.T.);
#679=EDGE_CURVE('',#469,#527,#311,.T.);
#680=EDGE_CURVE('',#499,#530,#312,.T.);
#681=EDGE_CURVE('',#500,#529,#313,.T.);
#682=EDGE_CURVE('',#498,#517,#314,.T.);
#683=EDGE_CURVE('',#536,#524,#315,.T.);
#684=EDGE_CURVE('',#535,#526,#316,.T.);
#685=EDGE_CURVE('',#538,#525,#317,.T.);
#686=EDGE_CURVE('',#454,#466,#318,.T.);
#687=EDGE_CURVE('',#487,#442,#319,.T.);
#688=EDGE_CURVE('',#458,#489,#320,.T.);
#689=EDGE_CURVE('',#460,#491,#321,.T.);
#690=EDGE_CURVE('',#459,#490,#322,.T.);
#691=EDGE_CURVE('',#523,#537,#323,.T.);
#692=ORIENTED_EDGE('',*,*,#539,.T.);
#693=ORIENTED_EDGE('',*,*,#540,.T.);
#694=ORIENTED_EDGE('',*,*,#541,.T.);
#695=ORIENTED_EDGE('',*,*,#542,.T.);
#696=ORIENTED_EDGE('',*,*,#539,.F.);
#697=ORIENTED_EDGE('',*,*,#543,.T.);
#698=ORIENTED_EDGE('',*,*,#544,.T.);
#699=ORIENTED_EDGE('',*,*,#545,.T.);
#700=ORIENTED_EDGE('',*,*,#546,.T.);
#701=ORIENTED_EDGE('',*,*,#547,.T.);
#702=ORIENTED_EDGE('',*,*,#548,.T.);
#703=ORIENTED_EDGE('',*,*,#549,.T.);
#704=ORIENTED_EDGE('',*,*,#550,.T.);
#705=ORIENTED_EDGE('',*,*,#551,.T.);
#706=ORIENTED_EDGE('',*,*,#552,.F.);
#707=ORIENTED_EDGE('',*,*,#553,.F.);
#708=ORIENTED_EDGE('',*,*,#554,.T.);
#709=ORIENTED_EDGE('',*,*,#555,.T.);
#710=ORIENTED_EDGE('',*,*,#556,.T.);
#711=ORIENTED_EDGE('',*,*,#557,.T.);
#712=ORIENTED_EDGE('',*,*,#558,.T.);
#713=ORIENTED_EDGE('',*,*,#559,.F.);
#714=ORIENTED_EDGE('',*,*,#560,.T.);
#715=ORIENTED_EDGE('',*,*,#561,.T.);
#716=ORIENTED_EDGE('',*,*,#562,.T.);
#717=ORIENTED_EDGE('',*,*,#563,.T.);
#718=ORIENTED_EDGE('',*,*,#542,.F.);
#719=ORIENTED_EDGE('',*,*,#564,.T.);
#720=ORIENTED_EDGE('',*,*,#565,.T.);
#721=ORIENTED_EDGE('',*,*,#543,.F.);
#722=ORIENTED_EDGE('',*,*,#566,.F.);
#723=ORIENTED_EDGE('',*,*,#567,.T.);
#724=ORIENTED_EDGE('',*,*,#568,.F.);
#725=ORIENTED_EDGE('',*,*,#558,.F.);
#726=ORIENTED_EDGE('',*,*,#540,.F.);
#727=ORIENTED_EDGE('',*,*,#559,.T.);
#728=ORIENTED_EDGE('',*,*,#568,.T.);
#729=ORIENTED_EDGE('',*,*,#569,.T.);
#730=ORIENTED_EDGE('',*,*,#570,.T.);
#731=ORIENTED_EDGE('',*,*,#571,.T.);
#732=ORIENTED_EDGE('',*,*,#572,.T.);
#733=ORIENTED_EDGE('',*,*,#573,.F.);
#734=ORIENTED_EDGE('',*,*,#574,.T.);
#735=ORIENTED_EDGE('',*,*,#569,.F.);
#736=ORIENTED_EDGE('',*,*,#567,.F.);
#737=ORIENTED_EDGE('',*,*,#575,.T.);
#738=ORIENTED_EDGE('',*,*,#576,.T.);
#739=ORIENTED_EDGE('',*,*,#577,.F.);
#740=ORIENTED_EDGE('',*,*,#552,.T.);
#741=ORIENTED_EDGE('',*,*,#578,.F.);
#742=ORIENTED_EDGE('',*,*,#578,.T.);
#743=ORIENTED_EDGE('',*,*,#551,.F.);
#744=ORIENTED_EDGE('',*,*,#579,.F.);
#745=ORIENTED_EDGE('',*,*,#580,.F.);
#746=ORIENTED_EDGE('',*,*,#581,.F.);
#747=ORIENTED_EDGE('',*,*,#582,.F.);
#748=ORIENTED_EDGE('',*,*,#577,.T.);
#749=ORIENTED_EDGE('',*,*,#583,.F.);
#750=ORIENTED_EDGE('',*,*,#584,.F.);
#751=ORIENTED_EDGE('',*,*,#553,.T.);
#752=ORIENTED_EDGE('',*,*,#585,.T.);
#753=ORIENTED_EDGE('',*,*,#581,.T.);
#754=ORIENTED_EDGE('',*,*,#586,.T.);
#755=ORIENTED_EDGE('',*,*,#586,.F.);
#756=ORIENTED_EDGE('',*,*,#580,.T.);
#757=ORIENTED_EDGE('',*,*,#587,.T.);
#758=ORIENTED_EDGE('',*,*,#588,.T.);
#759=ORIENTED_EDGE('',*,*,#589,.T.);
#760=ORIENTED_EDGE('',*,*,#590,.F.);
#761=ORIENTED_EDGE('',*,*,#541,.F.);
#762=ORIENTED_EDGE('',*,*,#571,.F.);
#763=ORIENTED_EDGE('',*,*,#591,.T.);
#764=ORIENTED_EDGE('',*,*,#592,.F.);
#765=ORIENTED_EDGE('',*,*,#593,.F.);
#766=ORIENTED_EDGE('',*,*,#594,.T.);
#767=ORIENTED_EDGE('',*,*,#595,.F.);
#768=ORIENTED_EDGE('',*,*,#596,.T.);
#769=ORIENTED_EDGE('',*,*,#597,.T.);
#770=ORIENTED_EDGE('',*,*,#598,.F.);
#771=ORIENTED_EDGE('',*,*,#599,.F.);
#772=ORIENTED_EDGE('',*,*,#600,.F.);
#773=ORIENTED_EDGE('',*,*,#564,.F.);
#774=ORIENTED_EDGE('',*,*,#601,.F.);
#775=ORIENTED_EDGE('',*,*,#602,.F.);
#776=ORIENTED_EDGE('',*,*,#603,.F.);
#777=ORIENTED_EDGE('',*,*,#604,.F.);
#778=ORIENTED_EDGE('',*,*,#574,.F.);
#779=ORIENTED_EDGE('',*,*,#605,.F.);
#780=ORIENTED_EDGE('',*,*,#555,.F.);
#781=ORIENTED_EDGE('',*,*,#606,.F.);
#782=ORIENTED_EDGE('',*,*,#591,.F.);
#783=ORIENTED_EDGE('',*,*,#570,.F.);
#784=ORIENTED_EDGE('',*,*,#554,.F.);
#785=ORIENTED_EDGE('',*,*,#584,.T.);
#786=ORIENTED_EDGE('',*,*,#607,.F.);
#787=ORIENTED_EDGE('',*,*,#608,.F.);
#788=ORIENTED_EDGE('',*,*,#609,.T.);
#789=ORIENTED_EDGE('',*,*,#610,.F.);
#790=ORIENTED_EDGE('',*,*,#592,.T.);
#791=ORIENTED_EDGE('',*,*,#606,.T.);
#792=ORIENTED_EDGE('',*,*,#589,.F.);
#793=ORIENTED_EDGE('',*,*,#611,.F.);
#794=ORIENTED_EDGE('',*,*,#612,.T.);
#795=ORIENTED_EDGE('',*,*,#613,.T.);
#796=ORIENTED_EDGE('',*,*,#614,.T.);
#797=ORIENTED_EDGE('',*,*,#615,.T.);
#798=ORIENTED_EDGE('',*,*,#616,.T.);
#799=ORIENTED_EDGE('',*,*,#617,.T.);
#800=ORIENTED_EDGE('',*,*,#618,.T.);
#801=ORIENTED_EDGE('',*,*,#610,.T.);
#802=ORIENTED_EDGE('',*,*,#619,.T.);
#803=ORIENTED_EDGE('',*,*,#620,.T.);
#804=ORIENTED_EDGE('',*,*,#621,.T.);
#805=ORIENTED_EDGE('',*,*,#622,.T.);
#806=ORIENTED_EDGE('',*,*,#623,.F.);
#807=ORIENTED_EDGE('',*,*,#593,.T.);
#808=ORIENTED_EDGE('',*,*,#624,.F.);
#809=ORIENTED_EDGE('',*,*,#625,.F.);
#810=ORIENTED_EDGE('',*,*,#626,.F.);
#811=ORIENTED_EDGE('',*,*,#627,.F.);
#812=ORIENTED_EDGE('',*,*,#628,.F.);
#813=ORIENTED_EDGE('',*,*,#627,.T.);
#814=ORIENTED_EDGE('',*,*,#629,.F.);
#815=ORIENTED_EDGE('',*,*,#548,.F.);
#816=ORIENTED_EDGE('',*,*,#630,.T.);
#817=ORIENTED_EDGE('',*,*,#596,.F.);
#818=ORIENTED_EDGE('',*,*,#631,.T.);
#819=ORIENTED_EDGE('',*,*,#632,.T.);
#820=ORIENTED_EDGE('',*,*,#633,.F.);
#821=ORIENTED_EDGE('',*,*,#621,.F.);
#822=ORIENTED_EDGE('',*,*,#634,.T.);
#823=ORIENTED_EDGE('',*,*,#635,.T.);
#824=ORIENTED_EDGE('',*,*,#636,.T.);
#825=ORIENTED_EDGE('',*,*,#613,.F.);
#826=ORIENTED_EDGE('',*,*,#637,.T.);
#827=ORIENTED_EDGE('',*,*,#628,.T.);
#828=ORIENTED_EDGE('',*,*,#637,.F.);
#829=ORIENTED_EDGE('',*,*,#612,.F.);
#830=ORIENTED_EDGE('',*,*,#638,.F.);
#831=ORIENTED_EDGE('',*,*,#624,.T.);
#832=ORIENTED_EDGE('',*,*,#638,.T.);
#833=ORIENTED_EDGE('',*,*,#611,.T.);
#834=ORIENTED_EDGE('',*,*,#588,.F.);
#835=ORIENTED_EDGE('',*,*,#639,.F.);
#836=ORIENTED_EDGE('',*,*,#640,.F.);
#837=ORIENTED_EDGE('',*,*,#641,.F.);
#838=ORIENTED_EDGE('',*,*,#632,.F.);
#839=ORIENTED_EDGE('',*,*,#642,.F.);
#840=ORIENTED_EDGE('',*,*,#641,.T.);
#841=ORIENTED_EDGE('',*,*,#643,.T.);
#842=ORIENTED_EDGE('',*,*,#622,.F.);
#843=ORIENTED_EDGE('',*,*,#633,.T.);
#844=ORIENTED_EDGE('',*,*,#640,.T.);
#845=ORIENTED_EDGE('',*,*,#644,.F.);
#846=ORIENTED_EDGE('',*,*,#594,.F.);
#847=ORIENTED_EDGE('',*,*,#623,.T.);
#848=ORIENTED_EDGE('',*,*,#643,.F.);
#849=ORIENTED_EDGE('',*,*,#626,.T.);
#850=ORIENTED_EDGE('',*,*,#645,.T.);
#851=ORIENTED_EDGE('',*,*,#549,.F.);
#852=ORIENTED_EDGE('',*,*,#629,.T.);
#853=ORIENTED_EDGE('',*,*,#642,.T.);
#854=ORIENTED_EDGE('',*,*,#631,.F.);
#855=ORIENTED_EDGE('',*,*,#595,.T.);
#856=ORIENTED_EDGE('',*,*,#644,.T.);
#857=ORIENTED_EDGE('',*,*,#597,.F.);
#858=ORIENTED_EDGE('',*,*,#630,.F.);
#859=ORIENTED_EDGE('',*,*,#547,.F.);
#860=ORIENTED_EDGE('',*,*,#646,.F.);
#861=ORIENTED_EDGE('',*,*,#560,.F.);
#862=ORIENTED_EDGE('',*,*,#647,.T.);
#863=ORIENTED_EDGE('',*,*,#601,.T.);
#864=ORIENTED_EDGE('',*,*,#647,.F.);
#865=ORIENTED_EDGE('',*,*,#648,.F.);
#866=ORIENTED_EDGE('',*,*,#635,.F.);
#867=ORIENTED_EDGE('',*,*,#649,.F.);
#868=ORIENTED_EDGE('',*,*,#650,.F.);
#869=ORIENTED_EDGE('',*,*,#651,.F.);
#870=ORIENTED_EDGE('',*,*,#652,.F.);
#871=ORIENTED_EDGE('',*,*,#653,.F.);
#872=ORIENTED_EDGE('',*,*,#654,.F.);
#873=ORIENTED_EDGE('',*,*,#655,.F.);
#874=ORIENTED_EDGE('',*,*,#656,.F.);
#875=ORIENTED_EDGE('',*,*,#657,.F.);
#876=ORIENTED_EDGE('',*,*,#658,.F.);
#877=ORIENTED_EDGE('',*,*,#659,.T.);
#878=ORIENTED_EDGE('',*,*,#660,.T.);
#879=ORIENTED_EDGE('',*,*,#661,.T.);
#880=ORIENTED_EDGE('',*,*,#662,.T.);
#881=ORIENTED_EDGE('',*,*,#663,.T.);
#882=ORIENTED_EDGE('',*,*,#664,.T.);
#883=ORIENTED_EDGE('',*,*,#665,.T.);
#884=ORIENTED_EDGE('',*,*,#666,.T.);
#885=ORIENTED_EDGE('',*,*,#667,.T.);
#886=ORIENTED_EDGE('',*,*,#608,.T.);
#887=ORIENTED_EDGE('',*,*,#668,.T.);
#888=ORIENTED_EDGE('',*,*,#669,.T.);
#889=ORIENTED_EDGE('',*,*,#670,.T.);
#890=ORIENTED_EDGE('',*,*,#671,.T.);
#891=ORIENTED_EDGE('',*,*,#664,.F.);
#892=ORIENTED_EDGE('',*,*,#672,.F.);
#893=ORIENTED_EDGE('',*,*,#653,.T.);
#894=ORIENTED_EDGE('',*,*,#673,.F.);
#895=ORIENTED_EDGE('',*,*,#665,.F.);
#896=ORIENTED_EDGE('',*,*,#673,.T.);
#897=ORIENTED_EDGE('',*,*,#652,.T.);
#898=ORIENTED_EDGE('',*,*,#674,.T.);
#899=ORIENTED_EDGE('',*,*,#666,.F.);
#900=ORIENTED_EDGE('',*,*,#674,.F.);
#901=ORIENTED_EDGE('',*,*,#651,.T.);
#902=ORIENTED_EDGE('',*,*,#675,.F.);
#903=ORIENTED_EDGE('',*,*,#667,.F.);
#904=ORIENTED_EDGE('',*,*,#675,.T.);
#905=ORIENTED_EDGE('',*,*,#650,.T.);
#906=ORIENTED_EDGE('',*,*,#676,.F.);
#907=ORIENTED_EDGE('',*,*,#619,.F.);
#908=ORIENTED_EDGE('',*,*,#609,.F.);
#909=ORIENTED_EDGE('',*,*,#646,.T.);
#910=ORIENTED_EDGE('',*,*,#546,.F.);
#911=ORIENTED_EDGE('',*,*,#677,.F.);
#912=ORIENTED_EDGE('',*,*,#598,.T.);
#913=ORIENTED_EDGE('',*,*,#625,.T.);
#914=ORIENTED_EDGE('',*,*,#639,.T.);
#915=ORIENTED_EDGE('',*,*,#587,.F.);
#916=ORIENTED_EDGE('',*,*,#579,.T.);
#917=ORIENTED_EDGE('',*,*,#550,.F.);
#918=ORIENTED_EDGE('',*,*,#645,.F.);
#919=ORIENTED_EDGE('',*,*,#618,.F.);
#920=ORIENTED_EDGE('',*,*,#678,.F.);
#921=ORIENTED_EDGE('',*,*,#660,.F.);
#922=ORIENTED_EDGE('',*,*,#679,.F.);
#923=ORIENTED_EDGE('',*,*,#575,.F.);
#924=ORIENTED_EDGE('',*,*,#582,.T.);
#925=ORIENTED_EDGE('',*,*,#585,.F.);
#926=ORIENTED_EDGE('',*,*,#590,.T.);
#927=ORIENTED_EDGE('',*,*,#607,.T.);
#928=ORIENTED_EDGE('',*,*,#583,.T.);
#929=ORIENTED_EDGE('',*,*,#576,.F.);
#930=ORIENTED_EDGE('',*,*,#679,.T.);
#931=ORIENTED_EDGE('',*,*,#659,.F.);
#932=ORIENTED_EDGE('',*,*,#616,.F.);
#933=ORIENTED_EDGE('',*,*,#680,.T.);
#934=ORIENTED_EDGE('',*,*,#662,.F.);
#935=ORIENTED_EDGE('',*,*,#681,.F.);
#936=ORIENTED_EDGE('',*,*,#617,.F.);
#937=ORIENTED_EDGE('',*,*,#681,.T.);
#938=ORIENTED_EDGE('',*,*,#661,.F.);
#939=ORIENTED_EDGE('',*,*,#678,.T.);
#940=ORIENTED_EDGE('',*,*,#614,.F.);
#941=ORIENTED_EDGE('',*,*,#636,.F.);
#942=ORIENTED_EDGE('',*,*,#648,.T.);
#943=ORIENTED_EDGE('',*,*,#682,.F.);
#944=ORIENTED_EDGE('',*,*,#663,.F.);
#945=ORIENTED_EDGE('',*,*,#680,.F.);
#946=ORIENTED_EDGE('',*,*,#615,.F.);
#947=ORIENTED_EDGE('',*,*,#682,.T.);
#948=ORIENTED_EDGE('',*,*,#654,.T.);
#949=ORIENTED_EDGE('',*,*,#672,.T.);
#950=ORIENTED_EDGE('',*,*,#669,.F.);
#951=ORIENTED_EDGE('',*,*,#683,.T.);
#952=ORIENTED_EDGE('',*,*,#656,.T.);
#953=ORIENTED_EDGE('',*,*,#683,.F.);
#954=ORIENTED_EDGE('',*,*,#668,.F.);
#955=ORIENTED_EDGE('',*,*,#684,.T.);
#956=ORIENTED_EDGE('',*,*,#658,.T.);
#957=ORIENTED_EDGE('',*,*,#684,.F.);
#958=ORIENTED_EDGE('',*,*,#671,.F.);
#959=ORIENTED_EDGE('',*,*,#685,.T.);
#960=ORIENTED_EDGE('',*,*,#657,.T.);
#961=ORIENTED_EDGE('',*,*,#685,.F.);
#962=ORIENTED_EDGE('',*,*,#620,.F.);
#963=ORIENTED_EDGE('',*,*,#676,.T.);
#964=ORIENTED_EDGE('',*,*,#649,.T.);
#965=ORIENTED_EDGE('',*,*,#634,.F.);
#966=ORIENTED_EDGE('',*,*,#572,.F.);
#967=ORIENTED_EDGE('',*,*,#566,.T.);
#968=ORIENTED_EDGE('',*,*,#557,.F.);
#969=ORIENTED_EDGE('',*,*,#686,.T.);
#970=ORIENTED_EDGE('',*,*,#556,.F.);
#971=ORIENTED_EDGE('',*,*,#605,.T.);
#972=ORIENTED_EDGE('',*,*,#573,.T.);
#973=ORIENTED_EDGE('',*,*,#686,.F.);
#974=ORIENTED_EDGE('',*,*,#544,.F.);
#975=ORIENTED_EDGE('',*,*,#565,.F.);
#976=ORIENTED_EDGE('',*,*,#600,.T.);
#977=ORIENTED_EDGE('',*,*,#687,.T.);
#978=ORIENTED_EDGE('',*,*,#545,.F.);
#979=ORIENTED_EDGE('',*,*,#687,.F.);
#980=ORIENTED_EDGE('',*,*,#599,.T.);
#981=ORIENTED_EDGE('',*,*,#677,.T.);
#982=ORIENTED_EDGE('',*,*,#561,.F.);
#983=ORIENTED_EDGE('',*,*,#688,.T.);
#984=ORIENTED_EDGE('',*,*,#602,.T.);
#985=ORIENTED_EDGE('',*,*,#688,.F.);
#986=ORIENTED_EDGE('',*,*,#563,.F.);
#987=ORIENTED_EDGE('',*,*,#689,.T.);
#988=ORIENTED_EDGE('',*,*,#604,.T.);
#989=ORIENTED_EDGE('',*,*,#689,.F.);
#990=ORIENTED_EDGE('',*,*,#562,.F.);
#991=ORIENTED_EDGE('',*,*,#690,.T.);
#992=ORIENTED_EDGE('',*,*,#603,.T.);
#993=ORIENTED_EDGE('',*,*,#690,.F.);
#994=ORIENTED_EDGE('',*,*,#655,.T.);
#995=ORIENTED_EDGE('',*,*,#691,.T.);
#996=ORIENTED_EDGE('',*,*,#670,.F.);
#997=ORIENTED_EDGE('',*,*,#691,.F.);
#998=PLANE('',#1100);
#999=PLANE('',#1101);
#1000=PLANE('',#1109);
#1001=PLANE('',#1110);
#1002=PLANE('',#1111);
#1003=PLANE('',#1112);
#1004=PLANE('',#1115);
#1005=PLANE('',#1116);
#1006=PLANE('',#1117);
#1007=PLANE('',#1119);
#1008=PLANE('',#1120);
#1009=PLANE('',#1127);
#1010=PLANE('',#1128);
#1011=PLANE('',#1129);
#1012=PLANE('',#1133);
#1013=PLANE('',#1136);
#1014=PLANE('',#1138);
#1015=PLANE('',#1139);
#1016=PLANE('',#1142);
#1017=PLANE('',#1144);
#1018=PLANE('',#1147);
#1019=PLANE('',#1148);
#1020=PLANE('',#1151);
#1021=PLANE('',#1160);
#1022=PLANE('',#1169);
#1023=PLANE('',#1171);
#1024=PLANE('',#1172);
#1025=PLANE('',#1173);
#1026=PLANE('',#1175);
#1027=PLANE('',#1176);
#1028=PLANE('',#1177);
#1029=PLANE('',#1179);
#1030=PLANE('',#1184);
#1031=PLANE('',#1185);
#1032=PLANE('',#1186);
#1033=ADVANCED_FACE('',(#89),#998,.T.);
#1034=ADVANCED_FACE('',(#90,#37,#38,#39,#40),#999,.F.);
#1035=ADVANCED_FACE('',(#91),#1000,.F.);
#1036=ADVANCED_FACE('',(#92),#1001,.T.);
#1037=ADVANCED_FACE('',(#93),#1002,.T.);
#1038=ADVANCED_FACE('',(#94),#1003,.F.);
#1039=ADVANCED_FACE('',(#95),#19,.F.);
#1040=ADVANCED_FACE('',(#96),#1004,.T.);
#1041=ADVANCED_FACE('',(#97),#1005,.T.);
#1042=ADVANCED_FACE('',(#98),#1006,.F.);
#1043=ADVANCED_FACE('',(#99),#1007,.F.);
#1044=ADVANCED_FACE('',(#100,#41,#42,#43,#44),#1008,.F.);
#1045=ADVANCED_FACE('',(#101),#1009,.F.);
#1046=ADVANCED_FACE('',(#102),#1010,.T.);
#1047=ADVANCED_FACE('',(#103),#1011,.T.);
#1048=ADVANCED_FACE('',(#104),#1012,.T.);
#1049=ADVANCED_FACE('',(#105),#1013,.F.);
#1050=ADVANCED_FACE('',(#106),#1014,.F.);
#1051=ADVANCED_FACE('',(#107),#1015,.T.);
#1052=ADVANCED_FACE('',(#108),#20,.F.);
#1053=ADVANCED_FACE('',(#109),#1016,.F.);
#1054=ADVANCED_FACE('',(#110),#1017,.T.);
#1055=ADVANCED_FACE('',(#111),#21,.F.);
#1056=ADVANCED_FACE('',(#112),#1018,.F.);
#1057=ADVANCED_FACE('',(#113),#1019,.F.);
#1058=ADVANCED_FACE('',(#114),#22,.T.);
#1059=ADVANCED_FACE('',(#115),#23,.F.);
#1060=ADVANCED_FACE('',(#116,#45,#46,#47,#48),#1020,.T.);
#1061=ADVANCED_FACE('',(#117,#49,#50,#51,#52),#1021,.F.);
#1062=ADVANCED_FACE('',(#118),#24,.T.);
#1063=ADVANCED_FACE('',(#119),#1022,.T.);
#1064=ADVANCED_FACE('',(#120),#25,.T.);
#1065=ADVANCED_FACE('',(#121),#1023,.F.);
#1066=ADVANCED_FACE('',(#122),#1024,.F.);
#1067=ADVANCED_FACE('',(#123),#1025,.T.);
#1068=ADVANCED_FACE('',(#124),#26,.F.);
#1069=ADVANCED_FACE('',(#125),#1026,.T.);
#1070=ADVANCED_FACE('',(#126),#1027,.T.);
#1071=ADVANCED_FACE('',(#127),#1028,.T.);
#1072=ADVANCED_FACE('',(#128),#27,.T.);
#1073=ADVANCED_FACE('',(#129),#1029,.T.);
#1074=ADVANCED_FACE('',(#130),#28,.F.);
#1075=ADVANCED_FACE('',(#131),#29,.F.);
#1076=ADVANCED_FACE('',(#132),#30,.F.);
#1077=ADVANCED_FACE('',(#133),#31,.T.);
#1078=ADVANCED_FACE('',(#134),#1030,.T.);
#1079=ADVANCED_FACE('',(#135),#1031,.T.);
#1080=ADVANCED_FACE('',(#136),#1032,.T.);
#1081=ADVANCED_FACE('',(#137),#32,.T.);
#1082=ADVANCED_FACE('',(#138),#33,.F.);
#1083=ADVANCED_FACE('',(#139),#34,.F.);
#1084=ADVANCED_FACE('',(#140),#35,.F.);
#1085=ADVANCED_FACE('',(#141),#36,.F.);
#1086=CLOSED_SHELL('',(#1033,#1034,#1035,#1036,#1037,#1038,#1039,#1040,
#1041,#1042,#1043,#1044,#1045,#1046,#1047,#1048,#1049,#1050,#1051,#1052,
#1053,#1054,#1055,#1056,#1057,#1058,#1059,#1060,#1061,#1062,#1063,#1064,
#1065,#1066,#1067,#1068,#1069,#1070,#1071,#1072,#1073,#1074,#1075,#1076,
#1077,#1078,#1079,#1080,#1081,#1082,#1083,#1084,#1085));
#1087=DERIVED_UNIT_ELEMENT(#1089,1.);
#1088=DERIVED_UNIT_ELEMENT(#1810,-3.);
#1089=(
MASS_UNIT()
NAMED_UNIT(*)
SI_UNIT(.KILO.,.GRAM.)
);
#1090=DERIVED_UNIT((#1087,#1088));
#1091=MEASURE_REPRESENTATION_ITEM('density measure',
POSITIVE_RATIO_MEASURE(7850.),#1090);
#1092=PROPERTY_DEFINITION_REPRESENTATION(#1097,#1094);
#1093=PROPERTY_DEFINITION_REPRESENTATION(#1098,#1095);
#1094=REPRESENTATION('material name',(#1096),#1807);
#1095=REPRESENTATION('density',(#1091),#1807);
#1096=DESCRIPTIVE_REPRESENTATION_ITEM('\X2\92FC\X0\','\X2\92FC\X0\');
#1097=PROPERTY_DEFINITION('material property','material name',#1817);
#1098=PROPERTY_DEFINITION('material property','density of part',#1817);
#1099=AXIS2_PLACEMENT_3D('',#1491,#1192,#1193);
#1100=AXIS2_PLACEMENT_3D('',#1492,#1194,#1195);
#1101=AXIS2_PLACEMENT_3D('',#1501,#1200,#1201);
#1102=AXIS2_PLACEMENT_3D('',#1507,#1204,#1205);
#1103=AXIS2_PLACEMENT_3D('',#1511,#1207,#1208);
#1104=AXIS2_PLACEMENT_3D('',#1521,#1213,#1214);
#1105=AXIS2_PLACEMENT_3D('',#1536,#1222,#1223);
#1106=AXIS2_PLACEMENT_3D('',#1538,#1224,#1225);
#1107=AXIS2_PLACEMENT_3D('',#1540,#1226,#1227);
#1108=AXIS2_PLACEMENT_3D('',#1542,#1228,#1229);
#1109=AXIS2_PLACEMENT_3D('',#1543,#1230,#1231);
#1110=AXIS2_PLACEMENT_3D('',#1547,#1234,#1235);
#1111=AXIS2_PLACEMENT_3D('',#1553,#1239,#1240);
#1112=AXIS2_PLACEMENT_3D('',#1559,#1244,#1245);
#1113=AXIS2_PLACEMENT_3D('',#1565,#1249,#1250);
#1114=AXIS2_PLACEMENT_3D('',#1575,#1251,#1252);
#1115=AXIS2_PLACEMENT_3D('',#1578,#1255,#1256);
#1116=AXIS2_PLACEMENT_3D('',#1586,#1261,#1262);
#1117=AXIS2_PLACEMENT_3D('',#1590,#1265,#1266);
#1118=AXIS2_PLACEMENT_3D('',#1592,#1267,#1268);
#1119=AXIS2_PLACEMENT_3D('',#1594,#1270,#1271);
#1120=AXIS2_PLACEMENT_3D('',#1602,#1276,#1277);
#1121=AXIS2_PLACEMENT_3D('',#1616,#1284,#1285);
#1122=AXIS2_PLACEMENT_3D('',#1620,#1287,#1288);
#1123=AXIS2_PLACEMENT_3D('',#1623,#1290,#1291);
#1124=AXIS2_PLACEMENT_3D('',#1625,#1292,#1293);
#1125=AXIS2_PLACEMENT_3D('',#1627,#1294,#1295);
#1126=AXIS2_PLACEMENT_3D('',#1629,#1296,#1297);
#1127=AXIS2_PLACEMENT_3D('',#1630,#1298,#1299);
#1128=AXIS2_PLACEMENT_3D('',#1633,#1302,#1303);
#1129=AXIS2_PLACEMENT_3D('',#1641,#1308,#1309);
#1130=AXIS2_PLACEMENT_3D('',#1643,#1310,#1311);
#1131=AXIS2_PLACEMENT_3D('',#1649,#1314,#1315);
#1132=AXIS2_PLACEMENT_3D('',#1656,#1319,#1320);
#1133=AXIS2_PLACEMENT_3D('',#1657,#1321,#1322);
#1134=AXIS2_PLACEMENT_3D('',#1661,#1324,#1325);
#1135=AXIS2_PLACEMENT_3D('',#1666,#1328,#1329);
#1136=AXIS2_PLACEMENT_3D('',#1667,#1330,#1331);
#1137=AXIS2_PLACEMENT_3D('',#1670,#1332,#1333);
#1138=AXIS2_PLACEMENT_3D('',#1678,#1338,#1339);
#1139=AXIS2_PLACEMENT_3D('',#1692,#1349,#1350);
#1140=AXIS2_PLACEMENT_3D('',#1694,#1352,#1353);
#1141=AXIS2_PLACEMENT_3D('',#1695,#1354,#1355);
#1142=AXIS2_PLACEMENT_3D('',#1696,#1356,#1357);
#1143=AXIS2_PLACEMENT_3D('',#1699,#1358,#1359);
#1144=AXIS2_PLACEMENT_3D('',#1702,#1362,#1363);
#1145=AXIS2_PLACEMENT_3D('',#1704,#1365,#1366);
#1146=AXIS2_PLACEMENT_3D('',#1705,#1367,#1368);
#1147=AXIS2_PLACEMENT_3D('',#1706,#1369,#1370);
#1148=AXIS2_PLACEMENT_3D('',#1708,#1372,#1373);
#1149=AXIS2_PLACEMENT_3D('',#1709,#1374,#1375);
#1150=AXIS2_PLACEMENT_3D('',#1711,#1377,#1378);
#1151=AXIS2_PLACEMENT_3D('',#1713,#1380,#1381);
#1152=AXIS2_PLACEMENT_3D('',#1715,#1382,#1383);
#1153=AXIS2_PLACEMENT_3D('',#1717,#1384,#1385);
#1154=AXIS2_PLACEMENT_3D('',#1721,#1387,#1388);
#1155=AXIS2_PLACEMENT_3D('',#1725,#1390,#1391);
#1156=AXIS2_PLACEMENT_3D('',#1728,#1393,#1394);
#1157=AXIS2_PLACEMENT_3D('',#1730,#1395,#1396);
#1158=AXIS2_PLACEMENT_3D('',#1732,#1397,#1398);
#1159=AXIS2_PLACEMENT_3D('',#1734,#1399,#1400);
#1160=AXIS2_PLACEMENT_3D('',#1735,#1401,#1402);
#1161=AXIS2_PLACEMENT_3D('',#1739,#1404,#1405);
#1162=AXIS2_PLACEMENT_3D('',#1747,#1409,#1410);
#1163=AXIS2_PLACEMENT_3D('',#1751,#1412,#1413);
#1164=AXIS2_PLACEMENT_3D('',#1754,#1415,#1416);
#1165=AXIS2_PLACEMENT_3D('',#1756,#1417,#1418);
#1166=AXIS2_PLACEMENT_3D('',#1758,#1419,#1420);
#1167=AXIS2_PLACEMENT_3D('',#1760,#1421,#1422);
#1168=AXIS2_PLACEMENT_3D('',#1761,#1423,#1424);
#1169=AXIS2_PLACEMENT_3D('',#1764,#1427,#1428);
#1170=AXIS2_PLACEMENT_3D('',#1766,#1430,#1431);
#1171=AXIS2_PLACEMENT_3D('',#1768,#1433,#1434);
#1172=AXIS2_PLACEMENT_3D('',#1770,#1436,#1437);
#1173=AXIS2_PLACEMENT_3D('',#1772,#1439,#1440);
#1174=AXIS2_PLACEMENT_3D('',#1773,#1441,#1442);
#1175=AXIS2_PLACEMENT_3D('',#1776,#1445,#1446);
#1176=AXIS2_PLACEMENT_3D('',#1777,#1447,#1448);
#1177=AXIS2_PLACEMENT_3D('',#1780,#1451,#1452);
#1178=AXIS2_PLACEMENT_3D('',#1781,#1453,#1454);
#1179=AXIS2_PLACEMENT_3D('',#1783,#1456,#1457);
#1180=AXIS2_PLACEMENT_3D('',#1784,#1458,#1459);
#1181=AXIS2_PLACEMENT_3D('',#1786,#1461,#1462);
#1182=AXIS2_PLACEMENT_3D('',#1788,#1464,#1465);
#1183=AXIS2_PLACEMENT_3D('',#1790,#1467,#1468);
#1184=AXIS2_PLACEMENT_3D('',#1791,#1469,#1470);
#1185=AXIS2_PLACEMENT_3D('',#1793,#1472,#1473);
#1186=AXIS2_PLACEMENT_3D('',#1794,#1474,#1475);
#1187=AXIS2_PLACEMENT_3D('',#1796,#1477,#1478);
#1188=AXIS2_PLACEMENT_3D('',#1797,#1479,#1480);
#1189=AXIS2_PLACEMENT_3D('',#1799,#1482,#1483);
#1190=AXIS2_PLACEMENT_3D('',#1801,#1485,#1486);
#1191=AXIS2_PLACEMENT_3D('',#1803,#1488,#1489);
#1192=DIRECTION('axis',(0.,0.,1.));
#1193=DIRECTION('refdir',(1.,0.,0.));
#1194=DIRECTION('center_axis',(-0.496138938356835,-3.33972148499765E-62,
-0.868243142124459));
#1195=DIRECTION('ref_axis',(-0.868243142124459,0.,0.496138938356835));
#1196=DIRECTION('',(-0.868243142124459,6.88531090959604E-17,0.496138938356835));
#1197=DIRECTION('',(0.,1.,-3.84652791708307E-62));
#1198=DIRECTION('',(0.868243142124459,-6.88531090959604E-17,-0.496138938356835));
#1199=DIRECTION('',(0.,-1.,3.84652791708307E-62));
#1200=DIRECTION('center_axis',(2.69023637124688E-32,1.,-1.38777878075838E-16));
#1201=DIRECTION('ref_axis',(1.12678767005931E-13,1.38777878075838E-16,1.));
#1202=DIRECTION('',(1.,-5.21064690938318E-17,3.87703920617199E-16));
#1203=DIRECTION('',(3.87703920617199E-16,-2.22383573880107E-16,-1.));
#1204=DIRECTION('center_axis',(-5.21064690938319E-17,-1.,2.22383573880107E-16));
#1205=DIRECTION('ref_axis',(-0.707106781186548,0.,-0.707106781186547));
#1206=DIRECTION('',(1.,-5.21064690938319E-17,0.));
#1207=DIRECTION('center_axis',(9.2223445540838E-29,-1.,1.01957882312477E-56));
#1208=DIRECTION('ref_axis',(0.707106781186549,0.,-0.707106781186546));
#1209=DIRECTION('',(-3.87703920617199E-16,-3.57553914089994E-44,1.));
#1210=DIRECTION('',(-1.,-9.2223445540838E-29,-6.64733811927421E-13));
#1211=DIRECTION('',(-0.996331782897782,0.,0.0855744026431182));
#1212=DIRECTION('',(-1.22930828654767E-32,2.35922392732844E-16,1.));
#1213=DIRECTION('center_axis',(2.69023637124688E-32,1.,-1.38777878075838E-16));
#1214=DIRECTION('ref_axis',(0.707106781186554,0.,0.707106781186541));
#1215=DIRECTION('',(1.,0.,1.93851960308599E-16));
#1216=DIRECTION('',(0.,0.,-1.));
#1217=DIRECTION('',(-1.,-5.21064690938314E-17,-1.34108642093586E-46));
#1218=DIRECTION('',(-8.71397232272064E-16,-2.22383573880107E-16,-1.));
#1219=DIRECTION('',(-0.996331782897782,0.,-0.0855744026431181));
#1220=DIRECTION('',(-1.,0.,0.));
#1221=DIRECTION('',(0.,2.22383573880107E-16,1.));
#1222=DIRECTION('center_axis',(5.21064690938319E-17,1.,-2.22383573880107E-16));
#1223=DIRECTION('ref_axis',(5.21064690938319E-17,-2.22044604925031E-16,
-1.));
#1224=DIRECTION('center_axis',(5.21064690938319E-17,1.,-2.22383573880107E-16));
#1225=DIRECTION('ref_axis',(-5.21064690938319E-17,-2.22044604925031E-16,
-1.));
#1226=DIRECTION('center_axis',(5.21064690938319E-17,1.,-2.22383573880107E-16));
#1227=DIRECTION('ref_axis',(5.21064690938319E-17,-2.22044604925031E-16,
-1.));
#1228=DIRECTION('center_axis',(5.21064690938319E-17,1.,-2.22383573880107E-16));
#1229=DIRECTION('ref_axis',(5.21064690938319E-17,-2.22044604925031E-16,
-1.));
#1230=DIRECTION('center_axis',(-3.87703920617199E-16,3.84652791708307E-62,
1.));
#1231=DIRECTION('ref_axis',(-1.,1.98426052073946E-46,-3.87703920617199E-16));
#1232=DIRECTION('',(1.,0.,0.));
#1233=DIRECTION('',(0.,-1.,0.));
#1234=DIRECTION('center_axis',(0.,0.,-1.));
#1235=DIRECTION('ref_axis',(0.,-1.,0.));
#1236=DIRECTION('',(0.,1.,0.));
#1237=DIRECTION('',(-1.,0.,0.));
#1238=DIRECTION('',(0.,-1.,0.));
#1239=DIRECTION('center_axis',(-1.,0.,0.));
#1240=DIRECTION('ref_axis',(0.,0.,1.));
#1241=DIRECTION('',(0.,2.35922392732844E-16,1.));
#1242=DIRECTION('',(0.,1.,-2.35922392732846E-16));
#1243=DIRECTION('',(3.87703920617199E-16,-3.84652791708307E-62,-1.));
#1244=DIRECTION('center_axis',(-5.21064690938314E-17,1.,-2.35922392732844E-16));
#1245=DIRECTION('ref_axis',(-1.,-5.21064690938314E-17,-1.35880370914528E-46));
#1246=DIRECTION('',(0.996331782897782,7.21042490810135E-17,0.0855744026431181));
#1247=DIRECTION('',(1.22930828654767E-32,-2.35922392732844E-16,-1.));
#1248=DIRECTION('',(-1.,-5.21064690938314E-17,0.));
#1249=DIRECTION('center_axis',(0.,1.,-1.38777878075838E-16));
#1250=DIRECTION('ref_axis',(0.707106781186554,0.,0.707106781186541));
#1251=DIRECTION('center_axis',(0.,1.,0.));
#1252=DIRECTION('ref_axis',(0.707106781186554,0.,0.707106781186541));
#1253=DIRECTION('',(0.,-1.,1.38777878075838E-16));
#1254=DIRECTION('',(0.,1.,-1.38777878075838E-16));
#1255=DIRECTION('center_axis',(-1.,0.,0.));
#1256=DIRECTION('ref_axis',(0.,0.,-1.));
#1257=DIRECTION('',(0.,1.,-2.26520001618267E-16));
#1258=DIRECTION('',(0.,-2.35922392732844E-16,-1.));
#1259=DIRECTION('',(0.,-1.,1.38777878075838E-16));
#1260=DIRECTION('',(0.,0.,-1.));
#1261=DIRECTION('center_axis',(1.93851960308599E-16,-1.38777878075838E-16,
-1.));
#1262=DIRECTION('ref_axis',(-1.68268724926524E-32,-1.,1.38777878075838E-16));
#1263=DIRECTION('',(1.,0.,0.));
#1264=DIRECTION('',(0.0855744026431181,-0.996331782897782,-9.50414936640558E-15));
#1265=DIRECTION('center_axis',(0.,-1.38777878075838E-16,-1.));
#1266=DIRECTION('ref_axis',(0.,-1.,1.38777878075838E-16));
#1267=DIRECTION('center_axis',(-1.93851960308599E-16,1.38777878075838E-16,
1.));
#1268=DIRECTION('ref_axis',(1.,0.,0.));
#1269=DIRECTION('',(1.,5.21064690938314E-17,-7.23122521486614E-33));
#1270=DIRECTION('center_axis',(-5.21064690938314E-17,1.,-2.35922392732844E-16));
#1271=DIRECTION('ref_axis',(-1.,-5.21064690938314E-17,-1.35880370914528E-46));
#1272=DIRECTION('',(0.996331782897782,3.17264134245169E-17,-0.0855744026431181));
#1273=DIRECTION('',(-6.64733811927421E-13,2.3592239273281E-16,1.));
#1274=DIRECTION('',(-1.,-5.21064690938314E-17,-1.93851960308599E-16));
#1275=DIRECTION('',(0.,0.,1.));
#1276=DIRECTION('center_axis',(-2.69023637124688E-32,-1.,1.38777878075838E-16));
#1277=DIRECTION('ref_axis',(-9.66231184065823E-15,1.38777878075838E-16,
1.));
#1278=DIRECTION('',(1.,5.21064690938319E-17,0.));
#1279=DIRECTION('',(0.,0.,-1.));
#1280=DIRECTION('',(-1.,2.69023637124688E-32,0.));
#1281=DIRECTION('',(-4.28960645980763E-11,-2.35922392735081E-16,-1.));
#1282=DIRECTION('',(-1.,-5.21064690938319E-17,0.));
#1283=DIRECTION('',(3.87703920617199E-16,-2.35922392732846E-16,-1.));
#1284=DIRECTION('center_axis',(-5.21064690938319E-17,1.,-2.35922392732846E-16));
#1285=DIRECTION('ref_axis',(0.707106781186549,0.,-0.707106781186546));
#1286=DIRECTION('',(1.,5.21064690938321E-17,0.));
#1287=DIRECTION('center_axis',(5.21064690938321E-17,-1.,0.));
#1288=DIRECTION('ref_axis',(-0.707106781186548,0.,-0.707106781186547));
#1289=DIRECTION('',(3.87703920617199E-16,2.02018823571976E-32,-1.));
#1290=DIRECTION('center_axis',(-5.21064690938319E-17,1.,-2.35922392732846E-16));
#1291=DIRECTION('ref_axis',(1.,-5.2106469093832E-17,-5.2106469093832E-17));
#1292=DIRECTION('center_axis',(-5.21064690938319E-17,1.,-2.35922392732846E-16));
#1293=DIRECTION('ref_axis',(5.21064690938319E-17,-2.22044604925031E-16,
-1.));
#1294=DIRECTION('center_axis',(-5.21064690938319E-17,1.,-2.35922392732846E-16));
#1295=DIRECTION('ref_axis',(5.21064690938319E-17,-2.22044604925031E-16,
-1.));
#1296=DIRECTION('center_axis',(-5.21064690938319E-17,1.,-2.35922392732846E-16));
#1297=DIRECTION('ref_axis',(5.21064690938319E-17,-2.22044604925031E-16,
-1.));
#1298=DIRECTION('center_axis',(1.22930828654769E-32,-2.35922392732846E-16,
-1.));
#1299=DIRECTION('ref_axis',(5.2106469093832E-17,-1.,2.35922392732846E-16));
#1300=DIRECTION('',(5.21064690938314E-17,-1.,2.35922392732846E-16));
#1301=DIRECTION('',(0.0855744026431181,-0.996331782897782,2.35056978177027E-16));
#1302=DIRECTION('center_axis',(-0.996331782897782,-0.0855744026431181,0.));
#1303=DIRECTION('ref_axis',(0.,0.,-1.));
#1304=DIRECTION('',(0.,0.,-1.));
#1305=DIRECTION('',(0.0855744026431183,-0.996331782897782,0.));
#1306=DIRECTION('',(0.,0.,-1.));
#1307=DIRECTION('',(-0.0855744026431181,0.996331782897782,-1.54857576394676E-16));
#1308=DIRECTION('center_axis',(1.93851960308599E-16,-1.38777878075838E-16,
-1.));
#1309=DIRECTION('ref_axis',(-1.68268724926524E-32,-1.,1.38777878075838E-16));
#1310=DIRECTION('center_axis',(-1.93851960308599E-16,1.38777878075838E-16,
1.));
#1311=DIRECTION('ref_axis',(0.707106781186547,0.707106781186547,4.68934280993548E-13));
#1312=DIRECTION('',(1.,0.,1.93851960308599E-16));
#1313=DIRECTION('',(-5.3804727424938E-32,-1.,1.38777878075838E-16));
#1314=DIRECTION('center_axis',(1.93851960308599E-16,-1.38777878075838E-16,
-1.));
#1315=DIRECTION('ref_axis',(0.707106781186548,-0.707106781186548,0.));
#1316=DIRECTION('',(-1.,0.,-1.93851960308599E-16));
#1317=DIRECTION('',(0.0855744026431181,0.996331782897782,-1.21680044985465E-16));
#1318=DIRECTION('',(1.,0.,1.93851960308599E-16));
#1319=DIRECTION('center_axis',(-1.93851960308599E-16,1.38777878075838E-16,
1.));
#1320=DIRECTION('ref_axis',(1.,0.,0.));
#1321=DIRECTION('center_axis',(1.93851960308599E-16,-1.38777878075838E-16,
-1.));
#1322=DIRECTION('ref_axis',(-1.68268724926524E-32,-1.,1.38777878075838E-16));
#1323=DIRECTION('',(1.,0.,1.93851960308599E-16));
#1324=DIRECTION('center_axis',(1.93851960308599E-16,-1.38777878075838E-16,
-1.));
#1325=DIRECTION('ref_axis',(0.707106781186547,0.707106781186547,0.));
#1326=DIRECTION('',(-5.3804727424938E-32,-1.,1.38777878075838E-16));
#1327=DIRECTION('',(-1.,0.,-1.93851960308599E-16));
#1328=DIRECTION('center_axis',(-1.93851960308599E-16,1.38777878075838E-16,
1.));
#1329=DIRECTION('ref_axis',(0.707106781186539,-0.707106781186556,-3.03341863017697E-11));
#1330=DIRECTION('center_axis',(-4.70037786097863E-13,0.707106781186548,
0.707106781186548));
#1331=DIRECTION('ref_axis',(-1.,0.,-6.64733811927421E-13));
#1332=DIRECTION('center_axis',(4.70037786097863E-13,-0.707106781186548,
-0.707106781186548));
#1333=DIRECTION('ref_axis',(4.70046429818449E-13,0.707106781186548,-0.707106781186547));
#1334=DIRECTION('',(-0.992703639337943,-0.0852627833386769,0.085262783338017));
#1335=DIRECTION('',(-1.,-9.2223445540838E-29,-6.64733811927421E-13));
#1336=DIRECTION('',(2.74148071361032E-16,0.707106781186548,-0.707106781186548));
#1337=DIRECTION('',(1.,9.2223445540838E-29,6.64733811927421E-13));
#1338=DIRECTION('center_axis',(-1.,1.98426052073946E-46,-3.87703920617199E-16));
#1339=DIRECTION('ref_axis',(3.87703920617199E-16,-3.84652791708307E-62,
-1.));
#1340=DIRECTION('',(4.07508698598738E-53,-1.,-6.13040425034422E-41));
#1341=DIRECTION('',(1.98426052073946E-46,1.,0.));
#1342=DIRECTION('',(1.98426052073946E-46,1.,0.));
#1343=DIRECTION('',(-2.7414807136103E-16,0.707106781186554,0.707106781186541));
#1344=DIRECTION('',(0.,0.,-1.));
#1345=DIRECTION('',(-3.87703920617199E-16,0.,1.));
#1346=DIRECTION('',(0.,-1.,0.));
#1347=DIRECTION('',(3.87703920617199E-16,0.,-1.));
#1348=DIRECTION('',(3.87703920617199E-16,-1.38777878075838E-16,-1.));
#1349=DIRECTION('center_axis',(-2.69023637124688E-32,-1.,1.38777878075838E-16));
#1350=DIRECTION('ref_axis',(6.64733811927421E-13,-1.38777878075838E-16,
-1.));
#1351=DIRECTION('',(-6.64733811927421E-13,1.38777878075838E-16,1.));
#1352=DIRECTION('center_axis',(-6.64733811927421E-13,2.3592239273281E-16,
1.));
#1353=DIRECTION('ref_axis',(0.707106781186547,0.707106781186547,4.68934280993548E-13));
#1354=DIRECTION('center_axis',(0.0855744026431181,0.,0.996331782897782));
#1355=DIRECTION('ref_axis',(0.996331782897782,9.21792071282394E-17,-0.0855744026431181));
#1356=DIRECTION('center_axis',(-1.90228438114025E-32,-0.707106781186541,
0.707106781186554));
#1357=DIRECTION('ref_axis',(-1.,0.,-2.69023637129903E-32));
#1358=DIRECTION('center_axis',(1.90228438114025E-32,0.707106781186541,-0.707106781186554));
#1359=DIRECTION('ref_axis',(-6.06641856903176E-11,-0.707106781186554,-0.707106781186541));
#1360=DIRECTION('',(-1.,2.69023637129908E-32,0.));
#1361=DIRECTION('',(1.,-2.69023637129908E-32,0.));
#1362=DIRECTION('center_axis',(2.69023637129908E-32,1.,-1.3877787807853E-16));
#1363=DIRECTION('ref_axis',(-4.28960645980763E-11,-1.3877787807853E-16,
-1.));
#1364=DIRECTION('',(0.,0.,1.));
#1365=DIRECTION('center_axis',(-4.28960645980763E-11,-2.35922392735081E-16,
-1.));
#1366=DIRECTION('ref_axis',(0.707106781186539,-0.707106781186556,-3.03341863017697E-11));
#1367=DIRECTION('center_axis',(0.,0.,1.));
#1368=DIRECTION('ref_axis',(0.707106781186539,-0.707106781186556,-3.03341863017697E-11));
#1369=DIRECTION('center_axis',(-6.64733811927421E-13,-6.13040425034422E-41,
1.));
#1370=DIRECTION('ref_axis',(1.,9.2223445540838E-29,6.64733811927421E-13));
#1371=DIRECTION('',(0.,1.,0.));
#1372=DIRECTION('center_axis',(0.,0.,1.));
#1373=DIRECTION('ref_axis',(-1.,0.,0.));
#1374=DIRECTION('center_axis',(1.98426052073946E-46,1.,0.));
#1375=DIRECTION('ref_axis',(0.707106781186549,0.,-0.707106781186546));
#1376=DIRECTION('',(-1.98426052073946E-46,-1.,0.));
#1377=DIRECTION('center_axis',(-5.2106469093832E-17,-1.,2.22044604925031E-16));
#1378=DIRECTION('ref_axis',(5.21064690938319E-17,-2.22044604925031E-16,
-1.));
#1379=DIRECTION('',(5.2106469093832E-17,1.,-2.22044604925031E-16));
#1380=DIRECTION('center_axis',(-3.04874262771119E-16,-3.10521978681303E-15,
1.));
#1381=DIRECTION('ref_axis',(-8.24387394710643E-15,-1.,-3.10521978681304E-15));
#1382=DIRECTION('center_axis',(3.04874262771119E-16,3.10521978681303E-15,
-1.));
#1383=DIRECTION('ref_axis',(0.707106781186548,-0.707106781186548,0.));
#1384=DIRECTION('center_axis',(1.93851960308599E-16,-1.38777878075838E-16,
-1.));
#1385=DIRECTION('ref_axis',(0.707106781186547,0.707106781186547,0.));
#1386=DIRECTION('',(1.,-1.98426052073946E-46,1.93851960308599E-16));
#1387=DIRECTION('center_axis',(0.,0.,-1.));
#1388=DIRECTION('ref_axis',(-0.707106781186543,0.707106781186552,0.));
#1389=DIRECTION('',(0.,1.,0.));
#1390=DIRECTION('center_axis',(3.04874262771119E-16,3.10521978681303E-15,
-1.));
#1391=DIRECTION('ref_axis',(-0.707106781186548,-0.707106781186548,0.));
#1392=DIRECTION('',(-1.,0.,-3.04874262771119E-16));
#1393=DIRECTION('center_axis',(-3.04874262771119E-16,-3.10521978681303E-15,
1.));
#1394=DIRECTION('ref_axis',(0.,-1.,0.));
#1395=DIRECTION('center_axis',(-3.04874262771119E-16,-3.10521978681303E-15,
1.));
#1396=DIRECTION('ref_axis',(1.,0.,0.));
#1397=DIRECTION('center_axis',(-3.04874262771119E-16,-3.10521978681303E-15,
1.));
#1398=DIRECTION('ref_axis',(1.,0.,0.));
#1399=DIRECTION('center_axis',(-3.04874262771119E-16,-3.10521978681303E-15,
1.));
#1400=DIRECTION('ref_axis',(1.,0.,0.));
#1401=DIRECTION('center_axis',(-3.04874262771119E-16,1.8668164502253E-32,
1.));
#1402=DIRECTION('ref_axis',(6.12323399573678E-17,1.,0.));
#1403=DIRECTION('',(1.,0.,0.));
#1404=DIRECTION('center_axis',(0.,0.,-1.));
#1405=DIRECTION('ref_axis',(1.,0.,0.));
#1406=DIRECTION('',(-1.,-8.10164892314696E-16,-3.04874262771119E-16));
#1407=DIRECTION('',(-0.0855744026431181,-0.996331782897782,0.));
#1408=DIRECTION('',(-1.,0.,-3.04874262771119E-16));
#1409=DIRECTION('center_axis',(3.04874262771119E-16,-1.8668164502253E-32,
-1.));
#1410=DIRECTION('ref_axis',(-0.707106781186548,-0.707106781186548,0.));
#1411=DIRECTION('',(1.02831886321098E-46,1.,-1.8668164502253E-32));
#1412=DIRECTION('center_axis',(3.04874262771119E-16,-1.8668164502253E-32,
-1.));
#1413=DIRECTION('ref_axis',(-0.707106781186543,0.707106781186552,0.));
#1414=DIRECTION('',(1.,0.,3.04874262771119E-16));
#1415=DIRECTION('center_axis',(-3.04874262771119E-16,1.8668164502253E-32,
1.));
#1416=DIRECTION('ref_axis',(1.,0.,0.));
#1417=DIRECTION('center_axis',(-3.04874262771119E-16,1.8668164502253E-32,
1.));
#1418=DIRECTION('ref_axis',(1.,0.,0.));
#1419=DIRECTION('center_axis',(-3.04874262771119E-16,1.8668164502253E-32,
1.));
#1420=DIRECTION('ref_axis',(0.,-1.,0.));
#1421=DIRECTION('center_axis',(-3.04874262771119E-16,1.8668164502253E-32,
1.));
#1422=DIRECTION('ref_axis',(1.,0.,0.));
#1423=DIRECTION('center_axis',(-1.93851960308599E-16,0.,1.));
#1424=DIRECTION('ref_axis',(-0.707106781186548,-0.707106781186548,0.));
#1425=DIRECTION('',(1.93851960308599E-16,0.,-1.));
#1426=DIRECTION('',(0.,0.,1.));
#1427=DIRECTION('center_axis',(-1.,9.92130260369731E-47,-1.93851960308599E-16));
#1428=DIRECTION('ref_axis',(-1.93851960308599E-16,1.38777878075838E-16,
1.));
#1429=DIRECTION('',(1.93851960308599E-16,0.,-1.));
#1430=DIRECTION('center_axis',(-1.93851960308599E-16,0.,1.));
#1431=DIRECTION('ref_axis',(-0.707106781186543,0.707106781186552,0.));
#1432=DIRECTION('',(0.,0.,1.));
#1433=DIRECTION('center_axis',(0.,-1.,0.));
#1434=DIRECTION('ref_axis',(0.,0.,-1.));
#1435=DIRECTION('',(0.,0.,1.));
#1436=DIRECTION('center_axis',(0.,0.,1.));
#1437=DIRECTION('ref_axis',(-1.,0.,0.));
#1438=DIRECTION('',(0.,-1.,0.));
#1439=DIRECTION('center_axis',(-0.0855744026431181,0.,-0.996331782897782));
#1440=DIRECTION('ref_axis',(0.996331782897782,0.,-0.0855744026431181));
#1441=DIRECTION('center_axis',(0.,0.,-1.));
#1442=DIRECTION('ref_axis',(1.,0.,0.));
#1443=DIRECTION('',(0.,0.,-1.));
#1444=DIRECTION('',(0.,0.,1.));
#1445=DIRECTION('center_axis',(0.,-1.,0.));
#1446=DIRECTION('ref_axis',(0.,0.,-1.));
#1447=DIRECTION('center_axis',(-0.996331782897782,0.0855744026431181,0.));
#1448=DIRECTION('ref_axis',(0.,0.,-1.));
#1449=DIRECTION('',(0.,0.,1.));
#1450=DIRECTION('',(0.,0.,1.));
#1451=DIRECTION('center_axis',(0.,1.,0.));
#1452=DIRECTION('ref_axis',(0.,0.,1.));
#1453=DIRECTION('center_axis',(3.87703920617199E-16,0.,-1.));
#1454=DIRECTION('ref_axis',(0.707106781186548,-0.707106781186548,0.));
#1455=DIRECTION('',(-3.87703920617199E-16,0.,1.));
#1456=DIRECTION('center_axis',(0.,-1.,0.));
#1457=DIRECTION('ref_axis',(0.,0.,-1.));
#1458=DIRECTION('center_axis',(0.,0.,-1.));
#1459=DIRECTION('ref_axis',(1.,0.,0.));
#1460=DIRECTION('',(0.,0.,1.));
#1461=DIRECTION('center_axis',(0.,0.,-1.));
#1462=DIRECTION('ref_axis',(1.,0.,0.));
#1463=DIRECTION('',(0.,0.,1.));
#1464=DIRECTION('center_axis',(0.,0.,-1.));
#1465=DIRECTION('ref_axis',(1.,0.,0.));
#1466=DIRECTION('',(0.,0.,1.));
#1467=DIRECTION('center_axis',(3.87703920617199E-16,0.,-1.));
#1468=DIRECTION('ref_axis',(0.707106781186547,0.707106781186547,0.));
#1469=DIRECTION('center_axis',(0.0855744026431181,0.,-0.996331782897782));
#1470=DIRECTION('ref_axis',(0.996331782897782,0.,0.0855744026431181));
#1471=DIRECTION('',(0.,-1.,-3.07736892879893E-31));
#1472=DIRECTION('center_axis',(1.,0.,0.));
#1473=DIRECTION('ref_axis',(0.,0.,1.));
#1474=DIRECTION('center_axis',(-1.,1.98426052073946E-46,-3.87703920617199E-16));
#1475=DIRECTION('ref_axis',(3.87703920617199E-16,-3.84652791708307E-62,
-1.));
#1476=DIRECTION('',(-1.98426052073946E-46,-1.,0.));
#1477=DIRECTION('center_axis',(1.98426052073946E-46,1.,0.));
#1478=DIRECTION('ref_axis',(-0.707106781186548,0.,-0.707106781186547));
#1479=DIRECTION('center_axis',(5.2106469093832E-17,-1.,2.22044604925031E-16));
#1480=DIRECTION('ref_axis',(-5.21064690938319E-17,-2.22044604925031E-16,
-1.));
#1481=DIRECTION('',(-5.2106469093832E-17,1.,-2.22044604925031E-16));
#1482=DIRECTION('center_axis',(-5.2106469093832E-17,-1.,2.22044604925031E-16));
#1483=DIRECTION('ref_axis',(5.21064690938319E-17,-2.22044604925031E-16,
-1.));
#1484=DIRECTION('',(5.2106469093832E-17,1.,-2.22044604925031E-16));
#1485=DIRECTION('center_axis',(-5.2106469093832E-17,-1.,2.22044604925031E-16));
#1486=DIRECTION('ref_axis',(5.21064690938319E-17,-2.22044604925031E-16,
-1.));
#1487=DIRECTION('',(5.2106469093832E-17,1.,-2.22044604925031E-16));
#1488=DIRECTION('center_axis',(0.,0.,1.));
#1489=DIRECTION('ref_axis',(0.,-1.,0.));
#1490=DIRECTION('',(0.,0.,-1.));
#1491=CARTESIAN_POINT('',(0.,0.,0.));
#1492=CARTESIAN_POINT('Origin',(80.8497060611242,70.4499998569488,16.5098315180514));
#1493=CARTESIAN_POINT('',(82.5997060611242,70.1999998569488,15.5098315180515));
#1494=CARTESIAN_POINT('',(79.0997060611242,70.1999998569488,17.5098315180514));
#1495=CARTESIAN_POINT('',(80.4805653247074,70.2000002380998,16.7207690817182));
#1496=CARTESIAN_POINT('',(79.0997060611242,72.1999998569488,17.5098315180514));
#1497=CARTESIAN_POINT('',(79.0997060611242,70.4499998569488,17.5098315180514));
#1498=CARTESIAN_POINT('',(82.5997060611242,72.1999998569488,15.5098315180515));
#1499=CARTESIAN_POINT('',(80.3260256382616,72.1999998569488,16.809077473973));
#1500=CARTESIAN_POINT('',(82.5997060611242,70.4499998569488,15.5098315180515));
#1501=CARTESIAN_POINT('Origin',(87.7790205887829,70.2000002380998,30.3499996462464));
#1502=CARTESIAN_POINT('',(83.5997060611242,70.1999998569488,15.5098315180515));
#1503=CARTESIAN_POINT('',(86.0482162667918,70.1999998569488,15.5098315180515));
#1504=CARTESIAN_POINT('',(83.5997060611242,70.1999998569488,13.6000003725291));
#1505=CARTESIAN_POINT('',(83.5997060611242,70.1999998569488,23.0230572745296));
#1506=CARTESIAN_POINT('',(86.5997060611242,70.1999998569488,10.6000003725291));
#1507=CARTESIAN_POINT('Origin',(86.5997060611242,70.1999998569488,13.6000003725291));
#1508=CARTESIAN_POINT('',(96.6999989122998,70.1999998569488,10.6000003725291));
#1509=CARTESIAN_POINT('',(92.0483626923796,70.1999998569488,10.6000003725291));
#1510=CARTESIAN_POINT('',(99.6999989122999,70.1999998569488,13.6000003725291));
#1511=CARTESIAN_POINT('Origin',(96.6999989122998,70.1999998569488,13.6000003725291));
#1512=CARTESIAN_POINT('',(99.6999989122999,70.1999998569488,20.7153384915846));
#1513=CARTESIAN_POINT('',(99.6999989122999,70.1999998569488,17.9288348128957));
#1514=CARTESIAN_POINT('',(98.6999989123056,70.1999998569488,20.715338491584));
#1515=CARTESIAN_POINT('',(100.199998912306,70.1999998569488,20.715338491585));
#1516=CARTESIAN_POINT('',(91.4499999998593,70.1999998569488,21.3380370110384));
#1517=CARTESIAN_POINT('',(97.4712710539536,70.1999998569488,20.8208732685472));
#1518=CARTESIAN_POINT('',(91.4499999998598,70.1999998569489,28.299999988079));
#1519=CARTESIAN_POINT('',(91.4499999998598,70.1999998569489,24.6779577888271));
#1520=CARTESIAN_POINT('',(90.4499999998593,70.2000002380998,29.299999988079));
#1521=CARTESIAN_POINT('Origin',(90.4499999998593,70.2000002380998,28.299999988079));
#1522=CARTESIAN_POINT('',(87.8079756987442,70.2000002380998,29.2999996462464));
#1523=CARTESIAN_POINT('',(92.3071866159786,70.2000002380998,29.299999988079));
#1524=CARTESIAN_POINT('',(87.8079757314811,70.1999998569488,27.0000003874347));
#1525=CARTESIAN_POINT('',(87.8079756987443,70.2000002380998,30.2999996462464));
#1526=CARTESIAN_POINT('',(86.9499999998593,70.1999998569488,27.0000003874347));
#1527=CARTESIAN_POINT('',(87.6624994018571,70.1999998569488,27.0000003874347));
#1528=CARTESIAN_POINT('',(86.9499999998593,70.1999998569488,21.509815938725));
#1529=CARTESIAN_POINT('',(86.9499999998593,70.1999998569488,22.3598129229109));
#1530=CARTESIAN_POINT('',(81.0997060611242,70.1999998569488,21.0073373290014));
#1531=CARTESIAN_POINT('',(86.9286063991985,70.1999998569488,21.5079784538345));
#1532=CARTESIAN_POINT('',(79.0997060611242,70.1999998569488,21.0073373290014));
#1533=CARTESIAN_POINT('',(81.0997060611242,70.1999998569488,21.0073373290014));
#1534=CARTESIAN_POINT('',(79.0997060611242,70.1999998569488,22.1968278895908));
#1535=CARTESIAN_POINT('',(89.1999999998593,70.1999998569488,26.05));
#1536=CARTESIAN_POINT('Origin',(89.1999999998593,70.1999998569488,24.8));
#1537=CARTESIAN_POINT('',(89.1999999998593,70.1999998569488,21.925));
#1538=CARTESIAN_POINT('Origin',(89.1999999998593,70.1999998569488,18.3));
#1539=CARTESIAN_POINT('',(95.6999999998593,70.1999998569488,19.55));
#1540=CARTESIAN_POINT('Origin',(95.6999999998593,70.1999998569488,18.3));
#1541=CARTESIAN_POINT('',(82.6999999998593,70.1999998569488,19.55));
#1542=CARTESIAN_POINT('Origin',(82.6999999998593,70.1999998569488,18.3));
#1543=CARTESIAN_POINT('Origin',(82.5997060611242,70.4499998569488,15.5098315180515));
#1544=CARTESIAN_POINT('',(83.5997060611242,72.1999998569488,15.5098315180515));
#1545=CARTESIAN_POINT('',(81.5997060611242,72.1999998569488,15.5098315180515));
#1546=CARTESIAN_POINT('',(83.5997060611242,69.6999998569488,15.5098315180515));
#1547=CARTESIAN_POINT('Origin',(81.0997060611242,70.1999998569488,21.0073373290014));
#1548=CARTESIAN_POINT('',(81.0997060611242,68.6999998569488,21.0073373290014));
#1549=CARTESIAN_POINT('',(81.0997060611242,70.0749998569488,21.0073373290014));
#1550=CARTESIAN_POINT('',(79.0997060611242,68.6999998569488,21.0073373290014));
#1551=CARTESIAN_POINT('',(81.0997060611242,68.6999998569488,21.0073373290014));
#1552=CARTESIAN_POINT('',(79.0997060611242,70.0749998569488,21.0073373290014));
#1553=CARTESIAN_POINT('Origin',(79.0997060611242,70.4499998569488,18.2975413061015));
#1554=CARTESIAN_POINT('',(79.0997060611242,68.6999998569488,27.0000003874347));
#1555=CARTESIAN_POINT('',(79.0997060611242,68.6999998569488,21.5311329070058));
#1556=CARTESIAN_POINT('',(79.0997060611242,72.1999998569488,27.0000003874347));
#1557=CARTESIAN_POINT('',(79.0997060611242,70.9000001348555,27.0000003874347));
#1558=CARTESIAN_POINT('',(79.0997060611242,72.1999998569488,18.2975413061015));
#1559=CARTESIAN_POINT('Origin',(88.9999994561711,68.6999998569488,24.7647245079101));
#1560=CARTESIAN_POINT('',(86.9499999998593,68.6999998569488,21.509815938725));
#1561=CARTESIAN_POINT('',(88.2205544382308,68.6999998569488,21.6189431782204));
#1562=CARTESIAN_POINT('',(86.9499999998593,68.6999998569489,27.0000003874347));
#1563=CARTESIAN_POINT('',(86.9499999998593,68.6999998569488,24.8837002989859));
#1564=CARTESIAN_POINT('',(87.5749996407151,68.6999998569488,27.0000003874347));
#1565=CARTESIAN_POINT('Origin',(90.4499999998593,69.6880416678167,28.299999988079));
#1566=CARTESIAN_POINT('',(91.4499999998593,69.844994670177,28.299999988079));
#1567=CARTESIAN_POINT('',(91.300000000051,69.8500002380998,28.8267826754123));
#1568=CARTESIAN_POINT('Ctrl Pts',(91.3000000000503,69.8500002380998,28.8267826754134));
#1569=CARTESIAN_POINT('Ctrl Pts',(91.3280652610813,69.8500002380999,28.781497451629));
#1570=CARTESIAN_POINT('Ctrl Pts',(91.3527301633637,69.849476926107,28.7335480498927));
#1571=CARTESIAN_POINT('Ctrl Pts',(91.4247089831625,69.8471290057763,28.5604459305065));
#1572=CARTESIAN_POINT('Ctrl Pts',(91.4499999998593,69.844994670177,28.426064790311));
#1573=CARTESIAN_POINT('Ctrl Pts',(91.4499999998593,69.844994670177,28.299999988079));
#1574=CARTESIAN_POINT('',(90.4499999998593,69.8500002380998,29.2999996462464));
#1575=CARTESIAN_POINT('Origin',(90.4499999998593,69.8500002380998,28.299999988079));
#1576=CARTESIAN_POINT('',(90.4499999998593,69.6880416678167,29.299999988079));
#1577=CARTESIAN_POINT('',(91.4499999998593,69.6880416678167,28.299999988079));
#1578=CARTESIAN_POINT('Origin',(91.4499999998593,68.1999998569488,21.172281323269));
#1579=CARTESIAN_POINT('',(91.4499999998593,68.6999998569488,21.3380370110384));
#1580=CARTESIAN_POINT('',(91.4499999998593,68.9499998569488,21.3380370110384));
#1581=CARTESIAN_POINT('',(91.4500014007091,68.6999998569488,26.999999988079));
#1582=CARTESIAN_POINT('',(91.4499999998593,68.6999998569488,22.9685029155896));
#1583=CARTESIAN_POINT('',(91.4500014007091,69.8449945765783,26.999999988079));
#1584=CARTESIAN_POINT('',(91.4499999998593,69.2000000475243,26.999999988079));
#1585=CARTESIAN_POINT('',(91.4499999998593,69.844994670177,30.299999988079));
#1586=CARTESIAN_POINT('Origin',(96.8353526431742,71.1760834786847,29.299999988079));
#1587=CARTESIAN_POINT('',(87.8380370110894,69.8500002380998,29.299999988079));
#1588=CARTESIAN_POINT('',(88.6581499143973,69.8500002380998,29.2999996462464));
#1589=CARTESIAN_POINT('',(87.5713525416394,72.9549732757313,29.2999996462464));
#1590=CARTESIAN_POINT('Origin',(93.3000014007091,70.2000002380998,26.999999988079));
#1591=CARTESIAN_POINT('',(93.2627788562984,68.6999998569488,26.999999988079));
#1592=CARTESIAN_POINT('Origin',(91.300000000051,67.6000002380998,26.999999988079));
#1593=CARTESIAN_POINT('',(91.1500004284401,68.6999998569488,26.999999988079));
#1594=CARTESIAN_POINT('Origin',(88.9999994561711,68.6999998569488,24.7647245079101));
#1595=CARTESIAN_POINT('',(97.1999989123054,68.6999998569488,20.8441726873489));
#1596=CARTESIAN_POINT('',(93.0985253657875,68.6999998569488,21.1964460512268));
#1597=CARTESIAN_POINT('',(97.1999989122992,68.6999998569488,30.299999988079));
#1598=CARTESIAN_POINT('',(97.1999989123027,68.6999998569488,25.0323622479964));
#1599=CARTESIAN_POINT('',(93.2627788562984,68.6999998569488,30.299999988079));
#1600=CARTESIAN_POINT('',(92.9176760496727,68.6999998569488,30.299999988079));
#1601=CARTESIAN_POINT('',(93.2627788562984,68.6999998569488,30.299999988079));
#1602=CARTESIAN_POINT('Origin',(87.3690175343615,72.1999998569488,30.349999988079));
#1603=CARTESIAN_POINT('',(87.6361968037945,72.1999998569488,27.0000003874347));
#1604=CARTESIAN_POINT('',(86.6249999125592,72.1999998569488,27.0000003874347));
#1605=CARTESIAN_POINT('',(87.6361968037945,72.1999998569488,30.299999988079));
#1606=CARTESIAN_POINT('',(87.6361968037945,72.1999998569488,30.299999988079));
#1607=CARTESIAN_POINT('',(97.1999989123427,72.1999998569488,30.299999988079));
#1608=CARTESIAN_POINT('',(87.3690175343615,72.1999998569488,30.299999988079));
#1609=CARTESIAN_POINT('',(97.1999989119316,72.1999998569488,20.7149995395541));
#1610=CARTESIAN_POINT('',(97.1999989119202,72.1999998569488,20.4499999938674));
#1611=CARTESIAN_POINT('',(99.6999989122999,72.1999998569488,20.7149995395541));
#1612=CARTESIAN_POINT('',(93.1249991770342,72.1999998569488,20.7149995395541));
#1613=CARTESIAN_POINT('',(99.6999989122999,72.1999998569488,13.6000003725291));
#1614=CARTESIAN_POINT('',(99.6999989122999,72.1999998569488,18.6500000860472));
#1615=CARTESIAN_POINT('',(96.6999989122998,72.1999998569488,10.6000003725291));
#1616=CARTESIAN_POINT('Origin',(96.6999989122998,72.1999998569488,13.6000003725291));
#1617=CARTESIAN_POINT('',(86.5997060611242,72.1999998569488,10.6000003725291));
#1618=CARTESIAN_POINT('',(93.0999989719016,72.1999998569488,10.6000003725291));
#1619=CARTESIAN_POINT('',(83.5997060611242,72.1999998569488,13.6000003725291));
#1620=CARTESIAN_POINT('Origin',(86.5997060611242,72.1999998569488,13.6000003725291));
#1621=CARTESIAN_POINT('',(83.5997060611242,72.1999998569488,17.3612058390684));
#1622=CARTESIAN_POINT('',(89.1999999998593,72.1999998569488,26.05));
#1623=CARTESIAN_POINT('Origin',(89.1999999998593,72.1999998569488,24.8));
#1624=CARTESIAN_POINT('',(89.1999999998593,72.1999998569488,21.925));
#1625=CARTESIAN_POINT('Origin',(89.1999999998593,72.1999998569488,18.3));
#1626=CARTESIAN_POINT('',(95.6999999998593,72.1999998569488,19.55));
#1627=CARTESIAN_POINT('Origin',(95.6999999998593,72.1999998569488,18.3));
#1628=CARTESIAN_POINT('',(82.6999999998593,72.1999998569488,19.55));
#1629=CARTESIAN_POINT('Origin',(82.6999999998593,72.1999998569488,18.3));
#1630=CARTESIAN_POINT('Origin',(86.1499998252592,73.1999998569488,27.0000003874347));
#1631=CARTESIAN_POINT('',(86.9499999998593,71.3249998569488,27.0000003874347));
#1632=CARTESIAN_POINT('',(87.5881248610398,72.7596953143857,27.0000003874347));
#1633=CARTESIAN_POINT('Origin',(87.3208732685981,75.8712712921942,28.8999996185302));
#1634=CARTESIAN_POINT('',(87.8380370110894,69.8500002380998,31.7999996185302));
#1635=CARTESIAN_POINT('',(87.8380370110894,69.8500002380998,29.0999998033046));
#1636=CARTESIAN_POINT('',(87.1981605156661,77.300000119236,31.7999996185302));
#1637=CARTESIAN_POINT('',(87.3208732685982,75.8712712921941,31.7999996185302));
#1638=CARTESIAN_POINT('',(87.1981605156661,77.300000119236,30.299999988079));
#1639=CARTESIAN_POINT('',(87.1981605156661,77.300000119236,30.0999998033046));
#1640=CARTESIAN_POINT('',(87.5558674556233,73.1352641440541,30.299999988079));
#1641=CARTESIAN_POINT('Origin',(96.8353526431742,71.1760834786847,30.299999988079));
#1642=CARTESIAN_POINT('',(98.6999989122999,67.1999998569488,30.2999999880783));
#1643=CARTESIAN_POINT('Origin',(97.1999989122992,67.1999998569488,30.2999999880793));
#1644=CARTESIAN_POINT('',(99.6999989122999,67.1999998569488,30.299999988079));
#1645=CARTESIAN_POINT('',(98.0176757777384,67.1999998569488,30.299999988079));
#1646=CARTESIAN_POINT('',(99.6999989122999,62.2999998956821,30.299999988079));
#1647=CARTESIAN_POINT('',(99.6999989122999,70.1380412215319,30.299999988079));
#1648=CARTESIAN_POINT('',(96.6999989122998,59.2999998956821,30.299999988079));
#1649=CARTESIAN_POINT('Origin',(96.6999989122998,62.2999998956821,30.299999988079));
#1650=CARTESIAN_POINT('',(87.490184653114,59.2999998956821,30.299999988079));
#1651=CARTESIAN_POINT('',(88.9756887049466,59.2999998956821,30.299999988079));
#1652=CARTESIAN_POINT('',(88.0098159387759,65.3500002380998,30.299999988079));
#1653=CARTESIAN_POINT('',(88.3003153633661,68.7322477407759,30.299999988079));
#1654=CARTESIAN_POINT('',(91.300000000051,65.3500002380998,30.2999996185302));
#1655=CARTESIAN_POINT('',(94.0676763216126,65.3500002380998,30.299999988079));
#1656=CARTESIAN_POINT('Origin',(91.300000000051,67.6000002380998,30.299999988079));
#1657=CARTESIAN_POINT('Origin',(96.8353526431742,71.1760834786847,30.299999988079));
#1658=CARTESIAN_POINT('',(98.1999989122998,77.300000119236,30.299999988079));
#1659=CARTESIAN_POINT('',(88.653111618258,77.300000119236,30.299999988079));
#1660=CARTESIAN_POINT('',(99.6999989122999,75.800000119236,30.299999988079));
#1661=CARTESIAN_POINT('Origin',(98.1999989122998,75.800000119236,30.299999988079));
#1662=CARTESIAN_POINT('',(99.6999989122999,73.6999998569488,30.2999999880607));
#1663=CARTESIAN_POINT('',(99.6999989122999,70.1380412215319,30.299999988079));
#1664=CARTESIAN_POINT('',(98.6999989122999,73.6999998569488,30.2999999881036));
#1665=CARTESIAN_POINT('',(98.0176757775333,73.6999998569488,30.299999988079));
#1666=CARTESIAN_POINT('Origin',(97.1999989123427,73.6999998569489,30.2999999880634));
#1667=CARTESIAN_POINT('Origin',(99.6999989123054,67.4499998569488,20.9653384915846));
#1668=CARTESIAN_POINT('',(98.6167210207078,67.6928471634894,20.7224911850433));
#1669=CARTESIAN_POINT('',(98.6999989123052,67.1999998569488,21.215338491584));
#1670=CARTESIAN_POINT('Origin',(97.1999989123052,67.1999998569488,21.215338491583));
#1671=CARTESIAN_POINT('',(98.6999989123056,67.6999998569488,20.715338491584));
#1672=CARTESIAN_POINT('',(98.582831508303,67.6899364114391,20.7254019370937));
#1673=CARTESIAN_POINT('',(99.6999989122999,67.6999998569488,20.7153384915846));
#1674=CARTESIAN_POINT('',(99.6999989123056,67.6999998569488,20.7153384915846));
#1675=CARTESIAN_POINT('',(99.6999989122999,67.1999998569488,21.2153384915846));
#1676=CARTESIAN_POINT('',(99.6999989122999,67.6038341747496,20.8115041737838));
#1677=CARTESIAN_POINT('',(99.6999989123052,67.1999998569488,21.2153384915846));
#1678=CARTESIAN_POINT('Origin',(99.6999989122999,69.099998964379,22.0000003278116));
#1679=CARTESIAN_POINT('',(99.6999989122999,68.142052174046,20.7153384915846));
#1680=CARTESIAN_POINT('',(99.6999989122999,70.1499994106639,13.6000003725291));
#1681=CARTESIAN_POINT('',(99.6999989122999,73.1999998569488,20.7149995395541));
#1682=CARTESIAN_POINT('',(99.6999989122999,71.0749999569777,20.7149995395541));
#1683=CARTESIAN_POINT('',(99.6999989122999,73.6999998569488,21.2149995395541));
#1684=CARTESIAN_POINT('',(99.6999989122999,72.6212498308707,20.1362495134761));
#1685=CARTESIAN_POINT('',(99.6999989122999,73.6999998569488,20.8149995395541));
#1686=CARTESIAN_POINT('',(99.6999989122999,75.800000119236,33.799999988079));
#1687=CARTESIAN_POINT('',(99.6999989122999,75.800000119236,25.7000001579453));
#1688=CARTESIAN_POINT('',(99.6999989122999,62.2999998956821,33.799999988079));
#1689=CARTESIAN_POINT('',(99.6999989122999,76.300000119236,33.799999988079));
#1690=CARTESIAN_POINT('',(99.6999989122999,62.2999998956821,25.7000001579453));
#1691=CARTESIAN_POINT('',(99.6999989122999,67.1999998569488,25.4584621947527));
#1692=CARTESIAN_POINT('Origin',(99.1999989123025,67.1999998569488,25.2999999880787));
#1693=CARTESIAN_POINT('',(98.6999989123025,67.1999998569488,25.2999999880783));
#1694=CARTESIAN_POINT('Origin',(97.1999989123027,67.1999998569488,25.0323622479964));
#1695=CARTESIAN_POINT('Origin',(97.1999989123054,67.1999998569488,20.8441726873489));
#1696=CARTESIAN_POINT('Origin',(99.1749986330507,73.4499998569488,20.9649995395541));
#1697=CARTESIAN_POINT('',(98.6999989122999,73.6999998569488,21.2149995395541));
#1698=CARTESIAN_POINT('',(98.6142124743047,73.1999998569488,20.7149995396378));
#1699=CARTESIAN_POINT('Origin',(97.199998911953,73.6999998569489,21.2149995395542));
#1700=CARTESIAN_POINT('',(99.1749986330507,73.6999998569488,21.2149995395541));
#1701=CARTESIAN_POINT('',(99.1749986330507,73.1999998569488,20.7149995395541));
#1702=CARTESIAN_POINT('Origin',(99.1999989118924,73.6999998569488,19.7999999880822));
#1703=CARTESIAN_POINT('',(98.6999989122999,73.6999998569488,29.2999999881036));
#1704=CARTESIAN_POINT('Origin',(97.1999989119202,73.6999998569489,20.4499999938674));
#1705=CARTESIAN_POINT('Origin',(97.1999989119316,73.6999998569489,20.7149995396378));
#1706=CARTESIAN_POINT('Origin',(100.199998912306,66.8999993696808,20.715338491585));
#1707=CARTESIAN_POINT('',(98.6999989123056,68.4499998569488,20.715338491584));
#1708=CARTESIAN_POINT('Origin',(99.1499983542091,73.0500009495764,20.7149995395541));
#1709=CARTESIAN_POINT('Origin',(96.6999989122998,70.1499994106639,13.6000003725291));
#1710=CARTESIAN_POINT('',(96.6999989122998,70.1499994106639,10.6000003725291));
#1711=CARTESIAN_POINT('Origin',(89.1999999998593,73.1999998569488,24.8));
#1712=CARTESIAN_POINT('',(89.1999999998593,73.1999998569488,26.05));
#1713=CARTESIAN_POINT('Origin',(87.6000000000845,65.5000002381242,33.7999996185302));
#1714=CARTESIAN_POINT('',(96.6999989122998,59.2999998956821,33.7999996185302));
#1715=CARTESIAN_POINT('Origin',(96.6999989122998,62.2999998956821,33.7999996185302));
#1716=CARTESIAN_POINT('',(98.1999989122998,77.3000001192092,33.799999988079));
#1717=CARTESIAN_POINT('Origin',(98.1999989122998,75.800000119236,33.799999988079));
#1718=CARTESIAN_POINT('',(79.8000000000929,77.300000119236,33.799999988079));
#1719=CARTESIAN_POINT('',(82.5992946350786,77.300000119236,33.799999988079));
#1720=CARTESIAN_POINT('',(78.3000000000929,75.800000119236,33.799999988079));
#1721=CARTESIAN_POINT('Origin',(79.8000000000929,75.800000119236,33.799999988079));
#1722=CARTESIAN_POINT('',(78.3000000000929,62.2999998956821,33.7999996185302));
#1723=CARTESIAN_POINT('',(78.3000000000929,60.2999998956918,33.7999996185302));
#1724=CARTESIAN_POINT('',(81.3000000000929,59.2999998956821,33.7999996185302));
#1725=CARTESIAN_POINT('Origin',(81.3000000000929,62.2999998956821,33.7999996185302));
#1726=CARTESIAN_POINT('',(84.3580123834017,59.2999998956821,33.7999996185302));
#1727=CARTESIAN_POINT('',(84.8000000000846,75.3500002381242,33.7999996185302));
#1728=CARTESIAN_POINT('Origin',(84.8000000000846,74.1000002381242,33.7999996185302));
#1729=CARTESIAN_POINT('',(81.175000000051,67.6000002380998,33.7999996185302));
#1730=CARTESIAN_POINT('Origin',(84.800000000051,67.6000002380998,33.7999996185302));
#1731=CARTESIAN_POINT('',(83.550000000051,61.1000002380998,33.7999996185302));
#1732=CARTESIAN_POINT('Origin',(84.800000000051,61.1000002380998,33.7999996185302));
#1733=CARTESIAN_POINT('',(90.050000000051,67.6000002380998,33.7999996185302));
#1734=CARTESIAN_POINT('Origin',(91.300000000051,67.6000002380998,33.7999996185302));
#1735=CARTESIAN_POINT('Origin',(92.5961144731312,67.8967267106998,31.7999996185302));
#1736=CARTESIAN_POINT('',(91.300000000051,69.8500002380998,31.7999996185302));
#1737=CARTESIAN_POINT('',(87.8595093770502,69.8500002380998,31.7999996185302));
#1738=CARTESIAN_POINT('',(91.300000000051,65.3500002380998,31.7999996185302));
#1739=CARTESIAN_POINT('Origin',(91.300000000051,67.6000002380998,31.799999988079));
#1740=CARTESIAN_POINT('',(88.009815938776,65.3500002380998,31.7999996185302));
#1741=CARTESIAN_POINT('',(88.8598129229619,65.3500002380998,31.7999996185302));
#1742=CARTESIAN_POINT('',(87.490184653114,59.2999998956821,31.7999996185302));
#1743=CARTESIAN_POINT('',(88.0232272671392,65.5061466123239,31.7999996185302));
#1744=CARTESIAN_POINT('',(81.3000000000929,59.2999998956821,31.799999988079));
#1745=CARTESIAN_POINT('',(86.8560696199251,59.2999998956821,31.7999996185302));
#1746=CARTESIAN_POINT('',(78.3000000000929,62.2999998956821,31.799999988079));
#1747=CARTESIAN_POINT('Origin',(81.3000000000929,62.2999998956821,31.7999996185302));
#1748=CARTESIAN_POINT('',(78.3000000000423,75.800000119236,31.799999988079));
#1749=CARTESIAN_POINT('',(78.3000000000929,65.498363124312,31.7999996185302));
#1750=CARTESIAN_POINT('',(79.8000000000929,77.300000119236,31.799999988079));
#1751=CARTESIAN_POINT('Origin',(79.8000000000929,75.800000119236,31.7999996185302));
#1752=CARTESIAN_POINT('',(86.5334925332364,77.300000119236,31.7999996185302));
#1753=CARTESIAN_POINT('',(90.050000000051,67.6000002380998,31.7999996185302));
#1754=CARTESIAN_POINT('Origin',(91.300000000051,67.6000002380998,31.7999996185302));
#1755=CARTESIAN_POINT('',(81.175000000051,67.6000002380998,31.7999996185302));
#1756=CARTESIAN_POINT('Origin',(84.800000000051,67.6000002380998,31.7999996185302));
#1757=CARTESIAN_POINT('',(84.8000000000846,75.3500002381242,31.7999996185302));
#1758=CARTESIAN_POINT('Origin',(84.8000000000846,74.1000002381242,31.7999996185302));
#1759=CARTESIAN_POINT('',(83.550000000051,61.1000002380998,31.7999996185302));
#1760=CARTESIAN_POINT('Origin',(84.800000000051,61.1000002380998,31.7999996185302));
#1761=CARTESIAN_POINT('Origin',(81.3000000000929,62.2999998956821,29.399999988079));
#1762=CARTESIAN_POINT('',(81.3000000000929,59.2999998956821,29.399999988079));
#1763=CARTESIAN_POINT('',(78.3000000000929,62.2999998956821,32.7999996185302));
#1764=CARTESIAN_POINT('Origin',(78.3000000000929,63.0999995379242,29.399999988079));
#1765=CARTESIAN_POINT('',(78.3000000000929,75.800000119236,29.399999988079));
#1766=CARTESIAN_POINT('Origin',(79.8000000000929,75.800000119236,29.399999988079));
#1767=CARTESIAN_POINT('',(79.8000000000929,77.300000119236,30.399999988079));
#1768=CARTESIAN_POINT('Origin',(80.4708705933417,77.300000119236,29.399999988079));
#1769=CARTESIAN_POINT('',(98.1999989122998,77.3000001192092,31.899999988079));
#1770=CARTESIAN_POINT('Origin',(94.5999989122999,71.1999998569488,10.6000003725291));
#1771=CARTESIAN_POINT('',(86.5997060611242,69.6999998569488,10.6000003725291));
#1772=CARTESIAN_POINT('Origin',(97.4712710539536,68.1999998569488,20.8208732685471));
#1773=CARTESIAN_POINT('Origin',(91.300000000051,67.6000002380998,30.049999988079));
#1774=CARTESIAN_POINT('',(91.300000000051,65.3500002380998,28.8999996185302));
#1775=CARTESIAN_POINT('',(91.300000000051,69.8500002380998,28.8999996185302));
#1776=CARTESIAN_POINT('Origin',(87.67228132332,69.8500002380998,28.8999996185302));
#1777=CARTESIAN_POINT('Origin',(88.0294508198463,65.5786066374391,28.8999996185302));
#1778=CARTESIAN_POINT('',(87.490184653114,59.2999998956821,30.0999998033046));
#1779=CARTESIAN_POINT('',(88.0098159387759,65.3500002380998,29.8499996185302));
#1780=CARTESIAN_POINT('Origin',(91.300000000051,65.3500002380998,28.8999996185302));
#1781=CARTESIAN_POINT('Origin',(96.6999989122998,62.2999998956821,25.7000001579453));
#1782=CARTESIAN_POINT('',(96.6999989122998,59.2999998956821,25.7000001579453));
#1783=CARTESIAN_POINT('Origin',(81.116024766719,59.2999998956821,29.399999988079));
#1784=CARTESIAN_POINT('Origin',(84.800000000051,67.6000002380998,33.8999996185302));
#1785=CARTESIAN_POINT('',(81.175000000051,67.6000002380998,33.8999996185302));
#1786=CARTESIAN_POINT('Origin',(91.300000000051,67.6000002380998,33.8999996185303));
#1787=CARTESIAN_POINT('',(90.050000000051,67.6000002380998,33.8999996185303));
#1788=CARTESIAN_POINT('Origin',(84.800000000051,61.1000002380998,33.8999996185302));
#1789=CARTESIAN_POINT('',(83.550000000051,61.1000002380998,33.8999996185302));
#1790=CARTESIAN_POINT('Origin',(98.1999989122998,75.800000119236,25.7000001579453));
#1791=CARTESIAN_POINT('Origin',(87.1786063991985,68.1999998569488,21.5294508197953));
#1792=CARTESIAN_POINT('',(86.9499999998593,68.1999998569488,21.509815938725));
#1793=CARTESIAN_POINT('Origin',(86.9499999998593,68.1999998569488,24.8));
#1794=CARTESIAN_POINT('Origin',(83.5997060611242,70.8499989904347,19.950000075979));
#1795=CARTESIAN_POINT('',(83.5997060611242,71.0249994236917,13.6000003725291));
#1796=CARTESIAN_POINT('Origin',(86.5997060611242,71.0249994236917,13.6000003725291));
#1797=CARTESIAN_POINT('Origin',(89.1999999998593,70.6999998569488,18.3));
#1798=CARTESIAN_POINT('',(89.1999999998593,70.6999998569488,21.925));
#1799=CARTESIAN_POINT('Origin',(82.6999999998593,73.1999998569488,18.3));
#1800=CARTESIAN_POINT('',(82.6999999998593,73.1999998569488,19.55));
#1801=CARTESIAN_POINT('Origin',(95.6999999998593,70.6999998569488,18.3));
#1802=CARTESIAN_POINT('',(95.6999999998593,70.6999998569488,19.55));
#1803=CARTESIAN_POINT('Origin',(84.8000000000846,74.1000002381242,29.3999996185302));
#1804=CARTESIAN_POINT('',(84.8000000000846,75.3500002381242,29.3999996185302));
#1805=UNCERTAINTY_MEASURE_WITH_UNIT(LENGTH_MEASURE(0.01),#1809,
'DISTANCE_ACCURACY_VALUE',
'Maximum model space distance between geometric entities at asserted c
onnectivities');
#1806=UNCERTAINTY_MEASURE_WITH_UNIT(LENGTH_MEASURE(0.01),#1809,
'DISTANCE_ACCURACY_VALUE',
'Maximum model space distance between geometric entities at asserted c
onnectivities');
#1807=(
GEOMETRIC_REPRESENTATION_CONTEXT(3)
GLOBAL_UNCERTAINTY_ASSIGNED_CONTEXT((#1805))
GLOBAL_UNIT_ASSIGNED_CONTEXT((#1809,#1811,#1812))
REPRESENTATION_CONTEXT('','3D')
);
#1808=(
GEOMETRIC_REPRESENTATION_CONTEXT(3)
GLOBAL_UNCERTAINTY_ASSIGNED_CONTEXT((#1806))
GLOBAL_UNIT_ASSIGNED_CONTEXT((#1809,#1811,#1812))
REPRESENTATION_CONTEXT('','3D')
);
#1809=(
LENGTH_UNIT()
NAMED_UNIT(*)
SI_UNIT(.MILLI.,.METRE.)
);
#1810=(
LENGTH_UNIT()
NAMED_UNIT(*)
SI_UNIT($,.METRE.)
);
#1811=(
NAMED_UNIT(*)
PLANE_ANGLE_UNIT()
SI_UNIT($,.RADIAN.)
);
#1812=(
NAMED_UNIT(*)
SI_UNIT($,.STERADIAN.)
SOLID_ANGLE_UNIT()
);
#1813=SHAPE_DEFINITION_REPRESENTATION(#1814,#1815);
#1814=PRODUCT_DEFINITION_SHAPE('',$,#1817);
#1815=SHAPE_REPRESENTATION('',(#1099),#1807);
#1816=PRODUCT_DEFINITION_CONTEXT('part definition',#1821,'design');
#1817=PRODUCT_DEFINITION('Joint-L','Joint-L',#1818,#1816);
#1818=PRODUCT_DEFINITION_FORMATION('',$,#1823);
#1819=PRODUCT_RELATED_PRODUCT_CATEGORY('Joint-L','Joint-L',(#1823));
#1820=APPLICATION_PROTOCOL_DEFINITION('international standard',
'automotive_design',2009,#1821);
#1821=APPLICATION_CONTEXT(
'Core Data for Automotive Mechanical Design Process');
#1822=PRODUCT_CONTEXT('part definition',#1821,'mechanical');
#1823=PRODUCT('Joint-L','Joint-L',$,(#1822));
#1824=PRESENTATION_STYLE_ASSIGNMENT((#1825));
#1825=SURFACE_STYLE_USAGE(.BOTH.,#1826);
#1826=SURFACE_SIDE_STYLE('',(#1827));
#1827=SURFACE_STYLE_FILL_AREA(#1828);
#1828=FILL_AREA_STYLE('\X2\92FC\X0\ - \X2\30B530C630F3\X0\',(#1829));
#1829=FILL_AREA_STYLE_COLOUR('\X2\92FC\X0\ - \X2\30B530C630F3\X0\',#1830);
#1830=COLOUR_RGB('\X2\92FC\X0\ - \X2\30B530C630F3\X0\',0.627450980392157,
0.627450980392157,0.627450980392157);
ENDSEC;
END-ISO-10303-21;
