M48
; DRILL file {KiCad (5.1.8-0-10_14)} date Saturday, January 15, 2022 at 10:54:37 AM
; FORMAT={3:3/ absolute / metric / suppress trailing zeros}
; #@! TF.CreationDate,2022-01-15T10:54:37+09:00
; #@! TF.GenerationSoftware,Kicad,Pcbnew,(5.1.8-0-10_14)
; #@! TF.FileFunction,Plated,1,2,PTH
FMAT,2
METRIC,LZ
T1C0.400
T2C0.750
T3C0.800
T4C1.000
%
G90
G05
T1
X11416Y-08728
X115303Y-109378
X116573Y-1203
X1167Y-117887
X1167Y-13173
X117843Y-111537
X11797Y-11395
X118097Y-096678
X11924Y-101123
X11924Y-117887
X11924Y-1203
X119367Y-13173
X119748Y-094773
X12051Y-09998
X12051Y-106076
X120637Y-10887
X120637Y-11141
X120637Y-114077
X12103Y-117019
X12178Y-13173
X121907Y-116998
X121958Y-115601
X124193Y-115601
X12432Y-13173
X124447Y-116998
X124574Y-117887
X125463Y-095027
X125463Y-10125
X125463Y-10379
X125463Y-10633
X125463Y-108997
X125463Y-111537
X12686Y-08474
X12686Y-08728
X12686Y-13173
X127622Y-118649
X128003Y-092487
X12813Y-098837
X12813Y-10125
X12813Y-10379
X12813Y-10633
X12813Y-108997
X12813Y-11395
X1294Y-08474
X1294Y-08728
X1294Y-12411
X1294Y-13173
X13067Y-09617
X13067Y-098837
X13067Y-10125
X13067Y-10379
X13067Y-10633
X13067Y-11141
X13067Y-11395
X13194Y-12411
X13194Y-13173
X132956Y-093757
X134353Y-12411
X13448Y-0949
X13448Y-09744
X13448Y-1203
X13448Y-13173
X13702Y-0949
X13702Y-1203
X13702Y-12411
X13702Y-13173
X137782Y-099599
X139433Y-08601
X139433Y-08855
X13956Y-091217
X13956Y-09871
X13956Y-11141
X13956Y-12411
X13956Y-13173
X139687Y-10125
X139687Y-10379
X139687Y-10633
X141338Y-114839
X141338Y-116744
X1421Y-08601
X1421Y-08855
X1421Y-13173
X142227Y-09871
X142227Y-10125
X142227Y-10379
X142227Y-10633
X143243Y-11141
X14464Y-08601
X14464Y-08855
X144767Y-09871
X144767Y-10125
X144894Y-10379
X144894Y-10633
X146926Y-08855
X147307Y-09871
X147307Y-10125
X147307Y-10379
X147307Y-106457
X149847Y-10125
X149847Y-10379
X149847Y-106457
X152387Y-10125
X152387Y-10379
X152387Y-106457
X106825Y-09022
X106825Y-09276
X106825Y-0953
X106825Y-09784
X106825Y-10038
X106825Y-10292
X106825Y-10546
X106825Y-108
X106825Y-11054
X106825Y-11308
X106825Y-11562
X106825Y-11816
X106825Y-1207
X106825Y-12324
X106825Y-12578
X113175Y-09022
X113175Y-09276
X113175Y-0953
X113175Y-09784
X113175Y-10038
X113175Y-10292
X113175Y-10546
X113175Y-108
X113175Y-11054
X113175Y-11308
X113175Y-11562
X113175Y-11816
X113175Y-1207
X113175Y-12324
X113175Y-12578
T2
X13115Y-08785
X13315Y-08785
X13515Y-08785
X13715Y-08785
T3
X15Y-092
X15Y-094
X15Y-096
T4
X11924Y-08601
X12178Y-08601
X12432Y-08601
X14718Y-11014
X14972Y-11014
X15226Y-11014
X14718Y-11776
X14972Y-11776
X15226Y-11776
X14972Y-12538
X15226Y-12538
X10873Y-09022
X10873Y-09276
X10873Y-0953
X10873Y-09784
X10873Y-10038
X10873Y-10292
X10873Y-10546
X10873Y-108
X10873Y-11054
X10873Y-11308
X10873Y-11562
X10873Y-11816
X10873Y-1207
X10873Y-12324
X10873Y-12578
X11127Y-09022
X11127Y-09276
X11127Y-0953
X11127Y-09784
X11127Y-10038
X11127Y-10292
X11127Y-10546
X11127Y-108
X11127Y-11054
X11127Y-11308
X11127Y-11562
X11127Y-11816
X11127Y-1207
X11127Y-12324
X11127Y-12578
X11924Y-08982
X12178Y-08982
X12432Y-08982
X14718Y-11395
X14972Y-11395
X15226Y-11395
X14972Y-12157
X15226Y-12157
T3
G00X14965Y-0895
M15
G01X15035Y-0895
M16
G05
G00X14965Y-0985
M15
G01X15035Y-0985
M16
G05
T0
M30
