G04 #@! TF.GenerationSoftware,KiCad,Pcbnew,(5.1.8-0-10_14)*
G04 #@! TF.CreationDate,2022-01-15T10:54:34+09:00*
G04 #@! TF.ProjectId,M5_DirectServo,4d355f44-6972-4656-9374-536572766f2e,v1.0*
G04 #@! TF.SameCoordinates,Original*
G04 #@! TF.FileFunction,Soldermask,Top*
G04 #@! TF.FilePolarity,Negative*
%FSLAX46Y46*%
G04 Gerber Fmt 4.6, Leading zero omitted, Abs format (unit mm)*
G04 Created by KiCad (PCBNEW (5.1.8-0-10_14)) date 2022-01-15 10:54:34*
%MOMM*%
%LPD*%
G01*
G04 APERTURE LIST*
%ADD10O,1.200000X1.750000*%
%ADD11R,3.500000X2.800000*%
%ADD12R,1.350000X1.350000*%
%ADD13O,1.350000X1.350000*%
%ADD14R,1.700000X1.700000*%
%ADD15O,1.700000X1.700000*%
%ADD16C,1.700000*%
%ADD17C,1.000000*%
%ADD18C,0.800000*%
%ADD19R,3.150000X1.000000*%
%ADD20C,3.200000*%
%ADD21C,2.200000*%
G04 APERTURE END LIST*
G36*
G01*
X137750000Y-87224999D02*
X137750000Y-88475001D01*
G75*
G02*
X137500001Y-88725000I-249999J0D01*
G01*
X136799999Y-88725000D01*
G75*
G02*
X136550000Y-88475001I0J249999D01*
G01*
X136550000Y-87224999D01*
G75*
G02*
X136799999Y-86975000I249999J0D01*
G01*
X137500001Y-86975000D01*
G75*
G02*
X137750000Y-87224999I0J-249999D01*
G01*
G37*
D10*
X135150000Y-87850000D03*
X133150000Y-87850000D03*
X131150000Y-87850000D03*
D11*
X150000000Y-98500000D03*
D12*
X150000000Y-92000000D03*
D13*
X150000000Y-94000000D03*
X150000000Y-96000000D03*
D11*
X150000000Y-89500000D03*
D14*
X152260000Y-125380000D03*
D15*
X149720000Y-125380000D03*
X152260000Y-121570000D03*
D14*
X149720000Y-121570000D03*
D15*
X124320000Y-86010000D03*
X121780000Y-86010000D03*
D14*
X119240000Y-86010000D03*
X119240000Y-89820000D03*
D15*
X121780000Y-89820000D03*
X124320000Y-89820000D03*
D14*
X147180000Y-110140000D03*
D15*
X149720000Y-110140000D03*
X152260000Y-110140000D03*
X152260000Y-113950000D03*
X149720000Y-113950000D03*
D14*
X147180000Y-113950000D03*
X147180000Y-117760000D03*
D15*
X149720000Y-117760000D03*
X152260000Y-117760000D03*
D16*
X111270000Y-125780000D03*
X108730000Y-125780000D03*
X111270000Y-123240000D03*
X108730000Y-123240000D03*
X111270000Y-120700000D03*
X108730000Y-120700000D03*
X111270000Y-118160000D03*
X108730000Y-118160000D03*
X111270000Y-115620000D03*
X108730000Y-115620000D03*
X111270000Y-113080000D03*
X108730000Y-113080000D03*
X111270000Y-110540000D03*
X108730000Y-110540000D03*
X111270000Y-108000000D03*
X108730000Y-108000000D03*
X111270000Y-105460000D03*
X108730000Y-105460000D03*
X111270000Y-102920000D03*
X108730000Y-102920000D03*
X111270000Y-100380000D03*
X108730000Y-100380000D03*
X111270000Y-97840000D03*
X108730000Y-97840000D03*
X111270000Y-95300000D03*
X108730000Y-95300000D03*
X111270000Y-92760000D03*
X108730000Y-92760000D03*
X111270000Y-90220000D03*
X108730000Y-90220000D03*
D17*
X110000000Y-91490000D03*
D18*
X113175000Y-125780000D03*
X113175000Y-123240000D03*
X113175000Y-120700000D03*
X113175000Y-118160000D03*
X113175000Y-115620000D03*
X113175000Y-113080000D03*
X113175000Y-110540000D03*
X113175000Y-108000000D03*
X113175000Y-105460000D03*
X113175000Y-102920000D03*
X113175000Y-100380000D03*
X113175000Y-97840000D03*
X113175000Y-95300000D03*
X113175000Y-92760000D03*
X113175000Y-90220000D03*
X106825000Y-125780000D03*
X106825000Y-123240000D03*
X106825000Y-120700000D03*
X106825000Y-118160000D03*
X106825000Y-115620000D03*
X106825000Y-113080000D03*
X106825000Y-110540000D03*
X106825000Y-108000000D03*
X106825000Y-105460000D03*
X106825000Y-102920000D03*
X106825000Y-100380000D03*
X106825000Y-97840000D03*
X106825000Y-95300000D03*
X106825000Y-92760000D03*
D19*
X112525000Y-125780000D03*
X107475000Y-125780000D03*
X112525000Y-123240000D03*
X107475000Y-123240000D03*
X112525000Y-120700000D03*
X107475000Y-120700000D03*
X112525000Y-118160000D03*
X107475000Y-118160000D03*
X112525000Y-115620000D03*
X107475000Y-115620000D03*
X112525000Y-113080000D03*
X107475000Y-113080000D03*
X112525000Y-110540000D03*
X107475000Y-110540000D03*
X112525000Y-108000000D03*
X107475000Y-108000000D03*
X112525000Y-105460000D03*
X107475000Y-105460000D03*
X112525000Y-102920000D03*
X112525000Y-100380000D03*
X112525000Y-97840000D03*
X112525000Y-95300000D03*
X112525000Y-92760000D03*
X112525000Y-90220000D03*
D18*
X106825000Y-90220000D03*
D19*
X107475000Y-92760000D03*
X107475000Y-95300000D03*
X107475000Y-97840000D03*
X107475000Y-100380000D03*
X107475000Y-102920000D03*
X107475000Y-90220000D03*
D17*
X110000000Y-94030000D03*
X110000000Y-124510000D03*
X110000000Y-121970000D03*
D20*
X107000000Y-130000000D03*
X107000000Y-86000000D03*
X151000000Y-86000000D03*
X151000000Y-130000000D03*
D21*
X111000000Y-130000000D03*
X111000000Y-86000000D03*
X147000000Y-86000000D03*
X147000000Y-130000000D03*
M02*
